<svg xmlns="http://www.w3.org/2000/svg" viewBox="0 0 77.5 53.68"><defs><style>.cls-1{fill:#b3c757;}.cls-2{fill:#fff;}</style></defs><title>Asset 4</title><g id="Layer_2" data-name="Layer 2"><g id="Layer_1-2" data-name="Layer 1"><path class="cls-1" d="M34.16,2.13a19.54,19.54,0,0,1,6,2.74h0c.18.13.37.26.54.4h0l-.05,0-.06,0-.14,0-.05,0C37.75,6.32,21,12.58,23.14,17.14s8.08,4.11,17.21,5.25C53.52,24,28.78,26.24,17.71,31c-.32.14-15.17,6.23,6,9.88C46,44.71,24.92,46.21,18,47.39c-3,.52-5.3.23-10.42,1.88C2,51.06.56,53.55,0,53.68H73c1.08-1.48,3-3,3.28-4.25a4.26,4.26,0,0,0,.06-2.23C75,39.05,56.56,36.38,48.74,34.49c-10.82-2.62,1.38-5.26,4.52-6.23,31.68-8.87-11.43-12.65-11.43-12.65-9.07-1.63-5.92-4.85-1.24-7.43l.55-.3.2-.1c.17-.09.34-.18.52-.26l.2-.11.55-.26.17-.08c.47-.23.95-.45,1.42-.65l.18-.08.5-.22L45.1,6l.45-.19.22-.09c2-.83,3.55-1.36,3.55-1.36,2.83-.78,5.61-1.54,8.66-2.21-.29-.66-.56-1.4-.83-2.18H35C34.72.75,34.44,1.46,34.16,2.13Z"/><path class="cls-2" d="M17.7,0C21,.06,28.23.38,34.16,2.13h0c.28-.66.56-1.38.82-2.13Z"/><path class="cls-2" d="M58,2.18l-.12,0A100.05,100.05,0,0,1,77.5,0H57.15C57.42.78,57.69,1.52,58,2.18Z"/></g></g></svg>