<svg xmlns="http://www.w3.org/2000/svg" viewBox="0 0 127.01 151.18"><defs><style>.cls-1{opacity:0.08;}.cls-2{fill:#b3c757;}.cls-3{fill:#693b94;}</style></defs><title>Asset 10</title><g id="Layer_2" data-name="Layer 2"><g id="Layer_1-2" data-name="Layer 1"><g class="cls-1"><path class="cls-2" d="M117.84,56.4l.09-.56c-1.81,3.23-6.23,4.93-10.26,4.3a7.12,7.12,0,0,0,.77-6.35,6.05,6.05,0,0,1-2.75,5.89A8.66,8.66,0,0,1,101.37,56c4-2.67,4.3-6.61.51-9.94,2.71-3.4,9.92-3.46,12.06-.19-.87-2.68-4-4.46-6.1-4.65a7,7,0,0,0,0-8.56A6.51,6.51,0,0,1,104.73,41a7.37,7.37,0,0,0-6.24-2.64,7,7,0,0,1,4.81,3.15,12,12,0,0,0-3.72,2.79c-3.56-3.49-19.25-5.49-14.85-12,2.84-3,7-6.05,10.89-2.64A7.59,7.59,0,0,0,92.14,27c6.42-2.61,9-2.21,9.91.71.06-3.91-4.75-4.48-6.78-4a6.26,6.26,0,0,0-3.09-7.29c5.18,6.77-3.54,8.45-7.71,12.12a18.24,18.24,0,0,0-3.23-2.07c-1-1.77-1.91-5.25-.42-7.59a7.91,7.91,0,0,0-2,6.39c-3.45-1.74-8.83-2.48-9-7.38A8,8,0,0,0,70,21.44a46.81,46.81,0,0,1-5.3-2.56c1.68-2.54,1-5.63-.88-7.9C66.35,8.59,71.24,8.2,76.2,9.14c-1.59-1.76-10.92-3.62-14,.29a8.55,8.55,0,0,0-2.77-1.38,4.73,4.73,0,0,1,2-3.52,5.71,5.71,0,0,0-3.26,3.22c-3.84-1-9,1.61-9.33,2,4.58-.94,9.44-.48,11.84,1.38a6.32,6.32,0,0,0,.23,8,29.45,29.45,0,0,1-4.22,2.2,8.4,8.4,0,0,0,.1-3.28c.09,4.47-5.25,5.35-8.58,7a8,8,0,0,0-2.07-6.2C47.53,21,47,23.94,46,26a33,33,0,0,0-3.84,2c-3.93-3.21-12.43-5.22-7.28-11.71a6.27,6.27,0,0,0-3.09,7.3c-2-.46-6.84.11-6.78,4,.91-2.91,3.5-3.32,9.91-.7a7.52,7.52,0,0,0-3.47,2.6c4-4.11,10.46,1.17,11.78,4.25C42.94,39.52,32,40.43,27.42,44.2a11.84,11.84,0,0,0-3.71-2.78,6.91,6.91,0,0,1,4.81-3.15,7.34,7.34,0,0,0-6.24,2.63,6.5,6.5,0,0,1-3.13-8.37,7,7,0,0,0,0,8.56c-2.05.19-5.23,2-6.1,4.66,2.13-3.27,9.36-3.21,12.06.19-3.76,3.32-3.53,7.27.5,9.93a8.57,8.57,0,0,1-4.32,3.73,6,6,0,0,1-2.74-5.89,7.12,7.12,0,0,0,.77,6.35c-4.05.63-8.45-1.07-10.26-4.3a7.19,7.19,0,0,0,4.78,6.3A6.94,6.94,0,0,0,11.64,69C13,60.76,25.17,64.79,28.17,57.27c5.4,2.7,10.84,2.4,16.3,5.35a8.05,8.05,0,0,0,2.68,4c-1.3,3.93-8.14,10-13.23,7.82a6.06,6.06,0,0,1,1.83-6.32,7.16,7.16,0,0,0-3.69,5.68c-3.21-1.73-5.37-4.29-5.46-7.44a7.27,7.27,0,0,0,.31,5.15c-.93-.07-2.64.75-3.84,1.21,4.38-1.07,7.05,4,10.91,4.69a33.31,33.31,0,0,0-3.11,1.86c-7.52-5.81-15,4.67-21.09-3.57A7.93,7.93,0,0,0,16,81.16c-1.31,1.17-3.22,5.2-1.89,8.51-.47-3.37,2.33-6.5,5.14-8.31h.1V81.3a8.47,8.47,0,0,1,4.91-1.49,6.94,6.94,0,0,0-2.15,4.84,5.85,5.85,0,0,1,4.77-4.4,13,13,0,0,1,1.79.7c-4.28,4-2.71,8.14,2.28,11.2-2.4,3-7,6.17-12.3,3.13a8,8,0,0,0,8.75,2.16,8.6,8.6,0,0,0,2.16,8c-2.22-5.61.25-8.67,3.63-12.08,4.26,2.06,7.49,2.59,11.57,4.32-2.55,3.15-.69,6.83,2.27,9-3.48-.23-7.19-.81-8.58-3.48,1,5.6,8.49,6.26,11.87,5.66,2.63,1.43,3.66,1.89,5.75,4.7.13,2.47-.65,25.42-4.86,37.6H73.4a83.94,83.94,0,0,1-3-12.2c-1.83-14.83-5.61-24.88,6.34-30.09,3.35.64,10.86-.25,11.75-5.67-1.38,2.64-5,3.24-8.48,3.47,2.91-2.19,4.69-5.83,2.16-8.93,4.06-1.71,7.37-2.29,11.58-4.33,3.39,3.42,5.84,6.49,3.62,12.09a8.58,8.58,0,0,0,2.17-8,8,8,0,0,0,8.75-2.16c-5.29,3-9.9-.12-12.3-3.14,5-3.06,6.56-7.22,2.28-11.2a11.8,11.8,0,0,1,1.79-.69,5.84,5.84,0,0,1,4.77,4.4,6.92,6.92,0,0,0-2.15-4.84,8.25,8.25,0,0,1,4.91,1.49v.06h.1c2.8,1.79,5.61,4.93,5.14,8.3,1.33-3.31-.58-7.33-1.89-8.5a7.91,7.91,0,0,0,6.24-5.5c-6.12,8.24-13.57-2.24-21.09,3.57A33.83,33.83,0,0,0,93,77.44c3.86-.69,6.54-5.76,10.91-4.69-1.19-.45-2.87-1.27-3.84-1.21a7.26,7.26,0,0,0,.32-5.15c-.09,3.14-2.27,5.73-5.47,7.44a7.16,7.16,0,0,0-3.68-5.67,6.08,6.08,0,0,1,1.82,6.32c-3.9,2-9-2.37-11.25-4.25h0A7.73,7.73,0,0,1,80,67.67c2.58-1.87,3.92-3.78,4.1-5.82,4.88-1.85,10-2.23,14.71-4.5,3,7.5,15.19,3.52,16.53,11.7a7,7,0,0,0-2.22-6.92A7,7,0,0,0,117.84,56.4ZM26.89,53.24c-2.06-1.53-2-3-.07-4.94C27.74,50.06,27.45,51.34,26.89,53.24ZM62.41,13.11c.82,2,1.2,2.76.37,4.29C61.44,15.85,61.75,15.15,62.41,13.11ZM32.25,89.54c-3.41-2.26-4.4-4.18-1.19-6.85a7.84,7.84,0,0,1,1.41,3.81A13.39,13.39,0,0,1,32.25,89.54Zm8.84,3.74a47.33,47.33,0,0,1-6.57-2.51c.86-3.53.82-6.17-1.4-9.56,4.19-2.53,9.38-4.8,12.6-7.66l0,0a25.38,25.38,0,0,0,3.85-5.17c3.74,2,6.34,3.73,8.78,7.58-6.79-1.61-8.88,6.46-14.85,6.72,1.2.26,2.93.8,3.84.61a7,7,0,0,0,.45,5c-.38-3,1.32-5.77,4.12-7.86a6.91,6.91,0,0,0,4.34,4.88,5.86,5.86,0,0,1-2.66-5.76,13.1,13.1,0,0,1,5.94-1.26C61,82.11,61,84.44,61.05,89c-4.57,2.47-9.22,3.36-14,6.56A38.52,38.52,0,0,0,41.09,93.28ZM61.74,56.44A5.79,5.79,0,0,0,64,57c-.77,1.72-2,3.59-2,5.73-4.93.63-8.23-5.64-13.49-3.66,5.14-4,10.54-4.55,15.74-7.75A31.71,31.71,0,0,0,67.39,53c-2.14,1.6-4,3.6-6.84,3Zm-10.83,5a6.37,6.37,0,0,0,0,4.35c-.43-.28-.77-.52-1.08-.76A7.37,7.37,0,0,0,48,61.85,8.89,8.89,0,0,1,50.91,61.44ZM80.55,101c-1.73,5.6-9.43,6-13,11.51-2.32-4.84-7.15-4.91-9.84-1.54-2.65-4.39-10.3-5.19-11.22-10.08,2.38-5.88,12.14-6.42,17-10a43.91,43.91,0,0,0,5.71,2.78c-3,1.06-5,4.79-8.64,3.92a11.67,11.67,0,0,0,3.42,1c-1,2.14-2.66,4.74-1.76,7.36.56-4.32,4-9.71,9.3-10.32a5.26,5.26,0,0,1,.1,5.57,6.33,6.33,0,0,0,1.54-5.63C77.12,96.36,80.84,99.63,80.55,101ZM96,82.77c3.21,2.67,2.22,4.59-1.19,6.85a14.11,14.11,0,0,1-.22-3.17A8.25,8.25,0,0,1,96,82.77ZM86.22,77v0c2.73,1.69,4.82,2.52,7.66,4.3-2.22,3.41-2.26,6-1.4,9.56-4.72,2.29-8,2.56-12.53,4.8-5.08-3.38-9.17-3.82-14.11-6.89.48-5,.27-6.72,1.91-9.94a9.5,9.5,0,0,1,5.85.71A5.83,5.83,0,0,1,71,85.3a6.88,6.88,0,0,0,4.34-4.89c2.76,2.09,4.48,4.69,4.13,7.86a7,7,0,0,0,.45-5c.88.2,2.65-.35,3.84-.61C78,82.65,76,74.86,69.71,76a19.91,19.91,0,0,1,7.87-6.71,10.93,10.93,0,0,0,2,2.77l0,0A77.69,77.69,0,0,0,86.22,77ZM77,66.23c-6.63,2.73-12.51,9-13.37,16.62-1-7.3-6.16-14.08-12.2-16.73a5.42,5.42,0,0,1,1.23-4.44c3.7.84,6.44,3.54,6.71,6.81A6.38,6.38,0,0,0,58.93,64a10.16,10.16,0,0,0,3-1.09,7.83,7.83,0,0,0,.26,1.51c.45-3.87,3.58-9,8.14-10.07,3.15,1.45,8.33,2.8,10.58,6A7.94,7.94,0,0,0,77,66.23ZM83.5,59c-1.23-2.23-4-3.84-6.37-5,3.73.37,5.75,2.36,8.35,4.28C84.81,58.5,84.15,58.72,83.5,59Zm14.06-4.22c-2.35.84-6.91,3.23-10.11,1.87a5.21,5.21,0,0,1,1.93-5.35A6.2,6.2,0,0,0,85.88,56c-2.68-1.61-4.32-3.86-4.26-6.56a6.06,6.06,0,0,0,.23,4.79,28.16,28.16,0,0,0-4.76-.44l0,.23c-.41-.19-8-3.45-9.18-4.09,0,0,0-.14.05-.17-4.74-2.08-12.81-8.59-10-14.6a5.71,5.71,0,0,0-1.76,3.7A11.29,11.29,0,0,0,53,38.25c4.21,1.54,5,8.56,9.34,10.87-5.59,3.48-13.93,4-17.62,10.32a18.82,18.82,0,0,0-3.17-1.22c2.6-1.94,4.67-3.92,8.42-4.29l0-.25a29.25,29.25,0,0,0-4.76.44,6,6,0,0,0,.23-4.78c.07,2.7-1.59,5-4.26,6.56a6.2,6.2,0,0,0-3.49-4.7,5.22,5.22,0,0,1,1.92,5.35c-3.22,1.36-7.77-1-10.11-1.86,1-3,1.32-5.36-.31-8.15,5.26-4,22.66-6.5,14.92-16.34A4.23,4.23,0,0,1,49.15,30a7.74,7.74,0,0,0-2-1.33c5.37-2.59,11-4.11,15.79-7.76,6.39,4.26,12.82,5.41,19.46,9.73A5.68,5.68,0,0,0,81,33.73c-3.11-1.8-7.94.59-10.57-2.57a12,12,0,0,0,2.11,2.9,6.38,6.38,0,0,0-2.89,3.52c2.38-2.95,6.86-3.42,10.68-1.32a5.27,5.27,0,0,1-3.3,4.5,6.34,6.34,0,0,0,4.64-3.55c3.71,5.13,11.54,6,16.24,9.4C96.24,49.4,96.51,51.78,97.56,54.76Zm2.56-1.43c-.57-1.91-.85-3.19.07-4.95C102.17,50.29,102.18,51.79,100.12,53.33Z"/><path class="cls-3" d="M62,7.63a2.18,2.18,0,0,1-1.19-.32,2.72,2.72,0,0,1-1-1.26.33.33,0,0,1,0-.23h-.09l-.07,0a2.34,2.34,0,0,1-.92-1.53A2.5,2.5,0,0,1,60,1.81a4.5,4.5,0,0,1,2.46-.63l.84,0c.3,0,.61,0,.93,0A7.72,7.72,0,0,0,66.77.83l.88-.3-.61.7a8.87,8.87,0,0,0-1.69,3.09,5.32,5.32,0,0,1-1.82,2.82A2.56,2.56,0,0,1,62,7.63Z"/><path class="cls-2" d="M66.85,1.07c-2.08,2.38-1.51,4.43-3.47,5.86A2.32,2.32,0,0,1,62,7.38a2,2,0,0,1-1-.28A2.5,2.5,0,0,1,60.05,6,5.94,5.94,0,0,1,61.4,4.44h0a7.68,7.68,0,0,0,1,.09,3.48,3.48,0,0,0,2.41-.88,3.67,3.67,0,0,1-2.18.72,2.2,2.2,0,0,1-1-.17A13.43,13.43,0,0,1,66,1.66,13.92,13.92,0,0,0,60.6,4.88h0a3,3,0,0,1,1-3,3.28,3.28,0,0,0-1.27,3.19,3.62,3.62,0,0,1-.54.49h0A2.11,2.11,0,0,1,59,4.21,2.28,2.28,0,0,1,60.1,2a4.26,4.26,0,0,1,2.33-.59c.56,0,1.14.06,1.77.06a8,8,0,0,0,2.65-.42M68.45,0,66.69.59A7.47,7.47,0,0,1,64.2,1c-.32,0-.62,0-.92,0l-.85,0a4.74,4.74,0,0,0-2.59.66,2.77,2.77,0,0,0-1.32,2.7,2.56,2.56,0,0,0,1,1.69.42.42,0,0,0,0,.14,3,3,0,0,0,1.1,1.41A2.54,2.54,0,0,0,62,7.88a2.82,2.82,0,0,0,1.68-.54,5.52,5.52,0,0,0,1.9-2.93,8.49,8.49,0,0,1,1.65-3L68.45,0Z"/><path class="cls-3" d="M11.35,97.85a14.54,14.54,0,0,0-1.5-5.57,8.5,8.5,0,0,1-1-5.25,3.92,3.92,0,0,1,2.86-3.13,4.17,4.17,0,0,1,.8-.08,3.34,3.34,0,0,1,1.95.56c.16.13.15.22-.08.77.25-.41.48-.71.66-.72h.12a4.35,4.35,0,0,1,2.27.74,3.94,3.94,0,0,1,1.27,4,8.44,8.44,0,0,1-3.15,4.32A14.61,14.61,0,0,0,11.82,98l-.43.83Zm2-9.95,0,0v0Zm.53-1.9,0,0,0-.08-.09,0Z"/><path class="cls-2" d="M12.49,84.07a3.08,3.08,0,0,1,1.8.51,5.83,5.83,0,0,1-.43,1.12s-3.41.6-4.07,3.8a5,5,0,0,1,3.85-3.37s0,0,0,0c-.8,2-2.18,6.43-1.7,10a22,22,0,0,1,1.3-8h0a5.68,5.68,0,0,1,1,5.14c1.18-2.93-.87-5.57-.82-5.67A9.11,9.11,0,0,1,15,84.68h.12a4,4,0,0,1,2.12.69,3.67,3.67,0,0,1,1.18,3.78c-1,3.8-4.47,4.14-6.84,8.69C11.37,92.71,8.39,91,9.08,87.08a3.68,3.68,0,0,1,2.66-2.94,3.67,3.67,0,0,1,.75-.07m0-.5h0a4.71,4.71,0,0,0-.85.08A4.17,4.17,0,0,0,8.59,87a8.62,8.62,0,0,0,1,5.39,13.88,13.88,0,0,1,1.48,5.48l.08,1.86L12,98.07a14,14,0,0,1,3.66-4.34,8.74,8.74,0,0,0,3.22-4.45A4.21,4.21,0,0,0,17.55,85a4.54,4.54,0,0,0-2.41-.78H15a.61.61,0,0,0-.28.12.43.43,0,0,0-.12-.11,3.47,3.47,0,0,0-2.1-.62Z"/><path class="cls-3" d="M115.19,98a14.49,14.49,0,0,0-3.71-4.41,8.47,8.47,0,0,1-3.15-4.33,4,4,0,0,1,1.27-4.05,4.35,4.35,0,0,1,2.28-.74H112c.17,0,.41.31.65.72-.22-.54-.24-.65-.08-.77a3.28,3.28,0,0,1,2-.56,4.15,4.15,0,0,1,.79.07,4,4,0,0,1,2.86,3.14,8.51,8.51,0,0,1-1,5.25,14.48,14.48,0,0,0-1.5,5.57l0,.93ZM113.65,88h0v0Zm-.55-1.88,0,0-.08,0Z"/><path class="cls-2" d="M114.53,84.15a3.36,3.36,0,0,1,3.4,3c.69,3.87-2.29,5.64-2.52,10.77-2.37-4.56-5.82-4.89-6.84-8.69a3.68,3.68,0,0,1,1.18-3.79,4.07,4.07,0,0,1,2.13-.69H112a9.48,9.48,0,0,1,1.53,2.93c0,.1-2,2.73-.83,5.66a5.65,5.65,0,0,1,1-5.13h0a22,22,0,0,1,1.3,8c.48-3.63-.9-8-1.7-10,0,0,0,0,0,0a5,5,0,0,1,3.86,3.36c-.66-3.19-4.06-3.75-4.07-3.79a6.12,6.12,0,0,1-.43-1.12,3.09,3.09,0,0,1,1.81-.51m0-.5a3.54,3.54,0,0,0-2.11.61.77.77,0,0,0-.13.12.49.49,0,0,0-.27-.12h-.14a4.62,4.62,0,0,0-2.43.79,4.2,4.2,0,0,0-1.36,4.32,8.67,8.67,0,0,0,3.22,4.44A14.22,14.22,0,0,1,115,98.15l.86,1.65.08-1.86a14,14,0,0,1,1.48-5.48,8.64,8.64,0,0,0,1-5.4,4.18,4.18,0,0,0-3.06-3.33,4.58,4.58,0,0,0-.83-.08Z"/><path class="cls-3" d="M20.88,102.64a8.47,8.47,0,0,1-5-1.92,14.35,14.35,0,0,0-5.22-2.45l-.91-.21.89-.28a14.36,14.36,0,0,0,5-2.88,8.54,8.54,0,0,1,4.81-2.33l.35,0a3.92,3.92,0,0,1,3.42,2,3.64,3.64,0,0,1,.24,2.77l-.07.16h-.23a3.39,3.39,0,0,1-.45,0c.45.13.79.27.84.43a4.22,4.22,0,0,1-.09,2.51,3.93,3.93,0,0,1-3.58,2.27Zm1.95-5.41,0,0v0Zm-2-.07,0,0h0Z"/><path class="cls-2" d="M20.8,92.8A3.66,3.66,0,0,1,24,94.64a3.39,3.39,0,0,1,.23,2.57s0,0-.06,0-.55-.06-1.13-.13c0,0-1.38-3-4.44-3h-.27A4.89,4.89,0,0,1,22.56,97h0a29.43,29.43,0,0,0-3.23-.18A18.86,18.86,0,0,0,12.41,98a20,20,0,0,1,6.25-.89c.68,0,1.31,0,1.86.08a5.57,5.57,0,0,1-4.66,2.31h0q.31,0,.63,0c2.77,0,4.53-2.29,4.63-2.29h0a9.39,9.39,0,0,1,3.23.72,4.09,4.09,0,0,1-.09,2.34,3.67,3.67,0,0,1-3.35,2.11c-3.93,0-5.15-3.25-10.16-4.37,4.9-1.54,5.84-4.87,9.75-5.2l.33,0m0-.5h0l-.37,0a8.67,8.67,0,0,0-4.94,2.39,14.17,14.17,0,0,1-4.92,2.83L8.8,98.1l1.81.41a14,14,0,0,1,5.14,2.42,8.66,8.66,0,0,0,5.13,2,4.15,4.15,0,0,0,3.82-2.43,4.44,4.44,0,0,0,.09-2.67.54.54,0,0,0-.19-.25.35.35,0,0,0,.09-.15,3.87,3.87,0,0,0-.25-3A4.17,4.17,0,0,0,20.8,92.3Z"/><path class="cls-3" d="M106.13,102.72a4,4,0,0,1-3.59-2.27,4.3,4.3,0,0,1-.08-2.51c.05-.16.4-.31.86-.43l-.47,0h-.16l-.14-.17a3.67,3.67,0,0,1,.24-2.78,3.93,3.93,0,0,1,3.43-2h.34a8.43,8.43,0,0,1,4.8,2.34,14.51,14.51,0,0,0,5,2.88l.89.28-.91.21a14.19,14.19,0,0,0-5.22,2.45,8.51,8.51,0,0,1-5,1.92Zm-1.95-5.41h0v0S104.19,97.3,104.18,97.31Zm2-.07v0h0Z"/><path class="cls-2" d="M106.22,92.88h.32c3.91.34,4.85,3.67,9.75,5.21-5,1.12-6.23,4.37-10.16,4.37h0a3.67,3.67,0,0,1-3.35-2.11,4.09,4.09,0,0,1-.09-2.34,9.13,9.13,0,0,1,3.23-.72h0c.1,0,1.86,2.29,4.63,2.29a4.54,4.54,0,0,0,.63,0h0a5.61,5.61,0,0,1-4.66-2.3c.56,0,1.2-.08,1.88-.08a19.82,19.82,0,0,1,6.23.89,18.57,18.57,0,0,0-6.91-1.13,27.12,27.12,0,0,0-3.23.18h0a4.87,4.87,0,0,1,4.24-2.9h-.27c-3.07,0-4.4,3-4.44,3-.58.07-1,.13-1.13.13h-.07a3.42,3.42,0,0,1,.24-2.58,3.66,3.66,0,0,1,3.2-1.83m0-.5a4.17,4.17,0,0,0-3.65,2.11,3.9,3.9,0,0,0-.25,3,.56.56,0,0,0,.1.15.51.51,0,0,0-.2.25,4.44,4.44,0,0,0,.09,2.67,4.2,4.2,0,0,0,3.82,2.43,8.67,8.67,0,0,0,5.13-2,14.14,14.14,0,0,1,5.14-2.41l1.81-.41-1.77-.56a13.93,13.93,0,0,1-4.92-2.84,8.71,8.71,0,0,0-4.94-2.39Z"/><path class="cls-3" d="M27.06,112.43a14.46,14.46,0,0,0-2.36-5.27,8.39,8.39,0,0,1-1.83-5A3.9,3.9,0,0,1,25.2,98.6a4.3,4.3,0,0,1,1.43-.25,2.87,2.87,0,0,1,1.36.3c.18.1.18.19,0,.77.17-.44.35-.78.52-.81a2.9,2.9,0,0,1,.62-.06A4.4,4.4,0,0,1,31,99a3.94,3.94,0,0,1,1.89,3.8,8.52,8.52,0,0,1-2.42,4.77,14.34,14.34,0,0,0-3,4.94l-.3.88Zm.41-10.14,0,0v0h0Zm.25-1.94,0-.09-.08,0Z"/><path class="cls-2" d="M26.63,98.6a2.58,2.58,0,0,1,1.24.27,5.8,5.8,0,0,1-.24,1.17s-3.28,1.13-3.43,4.39a5,5,0,0,1,3.3-3.93s0,0,0,0c-.47,2.12-1.14,6.68-.09,10.18a21.64,21.64,0,0,1,0-8.15h0a5.64,5.64,0,0,1,1.82,4.91c.7-3.08-1.73-5.36-1.71-5.46a9.28,9.28,0,0,1,1.05-3.14,2.43,2.43,0,0,1,.56,0,4.3,4.3,0,0,1,1.76.37,3.7,3.7,0,0,1,1.75,3.56c-.4,3.91-3.75,4.79-5.38,9.65-1-5-4.25-6.3-4.18-10.23a3.64,3.64,0,0,1,2.16-3.31,3.88,3.88,0,0,1,1.35-.24m0-.5h0a4.35,4.35,0,0,0-1.52.27,4.18,4.18,0,0,0-2.49,3.77,8.64,8.64,0,0,0,1.87,5.16,14.09,14.09,0,0,1,2.32,5.18l.37,1.83.59-1.77a14.14,14.14,0,0,1,2.93-4.86,8.72,8.72,0,0,0,2.48-4.9,4.19,4.19,0,0,0-2-4,4.58,4.58,0,0,0-2-.43,3.48,3.48,0,0,0-.67.06.53.53,0,0,0-.25.17l-.13-.09a3,3,0,0,0-1.49-.34Z"/><path class="cls-3" d="M99.47,112.54a14.5,14.5,0,0,0-3-5,8.46,8.46,0,0,1-2.42-4.76A3.94,3.94,0,0,1,96,99a4.35,4.35,0,0,1,1.86-.41,2.9,2.9,0,0,1,.62.06c.17,0,.35.37.53.81-.14-.57-.14-.68,0-.77a2.87,2.87,0,0,1,1.35-.29,4.06,4.06,0,0,1,1.43.25,3.92,3.92,0,0,1,2.33,3.54,8.44,8.44,0,0,1-1.83,5,14.62,14.62,0,0,0-2.36,5.27l-.18.91Zm.07-10.17h0v0Zm-.25-1.94,0-.06-.07,0Z"/><path class="cls-2" d="M100.38,98.68a4.12,4.12,0,0,1,1.35.23,3.67,3.67,0,0,1,2.16,3.32c.07,3.93-3.15,5.21-4.18,10.23-1.63-4.87-5-5.75-5.38-9.66a3.68,3.68,0,0,1,1.75-3.55,4.11,4.11,0,0,1,1.75-.38,2.49,2.49,0,0,1,.57.06,9.28,9.28,0,0,1,1,3.13c0,.11-2.42,2.39-1.71,5.47a5.62,5.62,0,0,1,1.82-4.91h0a21.64,21.64,0,0,1,0,8.15c1-3.5.38-8.06-.09-10.19,0,0,0,0,0,0a5,5,0,0,1,3.3,3.94c-.15-3.26-3.42-4.35-3.43-4.39A5.8,5.8,0,0,1,99.14,99a2.58,2.58,0,0,1,1.24-.27m0-.5a3.08,3.08,0,0,0-1.48.33.67.67,0,0,0-.14.09.53.53,0,0,0-.26-.16,3.28,3.28,0,0,0-.67-.07,4.58,4.58,0,0,0-2,.44,4.2,4.2,0,0,0-2,4,8.65,8.65,0,0,0,2.48,4.9,14,14,0,0,1,2.92,4.87l.59,1.77.38-1.83a13.93,13.93,0,0,1,2.32-5.18,8.64,8.64,0,0,0,1.87-5.16,4.21,4.21,0,0,0-2.49-3.78,4.58,4.58,0,0,0-1.52-.26Z"/><path class="cls-3" d="M9.5,82.19A4.06,4.06,0,0,1,7,81.36a8.53,8.53,0,0,1-2.78-4.57,14.51,14.51,0,0,0-2.64-5.13L1,71l.87.32a13.31,13.31,0,0,0,4.75.78l1,0h.91a7.44,7.44,0,0,1,4.33,1.09A4,4,0,0,1,14.63,77a3.63,3.63,0,0,1-1.51,2.35l-.06,0H13c-.13,0-.19,0-.53-.39.28.38.46.7.4.86a4.37,4.37,0,0,1-1.6,1.94,3.5,3.5,0,0,1-1.76.44Zm2.38-3.93v-.1l-.08,0ZM10.29,77h0l0,0Z"/><path class="cls-2" d="M1.8,71.5a13.18,13.18,0,0,0,4.83.8c.65,0,1.28,0,1.88,0a7.17,7.17,0,0,1,4.19,1,3.66,3.66,0,0,1,1.68,3.59A3.42,3.42,0,0,1,13,79.09h0a6.68,6.68,0,0,1-.86-.82s.76-3.38-1.94-5.22a4.9,4.9,0,0,1,1.6,4.89h0c-1.56-1.52-5.09-4.49-8.62-5.44a21.86,21.86,0,0,1,6.92,4.3A3.3,3.3,0,0,1,8.62,77,5.9,5.9,0,0,1,5,75.77,5.61,5.61,0,0,0,9,77.3a13.54,13.54,0,0,0,1.46-.11h0a9.45,9.45,0,0,1,2.12,2.54,4,4,0,0,1-1.5,1.8,3.12,3.12,0,0,1-1.63.41,3.79,3.79,0,0,1-2.32-.78c-3.11-2.4-2.1-5.71-5.38-9.66M.23,70.4l1.18,1.42A14.2,14.2,0,0,1,4,76.87a8.59,8.59,0,0,0,2.86,4.68,4.25,4.25,0,0,0,2.62.89A3.68,3.68,0,0,0,11.39,82,4.56,4.56,0,0,0,13.1,79.9a.66.66,0,0,0,0-.31h0l.13-.07A3.85,3.85,0,0,0,14.87,77,4.17,4.17,0,0,0,13,72.9a7.6,7.6,0,0,0-4.46-1.13H7.6l-1,0A13,13,0,0,1,2,71L.23,70.4Z"/><path class="cls-3" d="M117.51,82.27a3.43,3.43,0,0,1-1.76-.45,4.28,4.28,0,0,1-1.6-1.93c-.06-.16.13-.49.41-.87-.34.34-.42.4-.55.4H114l0,0A3.64,3.64,0,0,1,112.38,77a4,4,0,0,1,1.79-3.85,7.37,7.37,0,0,1,4.33-1.09h1.88a13.27,13.27,0,0,0,4.75-.77L126,71l-.6.71a14.43,14.43,0,0,0-2.64,5.13A8.47,8.47,0,0,1,120,81.43,4.07,4.07,0,0,1,117.51,82.27Zm-2.38-3.93.06-.07h-.06Zm1.6-1.31,0,0,0,0Z"/><path class="cls-2" d="M125.21,71.58c-3.28,4-2.27,7.26-5.38,9.66a3.85,3.85,0,0,1-2.32.78,3.25,3.25,0,0,1-1.63-.41,4.14,4.14,0,0,1-1.5-1.8,9.45,9.45,0,0,1,2.12-2.54h0a13.28,13.28,0,0,0,1.46.11,5.67,5.67,0,0,0,4.06-1.53,6,6,0,0,1-3.66,1.26,3.6,3.6,0,0,1-1.47-.23,21.88,21.88,0,0,1,6.92-4.31c-3.53,1-7.06,3.92-8.62,5.45h0a4.92,4.92,0,0,1,1.59-4.9c-2.69,1.85-1.9,5.2-1.93,5.23a6.36,6.36,0,0,1-.87.82h0A3.42,3.42,0,0,1,112.63,77a3.65,3.65,0,0,1,1.68-3.59,7.09,7.09,0,0,1,4.19-1.05l1.88,0a13.36,13.36,0,0,0,4.83-.79m1.57-1.11-1.74.64a12.76,12.76,0,0,1-4.66.76H118.5A7.6,7.6,0,0,0,114,73a4.17,4.17,0,0,0-1.9,4.11,3.84,3.84,0,0,0,1.62,2.51l0,0h0l.09,0h0a.52.52,0,0,0,0,.3A4.58,4.58,0,0,0,115.62,82a3.68,3.68,0,0,0,1.89.48,4.32,4.32,0,0,0,2.62-.89A8.67,8.67,0,0,0,123,77a13.92,13.92,0,0,1,2.6-5l1.18-1.43Z"/><path class="cls-3" d="M125,71.59a11,11,0,0,0-2.9-.38,20.61,20.61,0,0,0-2.31.16,15.82,15.82,0,0,1-1.92.15,6,6,0,0,1-2.89-.69A3.58,3.58,0,0,1,113,67.49a3.29,3.29,0,0,1,1.17-2.25l.07,0h.08c.09,0,.15,0,.31.15-.19-.23-.31-.44-.27-.56a3.84,3.84,0,0,1,1.29-1.89,3.23,3.23,0,0,1,1.89-.56,3.64,3.64,0,0,1,2,.56,7.71,7.71,0,0,1,2.89,3.89,13,13,0,0,0,2.8,4.39l.66.66Z"/><path class="cls-2" d="M117.54,62.58a3.46,3.46,0,0,1,1.84.52c3,1.91,2.36,5,5.64,8.25a11.48,11.48,0,0,0-3-.39c-1.6,0-2.92.31-4.22.31a5.78,5.78,0,0,1-2.79-.66,3.32,3.32,0,0,1-1.8-3.09,3.08,3.08,0,0,1,1.07-2.08h0a6.82,6.82,0,0,1,.85.67s-.41,3.11,2.17,4.54a4.42,4.42,0,0,1-1.84-4.27h0c1.53,1.24,5,3.62,8.2,4.19a19.76,19.76,0,0,1-6.58-3.31,3.9,3.9,0,0,1,1.8-.35,5.3,5.3,0,0,1,2.9.86,4.89,4.89,0,0,0-3.17-1.07,9.66,9.66,0,0,0-1.93.25h0a8.4,8.4,0,0,1-2.11-2.11,3.58,3.58,0,0,1,1.2-1.75,3,3,0,0,1,1.74-.51m0-.5a3.49,3.49,0,0,0-2,.61,4.12,4.12,0,0,0-1.39,2,.56.56,0,0,0,0,.25L114,65a3.51,3.51,0,0,0-1.28,2.43,3.83,3.83,0,0,0,2.07,3.59,6.4,6.4,0,0,0,3,.71,16.31,16.31,0,0,0,1.94-.15,20.06,20.06,0,0,1,2.28-.16,10.83,10.83,0,0,1,2.83.37l1.8.48L125.37,71a12.7,12.7,0,0,1-2.74-4.31,7.89,7.89,0,0,0-3-4,4,4,0,0,0-2.1-.6Z"/><path class="cls-3" d="M118.1,63a3.44,3.44,0,0,1-1.58-.36,4.33,4.33,0,0,1-1.69-1.86c-.07-.15.1-.49.36-.88-.32.36-.39.42-.53.42h-.06l-.07,0a3.61,3.61,0,0,1-1.6-2.27,3.91,3.91,0,0,1,1.61-3.92,8.43,8.43,0,0,1,5.17-1.33,14.31,14.31,0,0,0,5.68-1l.86-.36-.56.74a14.36,14.36,0,0,0-2.4,5.25,8.47,8.47,0,0,1-2.57,4.69A4.05,4.05,0,0,1,118.1,63Zm-2.36-3.82.06-.07h-.07A.17.17,0,0,0,115.74,59.2Zm1.52-1.37v0h0Z"/><path class="cls-2" d="M125.49,52c-3.1,4.09-1.93,7.36-4.93,9.9a3.78,3.78,0,0,1-2.46.89,3.12,3.12,0,0,1-1.46-.33,4.07,4.07,0,0,1-1.58-1.73,9.09,9.09,0,0,1,2-2.64h0c.12,0,.52,0,1.07,0a5.82,5.82,0,0,0,4.36-1.72,5.92,5.92,0,0,1-3.87,1.43,2.89,2.89,0,0,1-1.21-.17,21.69,21.69,0,0,1,6.72-4.61c-3.49,1.1-6.87,4.24-8.36,5.83h0a4.93,4.93,0,0,1,1.36-5c-2.6,2-1.65,5.29-1.68,5.32a6.69,6.69,0,0,1-.83.86h0A3.41,3.41,0,0,1,113.17,58a3.68,3.68,0,0,1,1.51-3.66c3.2-2.27,6.07-.34,10.81-2.33M127,50.8l-1.72.72a13.89,13.89,0,0,1-5.59,1,8.73,8.73,0,0,0-5.31,1.37,4.21,4.21,0,0,0-1.7,4.2,3.86,3.86,0,0,0,1.74,2.43l.11.06h0a.46.46,0,0,0,0,.31,4.52,4.52,0,0,0,1.8,2,3.67,3.67,0,0,0,1.7.39,4.3,4.3,0,0,0,2.78-1,8.67,8.67,0,0,0,2.65-4.81,14.05,14.05,0,0,1,2.35-5.17L127,50.8Z"/><path class="cls-3" d="M123.74,52a15,15,0,0,0-5.36-.88l-1.2,0-1.1,0a8.34,8.34,0,0,1-4.86-1.23,4.45,4.45,0,0,1-2-4.36,4.92,4.92,0,0,1,1.44-2.45l.07-.06h.16a5.52,5.52,0,0,1,1.49.41l-.24-.11c-1-.45-1.06-.49-1-.72A4.15,4.15,0,0,1,113,40.13a3.83,3.83,0,0,1,2-.51,4.58,4.58,0,0,1,2.79.94c1.91,1.46,2.5,3.19,3.18,5.18a16.36,16.36,0,0,0,3,5.87l.6.72Zm-9.08-7.13s0-.18,0-.18l-.1-.05C114.62,44.7,114.66,44.86,114.66,44.88Zm-1.91-1.25a1.8,1.8,0,0,1,0-.19l0,0a.48.48,0,0,1-.23.08h0Z"/><path class="cls-2" d="M115,39.87a4.37,4.37,0,0,1,2.64.89c3.56,2.73,2.41,6.51,6.18,11a15.22,15.22,0,0,0-5.44-.89c-.81,0-1.57,0-2.3,0a8.07,8.07,0,0,1-4.72-1.19,4.19,4.19,0,0,1-1.94-4.1,4.71,4.71,0,0,1,1.36-2.31h.07a13.1,13.1,0,0,1,3.48,1.3c.11.06.42,3.86,3.68,5.42a6.41,6.41,0,0,1-3.1-5.12h0a24.91,24.91,0,0,1,7.31,5.78c-2.39-3.43-7-6.07-9.18-7.16a4.87,4.87,0,0,1,3.07-.92,5.73,5.73,0,0,1,2.79.73,5,5,0,0,0-3-1,7.48,7.48,0,0,0-3.35.92h0a6.51,6.51,0,0,1-1.22-.61,4,4,0,0,1,1.81-2.34,3.67,3.67,0,0,1,1.87-.47m0-.5a4.13,4.13,0,0,0-2.13.54,4.38,4.38,0,0,0-2,2.68.81.81,0,0,0,0,.22.56.56,0,0,0-.36.12,5.17,5.17,0,0,0-1.54,2.6,4.72,4.72,0,0,0,2.16,4.62,8.54,8.54,0,0,0,5,1.27l1.11,0,1.19,0a14.71,14.71,0,0,1,5.27.86l1.75.64-1.19-1.43a16.37,16.37,0,0,1-3-5.79c-.66-1.95-1.28-3.79-3.26-5.3a4.85,4.85,0,0,0-2.94-1Z"/><path class="cls-3" d="M110.48,37.12a3.74,3.74,0,0,1-1.28-.2c-.16-.05-.29-.41-.4-.87,0,.59,0,.68-.16.75a2.34,2.34,0,0,1-.87.14,4.12,4.12,0,0,1-1.89-.49,3.92,3.92,0,0,1-1.8-3.84,8.5,8.5,0,0,1,2.53-4.71A14.5,14.5,0,0,0,109.7,23l.31-.88.17.92a14.58,14.58,0,0,0,2.23,5.32,8.47,8.47,0,0,1,1.72,5.06,3.54,3.54,0,0,1-3.65,3.67Zm-1.84-1.94,0-.1,0,.05Zm0-2,0,0h0Z"/><path class="cls-2" d="M109.93,23.11c.92,5.05,4.11,6.41,3.95,10.33a3.67,3.67,0,0,1-2.25,3.26,4,4,0,0,1-2.34,0,9.09,9.09,0,0,1-.59-3.25c0-.11,2.73-2,2.48-5.16a5.67,5.67,0,0,1-2.51,4.6h0a21.56,21.56,0,0,1,1.15-8.07c-1.54,3.32-1.53,7.93-1.37,10.1h0a5,5,0,0,1-2.72-4.37c-.31,3.24,2.77,4.79,2.77,4.84a6.52,6.52,0,0,1,.07,1.19,2.47,2.47,0,0,1-.79.12,3.86,3.86,0,0,1-1.77-.46,3.67,3.67,0,0,1-1.67-3.59c.49-3.9,3.86-4.7,5.6-9.53m.16-1.92-.63,1.75a14,14,0,0,1-3,4.8,8.69,8.69,0,0,0-2.59,4.83,4.2,4.2,0,0,0,1.93,4.1,4.36,4.36,0,0,0,2,.52,2.85,2.85,0,0,0,1-.15l.15-.08a.57.57,0,0,0,.25.2,3.83,3.83,0,0,0,1.35.21,3.78,3.78,0,0,0,3.9-3.91,8.65,8.65,0,0,0-1.76-5.2,14.31,14.31,0,0,1-2.2-5.24l-.33-1.83Z"/><path class="cls-3" d="M24.91,29.16a3.68,3.68,0,0,1-.66-.06,8.49,8.49,0,0,1-4.6-2.71,14.49,14.49,0,0,0-4.75-3.28L14,22.76l.92-.13a14.49,14.49,0,0,0,5.4-2,9,9,0,0,1,4.57-1.54l.56,0a3.93,3.93,0,0,1,3.4,2.54,4.36,4.36,0,0,1-.12,2.51c-.06.16-.42.28-.88.37h.32c.14,0,.36,0,.42.21a3.62,3.62,0,0,1-.47,2.74A3.87,3.87,0,0,1,24.91,29.16ZM27,24.68l0,0h0Zm-2-.11,0,0v0Z"/><path class="cls-2" d="M24.93,19.32a4.89,4.89,0,0,1,.54,0,3.69,3.69,0,0,1,3.18,2.37,4.1,4.1,0,0,1-.11,2.34,9.48,9.48,0,0,1-3.27.46c-.11,0-1.82-2.68-4.85-2.68h-.21a5.6,5.6,0,0,1,4.49,2.69h-.05a21.85,21.85,0,0,1-8-1.47c2.87,1.47,6.8,1.78,9.18,1.78l.85,0h0a4.85,4.85,0,0,1-4.37,2.56h-.09a4.82,4.82,0,0,0,.65,0c2.81,0,4.25-2.61,4.29-2.62l1,0a.44.44,0,0,1,.18,0A3.44,3.44,0,0,1,28,27.33a3.65,3.65,0,0,1-3,1.58,4.44,4.44,0,0,1-.62-.05c-3.87-.65-4.54-4.05-9.3-6,4.85-.68,6.42-3.56,9.94-3.56m0-.5a9.27,9.27,0,0,0-4.69,1.57,14,14,0,0,1-5.32,2l-1.84.26,1.73.7a14.08,14.08,0,0,1,4.67,3.23,8.68,8.68,0,0,0,4.73,2.78,4.2,4.2,0,0,0,4.17-1.76,3.88,3.88,0,0,0,.48-3,.46.46,0,0,0-.07-.16.46.46,0,0,0,.21-.23,4.45,4.45,0,0,0,.13-2.66,4.2,4.2,0,0,0-3.62-2.73l-.58,0Z"/><path class="cls-3" d="M102.09,29.23a3.92,3.92,0,0,1-3.25-1.69,3.7,3.7,0,0,1-.46-2.76c.08-.19.27-.19.4-.19h.34c-.46-.09-.82-.21-.88-.37a4.28,4.28,0,0,1-.11-2.51,3.93,3.93,0,0,1,3.39-2.55l.55,0a9,9,0,0,1,4.57,1.54,14.62,14.62,0,0,0,5.41,2l.92.13-.86.35a14.48,14.48,0,0,0-4.75,3.27,8.44,8.44,0,0,1-4.6,2.72A3.85,3.85,0,0,1,102.09,29.23Zm-2-4.48v0h0Zm2-.1h0l0,0Z"/><path class="cls-2" d="M102.07,19.4c3.53,0,5.1,2.87,9.94,3.56-4.75,1.93-5.42,5.32-9.29,6a3.41,3.41,0,0,1-.63.05,3.64,3.64,0,0,1-3-1.57,3.44,3.44,0,0,1-.44-2.55s.06,0,.16,0l1,0s1.49,2.62,4.29,2.62a4.87,4.87,0,0,0,.65-.05h-.09a4.89,4.89,0,0,1-4.38-2.55h.85c2.38,0,6.32-.3,9.19-1.77a21.72,21.72,0,0,1-7.93,1.46h-.09a5.61,5.61,0,0,1,4.5-2.68h-.22c-3,0-4.74,2.69-4.85,2.69a9.42,9.42,0,0,1-3.27-.46,4,4,0,0,1-.1-2.34,3.65,3.65,0,0,1,3.17-2.38,4.78,4.78,0,0,1,.53,0m0-.5-.57,0a4.2,4.2,0,0,0-3.61,2.73A4.45,4.45,0,0,0,98,24.33a.49.49,0,0,0,.21.22.54.54,0,0,0-.07.13,3.91,3.91,0,0,0,.48,3,4.2,4.2,0,0,0,4.17,1.76,8.59,8.59,0,0,0,4.73-2.78,14.22,14.22,0,0,1,4.67-3.22l1.72-.7-1.84-.26a14.17,14.17,0,0,1-5.31-2,9.18,9.18,0,0,0-4.7-1.57Z"/><path class="cls-3" d="M35.37,19.78a3.58,3.58,0,0,1-2.43-.86c-.14-.16-.11-.25.19-.76-.29.37-.55.63-.72.63h0a4.27,4.27,0,0,1-2.3-1.05,4,4,0,0,1-.71-4.19A8.44,8.44,0,0,1,33.1,9.7a14.36,14.36,0,0,0,4.28-3.87l.54-.76L37.84,6a14.43,14.43,0,0,0,.72,5.73,8.42,8.42,0,0,1,.3,5.33,3.93,3.93,0,0,1-3.26,2.72Zm-1.73-2.34h.09l0-.06Zm.86-1.83,0,0h0Z"/><path class="cls-2" d="M37.59,6c-.47,5.11,2.24,7.27,1,11a3.67,3.67,0,0,1-3,2.54h-.21a3.31,3.31,0,0,1-2.25-.79,5.46,5.46,0,0,1,.57-1s3.47-.13,4.56-3.21a5.07,5.07,0,0,1-4.18,2.82c-.1,0-.15,0-.14,0,1.06-1.89,3-6.06,3-9.72a21.68,21.68,0,0,1-2.38,7.79h0a5.64,5.64,0,0,1-.32-5.23c-1.57,2.75.1,5.64,0,5.73a9.29,9.29,0,0,1-1.91,2.69h0a4,4,0,0,1-2.13-1,3.68,3.68,0,0,1-.65-3.91c1.52-3.62,5-3.49,8-7.68m.67-1.8L37.18,5.68A14.14,14.14,0,0,1,33,9.49a8.63,8.63,0,0,0-3.8,4,4.18,4.18,0,0,0,.77,4.46A4.54,4.54,0,0,0,32.36,19h0a.5.5,0,0,0,.28-.1.38.38,0,0,0,.09.13,3.85,3.85,0,0,0,2.63,1h.24a4.21,4.21,0,0,0,3.49-2.89,8.67,8.67,0,0,0-.3-5.48A14,14,0,0,1,38.09,6l.17-1.85Z"/><path class="cls-3" d="M91.41,19.85a4,4,0,0,1-3.26-2.72,8.42,8.42,0,0,1,.3-5.33,14.43,14.43,0,0,0,.72-5.73l-.08-.92.54.75a14.46,14.46,0,0,0,4.28,3.87,8.46,8.46,0,0,1,3.7,3.86,3.93,3.93,0,0,1-.71,4.18,4.22,4.22,0,0,1-2.27,1.06h0c-.18,0-.46-.28-.76-.67.32.54.36.64.21.79a3.56,3.56,0,0,1-2.44.87Zm2-2.33-.06-.08s0,.06,0,.06Zm-.87-1.84v0h0Z"/><path class="cls-2" d="M89.42,6.05c3,4.18,6.44,4.05,8,7.67a3.69,3.69,0,0,1-.65,3.91,4,4,0,0,1-2.13,1h0a9.47,9.47,0,0,1-1.91-2.69c0-.1,1.62-3,0-5.73a5.62,5.62,0,0,1-.32,5.22h0A21.68,21.68,0,0,1,90,7.63c0,3.65,2,7.82,3,9.72,0,0,0,0-.14,0a5.06,5.06,0,0,1-4.18-2.81c1.09,3.07,4.54,3.17,4.56,3.2a5,5,0,0,1,.57,1.06,3.35,3.35,0,0,1-2.26.79h-.2a3.68,3.68,0,0,1-3-2.55c-1.2-3.73,1.5-5.89,1-11m-.67-1.81.18,1.85a14.22,14.22,0,0,1-.72,5.64,8.67,8.67,0,0,0-.3,5.48A4.2,4.2,0,0,0,91.4,20.1h.23a3.76,3.76,0,0,0,2.61-.94.63.63,0,0,0,.11-.13.52.52,0,0,0,.25.08A4.6,4.6,0,0,0,97.08,18a4.2,4.2,0,0,0,.76-4.46,8.68,8.68,0,0,0-3.8-4,14.09,14.09,0,0,1-4.21-3.8L88.75,4.24Z"/><path class="cls-3" d="M52.41,13.23l-.48,0a8.45,8.45,0,0,1-4.72-2.51,14.34,14.34,0,0,0-4.89-3.07l-.87-.31.91-.17a14.52,14.52,0,0,0,5.31-2.25,8.64,8.64,0,0,1,4.79-1.74h.27a3.94,3.94,0,0,1,3.5,2.4,3.69,3.69,0,0,1-.1,2.79l-.08.13h-.17a2.58,2.58,0,0,1-.51-.1c.43.18.75.37.79.54a4.29,4.29,0,0,1-.4,2.47,3.85,3.85,0,0,1-3.35,1.85Zm2.11-5.16h0Zm-2-.32,0,0h0Z"/><path class="cls-2" d="M52.46,3.4h.26A3.67,3.67,0,0,1,56,5.63a3.39,3.39,0,0,1-.08,2.59h0A10,10,0,0,1,54.74,8s-1.07-3.3-4.32-3.51a4.91,4.91,0,0,1,3.86,3.4h0a28,28,0,0,0-6.23-.77,15.18,15.18,0,0,0-4,.47,15.61,15.61,0,0,1,3.28-.31,25.16,25.16,0,0,1,4.87.49A5.46,5.46,0,0,1,48.08,9.5a7.11,7.11,0,0,1-.78-.05,5.37,5.37,0,0,0,1.23.15A7.33,7.33,0,0,0,52.8,7.85h0A9,9,0,0,1,55.91,9a4,4,0,0,1-.37,2.3A3.62,3.62,0,0,1,52.41,13,3.4,3.4,0,0,1,52,13c-3.9-.48-4.72-3.84-9.55-5.56,4.93-.92,6.32-4,10.05-4m0-.5h0a8.9,8.9,0,0,0-4.92,1.77,14,14,0,0,1-5.23,2.22l-1.82.34,1.75.63a14,14,0,0,1,4.81,3,8.7,8.7,0,0,0,4.85,2.57,4.36,4.36,0,0,0,.51,0,4.12,4.12,0,0,0,3.57-2,4.53,4.53,0,0,0,.42-2.64.44.44,0,0,0-.16-.25l.1-.14a3.9,3.9,0,0,0,.12-3A4.19,4.19,0,0,0,52.73,2.9Z"/><path class="cls-3" d="M74.6,13.31a3.87,3.87,0,0,1-3.35-1.85A4.33,4.33,0,0,1,70.85,9c0-.17.36-.35.8-.53a2.76,2.76,0,0,1-.52.1H71l-.11-.14a3.66,3.66,0,0,1-.1-2.78,3.94,3.94,0,0,1,3.5-2.4h.26A8.73,8.73,0,0,1,79.34,5a14.37,14.37,0,0,0,5.31,2.26l.92.17-.88.31a14.34,14.34,0,0,0-4.89,3.07,8.51,8.51,0,0,1-4.71,2.51ZM72.49,8.15h0Zm2-.32v0h0Z"/><path class="cls-2" d="M74.54,3.47c3.74,0,5.13,3.08,10.07,4C79.77,9.18,79,12.55,75.06,13l-.46,0a3.66,3.66,0,0,1-3.13-1.71A4,4,0,0,1,71.1,9a9.48,9.48,0,0,1,3.11-1.11h0a7.31,7.31,0,0,0,4.27,1.76,4.83,4.83,0,0,0,1.23-.16,5.32,5.32,0,0,1-.79.05A5.5,5.5,0,0,1,74.77,7.8a24.37,24.37,0,0,1,4.86-.49,15.65,15.65,0,0,1,3.29.31,15.23,15.23,0,0,0-4-.47,28.13,28.13,0,0,0-6.23.76h0a4.89,4.89,0,0,1,3.86-3.39C73.34,4.73,72.31,8,72.27,8c-.62.15-1,.27-1.14.27s0,0,0,0A3.41,3.41,0,0,1,71,5.71a3.65,3.65,0,0,1,3.27-2.23h.25m0-.5h-.27a4.17,4.17,0,0,0-3.72,2.57,3.87,3.87,0,0,0,.12,3l.08.15a.46.46,0,0,0-.14.25A4.5,4.5,0,0,0,71,11.58a4.13,4.13,0,0,0,3.57,2l.52,0A8.62,8.62,0,0,0,80,11a14.26,14.26,0,0,1,4.81-3l1.76-.62L84.7,7a14,14,0,0,1-5.23-2.22A8.84,8.84,0,0,0,74.54,3Z"/><path class="cls-3" d="M44.74,22.41a3.69,3.69,0,0,1-3.1-1.9A7.78,7.78,0,0,1,41,15.65a13.28,13.28,0,0,0-.37-5.28l-.26-.89.67.64a13.34,13.34,0,0,0,4.54,2.72,7.72,7.72,0,0,1,4,2.81,3.62,3.62,0,0,1,.11,3.92A3.35,3.35,0,0,1,47.54,21h0c-.16,0-.23-.06-.36-.35.06.32.07.57,0,.67a4,4,0,0,1-2.07,1.06l-.34,0Z"/><path class="cls-2" d="M40.82,10.3c3.43,3.24,6.52,2.5,8.53,5.49a3.37,3.37,0,0,1,.12,3.63,3.12,3.12,0,0,1-2,1.34h0a5.09,5.09,0,0,1-.44-1s1.87-2.57.27-5.1a4.51,4.51,0,0,1-.43,4.7h0c-.77-1.85-2.66-5.63-5.3-7.71a20,20,0,0,1,4.28,6.13s0,0,0,0a5.25,5.25,0,0,1-3.91-2.73c1.09,2.68,4.12,3.11,4.16,3.21a8.16,8.16,0,0,1,.86,2.9,3.76,3.76,0,0,1-1.91,1l-.31,0a3.42,3.42,0,0,1-2.88-1.77c-1.75-3.15.3-5.57-1-10.09m-1-1.64.53,1.78a12.74,12.74,0,0,1,.36,5.19,8.09,8.09,0,0,0,.72,5,4,4,0,0,0,3.32,2,2.34,2.34,0,0,0,.38,0,4.12,4.12,0,0,0,2.21-1.13.53.53,0,0,0,.11-.25h.13a3.58,3.58,0,0,0,2.31-1.54,3.9,3.9,0,0,0-.11-4.2,8,8,0,0,0-4.14-2.91,12.76,12.76,0,0,1-4.47-2.66L39.81,8.66Z"/><path class="cls-3" d="M82.26,22.49a2,2,0,0,1-.34,0,4,4,0,0,1-2.06-1.05c-.09-.1-.08-.36,0-.69-.14.31-.2.36-.35.36a3.29,3.29,0,0,1-2.16-1.44,3.6,3.6,0,0,1,.11-3.91,7.8,7.8,0,0,1,4-2.82A13.17,13.17,0,0,0,86,10.2l.68-.64-.26.89a13.24,13.24,0,0,0-.37,5.27,7.81,7.81,0,0,1-.69,4.87A3.7,3.7,0,0,1,82.26,22.49Z"/><path class="cls-2" d="M86.19,10.38c-1.34,4.52.71,6.94-1,10.09a3.46,3.46,0,0,1-2.89,1.77,1.53,1.53,0,0,1-.3,0,3.67,3.67,0,0,1-1.91-1,8.5,8.5,0,0,1,.86-2.91c0-.09,3.07-.52,4.16-3.2a5.27,5.27,0,0,1-3.91,2.73h0a20.12,20.12,0,0,1,4.27-6.14c-2.63,2.09-4.52,5.87-5.29,7.71h0a4.53,4.53,0,0,1-.43-4.71c-1.6,2.53.28,5.07.27,5.11a4.81,4.81,0,0,1-.44,1h0a3.1,3.1,0,0,1-2-1.33,3.37,3.37,0,0,1,.12-3.63c2-3,5.1-2.26,8.53-5.49m1-1.64L85.84,10a13,13,0,0,1-4.45,2.66,8,8,0,0,0-4.15,2.91,3.9,3.9,0,0,0-.11,4.2,3.61,3.61,0,0,0,2.31,1.54h.13a.41.41,0,0,0,.11.24,4.2,4.2,0,0,0,2.21,1.14,2.22,2.22,0,0,0,.37,0,4,4,0,0,0,3.33-2,8.07,8.07,0,0,0,.72-5,12.71,12.71,0,0,1,.36-5.18l.52-1.78Z"/><path class="cls-3" d="M25.05,35.3A11.41,11.41,0,0,0,26.56,31a6.69,6.69,0,0,1,1.7-3.9,3.25,3.25,0,0,1,2.32-1,2.49,2.49,0,0,1,1,.2,3,3,0,0,1,1.61,1.57.24.24,0,0,1-.07.27.93.93,0,0,1,.24-.05h.07l.08,0a3.5,3.5,0,0,1,1.27,1.59,3.2,3.2,0,0,1-1,3.27,6.81,6.81,0,0,1-4,1.43,11.44,11.44,0,0,0-4.39,1.21l-.82.44Z"/><path class="cls-2" d="M30.58,26.37a2.3,2.3,0,0,1,.91.18A2.7,2.7,0,0,1,33,28a4.41,4.41,0,0,1-.78.54h0a5.44,5.44,0,0,0-1.82-.35,3.54,3.54,0,0,0-2.54,1,4,4,0,0,1,2.43-.82,2.84,2.84,0,0,1,1.62.38c-1.43,1-4.31,3.21-5.61,5.8a17.23,17.23,0,0,1,4.45-4.68h0a4.43,4.43,0,0,1-1.63,3.82c2.09-1.39,1.93-4,2-4.08a8.37,8.37,0,0,1,2.29-1.23s0,0,0,0a3.13,3.13,0,0,1,1.16,1.45,2.91,2.91,0,0,1-.93,3c-2.36,2-4.77.7-8.36,2.61,2.15-3.45,1-5.94,3.18-8.16a3,3,0,0,1,2.14-.9m0-.5a3.54,3.54,0,0,0-2.5,1.05,6.87,6.87,0,0,0-1.76,4,11.23,11.23,0,0,1-1.48,4.21l-1,1.58,1.65-.88a11.16,11.16,0,0,1,4.3-1.19A7,7,0,0,0,34,33.2,3.39,3.39,0,0,0,35,29.65a3.67,3.67,0,0,0-1.37-1.71l-.12-.07h-.08v0a3.19,3.19,0,0,0-1.75-1.73,2.82,2.82,0,0,0-1.11-.22Z"/><path class="cls-3" d="M101.63,35.73a11.48,11.48,0,0,0-4.39-1.22,6.74,6.74,0,0,1-4-1.43,3.19,3.19,0,0,1-1-3.27,3.51,3.51,0,0,1,1.26-1.58l.06,0h.1a.65.65,0,0,1,.23.06.24.24,0,0,1-.06-.26,3,3,0,0,1,1.61-1.59,2.49,2.49,0,0,1,1-.19,3.24,3.24,0,0,1,2.32,1,6.72,6.72,0,0,1,1.7,3.91,11.59,11.59,0,0,0,1.51,4.3l.49.79Z"/><path class="cls-2" d="M96.43,26.45a3,3,0,0,1,2.14.89c2.18,2.23,1,4.72,3.18,8.17-3.59-1.91-6-.59-8.36-2.62a2.91,2.91,0,0,1-.93-3,3.23,3.23,0,0,1,1.15-1.45h0a8.55,8.55,0,0,1,2.29,1.24c.07,0-.09,2.69,2,4.08a4.43,4.43,0,0,1-1.63-3.82h0a17.09,17.09,0,0,1,4.45,4.68c-1.3-2.59-4.18-4.84-5.61-5.81a3,3,0,0,1,1.62-.37,4,4,0,0,1,2.43.81,3.57,3.57,0,0,0-2.54-1,5.44,5.44,0,0,0-1.82.35h0a4.41,4.41,0,0,1-.78-.54,2.68,2.68,0,0,1,1.47-1.43,2.31,2.31,0,0,1,.91-.17m0-.5a2.82,2.82,0,0,0-1.11.21,3.22,3.22,0,0,0-1.75,1.73.06.06,0,0,1,0,0H93.5l-.14.08A3.68,3.68,0,0,0,92,29.73a3.39,3.39,0,0,0,1.07,3.54,6.9,6.9,0,0,0,4.15,1.49A11.25,11.25,0,0,1,101.52,36l1.64.87-1-1.57A11.21,11.21,0,0,1,100.69,31a7,7,0,0,0-1.76-4,3.53,3.53,0,0,0-2.5-1Z"/><path class="cls-3" d="M97.9,42.46a3.55,3.55,0,0,1-.46,0,6.73,6.73,0,0,1-3.72-2.11,11.49,11.49,0,0,0-3.79-2.52l-.87-.33.92-.15a11.57,11.57,0,0,0,4.24-1.67,7.07,7.07,0,0,1,3.71-1.29h.35a3.17,3.17,0,0,1,2.77,2,2.91,2.91,0,0,1-.14,2.25l-.07.12h-.19c.16.1.26.19.28.28a3.43,3.43,0,0,1-.37,2,3.14,3.14,0,0,1-2.66,1.42Z"/><path class="cls-2" d="M97.93,34.61h.34a2.91,2.91,0,0,1,2.54,1.84,2.68,2.68,0,0,1-.11,2h0a7.48,7.48,0,0,1-.89-.24S99,35.64,96.42,35.4a3.9,3.9,0,0,1,3,2.77h0a21.77,21.77,0,0,0-5.32-.74,11.68,11.68,0,0,0-2.74.3,11.66,11.66,0,0,1,2.18-.18A19.38,19.38,0,0,1,97.8,38a4.31,4.31,0,0,1-3.21,1.32,6.42,6.42,0,0,1-.74,0,4.09,4.09,0,0,0,1.07.14,5.87,5.87,0,0,0,3.32-1.31h0a7.56,7.56,0,0,1,2.44,1,3.08,3.08,0,0,1-.34,1.82,2.88,2.88,0,0,1-2.44,1.3l-.43,0C94.39,41.72,93.81,39,90,37.57c3.87-.61,5-3,7.91-3m0-.5h0a7.17,7.17,0,0,0-3.84,1.33,11.14,11.14,0,0,1-4.15,1.63l-1.84.3,1.74.67a10.85,10.85,0,0,1,3.71,2.47,6.93,6.93,0,0,0,3.85,2.16,2.74,2.74,0,0,0,.5,0,3.4,3.4,0,0,0,2.88-1.55,3.68,3.68,0,0,0,.4-2.15.41.41,0,0,0-.09-.2l0-.08a3.15,3.15,0,0,0,.15-2.42,3.4,3.4,0,0,0-3-2.19Z"/><path class="cls-3" d="M3,51.54a16.6,16.6,0,0,0,3-5.87c.68-2,1.27-3.72,3.18-5.19A4.64,4.64,0,0,1,12,39.54a3.88,3.88,0,0,1,2,.51,4.1,4.1,0,0,1,1.92,2.51c.05.23,0,.27-.95.69l-.29.14A5.83,5.83,0,0,1,16.15,43h.09l.15.08a4.83,4.83,0,0,1,1.44,2.45,4.44,4.44,0,0,1-2,4.35,8.34,8.34,0,0,1-4.86,1.23l-1.11,0H8.63a15,15,0,0,0-5.36.87l-.87.32Zm9.35-6.74.05-.23-.1.06Zm1.91-1.25.23-.09h0a.39.39,0,0,1-.23-.08h0S14.26,43.55,14.26,43.55Z"/><path class="cls-2" d="M12,39.79a3.67,3.67,0,0,1,1.87.47,4,4,0,0,1,1.81,2.34,5.84,5.84,0,0,1-1.22.61h0a7.48,7.48,0,0,0-3.35-.92,5,5,0,0,0-3,1,5.68,5.68,0,0,1,2.8-.73,4.9,4.9,0,0,1,3.07.91c-2.23,1.09-6.79,3.73-9.18,7.16a25.12,25.12,0,0,1,7.31-5.78h0A6.39,6.39,0,0,1,9,50c3.26-1.56,3.57-5.36,3.68-5.41a13.16,13.16,0,0,1,3.47-1.31.13.13,0,0,1,.08,0,4.7,4.7,0,0,1,1.36,2.31,4.22,4.22,0,0,1-1.93,4.09,8.13,8.13,0,0,1-4.73,1.19c-.74,0-1.5,0-2.3,0a15,15,0,0,0-5.44.89c3.77-4.5,2.62-8.29,6.18-11A4.37,4.37,0,0,1,12,39.79m0-.5v0a4.85,4.85,0,0,0-2.94,1c-2,1.51-2.6,3.35-3.26,5.3a16.37,16.37,0,0,1-3,5.78L1.61,52.8l1.75-.63a14.68,14.68,0,0,1,5.27-.86H9.82l1.11,0a8.56,8.56,0,0,0,5-1.27,4.71,4.71,0,0,0,2.16-4.61,5.22,5.22,0,0,0-1.53-2.6.63.63,0,0,0-.37-.13.59.59,0,0,0,0-.23,4.37,4.37,0,0,0-2-2.66A4.14,4.14,0,0,0,12,39.29Z"/><path class="cls-3" d="M2.29,71.63a14.42,14.42,0,0,0,2.57-5.17,8.55,8.55,0,0,1,2.72-4.61A4,4,0,0,1,10.09,61a3.44,3.44,0,0,1,1.71.42,4.36,4.36,0,0,1,1.63,1.91c.06.16-.12.5-.4.88.34-.36.41-.41.54-.41h.06l.06,0a3.63,3.63,0,0,1,1.55,2.33A3.92,3.92,0,0,1,13.5,70a7.83,7.83,0,0,1-4.77,1.16H7.82A13.48,13.48,0,0,0,2.58,72l-.87.33Zm8.62-5.4,0,0h0ZM12.47,65v-.06l-.05.06Z"/><path class="cls-2" d="M10.09,61.23a3.18,3.18,0,0,1,1.58.39,4,4,0,0,1,1.52,1.78A9,9,0,0,1,11.11,66h0c-.13,0-.64-.09-1.35-.09a5.66,5.66,0,0,0-4.14,1.59,5.94,5.94,0,0,1,3.72-1.32,3.11,3.11,0,0,1,1.39.22,21.69,21.69,0,0,1-6.86,4.39c3.52-1,7-4,8.54-5.55h0a4.94,4.94,0,0,1-1.53,4.92c2.67-1.88,1.83-5.23,1.86-5.25a7.34,7.34,0,0,1,.85-.84h0A3.44,3.44,0,0,1,15,66.19a3.68,3.68,0,0,1-1.63,3.62,7.61,7.61,0,0,1-4.62,1.11H7.82a13.82,13.82,0,0,0-5.33.86c3.23-4,2.17-7.29,5.24-9.73a3.81,3.81,0,0,1,2.36-.82m0-.5h0a4.29,4.29,0,0,0-2.67.93,8.6,8.6,0,0,0-2.79,4.72A14,14,0,0,1,2.1,71.47L.93,72.92l1.74-.67a13.32,13.32,0,0,1,5.15-.83h.92a8,8,0,0,0,4.9-1.2,4.19,4.19,0,0,0,1.84-4.13,3.86,3.86,0,0,0-1.66-2.49l-.11-.07h-.05a.51.51,0,0,0,0-.3,4.48,4.48,0,0,0-1.74-2,3.65,3.65,0,0,0-1.83-.46Z"/><path class="cls-3" d="M8.91,63a4,4,0,0,1-2.62-1A8.47,8.47,0,0,1,3.72,57.3a14.33,14.33,0,0,0-2.4-5.24l-.56-.74.86.36a14.68,14.68,0,0,0,5.68,1A8.47,8.47,0,0,1,12.48,54,3.94,3.94,0,0,1,14.08,58a3.59,3.59,0,0,1-1.62,2.27l-.05,0h-.06c-.14,0-.2,0-.54-.42.27.39.44.73.37.89a4.24,4.24,0,0,1-1.69,1.85A3.32,3.32,0,0,1,8.91,63Zm2.36-3.83a.29.29,0,0,1,0-.09l-.08,0ZM9.74,57.75h0l0,0Z"/><path class="cls-2" d="M1.52,51.91c4.73,2,7.6.05,10.81,2.32a3.7,3.7,0,0,1,1.51,3.67A3.41,3.41,0,0,1,12.35,60h0a6,6,0,0,1-.83-.86s.92-3.34-1.68-5.31a4.91,4.91,0,0,1,1.36,5h0C9.71,57.21,6.33,54.08,2.84,53a21.71,21.71,0,0,1,6.72,4.62,3.1,3.1,0,0,1-1.21.17,6,6,0,0,1-3.87-1.44A5.8,5.8,0,0,0,8.85,58c.54,0,.93,0,1.06,0H10a9.12,9.12,0,0,1,2,2.63,4,4,0,0,1-1.58,1.74,3.24,3.24,0,0,1-1.46.33,3.79,3.79,0,0,1-2.46-.9c-3-2.54-1.83-5.8-4.93-9.89M0,50.72l1.12,1.49a13.89,13.89,0,0,1,2.36,5.16,8.72,8.72,0,0,0,2.64,4.81,4.28,4.28,0,0,0,2.79,1,3.67,3.67,0,0,0,1.7-.39,4.54,4.54,0,0,0,1.8-2,.46.46,0,0,0,0-.31h.06l.11-.06A4,4,0,0,0,14.33,58a4.23,4.23,0,0,0-1.71-4.19,8.66,8.66,0,0,0-5.31-1.37,14.06,14.06,0,0,1-5.59-1L0,50.72Z"/><path class="cls-3" d="M16.53,37.05a3.93,3.93,0,0,1-1.23-.19,3.93,3.93,0,0,1-2.42-3.49,8.51,8.51,0,0,1,1.72-5.06A14.51,14.51,0,0,0,16.83,23l.16-.92.32.88a14.34,14.34,0,0,0,3.09,4.87,8.54,8.54,0,0,1,2.53,4.71,3.91,3.91,0,0,1-1.8,3.84,4,4,0,0,1-1.9.5,2.54,2.54,0,0,1-.86-.14c-.19-.08-.21-.17-.16-.74-.11.45-.24.8-.4.86a4,4,0,0,1-1.28.2Zm1.84-2,.06,0,0,0Zm0-2v0h0Z"/><path class="cls-2" d="M17.07,23c1.75,4.83,5.12,5.63,5.61,9.53A3.64,3.64,0,0,1,21,36.15a3.76,3.76,0,0,1-1.78.47,2.2,2.2,0,0,1-.78-.13,6.52,6.52,0,0,1,.07-1.19s3.08-1.59,2.76-4.84a5,5,0,0,1-2.71,4.37h0c.16-2.17.17-6.78-1.37-10.1a21.79,21.79,0,0,1,1.15,8.07h0a5.64,5.64,0,0,1-2.51-4.6c-.25,3.15,2.49,5.06,2.48,5.16a9.18,9.18,0,0,1-.59,3.26,3.73,3.73,0,0,1-1.19.18,3.8,3.8,0,0,1-1.15-.17,3.69,3.69,0,0,1-2.25-3.27c-.16-3.92,3-5.27,3.94-10.33m-.16-1.92-.33,1.83a13.91,13.91,0,0,1-2.2,5.24,8.71,8.71,0,0,0-1.75,5.2,4.21,4.21,0,0,0,2.59,3.72,4.22,4.22,0,0,0,1.31.2,4,4,0,0,0,1.37-.22.53.53,0,0,0,.23-.2l.13.07a2.57,2.57,0,0,0,1,.17,4.29,4.29,0,0,0,2-.53,4.19,4.19,0,0,0,1.93-4.09,8.69,8.69,0,0,0-2.59-4.84,14.13,14.13,0,0,1-3.05-4.8l-.63-1.75Z"/><path class="cls-3" d="M29.1,42.38A3.13,3.13,0,0,1,26.45,41a3.41,3.41,0,0,1-.37-2c0-.09.12-.19.28-.29h-.18l-.09-.15A2.87,2.87,0,0,1,26,36.31a3.14,3.14,0,0,1,2.77-2h.35a7,7,0,0,1,3.72,1.29A11.44,11.44,0,0,0,37,37.25l.92.14-.87.34a11.34,11.34,0,0,0-3.79,2.52,6.79,6.79,0,0,1-3.71,2.1Z"/><path class="cls-2" d="M29.08,34.54c2.86,0,4.05,2.34,7.91,3C33.2,39,32.62,41.64,29.54,42.1a3.25,3.25,0,0,1-.44,0,2.88,2.88,0,0,1-2.43-1.29A3.12,3.12,0,0,1,26.33,39a7.3,7.3,0,0,1,2.44-.94h0a5.89,5.89,0,0,0,3.32,1.3,4.09,4.09,0,0,0,1.07-.14,4.91,4.91,0,0,1-.74.06A4.3,4.3,0,0,1,29.21,38a20.16,20.16,0,0,1,4.27-.49,11.64,11.64,0,0,1,2.18.19,11.23,11.23,0,0,0-2.74-.3,21.77,21.77,0,0,0-5.32.73h0a3.86,3.86,0,0,1,3-2.77c-2.57.24-3.31,2.86-3.35,2.88-.49.13-.81.23-.89.23h0a2.72,2.72,0,0,1-.12-2,2.91,2.91,0,0,1,2.55-1.83h.34m0-.5h-.37a3.37,3.37,0,0,0-3,2.18,3.26,3.26,0,0,0,.15,2.43l0,.08a.42.42,0,0,0-.08.18,3.74,3.74,0,0,0,.4,2.17,3.38,3.38,0,0,0,2.87,1.54,2.92,2.92,0,0,0,.51,0,6.93,6.93,0,0,0,3.85-2.16A11.14,11.14,0,0,1,37.17,38l1.74-.67L37.07,37a11.14,11.14,0,0,1-4.15-1.64A7.22,7.22,0,0,0,29.08,34Z"/><path class="cls-3" d="M20,56.52a3.5,3.5,0,0,1-1.29-.23.67.67,0,0,1-.23-.39c0,.16-.07.22-.19.26a2.07,2.07,0,0,1-.57.08A3.37,3.37,0,0,1,16,55.73a3.27,3.27,0,0,1-1.31-3.28A7,7,0,0,1,17,48.71a12,12,0,0,0,2.75-3.83L20.1,44l.11.92a11.78,11.78,0,0,0,1.56,4.45,7,7,0,0,1,1.16,4.25,3.27,3.27,0,0,1-2.18,2.77A3.16,3.16,0,0,1,20,56.52Z"/><path class="cls-2" d="M20,45c.5,4.18,3,5.44,2.72,8.64a3,3,0,0,1-2,2.56,2.75,2.75,0,0,1-.73.09,3.19,3.19,0,0,1-1.18-.21,7.49,7.49,0,0,1-.32-2.69c0-.09,2.33-1.51,2.27-4.1a4.59,4.59,0,0,1-2.27,3.63h0a18,18,0,0,1,1.33-6.54c-1.42,2.64-1.63,6.41-1.61,8.18h0a4,4,0,0,1-2-3.7c-.42,2.64,2,4,2,4.09a5.11,5.11,0,0,1,0,1,1.68,1.68,0,0,1-.5.07,3.15,3.15,0,0,1-1.58-.47,3,3,0,0,1-1.19-3c.6-3.16,3.39-3.66,5.05-7.52m.28-1.9-.74,1.71a11.54,11.54,0,0,1-2.7,3.74,7.17,7.17,0,0,0-2.38,3.88,3.52,3.52,0,0,0,1.42,3.53,3.65,3.65,0,0,0,1.84.55,2.15,2.15,0,0,0,.64-.09l.07,0a.39.39,0,0,0,.17.13,3.7,3.7,0,0,0,1.39.26,3.28,3.28,0,0,0,.87-.11,3.49,3.49,0,0,0,2.36-3A7.21,7.21,0,0,0,22,49.28a11.47,11.47,0,0,1-1.53-4.36l-.22-1.84Z"/><path class="cls-3" d="M107.05,56.59a3.18,3.18,0,0,1-.79-.09,3.3,3.3,0,0,1-2.18-2.78,6.94,6.94,0,0,1,1.16-4.24A11.78,11.78,0,0,0,106.8,45l.11-.92.37.85A11.73,11.73,0,0,0,110,48.78a7,7,0,0,1,2.32,3.75A3.24,3.24,0,0,1,111,55.8a3.36,3.36,0,0,1-1.7.51,1.81,1.81,0,0,1-.58-.08c-.12,0-.17-.09-.19-.26-.06.21-.14.35-.23.39a3.34,3.34,0,0,1-1.29.23Z"/><path class="cls-2" d="M107.05,45.06c1.66,3.86,4.45,4.35,5,7.52a3,3,0,0,1-1.19,3,3.09,3.09,0,0,1-1.57.47,1.7,1.7,0,0,1-.51-.07,4.16,4.16,0,0,1,0-1s2.44-1.45,2-4.09a4.05,4.05,0,0,1-2,3.7h0c0-1.79-.19-5.56-1.62-8.2A17.79,17.79,0,0,1,108.56,53h0a4.62,4.62,0,0,1-2.27-3.64c-.06,2.59,2.27,4,2.27,4.11a7.36,7.36,0,0,1-.32,2.68,3.21,3.21,0,0,1-1.19.21,2.69,2.69,0,0,1-.72-.08,3,3,0,0,1-2-2.56c-.32-3.2,2.22-4.46,2.72-8.64m-.28-1.91L106.55,45A11.54,11.54,0,0,1,105,49.36a7.21,7.21,0,0,0-1.19,4.39,3.54,3.54,0,0,0,2.36,3,3.28,3.28,0,0,0,.86.1,3.63,3.63,0,0,0,1.39-.25.37.37,0,0,0,.18-.14l.09,0a2.41,2.41,0,0,0,.63.08,3.69,3.69,0,0,0,1.84-.54,3.54,3.54,0,0,0,1.41-3.54,7.25,7.25,0,0,0-2.38-3.88,11.29,11.29,0,0,1-2.7-3.74l-.74-1.71Z"/><path class="cls-3" d="M20.13,92.78A11.07,11.07,0,0,0,19,88.47a6.61,6.61,0,0,1-.76-4.11,3.13,3.13,0,0,1,2.29-2.46,3.83,3.83,0,0,1,.6-.05,2.57,2.57,0,0,1,1.57.46.25.25,0,0,1,.09.26c.12-.14.22-.23.32-.23h0a3.5,3.5,0,0,1,1.89.59,3.13,3.13,0,0,1,1,3.21A6.53,6.53,0,0,1,23.5,89.5a11.2,11.2,0,0,0-2.9,3.39l-.43.82Z"/><path class="cls-2" d="M21.14,82.1a2.35,2.35,0,0,1,1.41.4,4.1,4.1,0,0,1-.33.87A4.12,4.12,0,0,0,19,86.29a3.91,3.91,0,0,1,3-2.59h0c-.63,1.57-1.74,5-1.38,7.79a16.79,16.79,0,0,1,1.06-6.24h0a4.35,4.35,0,0,1,.76,4c.94-2.27-.63-4.32-.6-4.4a7.1,7.1,0,0,1,1.2-2.26h.07a3.21,3.21,0,0,1,1.67.54,2.87,2.87,0,0,1,.88,3c-.81,2.93-3.49,3.18-5.36,6.69-.14-4-2.44-5.37-1.88-8.36a2.84,2.84,0,0,1,2.08-2.26,2.59,2.59,0,0,1,.56-.05m0-.5h0a3.42,3.42,0,0,0-.65.06A3.33,3.33,0,0,0,18,84.32a6.88,6.88,0,0,0,.78,4.25,10.65,10.65,0,0,1,1.1,4.22L20,94.64,20.82,93a11,11,0,0,1,2.84-3.31,6.76,6.76,0,0,0,2.56-3.48,3.37,3.37,0,0,0-1.07-3.48,3.7,3.7,0,0,0-2-.64H23.1a.38.38,0,0,0-.2,0h0a2.81,2.81,0,0,0-1.74-.53Z"/><path class="cls-3" d="M106.41,93a11.2,11.2,0,0,0-2.9-3.39A6.58,6.58,0,0,1,101,86.22,3.1,3.1,0,0,1,102,83a3.41,3.41,0,0,1,1.82-.6.71.71,0,0,1,.39.29.24.24,0,0,1,.09-.32,2.59,2.59,0,0,1,1.57-.46,2.88,2.88,0,0,1,.59.06,3.12,3.12,0,0,1,2.29,2.46,6.64,6.64,0,0,1-.76,4.11,10.85,10.85,0,0,0-1.12,4.31l0,.93Z"/><path class="cls-2" d="M105.88,82.17a2.57,2.57,0,0,1,.55.06,2.85,2.85,0,0,1,2.08,2.25c.56,3-1.74,4.39-1.88,8.37-1.87-3.52-4.55-3.76-5.36-6.69a2.87,2.87,0,0,1,.88-3,3.22,3.22,0,0,1,1.68-.55h.06a7.38,7.38,0,0,1,1.2,2.27c0,.08-1.54,2.13-.6,4.4a4.35,4.35,0,0,1,.76-4h0a17,17,0,0,1,1.06,6.23,17.66,17.66,0,0,0-1.38-7.78s0,0,0,0a3.89,3.89,0,0,1,3,2.58,4.1,4.1,0,0,0-3.19-2.91,3.68,3.68,0,0,1-.33-.87,2.36,2.36,0,0,1,1.42-.41m0-.5a2.85,2.85,0,0,0-1.73.52l0,0a.58.58,0,0,0-.2-.06h-.08a3.63,3.63,0,0,0-2,.65,3.31,3.31,0,0,0-1.07,3.48,6.8,6.8,0,0,0,2.56,3.48,11,11,0,0,1,2.84,3.31l.87,1.64.07-1.85a10.75,10.75,0,0,1,1.1-4.23,6.79,6.79,0,0,0,.77-4.25,3.33,3.33,0,0,0-2.48-2.66,3.39,3.39,0,0,0-.64-.06Z"/><path class="cls-3" d="M37.17,106.58A3.71,3.71,0,0,1,34,104.42a7.9,7.9,0,0,1-.34-5,13.49,13.49,0,0,0,0-5.4l-.2-.91.63.68a13.58,13.58,0,0,0,4.42,3.1,8,8,0,0,1,3.9,3.17,3.73,3.73,0,0,1-.17,4,4.08,4.08,0,0,1-2,1.25h0a1.35,1.35,0,0,1-.68-.44c.28.38.3.46.19.61a3.44,3.44,0,0,1-2.38,1.11Zm1.67-2.43,0,0v0Z"/><path class="cls-2" d="M33.87,94c3.24,3.55,6.45,3,8.28,6.22a3.45,3.45,0,0,1-.15,3.71,3.8,3.8,0,0,1-1.86,1.16h0a9.2,9.2,0,0,1-2.08-2.28c-.06-.08,1.16-3-.62-5.33a5.26,5.26,0,0,1,.31,4.89h0a20.21,20.21,0,0,1-3.12-7c.43,3.4,2.75,7,4,8.69,0,0-.14,0-.4,0A4.78,4.78,0,0,1,34.24,102a4.81,4.81,0,0,0,4.44,2.45h.17a5.41,5.41,0,0,1,.65.91,3.21,3.21,0,0,1-2.2,1h-.13a3.5,3.5,0,0,1-3-2c-1.55-3.34.72-5.66-.31-10.36M33,92.25l.4,1.82a13.23,13.23,0,0,1,0,5.31,8.11,8.11,0,0,0,.37,5.15,4,4,0,0,0,3.44,2.31h.16a3.65,3.65,0,0,0,2.56-1.21.26.26,0,0,0,.07-.11.41.41,0,0,0,.17,0h.11a4.3,4.3,0,0,0,2.15-1.34,4,4,0,0,0,.19-4.27,8.11,8.11,0,0,0-4-3.26,13.07,13.07,0,0,1-4.34-3L33,92.25Z"/><path class="cls-3" d="M89.69,106.66a3.48,3.48,0,0,1-2.38-1.11c-.1-.14-.09-.22.15-.55-.25.23-.45.38-.58.38h0a4,4,0,0,1-2.07-1.26,3.73,3.73,0,0,1-.17-4A8,8,0,0,1,88.54,97,13.58,13.58,0,0,0,93,93.87l.62-.68-.19.9a13.48,13.48,0,0,0,0,5.4,7.93,7.93,0,0,1-.34,5,3.72,3.72,0,0,1-3.21,2.16Zm-1.51-2.43h0v0Z"/><path class="cls-2" d="M93.14,94c-1,4.7,1.24,7-.31,10.35a3.48,3.48,0,0,1-3,2h-.14a3.25,3.25,0,0,1-2.2-1,5.22,5.22,0,0,1,.65-.92h.16A4.81,4.81,0,0,0,92.77,102a4.81,4.81,0,0,1-3.94,2.15c-.26,0-.42,0-.4-.06,1.21-1.63,3.53-5.28,4-8.68a20.21,20.21,0,0,1-3.12,7h0a5.28,5.28,0,0,1,.31-4.9c-1.78,2.37-.56,5.25-.62,5.33a9.15,9.15,0,0,1-2.08,2.29h0A3.73,3.73,0,0,1,85,104a3.45,3.45,0,0,1-.15-3.71c1.83-3.18,5-2.66,8.28-6.21M94,92.33,92.77,93.7a13.26,13.26,0,0,1-4.34,3,8.09,8.09,0,0,0-4,3.25,4,4,0,0,0,.19,4.28,4.17,4.17,0,0,0,2.15,1.33h.11a.53.53,0,0,0,.16,0,.83.83,0,0,0,.08.12,3.67,3.67,0,0,0,2.56,1.19h.17a4,4,0,0,0,3.44-2.3,8.2,8.2,0,0,0,.36-5.16,13.18,13.18,0,0,1,0-5.3l.4-1.82Z"/><path class="cls-3" d="M21.71,77l-.55,0a8.49,8.49,0,0,1-4.68-2.59,14.51,14.51,0,0,0-4.84-3.13l-.87-.33.92-.16A14.37,14.37,0,0,0,17,68.59a8.79,8.79,0,0,1,4.72-1.68h.36a3.93,3.93,0,0,1,3.46,2.46,4.29,4.29,0,0,1,0,2.51c-.05.16-.4.28-.85.38l.37,0c.08,0,.3,0,.36.2A3.63,3.63,0,0,1,25,75.2,3.84,3.84,0,0,1,21.71,77Zm2-4.54,0,0h0Zm-2,0,0,0v0Z"/><path class="cls-2" d="M21.75,67.16h.35a3.71,3.71,0,0,1,3.24,2.28,4.15,4.15,0,0,1,0,2.35,9.38,9.38,0,0,1-3.26.55h0c-.1,0-1.84-2.54-4.77-2.54h-.36a5.59,5.59,0,0,1,4.56,2.55h-.64a21.13,21.13,0,0,1-7.41-1.24,20.52,20.52,0,0,0,8.37,1.53c.66,0,1.24,0,1.71-.06h0a4.89,4.89,0,0,1-4.39,2.69l.52,0c2.89,0,4.3-2.74,4.35-2.75.52,0,.89-.08,1.07-.08s.11,0,.12,0a3.4,3.4,0,0,1-.36,2.55,3.66,3.66,0,0,1-3.1,1.67,4.36,4.36,0,0,1-.51,0c-3.89-.54-4.66-3.92-9.47-5.71,4.9-.83,6.36-3.85,10-3.85m0-.5h0a9,9,0,0,0-4.85,1.71,14.08,14.08,0,0,1-5.26,2.15l-1.83.31,1.74.65a14.16,14.16,0,0,1,4.77,3.09,8.59,8.59,0,0,0,4.81,2.64,3.69,3.69,0,0,0,.58,0,4.14,4.14,0,0,0,3.53-1.92,3.91,3.91,0,0,0,.4-3,.44.44,0,0,0-.08-.15.52.52,0,0,0,.21-.24,4.5,4.5,0,0,0,0-2.67,4.2,4.2,0,0,0-3.69-2.63Z"/><path class="cls-3" d="M105.3,77.08a3.89,3.89,0,0,1-3.32-1.8,3.69,3.69,0,0,1-.38-2.76.32.32,0,0,1,.34-.19l.41,0c-.46-.11-.82-.24-.87-.4a4.17,4.17,0,0,1,0-2.5A3.88,3.88,0,0,1,104.9,67h.37A8.72,8.72,0,0,1,110,68.67a14.44,14.44,0,0,0,5.34,2.17l.92.16-.87.32a14.52,14.52,0,0,0-4.84,3.14A8.48,8.48,0,0,1,105.85,77,3.48,3.48,0,0,1,105.3,77.08Zm-2-4.54v0h0Zm2-.05h0v0Z"/><path class="cls-2" d="M105.27,67.25c3.66,0,5.11,3,10,3.84-4.81,1.79-5.57,5.17-9.47,5.7a2.92,2.92,0,0,1-.51,0,3.66,3.66,0,0,1-3.1-1.67,3.47,3.47,0,0,1-.36-2.56s0,0,.1,0,.56,0,1.09.08c0,0,1.46,2.74,4.35,2.74l.52,0a4.87,4.87,0,0,1-4.39-2.68h0c.46,0,1,0,1.68,0a20.67,20.67,0,0,0,8.4-1.52,21.24,21.24,0,0,1-7.43,1.24h-.62a5.56,5.56,0,0,1,4.56-2.55l-.35,0c-2.93,0-4.68,2.55-4.78,2.55h0a9,9,0,0,1-3.26-.56,4,4,0,0,1,0-2.34,3.67,3.67,0,0,1,3.24-2.27h.36m0-.5h-.38a4.18,4.18,0,0,0-3.69,2.62,4.5,4.5,0,0,0,0,2.67.42.42,0,0,0,.21.23.5.5,0,0,0-.08.14,3.92,3.92,0,0,0,.4,3,4.12,4.12,0,0,0,3.53,1.93,3.69,3.69,0,0,0,.58,0,8.65,8.65,0,0,0,4.81-2.64,13.86,13.86,0,0,1,4.77-3.09l1.74-.65-1.83-.31a14.08,14.08,0,0,1-5.26-2.15,8.93,8.93,0,0,0-4.84-1.7Z"/><path class="cls-3" d="M28.11,68.66a3.19,3.19,0,0,1-1.31-.25.53.53,0,0,1-.2-.33c0,.14-.08.18-.2.21a2,2,0,0,1-.51.07,3.28,3.28,0,0,1-1.68-.52A3.17,3.17,0,0,1,23,64.64a6.68,6.68,0,0,1,2.3-3.58A11.3,11.3,0,0,0,28,57.42l.39-.85.09.93a11.46,11.46,0,0,0,1.43,4.31,6.76,6.76,0,0,1,1,4.13,3.14,3.14,0,0,1-2.15,2.64A2.62,2.62,0,0,1,28.11,68.66Z"/><path class="cls-2" d="M28.24,57.52c.42,4,2.85,5.3,2.48,8.39a2.88,2.88,0,0,1-2,2.43,2.56,2.56,0,0,1-.64.07,2.89,2.89,0,0,1-1.2-.23,7.16,7.16,0,0,1-.26-2.59c0-.09,2.27-1.42,2.26-3.92a4.48,4.48,0,0,1-2.25,3.47h0a17.35,17.35,0,0,1,1.4-6.29c-1.42,2.52-1.69,6.15-1.69,7.88h0a3.91,3.91,0,0,1-1.87-3.61,4.17,4.17,0,0,0,1.88,4,3.85,3.85,0,0,1,0,1,1.63,1.63,0,0,1-.45.06,3.06,3.06,0,0,1-1.55-.48,2.91,2.91,0,0,1-1.09-2.94c.62-3,3.33-3.47,5-7.17m.31-1.9-.76,1.7a11,11,0,0,1-2.67,3.56,6.92,6.92,0,0,0-2.36,3.71,3.38,3.38,0,0,0,1.31,3.46,3.55,3.55,0,0,0,1.82.56,2.21,2.21,0,0,0,.59-.08l.06,0a.32.32,0,0,0,.17.13,3.42,3.42,0,0,0,1.4.27,3.07,3.07,0,0,0,.77-.09A3.36,3.36,0,0,0,31.22,66a6.91,6.91,0,0,0-1.07-4.27,11,11,0,0,1-1.41-4.23l-.19-1.85Z"/><path class="cls-3" d="M98.89,68.74a3,3,0,0,1-.7-.08A3.16,3.16,0,0,1,96,66a6.71,6.71,0,0,1,1-4.12,11.58,11.58,0,0,0,1.43-4.32l.09-.92.38.85a11.61,11.61,0,0,0,2.72,3.64,6.68,6.68,0,0,1,2.3,3.58,3.17,3.17,0,0,1-1.21,3.2,3.26,3.26,0,0,1-1.68.51,1.72,1.72,0,0,1-.52-.07.21.21,0,0,1-.19-.2.53.53,0,0,1-.19.33,3.39,3.39,0,0,1-1.33.25Z"/><path class="cls-2" d="M98.77,57.6c1.66,3.7,4.37,4.13,5,7.17a3,3,0,0,1-1.1,2.94,3,3,0,0,1-1.55.47,1.63,1.63,0,0,1-.45-.06,3.78,3.78,0,0,1,0-.94,4.19,4.19,0,0,0,1.89-4,3.93,3.93,0,0,1-1.88,3.6h0c0-1.72-.28-5.35-1.69-7.87a17.31,17.31,0,0,1,1.4,6.29h0a4.45,4.45,0,0,1-2.25-3.47c0,2.5,2.26,3.83,2.27,3.92a7.42,7.42,0,0,1-.27,2.6,3.27,3.27,0,0,1-1.21.22,2.67,2.67,0,0,1-.64-.07,2.91,2.91,0,0,1-2-2.44c-.37-3.09,2.06-4.34,2.48-8.38m-.31-1.9-.19,1.85a11,11,0,0,1-1.41,4.22A6.91,6.91,0,0,0,95.79,66a3.37,3.37,0,0,0,2.34,2.86,3,3,0,0,0,.76.09,3.59,3.59,0,0,0,1.42-.27.5.5,0,0,0,.16-.14l.08,0a2.4,2.4,0,0,0,.57.07,3.57,3.57,0,0,0,1.81-.55,3.38,3.38,0,0,0,1.33-3.46A7,7,0,0,0,101.89,61a11,11,0,0,1-2.67-3.57l-.76-1.69Z"/><path class="cls-3" d="M36.77,71.8a2.59,2.59,0,0,1-1.18-.25,3.55,3.55,0,0,1-1.48-1.47.62.62,0,0,1,.09-.44.28.28,0,0,1-.21.09h-.06l-.06,0a3,3,0,0,1-1.42-1.82,3.29,3.29,0,0,1,1.19-3.33,7.05,7.05,0,0,1,4.22-1.28,11.73,11.73,0,0,0,4.59-1l.84-.4-.53.76A11.9,11.9,0,0,0,41,67a7,7,0,0,1-1.93,4A3.32,3.32,0,0,1,36.77,71.8Z"/><path class="cls-2" d="M42.55,62.45c-2.38,3.46-1.31,6.09-3.67,8.28a3.1,3.1,0,0,1-2.11.82,2.57,2.57,0,0,1-1.08-.22A3.39,3.39,0,0,1,34.34,70a7.47,7.47,0,0,1,1.53-2.23h.06l.54,0a4.87,4.87,0,0,0,3.82-1.58A4.84,4.84,0,0,1,37,67.49a1.9,1.9,0,0,1-.78-.1,17.76,17.76,0,0,1,5.32-4c-2.81,1-5.46,3.72-6.62,5.07h0a4,4,0,0,1,.94-4.11c-2.06,1.7-1.16,4.38-1.19,4.4a5,5,0,0,1-.64.74h0a2.82,2.82,0,0,1-1.3-1.68,3,3,0,0,1,1.1-3c2.54-2,5-.5,8.76-2.3M44,61.21,42.34,62a11.51,11.51,0,0,1-4.5,1,7.13,7.13,0,0,0-4.35,1.34A3.5,3.5,0,0,0,32.21,68a3.3,3.3,0,0,0,1.57,2l.07,0a.37.37,0,0,0,0,.22,3.78,3.78,0,0,0,1.59,1.6,3,3,0,0,0,1.29.27,3.64,3.64,0,0,0,2.46-1,7.19,7.19,0,0,0,2-4.08A11.36,11.36,0,0,1,43,62.74L44,61.21Z"/><path class="cls-3" d="M90.24,71.88A3.32,3.32,0,0,1,88,71,6.94,6.94,0,0,1,86,67a11.83,11.83,0,0,0-1.77-4.37l-.53-.77.84.4a11.81,11.81,0,0,0,4.6,1.05,7,7,0,0,1,4.21,1.28A3.25,3.25,0,0,1,94.55,68a3,3,0,0,1-1.42,1.83l0,0H93a.27.27,0,0,1-.21-.08.6.6,0,0,1,.09.43,3.67,3.67,0,0,1-1.47,1.48A2.81,2.81,0,0,1,90.24,71.88Z"/><path class="cls-2" d="M84.46,62.53c3.8,1.8,6.22.32,8.76,2.3a3,3,0,0,1,1.09,3A2.75,2.75,0,0,1,93,69.55h0a5,5,0,0,1-.65-.73s.88-2.7-1.18-4.4a4,4,0,0,1,.94,4.11h0c-1.16-1.35-3.81-4-6.62-5.08a17.78,17.78,0,0,1,5.32,4,1.9,1.9,0,0,1-.78.1,4.83,4.83,0,0,1-3.32-1.32,4.87,4.87,0,0,0,3.82,1.58l.54,0h.06a7.57,7.57,0,0,1,1.53,2.23,3.33,3.33,0,0,1-1.35,1.36,2.57,2.57,0,0,1-1.08.22,3.12,3.12,0,0,1-2.11-.82c-2.36-2.19-1.29-4.82-3.67-8.28M83,61.28,84,62.81a11.49,11.49,0,0,1,1.74,4.28,7.11,7.11,0,0,0,2,4.08,3.56,3.56,0,0,0,2.45,1,2.86,2.86,0,0,0,1.3-.28,3.78,3.78,0,0,0,1.58-1.59.48.48,0,0,0,0-.22l.07,0a3.28,3.28,0,0,0,1.56-2,3.46,3.46,0,0,0-1.27-3.59,7.18,7.18,0,0,0-4.34-1.33,11.56,11.56,0,0,1-4.51-1L83,61.28Z"/><path class="cls-3" d="M57.66,20.53a2.09,2.09,0,0,1-.86-.17.24.24,0,0,1-.15-.19c-.07.14-.14.23-.22.25a2.78,2.78,0,0,1-.69.08,3.13,3.13,0,0,1-1.2-.22,3,3,0,0,1-1.61-2.78,6.32,6.32,0,0,1,1.57-3.65,10.55,10.55,0,0,0,2-3.76l.24-.9.24.9a10.66,10.66,0,0,0,2,3.75,6.28,6.28,0,0,1,1.59,3.64,3,3,0,0,1-1.59,2.78A3.19,3.19,0,0,1,57.66,20.53Z"/><path class="cls-2" d="M56.69,10.15c1,3.66,3.43,4.45,3.56,7.34A2.7,2.7,0,0,1,58.81,20a2.9,2.9,0,0,1-1.15.25,1.76,1.76,0,0,1-.75-.15,3.6,3.6,0,0,1,.12-.87,3.92,3.92,0,0,0,2.32-3.39,3.66,3.66,0,0,1-2.26,3.05h0a16.76,16.76,0,0,0-.4-7.51,16.14,16.14,0,0,1,.36,6h0a4.16,4.16,0,0,1-1.57-3.53C55.1,16.18,57,17.74,57,17.82a6.91,6.91,0,0,1-.63,2.36,2.3,2.3,0,0,1-.62.07,2.8,2.8,0,0,1-1.1-.2,2.72,2.72,0,0,1-1.46-2.54c.12-2.89,2.54-3.69,3.51-7.36m0-1.92L56.21,10A10.26,10.26,0,0,1,54.3,13.7a6.54,6.54,0,0,0-1.62,3.79,3.19,3.19,0,0,0,1.76,3,3.46,3.46,0,0,0,1.3.24,2.93,2.93,0,0,0,.76-.09.4.4,0,0,0,.17-.09h0a2.43,2.43,0,0,0,1,.2A3.34,3.34,0,0,0,59,20.49a3.19,3.19,0,0,0,1.74-3,6.53,6.53,0,0,0-1.64-3.78A10.11,10.11,0,0,1,57.18,10l-.49-1.79Z"/><path class="cls-3" d="M69,20.38a3.18,3.18,0,0,1-1.25-.26,3,3,0,0,1-1.59-2.78,6.28,6.28,0,0,1,1.59-3.64,10.5,10.5,0,0,0,2-3.75l.24-.9.24.9a10.66,10.66,0,0,0,2,3.75,6.36,6.36,0,0,1,1.58,3.66,3,3,0,0,1-1.61,2.78,3.13,3.13,0,0,1-1.2.22,2.36,2.36,0,0,1-.69-.09c-.08,0-.15-.11-.22-.24a.26.26,0,0,1-.15.19A2.1,2.1,0,0,1,69,20.38Z"/><path class="cls-2" d="M70,10c1,3.66,3.4,4.46,3.52,7.36A2.72,2.72,0,0,1,72,19.91a3,3,0,0,1-1.1.2A2.28,2.28,0,0,1,70.3,20a6.64,6.64,0,0,1-.63-2.35,4.89,4.89,0,0,0,1.52-3.95,4.17,4.17,0,0,1-1.57,3.54h0a16.1,16.1,0,0,1,.36-6,16.76,16.76,0,0,0-.4,7.51h0a3.68,3.68,0,0,1-2.26-3.06,3.9,3.9,0,0,0,2.32,3.39,3.6,3.6,0,0,1,.12.88,1.76,1.76,0,0,1-.75.14,2.82,2.82,0,0,1-1.15-.24,2.7,2.7,0,0,1-1.44-2.54C66.54,14.45,69,13.67,70,10m0-1.92-.49,1.79a10.28,10.28,0,0,1-1.93,3.67,6.53,6.53,0,0,0-1.64,3.78,3.22,3.22,0,0,0,1.74,3,3.51,3.51,0,0,0,1.35.28,2.22,2.22,0,0,0,1-.19h0a.38.38,0,0,0,.18.08,2.78,2.78,0,0,0,.75.1,3.43,3.43,0,0,0,1.3-.24,3.2,3.2,0,0,0,1.76-3,6.48,6.48,0,0,0-1.62-3.79,10.08,10.08,0,0,1-1.91-3.68L70,8.09Z"/><path class="cls-3" d="M68.75,35.38a3.51,3.51,0,0,1-2-.58A7.38,7.38,0,0,1,64.08,31a12.62,12.62,0,0,0-2.61-4.27l-.65-.67.89.26a10.81,10.81,0,0,0,3,.41c.72,0,1.37-.06,2-.12s1.14-.1,1.7-.1a5.83,5.83,0,0,1,2.93.71,3.46,3.46,0,0,1,1.82,3.26A3.24,3.24,0,0,1,72,32.63l-.07,0h-.08c-.08,0-.13,0-.25-.11.16.21.25.39.22.5a3.84,3.84,0,0,1-1.29,1.8,3.13,3.13,0,0,1-1.77.51Z"/><path class="cls-2" d="M61.65,26.56a10.76,10.76,0,0,0,3.06.42c1.39,0,2.56-.22,3.7-.22a5.64,5.64,0,0,1,2.81.68,3.19,3.19,0,0,1,1.69,3,3,3,0,0,1-1.06,2h0a5.55,5.55,0,0,1-.8-.66s.44-3-2-4.41a4.29,4.29,0,0,1,1.7,4.14h0c-1.45-1.22-4.7-3.56-7.82-4.16a19,19,0,0,1,6.28,3.28,3.47,3.47,0,0,1-1.65.31,5.17,5.17,0,0,1-2.87-.87,4.72,4.72,0,0,0,3.14,1.08,9.35,9.35,0,0,0,1.75-.21h0a7.77,7.77,0,0,1,2,2.06,3.44,3.44,0,0,1-1.18,1.66,2.88,2.88,0,0,1-1.63.47,3.3,3.3,0,0,1-1.81-.54c-2.86-1.88-2.19-4.82-5.29-8m-1.66-1,1.3,1.34a12.1,12.1,0,0,1,2.56,4.19A7.67,7.67,0,0,0,66.66,35a3.85,3.85,0,0,0,2.09.62,3.35,3.35,0,0,0,1.92-.56,4,4,0,0,0,1.38-1.93.5.5,0,0,0,0-.24l.1-.07a3.48,3.48,0,0,0,1.27-2.32,3.72,3.72,0,0,0-2-3.51,6.07,6.07,0,0,0-3-.74,16.91,16.91,0,0,0-1.72.11c-.63.05-1.28.11-2,.11a10.73,10.73,0,0,1-2.93-.4L60,25.57Z"/><path class="cls-3" d="M61.51,44.38a12.73,12.73,0,0,0,1.68-4.72,7.4,7.4,0,0,1,1.86-4.28,3.6,3.6,0,0,1,2.53-1.05,2.78,2.78,0,0,1,1.11.21A3.72,3.72,0,0,1,70.31,36a.79.79,0,0,1-.11.55c.13-.15.19-.17.29-.17l.09,0a3.18,3.18,0,0,1,1.59,1.86,3.43,3.43,0,0,1-1.1,3.56,7.34,7.34,0,0,1-4.4,1.56,12.44,12.44,0,0,0-4.83,1.32l-.82.43Z"/><path class="cls-2" d="M67.58,34.58a2.6,2.6,0,0,1,1,.19,3.48,3.48,0,0,1,1.5,1.38,8.06,8.06,0,0,1-1.53,2.44c0,.07-2.93-.31-4.61,1.87a5.15,5.15,0,0,1,3.67-1.56,1.55,1.55,0,0,1,.63.07,18.77,18.77,0,0,1-5.46,4.52c2.93-1.24,5.62-4.21,6.79-5.7h0a4.29,4.29,0,0,1-.8,4.41c2.11-1.91,1-4.71,1-4.73a5,5,0,0,1,.66-.81h0a3,3,0,0,1,1.45,1.71,3.2,3.2,0,0,1-1,3.29c-2.6,2.22-5.24.76-9.19,2.85,2.37-3.78,1.11-6.52,3.51-8.95a3.31,3.31,0,0,1,2.35-1m0-.5h0a3.82,3.82,0,0,0-2.7,1.12,7.6,7.6,0,0,0-1.94,4.41,12.05,12.05,0,0,1-1.64,4.63l-1,1.58L62,45a12.34,12.34,0,0,1,4.73-1.3A7.52,7.52,0,0,0,71.23,42a3.64,3.64,0,0,0,1.18-3.83,3.49,3.49,0,0,0-1.73-2l-.09,0h0a.45.45,0,0,0,0-.24,4,4,0,0,0-1.74-1.61,3.11,3.11,0,0,0-1.21-.23Z"/><path class="cls-3" d="M76.3,44.49a9.6,9.6,0,0,1-2.24-.36,11.14,11.14,0,0,0-3-.46,10.67,10.67,0,0,0-1.11.07l-.92.12.74-.56a10.29,10.29,0,0,0,2.64-3.12,6.1,6.1,0,0,1,2.69-2.75,2.86,2.86,0,0,1,1.22-.27,2.73,2.73,0,0,1,1.86.69A3.06,3.06,0,0,1,79,39.48a.39.39,0,0,1-.13.28H79l.08.07a2.69,2.69,0,0,1,.69,1.93,2.88,2.88,0,0,1-1.9,2.45A4.71,4.71,0,0,1,76.3,44.49Z"/><path class="cls-2" d="M76.36,37.41A2.46,2.46,0,0,1,78,38a2.9,2.9,0,0,1,.75,1.49,6.39,6.39,0,0,1-1.87,1.43h0a6.41,6.41,0,0,0-2.1-.44,3.68,3.68,0,0,0-2,.54,4.17,4.17,0,0,1,1.79-.4,3.4,3.4,0,0,1,1.93.5A15.24,15.24,0,0,1,71.07,43a16.11,16.11,0,0,0,6.85-2.39h0A3.49,3.49,0,0,1,76,43.77a3.76,3.76,0,0,0,2.17-3.32,6.7,6.7,0,0,1,.73-.44h0a2.39,2.39,0,0,1,.61,1.73A2.61,2.61,0,0,1,77.82,44a4.29,4.29,0,0,1-1.52.27c-1.6,0-3-.82-5.2-.82A9.52,9.52,0,0,0,70,43.5c2.91-2.22,2.74-4.68,5.28-5.85a2.73,2.73,0,0,1,1.12-.24m0-.5h0A3.22,3.22,0,0,0,75,37.2a6.23,6.23,0,0,0-2.79,2.85,10.1,10.1,0,0,1-2.58,3.05l-1.48,1.13L70,44a9.77,9.77,0,0,1,1.07-.07,11.17,11.17,0,0,1,2.9.45,9.44,9.44,0,0,0,2.3.37,4.71,4.71,0,0,0,1.69-.3,3.08,3.08,0,0,0,2.07-2.68,2.86,2.86,0,0,0-.77-2.11h0a.6.6,0,0,0,0-.18,3.4,3.4,0,0,0-.9-1.79,2.91,2.91,0,0,0-2-.76Z"/><path class="cls-3" d="M58.88,102.28a7.37,7.37,0,0,1-4.28-1.89,12.47,12.47,0,0,0-4.42-2.34l-.9-.25.9-.23a12.61,12.61,0,0,0,4.46-2.29,7.35,7.35,0,0,1,4.28-1.84h.14a3.41,3.41,0,0,1,3.09,1.88,3.22,3.22,0,0,1,.09,2.45l-.07.14h-.31c.24.1.41.21.44.32a3.78,3.78,0,0,1-.18,2.2,3.44,3.44,0,0,1-3.07,1.85Z"/><path class="cls-2" d="M59.06,93.69a3.2,3.2,0,0,1,2.86,1.72A3,3,0,0,1,62,97.66s0,0,0,0-.46-.07-1-.16c0,0-1.13-2.77-3.94-2.77h0a4.22,4.22,0,0,1,3.57,2.7h0a25.32,25.32,0,0,0-3.94-.32,15.06,15.06,0,0,0-4.91.72,15.94,15.94,0,0,1,4.38-.54,21.17,21.17,0,0,1,2.7.17,4.82,4.82,0,0,1-3.89,1.82h-.28a4.71,4.71,0,0,0,.74.06,6.18,6.18,0,0,0,3.92-1.81h0a8.08,8.08,0,0,1,2.77.76,3.5,3.5,0,0,1-.17,2,3.19,3.19,0,0,1-2.84,1.7h-.16c-3.42-.17-4.34-3-8.65-4.22,4.32-1.13,5.28-4,8.69-4.12h.13m0-.5h-.14a7.57,7.57,0,0,0-4.43,1.88,12.25,12.25,0,0,1-4.37,2.26l-1.8.47,1.79.49a12.4,12.4,0,0,1,4.35,2.3,7.52,7.52,0,0,0,4.4,1.93h.19a3.69,3.69,0,0,0,3.3-2,4,4,0,0,0,.19-2.37.4.4,0,0,0-.13-.21l.06-.09a3.5,3.5,0,0,0-.09-2.65,3.69,3.69,0,0,0-3.32-2Z"/><path class="cls-3" d="M68,107.61a10.21,10.21,0,0,0,0-4.08,6.1,6.1,0,0,1,.25-3.84A2.89,2.89,0,0,1,70.68,98h.11a3.05,3.05,0,0,1,1.7.71.41.41,0,0,1,.08.28.25.25,0,0,1,.19-.07,2.63,2.63,0,0,1,1.79,1,2.88,2.88,0,0,1,.15,3.1,6.11,6.11,0,0,1-3,2.44,10.32,10.32,0,0,0-3.34,2.35l-.62.69Z"/><path class="cls-2" d="M70.68,98.25h.1a2.82,2.82,0,0,1,1.54.64,6.94,6.94,0,0,1-.5,2.3,4.68,4.68,0,0,0-3,2.73,4.05,4.05,0,0,1,2.88-2.35h0a15.49,15.49,0,0,1-3,5,16.11,16.11,0,0,0,3.64-6.27h0a3.51,3.51,0,0,1,.61,3.62,3.76,3.76,0,0,0-.51-3.94,4.48,4.48,0,0,1,.28-.8,2.45,2.45,0,0,1,1.6.91,2.62,2.62,0,0,1,.12,2.82c-1.38,2.44-3.82,2-6.28,4.76.77-3.58-1-5.34.21-7.88a2.65,2.65,0,0,1,2.27-1.54m0-.5A3.13,3.13,0,0,0,68,99.58a6.23,6.23,0,0,0-.27,4,10,10,0,0,1,0,4l-.39,1.82L68.57,108a10,10,0,0,1,3.26-2.3,6.3,6.3,0,0,0,3.09-2.54,3.12,3.12,0,0,0-.17-3.38,2.93,2.93,0,0,0-2-1.1h0a.39.39,0,0,0-.11-.15,3.35,3.35,0,0,0-1.84-.77Z"/><path class="cls-3" d="M64.32,77.35a12.66,12.66,0,0,0,1.27-4.86,7.42,7.42,0,0,1,1.49-4.42,3.58,3.58,0,0,1,2.71-1.28,2.86,2.86,0,0,1,.85.13,3.19,3.19,0,0,1,1.88,1.57c.06.14,0,.21-.13.37a1.15,1.15,0,0,1,.39-.13h.06l.08,0a3.71,3.71,0,0,1,1.51,1.6A3.49,3.49,0,0,1,73.64,74a7.41,7.41,0,0,1-4.26,1.92,12.54,12.54,0,0,0-4.7,1.74l-.78.5Z"/><path class="cls-2" d="M69.79,67a2.35,2.35,0,0,1,.77.12,3,3,0,0,1,1.73,1.43,4.24,4.24,0,0,1-.8.66h0A6.39,6.39,0,0,0,69.87,69a4,4,0,0,0-3.1,1.34,4.42,4.42,0,0,1,3-1.12,2.87,2.87,0,0,1,1.43.27c-1.48,1.19-4.42,3.92-5.62,6.87A19.05,19.05,0,0,1,70,70.85h0a4.9,4.9,0,0,1-1.44,4.33c2.16-1.71,1.75-4.59,1.82-4.65A9,9,0,0,1,72.78,69h0a3.46,3.46,0,0,1,1.4,1.48,3.21,3.21,0,0,1-.74,3.37c-2.4,2.43-5.15,1.21-8.91,3.63,2-4,.54-6.6,2.73-9.23A3.28,3.28,0,0,1,69.79,67m0-.5h0a3.79,3.79,0,0,0-2.9,1.37,7.58,7.58,0,0,0-1.55,4.56,12.1,12.1,0,0,1-1.24,4.76l-.85,1.66,1.57-1a12.13,12.13,0,0,1,4.61-1.7,7.59,7.59,0,0,0,4.39-2,3.68,3.68,0,0,0,.84-3.92A4,4,0,0,0,73,68.53l-.11,0h-.14a.19.19,0,0,0,0-.07,3.49,3.49,0,0,0-2-1.73,3,3,0,0,0-.93-.14Z"/><path class="cls-3" d="M52.13,41.18a3.14,3.14,0,0,1-1.85-.59A6.59,6.59,0,0,1,48,37.11a11.07,11.07,0,0,0-2.15-3.88l-.62-.7.88.3a9.64,9.64,0,0,0,3.16.49c.44,0,.85,0,1.25,0s.76,0,1.12,0a5.46,5.46,0,0,1,3,.75,3.09,3.09,0,0,1,1.5,3,3.4,3.4,0,0,1-.95,1.73l-.07.06h-.28a.23.23,0,0,1,.08.23,2.84,2.84,0,0,1-1.29,1.78A2.7,2.7,0,0,1,52.13,41.18Z"/><path class="cls-2" d="M46.05,33.07a10.11,10.11,0,0,0,3.23.5c.85,0,1.62-.08,2.37-.08a5.22,5.22,0,0,1,2.85.72,2.86,2.86,0,0,1,1.38,2.73A3.15,3.15,0,0,1,55,38.52h-.06a8.78,8.78,0,0,1-2.36-.82c-.07,0-.35-2.59-2.58-3.58a4.34,4.34,0,0,1,2.19,3.39h0a16.47,16.47,0,0,1-5-3.76,17.37,17.37,0,0,0,6.33,4.66,3.35,3.35,0,0,1-2.16.68,4,4,0,0,1-1.8-.44,3.4,3.4,0,0,0,1.95.6,5,5,0,0,0,2.35-.69h0a3.82,3.82,0,0,1,.83.4,2.59,2.59,0,0,1-1.18,1.6,2.46,2.46,0,0,1-1.34.36,2.92,2.92,0,0,1-1.71-.55C48,38.6,48.67,36,46.05,33.07M44.44,32l1.23,1.4a10.8,10.8,0,0,1,2.11,3.79,6.78,6.78,0,0,0,2.35,3.6,3.42,3.42,0,0,0,2,.64A3,3,0,0,0,53.75,41a3.07,3.07,0,0,0,1.39-2v0a.42.42,0,0,0,.18-.11,3.55,3.55,0,0,0,1-1.87,3.33,3.33,0,0,0-1.62-3.24,5.74,5.74,0,0,0-3.1-.79c-.37,0-.74,0-1.13,0s-.81,0-1.24,0a9.42,9.42,0,0,1-3.08-.48L44.44,32Z"/><path class="cls-3" d="M53.85,33.45a7.05,7.05,0,0,0-2.27-.35c-.33,0-.64,0-.95,0l-.84,0a4.11,4.11,0,0,1-2.21-.56,2.35,2.35,0,0,1-1.14-2.26A2.61,2.61,0,0,1,47.16,29l.07-.06h.11a.2.2,0,0,1,0-.13,2.09,2.09,0,0,1,2.09-1.64,2.41,2.41,0,0,1,1.4.45,4.89,4.89,0,0,1,1.7,2.58A8.06,8.06,0,0,0,54.12,33l.61.7Z"/><path class="cls-2" d="M49.44,27.44a2.08,2.08,0,0,1,1.25.4c1.81,1.3,1.3,3.19,3.24,5.37a7.35,7.35,0,0,0-2.35-.36c-.65,0-1.23.06-1.79.06a3.87,3.87,0,0,1-2.08-.52,2.1,2.1,0,0,1-1-2,2.27,2.27,0,0,1,.64-1.17h0a6.88,6.88,0,0,1,1.74.59A3.7,3.7,0,0,0,51,32.43a3.16,3.16,0,0,1-1.62-2.49h0a12.24,12.24,0,0,1,3.72,2.76,12.94,12.94,0,0,0-4.67-3.42,2.49,2.49,0,0,1,1.59-.5,2.93,2.93,0,0,1,1.32.32,2.56,2.56,0,0,0-1.43-.44,3.57,3.57,0,0,0-1.73.52h0a2.94,2.94,0,0,1-.61-.29,1.92,1.92,0,0,1,.86-1.19,1.84,1.84,0,0,1,1-.26m0-.5a2.36,2.36,0,0,0-1.27.34,2.45,2.45,0,0,0-1.07,1.49l-.1.07a2.81,2.81,0,0,0-.8,1.46,2.57,2.57,0,0,0,1.25,2.52,4.35,4.35,0,0,0,2.34.59l.86,0q.45,0,.93,0a6.57,6.57,0,0,1,2.19.34l1.77.57L54.3,32.88a8.08,8.08,0,0,1-1.53-2.75A5.08,5.08,0,0,0,51,27.43a2.64,2.64,0,0,0-1.54-.49Z"/><path class="cls-3" d="M59.11,37a2.74,2.74,0,0,1-1.77-.58.22.22,0,0,1-.08-.25.48.48,0,0,1-.31.19h0a3.46,3.46,0,0,1-1.84-.73,3.09,3.09,0,0,1-.73-3.26,6.58,6.58,0,0,1,2.71-3.14,11.09,11.09,0,0,0,3.12-3.15l.5-.78,0,.92a11.18,11.18,0,0,0,.79,4.36,6.57,6.57,0,0,1,.46,4.13A3.1,3.1,0,0,1,59.47,37,2.17,2.17,0,0,1,59.11,37Z"/><path class="cls-2" d="M60.42,26.24c-.15,4,2,5.5,1.25,8.43a2.85,2.85,0,0,1-2.23,2.09h-.33a2.46,2.46,0,0,1-1.6-.52,4.92,4.92,0,0,1,.39-.83,4.07,4.07,0,0,0,3.38-2.65,3.91,3.91,0,0,1-3.14,2.34s-.07,0-.07,0a17.48,17.48,0,0,0,2-7.61,16.9,16.9,0,0,1-1.52,6.1h0a4.33,4.33,0,0,1-.46-4c-1.09,2.18.31,4.33.27,4.41A6.91,6.91,0,0,1,57,36.13h0a3.12,3.12,0,0,1-1.67-.67,2.83,2.83,0,0,1-.67-3c1-2.85,3.7-2.89,5.81-6.24M61,24.4,60,26a10.77,10.77,0,0,1-3.06,3.08,6.77,6.77,0,0,0-2.8,3.26A3.3,3.3,0,0,0,55,35.84a3.58,3.58,0,0,0,2,.79h0a.43.43,0,0,0,.2,0l0,0a2.93,2.93,0,0,0,1.93.64,2.55,2.55,0,0,0,.39,0,3.3,3.3,0,0,0,2.66-2.45,6.8,6.8,0,0,0-.46-4.28,10.68,10.68,0,0,1-.78-4.27L61,24.4Z"/><path class="cls-3" d="M63,118.35A15.52,15.52,0,0,0,59.7,113c-1.29-1.54-2.4-2.87-2.64-5.15a4.23,4.23,0,0,1,2-4.11,4.4,4.4,0,0,1,2-.49,2.62,2.62,0,0,1,1,.17c.22.08.21.2.11,1.1v0c.14-.65.32-1.19.53-1.26A4.24,4.24,0,0,1,64,103.1a4.37,4.37,0,0,1,1.42.22,4.26,4.26,0,0,1,2.54,3.82c0,2.29-.89,3.75-2,5.44a15.75,15.75,0,0,0-2.54,5.74l-.18.91Zm-.88-10.94a.93.93,0,0,0-.1-.1v.09h.1Zm0-2.11a1.77,1.77,0,0,0,0-.2l-.14.1Z"/><path class="cls-2" d="M64,103.35a3.79,3.79,0,0,1,1.33.21,4,4,0,0,1,2.38,3.59c.08,4.26-3.4,5.66-4.5,11.12-1.79-5.28-5.43-6.22-5.88-10.46A4,4,0,0,1,59.19,104a4.31,4.31,0,0,1,1.88-.46,2.42,2.42,0,0,1,.91.15,6.36,6.36,0,0,1-.1,1.29s-3.38,1.66-3.1,5.19a5.37,5.37,0,0,1,3-4.68s0,0,0,0c-.22,2.35-.33,7.35,1.27,11A23.71,23.71,0,0,1,62,107.65h0a6.11,6.11,0,0,1,2.61,5c.35-3.41-2.58-5.54-2.57-5.66a10,10,0,0,1,.7-3.51,3.92,3.92,0,0,1,1.21-.17m0-.5a4.26,4.26,0,0,0-1.37.2.51.51,0,0,0-.26.23.68.68,0,0,0-.19-.11,3.08,3.08,0,0,0-1.09-.18,4.8,4.8,0,0,0-2.11.52,4.5,4.5,0,0,0-2.15,4.36c.25,2.35,1.44,3.77,2.7,5.28a15.44,15.44,0,0,1,3.2,5.28l.6,1.76.37-1.82a15.58,15.58,0,0,1,2.5-5.65c1.06-1.65,2-3.22,2-5.58a4.51,4.51,0,0,0-2.71-4,4.29,4.29,0,0,0-1.5-.24Z"/><path class="cls-3" d="M40,114.68a11,11,0,0,0,1.55-4.07,6.41,6.41,0,0,1,1.72-3.71,3.16,3.16,0,0,1,2.18-.88,2.49,2.49,0,0,1,1.05.21,2.84,2.84,0,0,1,1.5,1.56.21.21,0,0,1,0,.24l.18,0h.08l.09.05a3.33,3.33,0,0,1,1.17,1.55,3.07,3.07,0,0,1-1,3.12A6.51,6.51,0,0,1,44.58,114,10.91,10.91,0,0,0,40.35,115l-.84.42Z"/><path class="cls-2" d="M45.48,106.27a2.25,2.25,0,0,1,.94.19,2.55,2.55,0,0,1,1.37,1.41,4.59,4.59,0,0,1-.76.49h0a5.18,5.18,0,0,0-1.84-.38,3.37,3.37,0,0,0-2.35.9,3.81,3.81,0,0,1,2.24-.72,2.93,2.93,0,0,1,1.65.4A17.22,17.22,0,0,0,41.21,114a16.67,16.67,0,0,1,4.38-4.37h0a4.21,4.21,0,0,1-1.65,3.61c2-1.27,2-3.8,2-3.85a8.48,8.48,0,0,1,2.22-1.13h0a3.08,3.08,0,0,1,1.07,1.41,2.81,2.81,0,0,1-1,2.86c-2.32,1.88-4.59.56-8.08,2.3,2.15-3.25,1.1-5.67,3.25-7.74a2.85,2.85,0,0,1,2-.81m0-.5h0a3.37,3.37,0,0,0-2.35,1,6.66,6.66,0,0,0-1.8,3.83,10.51,10.51,0,0,1-1.51,4l-1,1.56,1.67-.83a10.52,10.52,0,0,1,4.14-1,6.62,6.62,0,0,0,4-1.32,3.28,3.28,0,0,0,1.13-3.4,3.6,3.6,0,0,0-1.28-1.68l-.12-.08h-.07v0A3.08,3.08,0,0,0,46.63,106a2.81,2.81,0,0,0-1.15-.23Z"/><path class="cls-3" d="M83.77,115A10.91,10.91,0,0,0,79.54,114a6.51,6.51,0,0,1-3.89-1.28,3.07,3.07,0,0,1-1-3.12A3.26,3.26,0,0,1,75.78,108l.07,0H76l.18,0a.23.23,0,0,1,0-.25,2.82,2.82,0,0,1,1.5-1.55,2.49,2.49,0,0,1,1-.21,3.16,3.16,0,0,1,2.18.88,6.41,6.41,0,0,1,1.72,3.71,11,11,0,0,0,1.55,4.07l.52.78Z"/><path class="cls-2" d="M78.64,106.27a2.85,2.85,0,0,1,2,.81c2.15,2.07,1.1,4.49,3.25,7.74-3.49-1.74-5.77-.42-8.08-2.3a2.81,2.81,0,0,1-1-2.86,3.08,3.08,0,0,1,1.07-1.41h0a8.32,8.32,0,0,1,2.22,1.13c.06,0,0,2.58,2,3.85a4.21,4.21,0,0,1-1.65-3.61h0A16.67,16.67,0,0,1,82.91,114a17.32,17.32,0,0,0-5.52-5.42,2.93,2.93,0,0,1,1.65-.4,3.83,3.83,0,0,1,2.24.72,3.37,3.37,0,0,0-2.35-.9,5.18,5.18,0,0,0-1.84.38h0a4.59,4.59,0,0,1-.76-.49,2.55,2.55,0,0,1,1.37-1.41,2.25,2.25,0,0,1,.94-.19m0-.5a2.81,2.81,0,0,0-1.15.23,3.08,3.08,0,0,0-1.64,1.72v0h0l-.16.09a3.63,3.63,0,0,0-1.27,1.68,3.28,3.28,0,0,0,1.13,3.4,6.62,6.62,0,0,0,4,1.32,10.52,10.52,0,0,1,4.14,1l1.67.83-1-1.56a10.51,10.51,0,0,1-1.51-4,6.66,6.66,0,0,0-1.8-3.83,3.37,3.37,0,0,0-2.35-1Z"/><path class="cls-3" d="M63.85,67.32a3.45,3.45,0,0,1-3-1.74,3.7,3.7,0,0,1-.26-2.19c0-.11.19-.23.43-.34h-.29l-.1-.16a3.14,3.14,0,0,1,0-2.43,3.44,3.44,0,0,1,3.15-2,7.4,7.4,0,0,1,4.36,1.68,12.67,12.67,0,0,0,4.53,2.14l.91.2-.89.28a12.62,12.62,0,0,0-4.35,2.49,7.32,7.32,0,0,1-4.2,2Z"/><path class="cls-2" d="M63.78,58.73h0c3.42,0,4.48,2.82,8.83,3.81-4.26,1.33-5.08,4.23-8.49,4.52h-.27a3.19,3.19,0,0,1-2.79-1.6,3.51,3.51,0,0,1-.24-2,7.92,7.92,0,0,1,2.74-.86h0a6.3,6.3,0,0,0,3.83,1.67,4.73,4.73,0,0,0,.9-.09l-.47,0a4.82,4.82,0,0,1-3.77-1.69,21.62,21.62,0,0,1,3.46-.28,14.48,14.48,0,0,1,3.63.4A14.14,14.14,0,0,0,67,62.06a25.12,25.12,0,0,0-4.69.47h0a4.23,4.23,0,0,1,3.47-2.82c-2.84.07-3.84,2.9-3.88,2.9-.52.11-.87.2-1,.2s0,0,0,0a3,3,0,0,1,0-2.24,3.21,3.21,0,0,1,2.92-1.83m0-.5a3.69,3.69,0,0,0-3.38,2.15,3.47,3.47,0,0,0,0,2.65l.05.1a.57.57,0,0,0-.12.21,4,4,0,0,0,.28,2.35,3.73,3.73,0,0,0,3.24,1.88l.32,0a7.56,7.56,0,0,0,4.33-2.08A12.07,12.07,0,0,1,72.76,63l1.78-.56-1.82-.41A12.08,12.08,0,0,1,68.28,60a7.59,7.59,0,0,0-4.49-1.72Z"/><path class="cls-3" d="M61.84,78.75A12.66,12.66,0,0,0,58.56,75a7.37,7.37,0,0,1-2.79-3.74,3.46,3.46,0,0,1,1.07-3.57,3.5,3.5,0,0,1,2-.7,1.75,1.75,0,0,1,.4,0c.14,0,.2.09.23.33,0-.26.11-.46.21-.51a3.71,3.71,0,0,1,1.67-.38,3.75,3.75,0,0,1,.5,0,3.47,3.47,0,0,1,2.56,2.72,7.32,7.32,0,0,1-.83,4.59,12.67,12.67,0,0,0-1.23,4.86l0,.93Z"/><path class="cls-2" d="M61.31,66.68a2.25,2.25,0,0,1,.46,0,3.21,3.21,0,0,1,2.36,2.52c.64,3.35-1.93,4.93-2.07,9.4-2.12-3.94-5.12-4.19-6.05-7.48a3.19,3.19,0,0,1,1-3.31,3.23,3.23,0,0,1,1.81-.65,2,2,0,0,1,.35,0,5.34,5.34,0,0,1,.09,1S56.79,70,57.48,72.78a4.33,4.33,0,0,1,1.78-4.11h0c.14,1.89.72,5.86,2.47,8.51a18.89,18.89,0,0,1-2-6.79h0A4.89,4.89,0,0,1,62.46,74c-.18-2.74-2.78-4-2.79-4.13A8,8,0,0,1,59.76,67a3.44,3.44,0,0,1,1.55-.35m0-.5a4,4,0,0,0-1.79.41.43.43,0,0,0-.17.18l-.11,0a2,2,0,0,0-.44,0,3.5,3.5,0,0,0-3.27,4.59,7.54,7.54,0,0,0,2.87,3.86,12.11,12.11,0,0,1,3.22,3.72l.88,1.64.06-1.86a12.28,12.28,0,0,1,1.21-4.77,7.58,7.58,0,0,0,.85-4.73,3.67,3.67,0,0,0-2.76-2.92,3.12,3.12,0,0,0-.55,0Z"/><path class="cls-3" d="M55,75a10.92,10.92,0,0,0-3.4-2.68,6.39,6.39,0,0,1-3-2.73A3,3,0,0,1,49,66.35a2.8,2.8,0,0,1,1.91-1,.24.24,0,0,1,.24.12.49.49,0,0,1,.11-.34A3.29,3.29,0,0,1,53,64.52a3,3,0,0,1,2.65,1.92,6.42,6.42,0,0,1,0,4.06,10.87,10.87,0,0,0-.25,4.32l.15.91Z"/><path class="cls-2" d="M53.05,64.77a2.76,2.76,0,0,1,2.38,1.76c1.1,2.75-.83,4.5-.21,8.33-2.45-3-5-2.73-6.37-5.37a2.78,2.78,0,0,1,.29-3,2.58,2.58,0,0,1,1.72-.88h0a4.12,4.12,0,0,1,.25.86,4,4,0,0,0-.75,4.13,3.7,3.7,0,0,1,.84-3.78h0a17,17,0,0,0,3.5,6.83,16.36,16.36,0,0,1-2.84-5.44h0a4.31,4.31,0,0,1,2.92,2.64,5,5,0,0,0-3.05-3,7.09,7.09,0,0,1-.4-2.46,3.06,3.06,0,0,1,1.66-.6h0m0-.5h0A3.55,3.55,0,0,0,51,65a.46.46,0,0,0-.12.16h-.05a3.09,3.09,0,0,0-2.1,1,3.26,3.26,0,0,0-.36,3.53,6.55,6.55,0,0,0,3.1,2.84,10.77,10.77,0,0,1,3.33,2.62L56,76.61l-.29-1.83A10.19,10.19,0,0,1,56,70.55a6.68,6.68,0,0,0-.07-4.21,3.26,3.26,0,0,0-2.85-2.07Z"/><path class="cls-3" d="M52,57.2a3.39,3.39,0,0,1-1.94-.57,3.45,3.45,0,0,1-1.46-2.22c0-.19,0-.25.43-.4a2.88,2.88,0,0,1-.49.06h-.11L48.3,54a4,4,0,0,1-1-2.14,3.75,3.75,0,0,1,2-3.53,6.29,6.29,0,0,1,3.16-.76,17.42,17.42,0,0,1,1.88.12,22.43,22.43,0,0,0,2.24.14,11.42,11.42,0,0,0,3.24-.45l.9-.25-.65.67a13.71,13.71,0,0,0-2.88,4.66,8.15,8.15,0,0,1-3,4.14A3.89,3.89,0,0,1,52,57.2ZM50.1,53.75v0h0Z"/><path class="cls-2" d="M59.83,47.6c-3.41,3.5-2.69,6.72-5.82,8.77A3.59,3.59,0,0,1,52,57a3.19,3.19,0,0,1-1.8-.52,3.26,3.26,0,0,1-1.35-2,4.89,4.89,0,0,1,1-.44h0a5.91,5.91,0,0,0,3.06,1,4.2,4.2,0,0,0,2.23-.63,4.93,4.93,0,0,1-2,.44,4.27,4.27,0,0,1-2.85-1c1.93-.77,5.87-2.68,8.07-5.37A20.94,20.94,0,0,1,52,52.75h0a5.31,5.31,0,0,1,2.88-4.06c-2.8,1.09-3.29,4.23-3.38,4.27a11.87,11.87,0,0,1-2.94.87l-.09,0a3.78,3.78,0,0,1-1-2,3.5,3.5,0,0,1,1.85-3.28,6.18,6.18,0,0,1,3-.73c1.27,0,2.58.26,4.12.26a11.93,11.93,0,0,0,3.31-.46m1.65-1-1.79.5a11.24,11.24,0,0,1-3.17.44,21.82,21.82,0,0,1-2.21-.14c-.66-.06-1.28-.12-1.91-.12a6.55,6.55,0,0,0-3.28.79A4,4,0,0,0,47,51.87a4.3,4.3,0,0,0,1.14,2.3.53.53,0,0,0,.25.14v.13a3.63,3.63,0,0,0,3.65,3,4.08,4.08,0,0,0,2.24-.66,8.31,8.31,0,0,0,3.08-4.25A13.32,13.32,0,0,1,60.19,48l1.29-1.33Z"/><path class="cls-3" d="M73.91,57a4,4,0,0,1-2.48-.86,8.36,8.36,0,0,1-2.67-4.52,14.32,14.32,0,0,0-2.53-5.07l-.58-.72.86.33a13.2,13.2,0,0,0,5.1.83h1a7.57,7.57,0,0,1,4.63,1.13A3.85,3.85,0,0,1,79,51.88,4.18,4.18,0,0,1,77.68,54l-.07.06h-.15a2.53,2.53,0,0,1-.66-.15c.46.23.54.3.49.5a3.57,3.57,0,0,1-1.7,2.13A3.35,3.35,0,0,1,73.91,57Zm1.94-3.36.06,0,0,0Z"/><path class="cls-2" d="M66.43,46.34a13.45,13.45,0,0,0,5.18.85h1a7.39,7.39,0,0,1,4.5,1.09,3.6,3.6,0,0,1,1.6,3.54,3.92,3.92,0,0,1-1.2,2h-.06a11.28,11.28,0,0,1-3-1.17c-.1-.05-.31-3.32-3.09-4.71A5.49,5.49,0,0,1,74,52.37h0a25.69,25.69,0,0,1-6.76-5.58c2,3,6.45,5.82,8.36,6.79a4.16,4.16,0,0,1-2.58.75,5,5,0,0,1-2.48-.67,4.35,4.35,0,0,0,2.66.88A6.44,6.44,0,0,0,76,53.79h0a5.68,5.68,0,0,1,1,.55,3.39,3.39,0,0,1-1.59,2,3.06,3.06,0,0,1-1.55.38,3.73,3.73,0,0,1-2.32-.8c-3-2.4-2-5.64-5.16-9.56m-1.56-1.13L66,46.66a13.71,13.71,0,0,1,2.48,5,8.59,8.59,0,0,0,2.76,4.64,4.22,4.22,0,0,0,2.63.91,3.65,3.65,0,0,0,1.81-.45,3.84,3.84,0,0,0,1.82-2.32s0-.09,0-.14a.54.54,0,0,0,.27-.11,4.4,4.4,0,0,0,1.38-2.25,4.13,4.13,0,0,0-1.82-4.07,8,8,0,0,0-4.77-1.17h-1a13.07,13.07,0,0,1-5-.81l-1.73-.67Z"/><path class="cls-3" d="M43.54,52.21h-.23a3.27,3.27,0,0,1-2.64-2.37,7,7,0,0,1,.41-4.41,12.11,12.11,0,0,0,.78-4.68l0-.93.51.78a11.76,11.76,0,0,0,3.39,3.31,7.07,7.07,0,0,1,2.94,3.32,3.29,3.29,0,0,1-.72,3.47,3.2,3.2,0,0,1-2,.83h-.2c-.13,0-.19-.06-.24-.24a.61.61,0,0,1-.16.44,3.61,3.61,0,0,1-1.8.5Z"/><path class="cls-2" d="M42.11,40.73c2.31,3.54,5.16,3.54,6.3,6.57a2.83,2.83,0,0,1-2.47,4h-.17a4,4,0,0,1-.17-1s2.17-1.86,1.29-4.41a4.05,4.05,0,0,1-1.35,4h0c-.27-1.77-1.15-5.47-3-7.84A18,18,0,0,1,45,48.32h0a4.69,4.69,0,0,1-2.88-3.21c.39,2.57,2.95,3.58,3,3.67a7.59,7.59,0,0,1,.14,2.72,3.3,3.3,0,0,1-1.66.46h-.21a3,3,0,0,1-2.42-2.19c-.88-3.12,1.42-4.81,1.2-9m-.6-1.83.1,1.86a11.5,11.5,0,0,1-.77,4.58,7.19,7.19,0,0,0-.41,4.56,3.54,3.54,0,0,0,2.85,2.55h.26a3.76,3.76,0,0,0,1.94-.55.33.33,0,0,0,.15-.16h.31a3.48,3.48,0,0,0,2.15-.89,3.51,3.51,0,0,0,.79-3.75,7.17,7.17,0,0,0-3-3.43,11.77,11.77,0,0,1-3.33-3.25l-1-1.55Z"/><path class="cls-3" d="M83.47,52.29a3.58,3.58,0,0,1-1.81-.51.59.59,0,0,1-.15-.42c-.05.16-.11.21-.24.22l-.21,0a3.21,3.21,0,0,1-2-.83,3.29,3.29,0,0,1-.73-3.48A7,7,0,0,1,81.3,44a11.76,11.76,0,0,0,3.39-3.31l.51-.78,0,.93a12,12,0,0,0,.78,4.67,7,7,0,0,1,.41,4.41,3.28,3.28,0,0,1-2.64,2.38Z"/><path class="cls-2" d="M84.9,40.8c-.22,4.23,2.08,5.92,1.2,9A3,3,0,0,1,83.68,52h-.21a3.37,3.37,0,0,1-1.67-.47A7.68,7.68,0,0,1,82,48.86c0-.09,2.57-1.1,3-3.67A4.67,4.67,0,0,1,82,48.4h0a18,18,0,0,1,2.46-6.25c-1.87,2.37-2.73,6.07-3,7.84h0a4.08,4.08,0,0,1-1.36-4c-.87,2.54,1.31,4.37,1.3,4.4a4.94,4.94,0,0,1-.17,1h-.18a3,3,0,0,1-1.81-.77,3,3,0,0,1-.66-3.2c1.14-3,4-3,6.31-6.58M85.5,39l-1,1.55a11.62,11.62,0,0,1-3.32,3.25,7.17,7.17,0,0,0-3,3.43A3.49,3.49,0,0,0,78.92,51a3.38,3.38,0,0,0,2.14.9l.24,0h.07a.42.42,0,0,0,.17.18,3.89,3.89,0,0,0,1.93.54h.26A3.51,3.51,0,0,0,86.58,50a7.16,7.16,0,0,0-.41-4.55,11.55,11.55,0,0,1-.77-4.59L85.5,39Z"/><path class="cls-3" d="M36.92,54.54a2.93,2.93,0,0,1-1.85-.66,5.88,5.88,0,0,1-1.81-3.27A10,10,0,0,0,31.58,47L31,46.27l.86.36a9.89,9.89,0,0,0,3.9.68,5.91,5.91,0,0,1,3.63.91A2.8,2.8,0,0,1,40.57,51a2.62,2.62,0,0,1-1.15,1.63l-.05,0h-.15a.37.37,0,0,1,0,.28,3,3,0,0,1-1.19,1.33,2.47,2.47,0,0,1-1.15.27Z"/><path class="cls-2" d="M31.78,46.86c3.28,1.35,5.26,0,7.49,1.56A2.57,2.57,0,0,1,40.33,51a2.39,2.39,0,0,1-1,1.47h0a6.15,6.15,0,0,1-.57-.6,3.65,3.65,0,0,0-1.19-3.66,3.4,3.4,0,0,1,1,3.42h0a15.51,15.51,0,0,0-5.8-4,15.12,15.12,0,0,1,4.67,3.16,2,2,0,0,1-.86.13,4.14,4.14,0,0,1-2.66-1,4,4,0,0,0,3,1.17c.4,0,.69,0,.77,0h0A6.15,6.15,0,0,1,39,52.85,2.81,2.81,0,0,1,38,54.05a2.18,2.18,0,0,1-1,.24,2.65,2.65,0,0,1-1.69-.61c-2.08-1.74-1.29-4-3.45-6.82m-1.53-1.17,1.14,1.47A9.62,9.62,0,0,1,33,50.68a6.15,6.15,0,0,0,1.89,3.39,3.17,3.17,0,0,0,2,.72,2.71,2.71,0,0,0,1.27-.3A3.3,3.3,0,0,0,39.5,53a.58.58,0,0,0,0-.17h0a2.84,2.84,0,0,0,1.27-1.79A3,3,0,0,0,39.55,48a6.18,6.18,0,0,0-3.76-.95A9.6,9.6,0,0,1,32,46.4l-1.72-.71Z"/><path class="cls-3" d="M90.09,54.61a2.5,2.5,0,0,1-1.15-.26A3,3,0,0,1,87.75,53a.4.4,0,0,1,0-.29h-.15l-.07,0a2.6,2.6,0,0,1-1.13-1.62A2.8,2.8,0,0,1,87.6,48.3a5.91,5.91,0,0,1,3.63-.91,9.89,9.89,0,0,0,3.9-.68l.86-.36-.57.74a10,10,0,0,0-1.67,3.59A5.88,5.88,0,0,1,91.94,54,2.87,2.87,0,0,1,90.09,54.61Z"/><path class="cls-2" d="M95.22,46.94c-2.16,2.81-1.36,5.08-3.44,6.82a2.63,2.63,0,0,1-1.69.6,2.3,2.3,0,0,1-1-.23A2.77,2.77,0,0,1,88,52.92a6.4,6.4,0,0,1,1.39-1.81h0c.08,0,.38,0,.77,0a4,4,0,0,0,3-1.18,4.07,4.07,0,0,1-2.66,1,2.13,2.13,0,0,1-.86-.12,15.2,15.2,0,0,1,4.67-3.17,15.64,15.64,0,0,0-5.8,4h0a3.4,3.4,0,0,1,1-3.42,3.65,3.65,0,0,0-1.19,3.66,4.45,4.45,0,0,1-.57.59h0a2.34,2.34,0,0,1-1-1.46,2.56,2.56,0,0,1,1.06-2.53c2.23-1.56,4.2-.21,7.48-1.56m1.53-1.18L95,46.47a9.41,9.41,0,0,1-3.81.67,6.09,6.09,0,0,0-3.76,1,3,3,0,0,0-1.26,3.06,2.84,2.84,0,0,0,1.27,1.78h0a.58.58,0,0,0,0,.17,3.22,3.22,0,0,0,1.31,1.45,2.62,2.62,0,0,0,1.27.3,3.11,3.11,0,0,0,2-.72A6,6,0,0,0,94,50.75a9.58,9.58,0,0,1,1.63-3.51l1.13-1.48Z"/><path class="cls-3" d="M85.06,88.45a6.34,6.34,0,0,1-1.29-.13,3.77,3.77,0,0,1-2.94-2.83,4.07,4.07,0,0,1,.39-2.38c0-.08.11-.19.76-.25-.43,0-.51-.07-.56-.24A3.49,3.49,0,0,1,82.18,80,3.7,3.7,0,0,1,85,78.74a4,4,0,0,1,1.08.16A8.13,8.13,0,0,1,90.19,82a13.67,13.67,0,0,0,4.15,3.67l.81.45-.93,0a14,14,0,0,0-5.38,1.3A9.68,9.68,0,0,1,85.06,88.45Zm-2-5.62Z"/><path class="cls-2" d="M85,79a3.58,3.58,0,0,1,1,.15c3.62,1.07,3.87,4.38,8.18,6.77C89.87,86,88,88.2,85.06,88.2a6.16,6.16,0,0,1-1.24-.13,3.51,3.51,0,0,1-2.75-2.62,3.88,3.88,0,0,1,.37-2.22,3.52,3.52,0,0,1,1.43-.15c.49,0,1.08,0,1.74.09.1,0,1.5,2.89,4.52,3.13a5.42,5.42,0,0,1-4-3.08h0a21.11,21.11,0,0,1,7.48,2.32c-2.91-2-7.28-2.65-9.36-2.83a4.59,4.59,0,0,1,3.85-2,4.27,4.27,0,0,1,.7.05,4.19,4.19,0,0,0-1.13-.15,5.41,5.41,0,0,0-3.88,2,6.4,6.4,0,0,1-1.15-.11,3.3,3.3,0,0,1,.72-2.38A3.41,3.41,0,0,1,85,79m0-.5a3.92,3.92,0,0,0-3,1.38,3.83,3.83,0,0,0-.81,2.78s0,.08,0,.12A.52.52,0,0,0,81,83a4.37,4.37,0,0,0-.42,2.55,4,4,0,0,0,3.15,3,6.68,6.68,0,0,0,1.33.14,9.91,9.91,0,0,0,3.88-1,13.39,13.39,0,0,1,5.29-1.28l1.86,0-1.63-.9a13.39,13.39,0,0,1-4.08-3.61,8.35,8.35,0,0,0-4.2-3.2A4.05,4.05,0,0,0,85,78.49Z"/><path class="cls-3" d="M76.57,95.63a9.83,9.83,0,0,0-.81-3.2A6.57,6.57,0,0,1,75.21,88a3.07,3.07,0,0,1,2.43-2.22h.23a3.36,3.36,0,0,1,1.67.46.54.54,0,0,1,.14.33.21.21,0,0,1,.2-.15l.21,0a3,3,0,0,1,1.83.76,3.05,3.05,0,0,1,.7,3.22,6.35,6.35,0,0,1-3,3.19A10.23,10.23,0,0,0,77,95.77l-.41.53Z"/><path class="cls-2" d="M77.87,86a3.08,3.08,0,0,1,1.53.42,7.17,7.17,0,0,1-.12,2.5c0,.08-2.36,1-2.71,3.4a4.31,4.31,0,0,1,2.63-3h0A16.32,16.32,0,0,1,77,95.14a17.28,17.28,0,0,0,2.72-7.24h0A3.75,3.75,0,0,1,81,91.58a4,4,0,0,0-1.23-4,3.92,3.92,0,0,1,.16-.9h.17a2.7,2.7,0,0,1,1.66.7,2.76,2.76,0,0,1,.63,2.94c-1,2.8-3.59,2.85-5.56,5.35-.13-3-2.16-4.69-1.37-7.57a2.8,2.8,0,0,1,2.22-2h.2m0-.5h-.25A3.27,3.27,0,0,0,75,87.92a6.89,6.89,0,0,0,.56,4.6,9.73,9.73,0,0,1,.79,3.12L76.38,97l.83-1a9.84,9.84,0,0,1,2.59-2.17,6.47,6.47,0,0,0,3-3.32A3.29,3.29,0,0,0,82.08,87a3.2,3.2,0,0,0-2-.82l-.24,0h0a.38.38,0,0,0-.13-.13,3.61,3.61,0,0,0-1.81-.51Z"/><path class="cls-3" d="M42.11,88.37a9.84,9.84,0,0,1-3.79-1,14,14,0,0,0-5.39-1.31l-.93,0,.82-.45A13.91,13.91,0,0,0,37,82a8.08,8.08,0,0,1,4.08-3.12,3.64,3.64,0,0,1,1.09-.16A3.69,3.69,0,0,1,45,80a3.5,3.5,0,0,1,.76,2.58c0,.17-.12.22-.55.25.64.06.71.17.75.24a4.28,4.28,0,0,1,.4,2.39,3.81,3.81,0,0,1-3,2.83,6.32,6.32,0,0,1-1.28.13Zm2-5.61h0Z"/><path class="cls-2" d="M42.14,78.92a3.45,3.45,0,0,1,2.64,1.18,3.28,3.28,0,0,1,.71,2.38,6.06,6.06,0,0,1-1.14.11h0a5.44,5.44,0,0,0-3.88-2,4.49,4.49,0,0,0-1.12.15,5.6,5.6,0,0,1,.69,0,4.61,4.61,0,0,1,3.85,2c-2.08.18-6.45.87-9.36,2.84A20.67,20.67,0,0,1,42,83.15h0a5.33,5.33,0,0,1-4,3.07c3-.23,4.42-3.12,4.52-3.13.67-.06,1.27-.08,1.76-.08a3.53,3.53,0,0,1,1.41.14,3.9,3.9,0,0,1,.37,2.22A3.52,3.52,0,0,1,43.34,88a6.9,6.9,0,0,1-1.23.12c-2.93,0-4.82-2.2-9.17-2.29,4.31-2.38,4.56-5.71,8.18-6.76a3.36,3.36,0,0,1,1-.15m0-.5v0a3.83,3.83,0,0,0-1.16.17,8.26,8.26,0,0,0-4.2,3.2A13.65,13.65,0,0,1,32.7,85.4l-1.63.9,1.86,0a13.55,13.55,0,0,1,5.29,1.29,9.91,9.91,0,0,0,3.89,1,6.81,6.81,0,0,0,1.33-.13,4,4,0,0,0,3.14-3,4.29,4.29,0,0,0-.42-2.55.48.48,0,0,0-.21-.22.42.42,0,0,0,0-.12,3.8,3.8,0,0,0-.81-2.77,3.93,3.93,0,0,0-3-1.38Z"/><path class="cls-3" d="M50.14,95.7a9.9,9.9,0,0,0-2.64-2.23,6.27,6.27,0,0,1-3-3.19,3.06,3.06,0,0,1,.7-3.22,3,3,0,0,1,1.82-.75h.21a.2.2,0,0,1,.21.15.53.53,0,0,1,.15-.33,3.42,3.42,0,0,1,1.66-.46l.23,0A3,3,0,0,1,52,87.91a6.57,6.57,0,0,1-.55,4.44,9.9,9.9,0,0,0-.81,3.2l0,.68Z"/><path class="cls-2" d="M49.29,85.93h.2a2.81,2.81,0,0,1,2.22,2c.79,2.88-1.24,4.58-1.37,7.56-2-2.5-4.53-2.55-5.56-5.35a2.77,2.77,0,0,1,.63-2.94,2.71,2.71,0,0,1,1.65-.69h.18a3.75,3.75,0,0,1,.16.89,4,4,0,0,0-1.23,4.05,3.75,3.75,0,0,1,1.27-3.69h0a17.23,17.23,0,0,0,2.72,7.24A16.54,16.54,0,0,1,48,89.28h0a4.31,4.31,0,0,1,2.63,3c-.35-2.37-2.7-3.32-2.71-3.4a7.22,7.22,0,0,1-.12-2.51,3.19,3.19,0,0,1,1.53-.42m0-.5a3.67,3.67,0,0,0-1.8.5.41.41,0,0,0-.14.15h-.29a3.14,3.14,0,0,0-2,.82,3.26,3.26,0,0,0-.77,3.48,6.47,6.47,0,0,0,3,3.32A9.84,9.84,0,0,1,50,95.85l.83,1.06.06-1.34a9.79,9.79,0,0,1,.79-3.13,6.85,6.85,0,0,0,.56-4.59,3.24,3.24,0,0,0-2.64-2.4l-.26,0Z"/><path class="cls-3" d="M63.37,89.82a9.63,9.63,0,0,0-2.89-.42c-.58,0-1.11,0-1.62.07s-.94.08-1.4.08a5.38,5.38,0,0,1-2.79-.7,3.14,3.14,0,0,1-1.61-3,3,3,0,0,1,1.1-2l.07,0h.08a.25.25,0,0,1,.14,0c-.1-.16-.15-.29-.12-.38a3.39,3.39,0,0,1,1.19-1.62,2.84,2.84,0,0,1,1.57-.44,3.21,3.21,0,0,1,1.83.56,6.67,6.67,0,0,1,2.4,3.48,11.4,11.4,0,0,0,2.3,3.9l.63.68Z"/><path class="cls-2" d="M57.09,81.72a3,3,0,0,1,1.69.52c2.55,1.74,1.9,4.39,4.66,7.34a9.93,9.93,0,0,0-3-.43c-1.11,0-2.08.15-3,.15a5.2,5.2,0,0,1-2.67-.66,2.91,2.91,0,0,1-1.48-2.74,2.68,2.68,0,0,1,1-1.78h0a5.64,5.64,0,0,1,.71.6s-.44,2.7,1.75,4A3.87,3.87,0,0,1,55.3,85h0c1.29,1.12,4.19,3.3,7,3.89a17.29,17.29,0,0,1-5.63-3.07,3,3,0,0,1,1.41-.26,4.62,4.62,0,0,1,2.66.84,4.3,4.3,0,0,0-2.91-1,9,9,0,0,0-1.49.16h0a7,7,0,0,1-1.77-1.9,3.17,3.17,0,0,1,1.09-1.48,2.6,2.6,0,0,1,1.43-.4m0-.5a3.07,3.07,0,0,0-1.71.49,3.6,3.6,0,0,0-1.29,1.75.44.44,0,0,0,0,.21l0,0a3.15,3.15,0,0,0-1.21,2.12,3.39,3.39,0,0,0,1.73,3.25,5.59,5.59,0,0,0,2.91.73c.47,0,.93,0,1.42-.08s1-.07,1.6-.07a9.41,9.41,0,0,1,2.81.41l1.78.53L63.8,89.24a10.89,10.89,0,0,1-2.24-3.82,7,7,0,0,0-2.5-3.6,3.52,3.52,0,0,0-2-.6Z"/><path class="cls-3" d="M63.54,89.48a11.28,11.28,0,0,0,2.3-3.89,6.74,6.74,0,0,1,2.4-3.49,3.27,3.27,0,0,1,1.82-.55,2.85,2.85,0,0,1,1.58.44,3.46,3.46,0,0,1,1.19,1.62.49.49,0,0,1-.12.37.25.25,0,0,1,.14,0h.08L73,84a2.9,2.9,0,0,1,1.09,1.94,3.13,3.13,0,0,1-1.6,3,5.45,5.45,0,0,1-2.79.69c-.46,0-.92,0-1.4-.07s-1-.08-1.62-.08a9.51,9.51,0,0,0-2.88.42l-.89.27Z"/><path class="cls-2" d="M70.07,81.8a2.52,2.52,0,0,1,1.43.4,3.17,3.17,0,0,1,1.09,1.48,7.59,7.59,0,0,1-1.77,1.9h0a8.48,8.48,0,0,0-1.49-.17,4.3,4.3,0,0,0-2.91,1,4.67,4.67,0,0,1,2.66-.83,3.14,3.14,0,0,1,1.41.25,17,17,0,0,1-5.63,3.07c2.82-.59,5.72-2.76,7-3.88h0a3.88,3.88,0,0,1-1.47,3.77c2.19-1.32,1.72-4,1.75-4a5.28,5.28,0,0,1,.71-.61h0a2.68,2.68,0,0,1,1,1.77,2.9,2.9,0,0,1-1.48,2.74,5.1,5.1,0,0,1-2.67.66c-.94,0-1.91-.15-3-.15a10.21,10.21,0,0,0-3,.43c2.76-3,2.11-5.59,4.66-7.34a3,3,0,0,1,1.69-.51m0-.5h0a3.44,3.44,0,0,0-2,.6,6.85,6.85,0,0,0-2.49,3.6,11.06,11.06,0,0,1-2.25,3.81l-1.27,1.36,1.78-.54a9.41,9.41,0,0,1,2.81-.41c.56,0,1.09,0,1.6.08s1,.07,1.42.07a5.59,5.59,0,0,0,2.91-.72,3.41,3.41,0,0,0,1.73-3.25,3.17,3.17,0,0,0-1.21-2.12l0,0a.6.6,0,0,0,0-.19,3.66,3.66,0,0,0-1.3-1.76,3,3,0,0,0-1.71-.49Z"/><path class="cls-3" d="M60.09,59.48a5.11,5.11,0,0,1-3-1.31,8.62,8.62,0,0,0-3-1.59l-.9-.25.9-.23a8.56,8.56,0,0,0,3-1.56,5.07,5.07,0,0,1,3-1.27h0a2.48,2.48,0,0,1,2.28,1.33,2.23,2.23,0,0,1,.06,1.75l-.06.12a.29.29,0,0,1,.11.15,2.67,2.67,0,0,1-.13,1.55,2.42,2.42,0,0,1-2.18,1.32Z"/><path class="cls-2" d="M60.22,53.51a2.19,2.19,0,0,1,2,1.19,2,2,0,0,1,.07,1.54h0c-.08,0-.32,0-.68-.12a3.19,3.19,0,0,0-2.71-1.9h0a2.93,2.93,0,0,1,2.45,1.86h0a16.65,16.65,0,0,0-2.71-.22,10.35,10.35,0,0,0-3.37.49,10.85,10.85,0,0,1,3-.37,14.24,14.24,0,0,1,1.85.12,3.31,3.31,0,0,1-2.66,1.25h-.2a3.14,3.14,0,0,0,.51,0,4.22,4.22,0,0,0,2.69-1.24h0a5.41,5.41,0,0,1,1.9.52,2.41,2.41,0,0,1-.12,1.39,2.17,2.17,0,0,1-1.95,1.17H60.1c-2.34-.11-3-2.08-5.92-2.89,3-.78,3.61-2.74,6-2.82h.09m0-.5h-.1A5.27,5.27,0,0,0,57,54.34a8.26,8.26,0,0,1-2.94,1.52l-1.8.47,1.79.49A8.23,8.23,0,0,1,57,58.38a5.3,5.3,0,0,0,3.11,1.35h.13a2.7,2.7,0,0,0,2.41-1.46,2.86,2.86,0,0,0,.14-1.73.43.43,0,0,0,0-.13,2.48,2.48,0,0,0-.07-1.92A2.7,2.7,0,0,0,60.22,53Z"/></g></g></g></svg>