<svg xmlns="http://www.w3.org/2000/svg" viewBox="0 0 607.93 101.68"><defs><style>.cls-1{fill:#fff;}</style></defs><title>Asset 1</title><g id="Layer_2" data-name="Layer 2"><g id="Layer_1-2" data-name="Layer 1"><path class="cls-1" d="M47.56,58.48a54.17,54.17,0,0,1-17.8,3.18c-8.78,0-16-2.23-21.68-7.65C3.1,49.19,0,41.45,0,32.42.09,15.14,12,2.49,31.39,2.49A35.92,35.92,0,0,1,45.84,5.16L44,11.27a29.93,29.93,0,0,0-12.81-2.5c-14.11,0-23.31,8.77-23.31,23.31,0,14.7,8.86,23.39,22.36,23.39,4.9,0,8.26-.69,10-1.55V36.64H28.47v-6H47.56Z"/><path class="cls-1" d="M53.49,32.42c0-4.9-.08-9.11-.34-13h6.62L60,27.61h.34c1.89-5.59,6.45-9.12,11.53-9.12a8.28,8.28,0,0,1,2.15.26v7.14a11,11,0,0,0-2.58-.26c-5.34,0-9.12,4-10.15,9.72A21.38,21.38,0,0,0,61,38.87V61.06H53.49Z"/><path class="cls-1" d="M82.22,41.62c.17,10.24,6.7,14.45,14.27,14.45A27.3,27.3,0,0,0,108,53.92l1.29,5.42a33.83,33.83,0,0,1-13.85,2.58c-12.81,0-20.47-8.43-20.47-21s7.4-22.45,19.52-22.45c13.59,0,17.2,12,17.2,19.61a29.93,29.93,0,0,1-.25,3.52Zm22.18-5.41c.09-4.82-2-12.3-10.49-12.3-7.65,0-11,7.05-11.61,12.3Z"/><path class="cls-1" d="M124.61,41.62c.18,10.24,6.71,14.45,14.28,14.45a27.22,27.22,0,0,0,11.52-2.15l1.29,5.42a33.73,33.73,0,0,1-13.84,2.58c-12.82,0-20.47-8.43-20.47-21s7.4-22.45,19.52-22.45c13.59,0,17.2,12,17.2,19.61a27.48,27.48,0,0,1-.26,3.52Zm22.19-5.41c.09-4.82-2-12.3-10.49-12.3-7.65,0-11,7.05-11.61,12.3Z"/><path class="cls-1" d="M160.22,30.7c0-4.3-.09-7.82-.35-11.26h6.71l.43,6.88h.17a15.31,15.31,0,0,1,13.76-7.83c5.76,0,14.71,3.44,14.71,17.72V61.06h-7.57v-24c0-6.71-2.49-12.3-9.63-12.3a10.75,10.75,0,0,0-10.15,7.74,10.92,10.92,0,0,0-.52,3.52v25h-7.56Z"/><path class="cls-1" d="M266.94,59.17c-2.75,1.37-8.26,2.75-15.31,2.75C235.29,61.92,223,51.6,223,32.59c0-18.14,12.29-30.44,30.27-30.44,7.22,0,11.78,1.55,13.76,2.58l-1.81,6.11a27.2,27.2,0,0,0-11.7-2.41c-13.58,0-22.61,8.68-22.61,23.91,0,14.19,8.17,23.3,22.27,23.3a29.8,29.8,0,0,0,12.21-2.41Z"/><path class="cls-1" d="M311.32,39.9c0,15.4-10.67,22.11-20.73,22.11-11.26,0-19.95-8.26-19.95-21.42,0-13.93,9.11-22.1,20.64-22.1C303.23,18.49,311.32,27.18,311.32,39.9Zm-33,.43c0,9.12,5.25,16,12.64,16,7.23,0,12.65-6.79,12.65-16.17,0-7-3.53-16-12.47-16S278.29,32.42,278.29,40.33Z"/><path class="cls-1" d="M316.65,30.7c0-4.3-.09-7.82-.35-11.26H323l.43,6.88h.17a15.31,15.31,0,0,1,13.76-7.83c5.77,0,14.71,3.44,14.71,17.72V61.06h-7.57v-24c0-6.71-2.49-12.3-9.63-12.3a10.75,10.75,0,0,0-10.15,7.74,10.94,10.94,0,0,0-.51,3.52v25h-7.57Z"/><path class="cls-1" d="M359.56,53.32a19.86,19.86,0,0,0,10,3c5.5,0,8.08-2.75,8.08-6.19,0-3.61-2.15-5.59-7.74-7.66-7.48-2.66-11-6.79-11-11.78,0-6.71,5.42-12.21,14.37-12.21a20.72,20.72,0,0,1,10.23,2.58l-1.89,5.5a16.27,16.27,0,0,0-8.52-2.4c-4.47,0-7,2.58-7,5.67,0,3.44,2.49,5,7.91,7.05,7.22,2.76,10.92,6.37,10.92,12.56,0,7.31-5.67,12.47-15.56,12.47a23.74,23.74,0,0,1-11.7-2.84Z"/><path class="cls-1" d="M425.87,49.71c0,4.3.08,8.08.34,11.35H419.5l-.43-6.79h-.17A15.67,15.67,0,0,1,405.14,62c-6.54,0-14.36-3.62-14.36-18.24V19.44h7.57v23c0,7.92,2.41,13.25,9.29,13.25a11,11,0,0,0,10-6.88A11.1,11.1,0,0,0,418.3,45V19.44h7.57Z"/><path class="cls-1" d="M432.66,0h7.57V61.06h-7.57Z"/><path class="cls-1" d="M460.09,7.48v12h10.84V25.2H460.09V47.64c0,5.16,1.47,8.09,5.68,8.09a16.76,16.76,0,0,0,4.39-.52l.34,5.68a18.56,18.56,0,0,1-6.71,1c-3.52,0-6.36-1.12-8.17-3.18-2.15-2.24-2.92-5.94-2.92-10.84V25.2h-6.45V19.44h6.45v-10Z"/><path class="cls-1" d="M499.82,61.06l-.6-5.25H499A15.52,15.52,0,0,1,486.24,62c-8.43,0-12.73-5.94-12.73-12,0-10.06,8.94-15.56,25-15.48v-.86c0-3.44-.94-9.63-9.45-9.63a20.67,20.67,0,0,0-10.84,3.1l-1.72-5a25.8,25.8,0,0,1,13.67-3.7c12.73,0,15.83,8.69,15.83,17V51.08a59.29,59.29,0,0,0,.68,10Zm-1.11-21.24c-8.26-.17-17.63,1.29-17.63,9.37,0,4.9,3.27,7.23,7.14,7.23a10.36,10.36,0,0,0,10.06-7,8.1,8.1,0,0,0,.43-2.41Z"/><path class="cls-1" d="M513.07,30.7c0-4.3-.09-7.82-.34-11.26h6.7l.43,6.88H520a15.3,15.3,0,0,1,13.76-7.83c5.76,0,14.7,3.44,14.7,17.72V61.06h-7.57v-24c0-6.71-2.49-12.3-9.63-12.3a10.75,10.75,0,0,0-10.15,7.74,10.94,10.94,0,0,0-.51,3.52v25h-7.57Z"/><path class="cls-1" d="M565.36,7.48v12h10.83V25.2H565.36V47.64c0,5.16,1.46,8.09,5.67,8.09a16.76,16.76,0,0,0,4.39-.52l.34,5.68a18.56,18.56,0,0,1-6.71,1c-3.52,0-6.36-1.12-8.17-3.18C558.73,56.5,558,52.8,558,47.9V25.2h-6.45V19.44H558v-10Z"/><path class="cls-1" d="M582.56,53.32a19.82,19.82,0,0,0,10,3c5.51,0,8.09-2.75,8.09-6.19,0-3.61-2.15-5.59-7.74-7.66-7.49-2.66-11-6.79-11-11.78,0-6.71,5.42-12.21,14.36-12.21a20.72,20.72,0,0,1,10.23,2.58l-1.89,5.5a16.2,16.2,0,0,0-8.51-2.4c-4.47,0-7,2.58-7,5.67,0,3.44,2.5,5,7.91,7.05,7.23,2.76,10.93,6.37,10.93,12.56,0,7.31-5.68,12.47-15.57,12.47a23.76,23.76,0,0,1-11.7-2.84Z"/><path class="cls-1" d="M.71,91.6a10,10,0,0,0,5,1.41c2.87,0,4.55-1.5,4.55-3.68,0-2-1.16-3.17-4.1-4.29C2.64,83.8.45,82,.45,78.93c0-3.36,2.81-5.85,7-5.85a10,10,0,0,1,4.81,1l-.78,2.27a8.77,8.77,0,0,0-4.13-1c-3,0-4.09,1.76-4.09,3.23,0,2,1.32,3,4.32,4.16,3.68,1.41,5.55,3.17,5.55,6.34,0,3.33-2.49,6.2-7.61,6.2A11.28,11.28,0,0,1,0,93.94Z"/><path class="cls-1" d="M19.67,75.06v4.45h4.06v2.14H19.67V90c0,1.92.55,3,2.13,3a6.14,6.14,0,0,0,1.64-.19l.13,2.11a6.88,6.88,0,0,1-2.51.38A4,4,0,0,1,18,94.13c-.8-.83-1.09-2.21-1.09-4V81.65H14.48V79.51H16.9V75.8Z"/><path class="cls-1" d="M26.38,84.34c0-1.82,0-3.39-.13-4.83h2.48l.1,3H29a4.68,4.68,0,0,1,4.32-3.39,3.2,3.2,0,0,1,.8.09v2.66a3.93,3.93,0,0,0-1-.1c-2,0-3.42,1.51-3.81,3.62a8.29,8.29,0,0,0-.13,1.31V95h-2.8Z"/><path class="cls-1" d="M44.86,95l-.23-2h-.1a5.81,5.81,0,0,1-4.77,2.31A4.43,4.43,0,0,1,35,90.9c0-3.74,3.35-5.79,9.38-5.76v-.32c0-1.28-.35-3.58-3.55-3.58a7.77,7.77,0,0,0-4.06,1.15l-.64-1.86a9.75,9.75,0,0,1,5.12-1.37c4.78,0,5.94,3.23,5.94,6.33v5.79A22.14,22.14,0,0,0,47.43,95Zm-.42-7.91c-3.1-.06-6.61.48-6.61,3.49a2.5,2.5,0,0,0,2.67,2.69,3.9,3.9,0,0,0,3.78-2.6,3,3,0,0,0,.16-.89Z"/><path class="cls-1" d="M54.5,75.06v4.45h4.06v2.14H54.5V90c0,1.92.55,3,2.13,3a6.14,6.14,0,0,0,1.64-.19l.13,2.11a6.9,6.9,0,0,1-2.52.38,3.94,3.94,0,0,1-3.06-1.18c-.81-.83-1.1-2.21-1.1-4V81.65H49.31V79.51h2.41V75.8Z"/><path class="cls-1" d="M62.59,87.76c.07,3.81,2.52,5.38,5.35,5.38a10.28,10.28,0,0,0,4.32-.8l.49,2a12.69,12.69,0,0,1-5.19,1c-4.81,0-7.68-3.13-7.68-7.8s2.78-8.35,7.32-8.35c5.1,0,6.45,4.44,6.45,7.29a8.92,8.92,0,0,1-.1,1.31Zm8.32-2c0-1.79-.74-4.58-3.93-4.58-2.87,0-4.13,2.63-4.36,4.58Z"/><path class="cls-1" d="M90.06,79.51c-.06,1.12-.12,2.37-.12,4.25v9c0,3.56-.71,5.73-2.23,7.08A8.34,8.34,0,0,1,82,101.68a10.19,10.19,0,0,1-5.2-1.28l.71-2.14a8.9,8.9,0,0,0,4.58,1.21c2.9,0,5-1.5,5-5.4V92.34H87.1a5.59,5.59,0,0,1-5,2.59c-3.87,0-6.64-3.26-6.64-7.55,0-5.25,3.45-8.22,7-8.22a5.2,5.2,0,0,1,4.87,2.68h.06l.13-2.33Zm-2.93,6.11A3.94,3.94,0,0,0,87,84.34a4.09,4.09,0,0,0-4-3c-2.71,0-4.64,2.28-4.64,5.86,0,3,1.55,5.57,4.61,5.57a4.14,4.14,0,0,0,3.93-2.88,4.66,4.66,0,0,0,.23-1.51Z"/><path class="cls-1" d="M97.06,75.16a1.76,1.76,0,0,1-3.51,0,1.72,1.72,0,0,1,1.77-1.76A1.67,1.67,0,0,1,97.06,75.16ZM93.9,95V79.51h2.84V95Z"/><path class="cls-1" d="M102.48,87.76c.06,3.81,2.51,5.38,5.35,5.38a10.28,10.28,0,0,0,4.32-.8l.49,2a12.69,12.69,0,0,1-5.19,1c-4.81,0-7.68-3.13-7.68-7.8s2.77-8.35,7.32-8.35c5.1,0,6.45,4.44,6.45,7.29a8.92,8.92,0,0,1-.1,1.31Zm8.32-2c0-1.79-.74-4.58-3.93-4.58-2.87,0-4.13,2.63-4.36,4.58Z"/><path class="cls-1" d="M116.12,92.12a7.52,7.52,0,0,0,3.74,1.12c2.06,0,3-1,3-2.31s-.8-2.08-2.9-2.85c-2.81-1-4.13-2.52-4.13-4.38,0-2.5,2-4.54,5.39-4.54a7.72,7.72,0,0,1,3.83,1l-.71,2a6.14,6.14,0,0,0-3.19-.89c-1.67,0-2.61,1-2.61,2.11s.94,1.86,3,2.62c2.71,1,4.09,2.37,4.09,4.67,0,2.72-2.13,4.64-5.83,4.64a9,9,0,0,1-4.39-1Z"/><path class="cls-1" d="M145.7,95c-.62-.61-1.2-1.22-2-2.12a9,9,0,0,1-6.36,2.47c-4.22,0-6.67-2.82-6.67-6,0-2.94,1.77-5,4.26-6.3v-.1a7.39,7.39,0,0,1-1.81-4.51,5.24,5.24,0,0,1,5.51-5.31,4.51,4.51,0,0,1,4.81,4.57c0,2.27-1.32,4.07-4.77,5.76v.1c1.83,2.11,3.9,4.48,5.28,6a15.69,15.69,0,0,0,2.1-6.3h2.58c-.58,3.39-1.52,6.08-3.13,8,1.16,1.21,2.29,2.43,3.58,3.81Zm-3.42-3.72c-1.29-1.4-3.71-4-6.13-6.78a5.3,5.3,0,0,0-2.8,4.38,4.28,4.28,0,0,0,4.45,4.36A6.09,6.09,0,0,0,142.28,91.28Zm-6.61-13.15A6,6,0,0,0,137.31,82c2.2-1.24,3.62-2.4,3.62-4.22A2.55,2.55,0,0,0,138.41,75C136.6,75,135.67,76.47,135.67,78.13Z"/><path class="cls-1" d="M157.12,75.8h-6.61V73.43H166.6V75.8H160V95h-2.84Z"/><path class="cls-1" d="M175,95l-.22-2h-.1a5.82,5.82,0,0,1-4.77,2.31,4.43,4.43,0,0,1-4.77-4.45c0-3.74,3.35-5.79,9.38-5.76v-.32c0-1.28-.35-3.58-3.55-3.58a7.77,7.77,0,0,0-4.06,1.15l-.64-1.86a9.75,9.75,0,0,1,5.12-1.37c4.77,0,5.94,3.23,5.94,6.33v5.79a22.14,22.14,0,0,0,.25,3.72Zm-.42-7.91c-3.09-.06-6.61.48-6.61,3.49a2.51,2.51,0,0,0,2.68,2.69,3.87,3.87,0,0,0,3.77-2.6,2.74,2.74,0,0,0,.16-.89Z"/><path class="cls-1" d="M192.43,94.42a10.61,10.61,0,0,1-4.48.89c-4.71,0-7.77-3.16-7.77-7.9s3.29-8.22,8.38-8.22a9.49,9.49,0,0,1,3.94.8l-.65,2.17a6.68,6.68,0,0,0-3.29-.73c-3.58,0-5.51,2.62-5.51,5.85,0,3.59,2.32,5.8,5.42,5.8a8.15,8.15,0,0,0,3.48-.77Z"/><path class="cls-1" d="M199,75.06v4.45h4.06v2.14H199V90c0,1.92.55,3,2.13,3a6.14,6.14,0,0,0,1.64-.19l.13,2.11a6.84,6.84,0,0,1-2.51.38,4,4,0,0,1-3.07-1.18c-.8-.83-1.09-2.21-1.09-4V81.65h-2.42V79.51h2.42V75.8Z"/><path class="cls-1" d="M208.91,75.16a1.76,1.76,0,0,1-3.52,0,1.72,1.72,0,0,1,1.78-1.76A1.67,1.67,0,0,1,208.91,75.16ZM205.75,95V79.51h2.84V95Z"/><path class="cls-1" d="M223.87,94.42a10.61,10.61,0,0,1-4.48.89c-4.71,0-7.77-3.16-7.77-7.9s3.29-8.22,8.38-8.22a9.49,9.49,0,0,1,3.94.8l-.65,2.17a6.68,6.68,0,0,0-3.29-.73c-3.58,0-5.51,2.62-5.51,5.85,0,3.59,2.32,5.8,5.41,5.8a8.16,8.16,0,0,0,3.49-.77Z"/><path class="cls-1" d="M226.26,92.12A7.52,7.52,0,0,0,230,93.24c2.06,0,3-1,3-2.31s-.81-2.08-2.9-2.85c-2.81-1-4.13-2.52-4.13-4.38,0-2.5,2-4.54,5.38-4.54a7.76,7.76,0,0,1,3.84,1l-.71,2a6.14,6.14,0,0,0-3.19-.89c-1.68,0-2.61,1-2.61,2.11s.93,1.86,3,2.62c2.71,1,4.1,2.37,4.1,4.67,0,2.72-2.13,4.64-5.84,4.64a8.91,8.91,0,0,1-4.38-1Z"/><path class="cls-1" d="M248.57,75.06v4.45h4.07v2.14h-4.07V90c0,1.92.55,3,2.13,3a6.29,6.29,0,0,0,1.65-.19l.12,2.11a6.84,6.84,0,0,1-2.51.38,3.92,3.92,0,0,1-3.06-1.18c-.81-.83-1.1-2.21-1.1-4V81.65h-2.42V79.51h2.42V75.8Z"/><path class="cls-1" d="M269.21,87.12c0,5.73-4,8.23-7.77,8.23-4.23,0-7.48-3.07-7.48-8,0-5.18,3.41-8.22,7.74-8.22C266.18,79.16,269.21,82.39,269.21,87.12Zm-12.38.16c0,3.39,2,6,4.74,6s4.74-2.53,4.74-6c0-2.62-1.33-6-4.68-6S256.83,84.34,256.83,87.28Z"/><path class="cls-1" d="M281.43,73.43v9h10.51v-9h2.84V95h-2.84V84.88H281.43V95h-2.8V73.43Z"/><path class="cls-1" d="M300.59,87.76c.06,3.81,2.51,5.38,5.35,5.38a10.32,10.32,0,0,0,4.32-.8l.48,2a12.69,12.69,0,0,1-5.19,1c-4.8,0-7.67-3.13-7.67-7.8s2.77-8.35,7.32-8.35c5.09,0,6.45,4.44,6.45,7.29a10.61,10.61,0,0,1-.1,1.31Zm8.31-2c0-1.79-.74-4.58-3.93-4.58-2.87,0-4.13,2.63-4.35,4.58Z"/><path class="cls-1" d="M314.61,72.28h2.84V95h-2.84Z"/><path class="cls-1" d="M321.67,84.56c0-2-.06-3.58-.12-5h2.54l.13,2.65h.07a6.14,6.14,0,0,1,5.54-3c3.77,0,6.61,3.16,6.61,7.87,0,5.56-3.42,8.32-7.09,8.32a5.51,5.51,0,0,1-4.81-2.43h-.06v8.41h-2.81Zm2.81,4.13a5.77,5.77,0,0,0,.13,1.15,4.37,4.37,0,0,0,4.25,3.3c3,0,4.74-2.43,4.74-6,0-3.11-1.64-5.76-4.64-5.76a4.52,4.52,0,0,0-4.29,3.48,4.93,4.93,0,0,0-.19,1.16Z"/><path class="cls-1" d="M364.43,84c0,7.42-4.55,11.36-10.09,11.36-5.74,0-9.77-4.42-9.77-10.95,0-6.84,4.29-11.32,10.09-11.32S364.43,77.59,364.43,84Zm-16.86.35c0,4.61,2.51,8.74,6.93,8.74s7-4.07,7-9c0-4.29-2.26-8.77-6.94-8.77S347.57,79.6,347.57,84.34Z"/><path class="cls-1" d="M367.43,84.34c0-1.82,0-3.39-.13-4.83h2.49l.09,3H370a4.68,4.68,0,0,1,4.32-3.39,3.35,3.35,0,0,1,.81.09v2.66a4,4,0,0,0-1-.1c-2,0-3.42,1.51-3.8,3.62a7.26,7.26,0,0,0-.13,1.31V95h-2.81Z"/><path class="cls-1" d="M390.62,79.51c-.07,1.12-.13,2.37-.13,4.25v9c0,3.56-.71,5.73-2.23,7.08a8.34,8.34,0,0,1-5.67,1.85,10.13,10.13,0,0,1-5.19-1.28l.71-2.14a8.83,8.83,0,0,0,4.57,1.21c2.91,0,5-1.5,5-5.4V92.34h-.06a5.59,5.59,0,0,1-5,2.59c-3.87,0-6.64-3.26-6.64-7.55,0-5.25,3.45-8.22,7-8.22a5.2,5.2,0,0,1,4.87,2.68H388l.13-2.33Zm-2.94,6.11a3.94,3.94,0,0,0-.16-1.28,4.09,4.09,0,0,0-4-3c-2.7,0-4.64,2.28-4.64,5.86,0,3,1.55,5.57,4.61,5.57a4.16,4.16,0,0,0,3.94-2.88,4.93,4.93,0,0,0,.22-1.51Z"/><path class="cls-1" d="M403.29,95l-.23-2H403a5.83,5.83,0,0,1-4.78,2.31,4.43,4.43,0,0,1-4.77-4.45c0-3.74,3.36-5.79,9.39-5.76v-.32c0-1.28-.36-3.58-3.55-3.58a7.74,7.74,0,0,0-4.06,1.15l-.65-1.86a9.76,9.76,0,0,1,5.13-1.37c4.77,0,5.93,3.23,5.93,6.33v5.79a22.07,22.07,0,0,0,.26,3.72Zm-.42-7.91c-3.09-.06-6.61.48-6.61,3.49a2.51,2.51,0,0,0,2.68,2.69,3.87,3.87,0,0,0,3.77-2.6,2.74,2.74,0,0,0,.16-.89Z"/><path class="cls-1" d="M409.64,83.7c0-1.6,0-2.91-.13-4.19H412l.16,2.56h.06a5.76,5.76,0,0,1,5.16-2.91c2.16,0,5.52,1.28,5.52,6.59V95h-2.84V86.07c0-2.5-.94-4.58-3.61-4.58a4,4,0,0,0-3.81,2.88,4,4,0,0,0-.19,1.31V95h-2.84Z"/><path class="cls-1" d="M430.15,75.16a1.76,1.76,0,0,1-3.51,0,1.72,1.72,0,0,1,1.77-1.76A1.67,1.67,0,0,1,430.15,75.16ZM427,95V79.51h2.84V95Z"/><path class="cls-1" d="M432.21,93.36l7.07-9.12c.67-.83,1.32-1.56,2-2.4v-.06h-8.45V79.51h11.9l0,1.76-7,9c-.64.86-1.29,1.63-2,2.43v.06h9.13V95H432.21Z"/><path class="cls-1" d="M455.88,95l-.22-2h-.1a5.82,5.82,0,0,1-4.77,2.31A4.43,4.43,0,0,1,446,90.9c0-3.74,3.35-5.79,9.38-5.76v-.32c0-1.28-.36-3.58-3.55-3.58a7.77,7.77,0,0,0-4.06,1.15l-.64-1.86a9.73,9.73,0,0,1,5.12-1.37c4.77,0,5.93,3.23,5.93,6.33v5.79a22.07,22.07,0,0,0,.26,3.72Zm-.42-7.91c-3.09-.06-6.61.48-6.61,3.49a2.51,2.51,0,0,0,2.68,2.69,3.87,3.87,0,0,0,3.77-2.6,2.74,2.74,0,0,0,.16-.89Z"/><path class="cls-1" d="M465.52,75.06v4.45h4.07v2.14h-4.07V90c0,1.92.55,3,2.13,3a6.29,6.29,0,0,0,1.65-.19l.13,2.11a6.9,6.9,0,0,1-2.52.38,3.92,3.92,0,0,1-3.06-1.18c-.81-.83-1.1-2.21-1.1-4V81.65h-2.42V79.51h2.42V75.8Z"/><path class="cls-1" d="M475.39,75.16a1.76,1.76,0,0,1-3.51,0,1.72,1.72,0,0,1,1.77-1.76A1.67,1.67,0,0,1,475.39,75.16ZM472.23,95V79.51h2.84V95Z"/><path class="cls-1" d="M493.35,87.12c0,5.73-4,8.23-7.77,8.23-4.22,0-7.48-3.07-7.48-8,0-5.18,3.42-8.22,7.74-8.22C490.32,79.16,493.35,82.39,493.35,87.12ZM481,87.28c0,3.39,2,6,4.74,6s4.74-2.53,4.74-6c0-2.62-1.32-6-4.67-6S481,84.34,481,87.28Z"/><path class="cls-1" d="M496.38,83.7c0-1.6,0-2.91-.12-4.19h2.51l.16,2.56H499a5.74,5.74,0,0,1,5.16-2.91c2.16,0,5.51,1.28,5.51,6.59V95h-2.84V86.07c0-2.5-.93-4.58-3.61-4.58a4,4,0,0,0-3.8,2.88,4,4,0,0,0-.2,1.31V95h-2.84Z"/><path class="cls-1" d="M513.35,92.12a7.52,7.52,0,0,0,3.74,1.12c2.06,0,3-1,3-2.31s-.81-2.08-2.9-2.85c-2.81-1-4.13-2.52-4.13-4.38,0-2.5,2-4.54,5.38-4.54a7.76,7.76,0,0,1,3.84,1l-.71,2a6.14,6.14,0,0,0-3.19-.89c-1.68,0-2.61,1-2.61,2.11s.93,1.86,3,2.62c2.71,1,4.1,2.37,4.1,4.67,0,2.72-2.13,4.64-5.84,4.64a8.91,8.91,0,0,1-4.38-1Z"/><path class="cls-1" d="M535.15,75.8h-6.61V73.43h16.09V75.8H538V95h-2.83Z"/><path class="cls-1" d="M546.17,72.28H549v9.66h.07a5.23,5.23,0,0,1,2-2,5.88,5.88,0,0,1,2.9-.8c2.1,0,5.45,1.28,5.45,6.62V95h-2.84V86.1c0-2.5-.93-4.61-3.61-4.61a4.06,4.06,0,0,0-3.8,2.82,3.21,3.21,0,0,0-.2,1.34V95h-2.84Z"/><path class="cls-1" d="M563.52,84.34c0-1.82,0-3.39-.13-4.83h2.49l.09,3h.13a4.68,4.68,0,0,1,4.32-3.39,3.29,3.29,0,0,1,.81.09v2.66a4,4,0,0,0-1-.1c-2,0-3.42,1.51-3.8,3.62a7.26,7.26,0,0,0-.13,1.31V95h-2.81Z"/><path class="cls-1" d="M576.81,75.16a1.76,1.76,0,0,1-3.52,0,1.72,1.72,0,0,1,1.78-1.76A1.67,1.67,0,0,1,576.81,75.16ZM573.65,95V79.51h2.84V95Z"/><path class="cls-1" d="M581.74,79.51l3.06,8.7a38.21,38.21,0,0,1,1.26,4h.1c.35-1.28.81-2.56,1.32-4l3-8.7h3L587.35,95h-2.71l-5.93-15.49Z"/><path class="cls-1" d="M596.87,87.76c.06,3.81,2.51,5.38,5.35,5.38a10.32,10.32,0,0,0,4.32-.8l.48,2a12.69,12.69,0,0,1-5.19,1c-4.8,0-7.67-3.13-7.67-7.8s2.77-8.35,7.32-8.35c5.09,0,6.45,4.44,6.45,7.29a10.61,10.61,0,0,1-.1,1.31Zm8.31-2c0-1.79-.74-4.58-3.93-4.58-2.87,0-4.13,2.63-4.35,4.58Z"/></g></g></svg>