<svg xmlns="http://www.w3.org/2000/svg" viewBox="0 0 651.25 109.18"><defs><style>.cls-1{}</style></defs><g id="Layer_2" data-name="Layer 2"><g id="Layer_1-2" data-name="Layer 1"><path d="M50.22,61.2a56.51,56.51,0,0,1-18.63,3.33c-9.18,0-16.74-2.34-22.68-8C3.69,51.48.45,43.38.45,33.93.54,15.84,13,2.61,33.3,2.61c7,0,12.51,1.53,15.12,2.79l-1.89,6.39A31.44,31.44,0,0,0,33.12,9.18c-14.76,0-24.39,9.18-24.39,24.39C8.73,49,18,58.05,32.13,58.05c5.13,0,8.64-.72,10.44-1.62V38.34H30.24V32h20Z"/><path d="M58.68,33.93c0-5.13-.09-9.54-.36-13.59h6.93l.27,8.55h.36c2-5.85,6.75-9.54,12.06-9.54a8.57,8.57,0,0,1,2.25.27v7.47a11.9,11.9,0,0,0-2.7-.27C71.91,26.82,68,31.05,66.87,37a22.29,22.29,0,0,0-.36,3.69V63.9H58.68Z"/><path d="M90.72,43.56c.18,10.71,7,15.12,14.94,15.12a28.64,28.64,0,0,0,12.06-2.25l1.35,5.67a35.28,35.28,0,0,1-14.49,2.7c-13.41,0-21.42-8.82-21.42-22s7.74-23.49,20.43-23.49c14.22,0,18,12.51,18,20.52a29.87,29.87,0,0,1-.27,3.69Zm23.22-5.67c.09-5-2.07-12.87-11-12.87-8,0-11.52,7.38-12.15,12.87Z"/><path d="M135.09,43.56c.18,10.71,7,15.12,14.94,15.12a28.64,28.64,0,0,0,12.06-2.25l1.35,5.67A35.28,35.28,0,0,1,149,64.8c-13.41,0-21.42-8.82-21.42-22S135.27,19.35,148,19.35c14.22,0,18,12.51,18,20.52a29.87,29.87,0,0,1-.27,3.69Zm23.22-5.67c.09-5-2.07-12.87-11-12.87-8,0-11.52,7.38-12.15,12.87Z"/><path d="M172.35,32.13c0-4.5-.09-8.19-.36-11.79h7l.45,7.2h.18A16,16,0,0,1,194,19.35c6,0,15.39,3.6,15.39,18.54v26h-7.92V38.79c0-7-2.61-12.87-10.08-12.87A11.25,11.25,0,0,0,180.81,34a11.39,11.39,0,0,0-.54,3.69V63.9h-7.92Z"/><path d="M288.2,61.92c-2.88,1.44-8.64,2.88-16,2.88-17.1,0-30-10.8-30-30.69,0-19,12.87-31.86,31.68-31.86,7.56,0,12.33,1.62,14.4,2.7l-1.89,6.39a28.52,28.52,0,0,0-12.24-2.52c-14.22,0-23.67,9.09-23.67,25,0,14.85,8.55,24.39,23.31,24.39a31.34,31.34,0,0,0,12.78-2.52Z"/><path d="M334.64,41.76c0,16.11-11.16,23.13-21.69,23.13-11.79,0-20.88-8.64-20.88-22.41,0-14.58,9.54-23.13,21.6-23.13C326.18,19.35,334.64,28.44,334.64,41.76Zm-34.56.45c0,9.54,5.49,16.74,13.23,16.74,7.56,0,13.23-7.11,13.23-16.92,0-7.38-3.69-16.74-13.05-16.74S300.08,33.93,300.08,42.21Z"/><path d="M341.93,32.13c0-4.5-.09-8.19-.36-11.79h7l.45,7.2h.18a16,16,0,0,1,14.4-8.19c6,0,15.39,3.6,15.39,18.54v26h-7.92V38.79c0-7-2.61-12.87-10.08-12.87A11.25,11.25,0,0,0,350.39,34a11.39,11.39,0,0,0-.54,3.69V63.9h-7.92Z"/><path d="M386.84,55.8A20.76,20.76,0,0,0,397.28,59c5.76,0,8.46-2.88,8.46-6.48,0-3.78-2.25-5.85-8.1-8-7.83-2.79-11.52-7.11-11.52-12.33,0-7,5.67-12.78,15-12.78a21.74,21.74,0,0,1,10.71,2.7l-2,5.76A17,17,0,0,0,401,25.29c-4.68,0-7.29,2.7-7.29,5.94,0,3.6,2.61,5.22,8.28,7.38,7.56,2.88,11.43,6.66,11.43,13.14,0,7.65-5.94,13-16.29,13a24.84,24.84,0,0,1-12.24-3Z"/><path d="M457.31,52c0,4.5.09,8.46.36,11.88h-7l-.45-7.11H450a16.39,16.39,0,0,1-14.4,8.1c-6.84,0-15-3.78-15-19.08V20.34h7.92V44.46c0,8.28,2.52,13.86,9.72,13.86a11.45,11.45,0,0,0,10.44-7.2,11.58,11.58,0,0,0,.72-4V20.34h7.92Z"/><path d="M466.58,0h7.92V63.9h-7.92Z"/><path d="M495.29,7.83V20.34h11.34v6H495.29V49.86c0,5.4,1.53,8.46,5.94,8.46a17.62,17.62,0,0,0,4.59-.54l.36,5.94a19.39,19.39,0,0,1-7,1.08c-3.69,0-6.66-1.17-8.55-3.33-2.25-2.34-3.06-6.21-3.06-11.34V26.37H480.8v-6h6.75V9.9Z"/><path d="M538.13,63.9l-.63-5.49h-.27a16.22,16.22,0,0,1-13.32,6.48c-8.82,0-13.32-6.21-13.32-12.51,0-10.53,9.36-16.29,26.19-16.2v-.9c0-3.6-1-10.08-9.9-10.08a21.7,21.7,0,0,0-11.34,3.24l-1.8-5.22a27,27,0,0,1,14.31-3.87c13.32,0,16.56,9.09,16.56,17.82V53.46a61.33,61.33,0,0,0,.72,10.44ZM537,41.67c-8.64-.18-18.45,1.35-18.45,9.81,0,5.13,3.42,7.56,7.47,7.56a10.84,10.84,0,0,0,10.53-7.29,8.27,8.27,0,0,0,.45-2.52Z"/><path d="M552,32.13c0-4.5-.09-8.19-.36-11.79h7l.45,7.2h.18a16,16,0,0,1,14.4-8.19c6,0,15.39,3.6,15.39,18.54v26h-7.92V38.79c0-7-2.61-12.87-10.08-12.87A11.25,11.25,0,0,0,560.45,34a11.39,11.39,0,0,0-.54,3.69V63.9H552Z"/><path d="M606.71,7.83V20.34h11.34v6H606.71V49.86c0,5.4,1.53,8.46,5.94,8.46a17.62,17.62,0,0,0,4.59-.54l.36,5.94a19.39,19.39,0,0,1-7,1.08c-3.69,0-6.66-1.17-8.55-3.33-2.25-2.34-3.06-6.21-3.06-11.34V26.37h-6.75v-6H599V9.9Z"/><path d="M624.71,55.8A20.76,20.76,0,0,0,635.15,59c5.76,0,8.45-2.88,8.45-6.48,0-3.78-2.25-5.85-8.1-8C627.68,41.67,624,37.35,624,32.13c0-7,5.67-12.78,15-12.78a21.74,21.74,0,0,1,10.71,2.7l-2,5.76a17,17,0,0,0-8.92-2.52c-4.67,0-7.29,2.7-7.29,5.94,0,3.6,2.62,5.22,8.29,7.38,7.55,2.88,11.42,6.66,11.42,13.14,0,7.65-5.94,13-16.29,13a24.83,24.83,0,0,1-12.23-3Z"/><path d="M.7,99.1a9.88,9.88,0,0,0,5,1.41c2.84,0,4.51-1.5,4.51-3.68,0-2-1.15-3.17-4.07-4.29C2.62,91.3.45,89.47.45,86.43c0-3.36,2.78-5.85,7-5.85a9.86,9.86,0,0,1,4.77,1l-.77,2.27a8.61,8.61,0,0,0-4.09-1c-2.95,0-4.07,1.76-4.07,3.23,0,2,1.32,3,4.29,4.16,3.65,1.41,5.51,3.17,5.51,6.34,0,3.33-2.47,6.2-7.56,6.2A11.1,11.1,0,0,1,0,101.44Z"/><path d="M19.74,82.56V87h4v2.14h-4V97.5c0,1.92.55,3,2.12,3a6.57,6.57,0,0,0,1.63-.19l.13,2.11a7,7,0,0,1-2.5.38,3.89,3.89,0,0,1-3-1.18c-.8-.83-1.09-2.21-1.09-4V89.15h-2.4V87H17V83.3Z"/><path d="M26.62,91.84c0-1.82,0-3.39-.12-4.83H29l.1,3h.12a4.65,4.65,0,0,1,4.29-3.39,3.2,3.2,0,0,1,.8.09v2.66a3.88,3.88,0,0,0-1-.1c-2,0-3.39,1.51-3.77,3.62a7.26,7.26,0,0,0-.13,1.31v8.25H26.62Z"/><path d="M45.18,102.49,45,100.54h-.1a5.74,5.74,0,0,1-4.73,2.31,4.42,4.42,0,0,1-4.74-4.45c0-3.74,3.33-5.79,9.31-5.76v-.32c0-1.28-.35-3.58-3.52-3.58a7.66,7.66,0,0,0-4,1.15L36.51,88a9.64,9.64,0,0,1,5.09-1.37c4.74,0,5.89,3.23,5.89,6.33v5.79a21.94,21.94,0,0,0,.25,3.71Zm-.41-7.9c-3.07-.06-6.56.48-6.56,3.49a2.49,2.49,0,0,0,2.65,2.69,3.86,3.86,0,0,0,3.75-2.6,3,3,0,0,0,.16-.89Z"/><path d="M55,82.56V87h4v2.14H55V97.5c0,1.92.54,3,2.11,3a6.57,6.57,0,0,0,1.63-.19l.13,2.11a7,7,0,0,1-2.5.38,3.89,3.89,0,0,1-3-1.18c-.8-.83-1.09-2.21-1.09-4V89.15h-2.4V87h2.4V83.3Z"/><path d="M63.23,95.26c.07,3.81,2.5,5.38,5.31,5.38a10.13,10.13,0,0,0,4.29-.8l.48,2a12.51,12.51,0,0,1-5.15,1c-4.77,0-7.62-3.13-7.62-7.8s2.76-8.35,7.27-8.35c5,0,6.4,4.44,6.4,7.29a10.61,10.61,0,0,1-.1,1.31Zm8.26-2c0-1.79-.74-4.58-3.91-4.58-2.84,0-4.09,2.63-4.32,4.58Z"/><path d="M90.72,87c-.07,1.12-.13,2.37-.13,4.25v9c0,3.56-.7,5.73-2.21,7.08a8.24,8.24,0,0,1-5.63,1.85,10,10,0,0,1-5.15-1.28l.7-2.14A8.78,8.78,0,0,0,82.85,107c2.88,0,5-1.5,5-5.4V99.84h-.07a5.51,5.51,0,0,1-4.92,2.59c-3.84,0-6.59-3.26-6.59-7.55,0-5.25,3.42-8.22,7-8.22a5.14,5.14,0,0,1,4.83,2.68h.07L88.25,87Zm-2.91,6.11a4.23,4.23,0,0,0-.16-1.28,4.06,4.06,0,0,0-3.94-3c-2.69,0-4.61,2.28-4.61,5.86,0,3,1.54,5.57,4.58,5.57a4.11,4.11,0,0,0,3.9-2.88,5,5,0,0,0,.23-1.51Z"/><path d="M97.89,82.66a1.75,1.75,0,0,1-3.49,0,1.71,1.71,0,0,1,1.76-1.76A1.67,1.67,0,0,1,97.89,82.66Zm-3.14,19.83V87h2.82v15.48Z"/><path d="M103.49,95.26c.06,3.81,2.49,5.38,5.31,5.38a10.2,10.2,0,0,0,4.29-.8l.48,2a12.55,12.55,0,0,1-5.15,1c-4.77,0-7.62-3.13-7.62-7.8s2.75-8.35,7.26-8.35c5.06,0,6.4,4.44,6.4,7.29a11.06,11.06,0,0,1-.09,1.31Zm8.25-2c0-1.79-.73-4.58-3.9-4.58-2.85,0-4.1,2.63-4.32,4.58Z"/><path d="M117.25,99.61a7.3,7.3,0,0,0,3.71,1.12c2.05,0,3-1,3-2.3s-.8-2.08-2.88-2.85c-2.79-1-4.1-2.52-4.1-4.38,0-2.5,2-4.54,5.34-4.54a7.64,7.64,0,0,1,3.81,1l-.7,2a6.08,6.08,0,0,0-3.17-.89c-1.66,0-2.59,1-2.59,2.11s.93,1.86,2.94,2.62c2.69,1,4.07,2.37,4.07,4.67,0,2.72-2.12,4.64-5.79,4.64a8.86,8.86,0,0,1-4.36-1Z"/><path d="M145,102.49l-.22-1.95h-.1a5.76,5.76,0,0,1-4.73,2.31,4.42,4.42,0,0,1-4.74-4.45c0-3.74,3.33-5.79,9.31-5.76v-.32c0-1.28-.35-3.58-3.52-3.58a7.66,7.66,0,0,0-4,1.15L136.35,88a9.64,9.64,0,0,1,5.09-1.37c4.73,0,5.89,3.23,5.89,6.33v5.79a21.94,21.94,0,0,0,.25,3.71Zm-.41-7.9c-3.08-.06-6.56.48-6.56,3.49a2.49,2.49,0,0,0,2.65,2.69,3.86,3.86,0,0,0,3.75-2.6,3,3,0,0,0,.16-.89Z"/><path d="M151.55,91.2c0-1.6,0-2.91-.13-4.19h2.5l.16,2.56h.06a5.7,5.7,0,0,1,5.12-2.91c2.15,0,5.47,1.28,5.47,6.59v9.24h-2.81V93.57c0-2.5-.93-4.58-3.59-4.58a4.12,4.12,0,0,0-4,4.19v9.31h-2.82Z"/><path d="M182.37,79.78V98.5c0,1.37,0,2.94.12,4H180l-.12-2.68h-.07a5.74,5.74,0,0,1-5.28,3c-3.74,0-6.62-3.17-6.62-7.87,0-5.16,3.17-8.32,6.94-8.32A5.21,5.21,0,0,1,179.49,89h.06V79.78Zm-2.82,13.53a4.74,4.74,0,0,0-.13-1.18,4.14,4.14,0,0,0-4.06-3.27c-2.91,0-4.64,2.56-4.64,6,0,3.13,1.53,5.72,4.57,5.72a4.22,4.22,0,0,0,4.13-3.36,4.63,4.63,0,0,0,.13-1.21Z"/><path d="M196.06,83.3H189.5V80.93h16V83.3h-6.59v19.19h-2.82Z"/><path d="M214,102.49l-.22-1.95h-.1a5.76,5.76,0,0,1-4.73,2.31,4.42,4.42,0,0,1-4.74-4.45c0-3.74,3.33-5.79,9.31-5.76v-.32c0-1.28-.35-3.58-3.52-3.58a7.66,7.66,0,0,0-4,1.15L205.31,88a9.64,9.64,0,0,1,5.09-1.37c4.73,0,5.89,3.23,5.89,6.33v5.79a21.94,21.94,0,0,0,.25,3.71Zm-.41-7.9c-3.08-.06-6.56.48-6.56,3.49a2.49,2.49,0,0,0,2.65,2.69,3.86,3.86,0,0,0,3.75-2.6,3,3,0,0,0,.16-.89Z"/><path d="M231.55,101.92a10.48,10.48,0,0,1-4.45.89c-4.67,0-7.71-3.16-7.71-7.9s3.26-8.22,8.32-8.22a9.32,9.32,0,0,1,3.9.8L231,89.66a6.55,6.55,0,0,0-3.26-.73c-3.55,0-5.47,2.62-5.47,5.85,0,3.59,2.3,5.79,5.37,5.79a8.06,8.06,0,0,0,3.46-.76Z"/><path d="M238.33,82.56V87h4v2.14h-4V97.5c0,1.92.55,3,2.12,3a6.63,6.63,0,0,0,1.63-.19l.13,2.11a7,7,0,0,1-2.5.38,3.89,3.89,0,0,1-3-1.18c-.8-.83-1.09-2.21-1.09-4V89.15h-2.4V87h2.4V83.3Z"/><path d="M248.35,82.66a1.75,1.75,0,0,1-3.49,0,1.71,1.71,0,0,1,1.76-1.76A1.67,1.67,0,0,1,248.35,82.66Zm-3.14,19.83V87H248v15.48Z"/><path d="M263.42,101.92a10.48,10.48,0,0,1-4.45.89c-4.67,0-7.71-3.16-7.71-7.9s3.26-8.22,8.32-8.22a9.28,9.28,0,0,1,3.9.8l-.64,2.17a6.55,6.55,0,0,0-3.26-.73c-3.55,0-5.47,2.62-5.47,5.85,0,3.59,2.3,5.79,5.37,5.79a8.06,8.06,0,0,0,3.46-.76Z"/><path d="M266,99.61a7.37,7.37,0,0,0,3.72,1.12c2,0,3-1,3-2.3s-.8-2.08-2.88-2.85c-2.78-1-4.09-2.52-4.09-4.38,0-2.5,2-4.54,5.34-4.54a7.67,7.67,0,0,1,3.81,1l-.7,2a6.08,6.08,0,0,0-3.17-.89c-1.67,0-2.59,1-2.59,2.11s.92,1.86,2.94,2.62c2.69,1,4.06,2.37,4.06,4.67,0,2.72-2.11,4.64-5.79,4.64a8.82,8.82,0,0,1-4.35-1Z"/><path d="M288.6,82.56V87h4v2.14h-4V97.5c0,1.92.55,3,2.12,3a6.57,6.57,0,0,0,1.63-.19l.13,2.11a7,7,0,0,1-2.5.38,3.89,3.89,0,0,1-3-1.18c-.8-.83-1.09-2.21-1.09-4V89.15h-2.4V87h2.4V83.3Z"/><path d="M309.31,94.62c0,5.73-4,8.23-7.71,8.23-4.2,0-7.43-3.07-7.43-8,0-5.18,3.39-8.22,7.68-8.22C306.3,86.66,309.31,89.89,309.31,94.62ZM297,94.78c0,3.39,2,6,4.7,6s4.71-2.52,4.71-6c0-2.62-1.31-6-4.64-6S297,91.84,297,94.78Z"/><path d="M321.88,80.93v9h10.43v-9h2.82v21.56h-2.82V92.38H321.88v10.11H319.1V80.93Z"/><path d="M341.12,95.26c.06,3.81,2.49,5.38,5.31,5.38a10.11,10.11,0,0,0,4.28-.8l.49,2a12.56,12.56,0,0,1-5.16,1c-4.76,0-7.61-3.13-7.61-7.8s2.75-8.35,7.26-8.35c5.06,0,6.4,4.44,6.4,7.29a11.06,11.06,0,0,1-.09,1.31Zm8.25-2c0-1.79-.74-4.58-3.9-4.58-2.85,0-4.1,2.63-4.32,4.58Z"/><path d="M355.26,79.78h2.82v22.71h-2.82Z"/><path d="M362.49,92.06c0-2-.06-3.58-.13-5h2.53l.13,2.65h.06a6.1,6.1,0,0,1,5.51-3c3.74,0,6.56,3.16,6.56,7.87,0,5.56-3.4,8.32-7,8.32a5.43,5.43,0,0,1-4.77-2.44h-.06v8.42h-2.79Zm2.79,4.13a6.66,6.66,0,0,0,.12,1.15,4.35,4.35,0,0,0,4.23,3.3c3,0,4.7-2.43,4.7-6,0-3.11-1.63-5.76-4.61-5.76a4.86,4.86,0,0,0-4.44,4.64Z"/><path d="M405.37,91.49c0,7.42-4.51,11.36-10,11.36-5.69,0-9.69-4.42-9.69-10.95,0-6.84,4.25-11.32,10-11.32S405.37,85.09,405.37,91.49Zm-16.74.35c0,4.61,2.5,8.73,6.88,8.73s6.92-4.06,6.92-8.95c0-4.29-2.24-8.77-6.88-8.77S388.63,87.1,388.63,91.84Z"/><path d="M408.57,91.84c0-1.82,0-3.39-.13-4.83h2.47l.09,3h.13a4.64,4.64,0,0,1,4.29-3.39,3.26,3.26,0,0,1,.8.09v2.66a3.93,3.93,0,0,0-1-.1c-2,0-3.39,1.51-3.78,3.62a8.29,8.29,0,0,0-.13,1.31v8.25h-2.78Z"/><path d="M431.8,87c-.06,1.12-.13,2.37-.13,4.25v9c0,3.56-.7,5.73-2.2,7.08a8.26,8.26,0,0,1-5.64,1.85,10,10,0,0,1-5.15-1.28l.71-2.14a8.71,8.71,0,0,0,4.54,1.21c2.88,0,5-1.5,5-5.4V99.84h-.06a5.54,5.54,0,0,1-4.93,2.59c-3.84,0-6.59-3.26-6.59-7.55,0-5.25,3.42-8.22,7-8.22a5.17,5.17,0,0,1,4.84,2.68h.06l.13-2.33Zm-2.91,6.11a3.94,3.94,0,0,0-.16-1.28,4.06,4.06,0,0,0-3.94-3c-2.68,0-4.6,2.28-4.6,5.86,0,3,1.53,5.57,4.57,5.57a4.13,4.13,0,0,0,3.91-2.88,4.93,4.93,0,0,0,.22-1.51Z"/><path d="M444.6,102.49l-.22-1.95h-.1a5.76,5.76,0,0,1-4.73,2.31,4.42,4.42,0,0,1-4.74-4.45c0-3.74,3.33-5.79,9.31-5.76v-.32c0-1.28-.35-3.58-3.52-3.58a7.66,7.66,0,0,0-4,1.15L435.93,88A9.64,9.64,0,0,1,441,86.66c4.73,0,5.89,3.23,5.89,6.33v5.79a21.94,21.94,0,0,0,.25,3.71Zm-.41-7.9c-3.08-.06-6.56.48-6.56,3.49a2.49,2.49,0,0,0,2.65,2.69,3.86,3.86,0,0,0,3.75-2.6,3,3,0,0,0,.16-.89Z"/><path d="M451.13,91.2c0-1.6,0-2.91-.13-4.19h2.5l.16,2.56h.06a5.7,5.7,0,0,1,5.12-2.91c2.15,0,5.47,1.28,5.47,6.59v9.24H461.5V93.57c0-2.5-.93-4.58-3.59-4.58a4.12,4.12,0,0,0-4,4.19v9.31h-2.82Z"/><path d="M471.71,82.66a1.75,1.75,0,0,1-3.49,0A1.71,1.71,0,0,1,470,80.9,1.67,1.67,0,0,1,471.71,82.66Zm-3.14,19.83V87h2.82v15.48Z"/><path d="M474,100.86l7-9.12c.68-.83,1.32-1.56,2-2.4v-.06h-8.38V87h11.8l0,1.76-6.91,9c-.64.86-1.28,1.63-2,2.43v.06h9.05v2.24H474Z"/><path d="M497.69,102.49l-.23-1.95h-.09a5.78,5.78,0,0,1-4.74,2.31,4.41,4.41,0,0,1-4.73-4.45c0-3.74,3.32-5.79,9.31-5.76v-.32c0-1.28-.35-3.58-3.52-3.58a7.66,7.66,0,0,0-4,1.15L489,88a9.61,9.61,0,0,1,5.08-1.37c4.74,0,5.89,3.23,5.89,6.33v5.79a21.87,21.87,0,0,0,.26,3.71Zm-.42-7.9c-3.07-.06-6.56.48-6.56,3.49a2.5,2.5,0,0,0,2.66,2.69,3.84,3.84,0,0,0,3.74-2.6,2.74,2.74,0,0,0,.16-.89Z"/><path d="M507.48,82.56V87h4v2.14h-4V97.5c0,1.92.55,3,2.11,3a6.66,6.66,0,0,0,1.64-.19l.12,2.11a6.94,6.94,0,0,1-2.49.38,3.89,3.89,0,0,1-3-1.18c-.8-.83-1.09-2.21-1.09-4V89.15h-2.4V87h2.4V83.3Z"/><path d="M517.5,82.66a1.75,1.75,0,0,1-3.49,0,1.71,1.71,0,0,1,1.76-1.76A1.67,1.67,0,0,1,517.5,82.66Zm-3.14,19.83V87h2.82v15.48Z"/><path d="M535.54,94.62c0,5.73-4,8.23-7.71,8.23-4.19,0-7.42-3.07-7.42-8,0-5.18,3.39-8.22,7.68-8.22C532.54,86.66,535.54,89.89,535.54,94.62Zm-12.28.16c0,3.39,2,6,4.7,6s4.7-2.52,4.7-6c0-2.62-1.31-6-4.64-6S523.26,91.84,523.26,94.78Z"/><path d="M538.78,91.2c0-1.6,0-2.91-.13-4.19h2.49l.16,2.56h.07a5.7,5.7,0,0,1,5.12-2.91c2.14,0,5.47,1.28,5.47,6.59v9.24h-2.82V93.57c0-2.5-.92-4.58-3.58-4.58a4,4,0,0,0-3.78,2.88,4.26,4.26,0,0,0-.19,1.31v9.31h-2.81Z"/><path d="M555.83,99.61a7.36,7.36,0,0,0,3.71,1.12c2.05,0,3-1,3-2.3s-.8-2.08-2.88-2.85c-2.78-1-4.09-2.52-4.09-4.38,0-2.5,2-4.54,5.34-4.54a7.67,7.67,0,0,1,3.81,1l-.71,2a6,6,0,0,0-3.16-.89c-1.67,0-2.6,1-2.6,2.11s.93,1.86,3,2.62c2.69,1,4.06,2.37,4.06,4.67,0,2.72-2.11,4.64-5.79,4.64a8.82,8.82,0,0,1-4.35-1Z"/><path d="M577.91,83.3h-6.56V80.93h16V83.3h-6.59v19.19h-2.82Z"/><path d="M589.08,79.78h2.82v9.66H592a5.2,5.2,0,0,1,2-2,5.78,5.78,0,0,1,2.88-.8c2.08,0,5.4,1.28,5.4,6.62v9.21h-2.81V93.6c0-2.5-.93-4.61-3.59-4.61a4,4,0,0,0-3.77,2.82,3.39,3.39,0,0,0-.19,1.34v9.34h-2.82Z"/><path d="M606.52,91.84c0-1.82,0-3.39-.13-4.83h2.47l.09,3h.13a4.64,4.64,0,0,1,4.29-3.39,3.26,3.26,0,0,1,.8.09v2.66a3.93,3.93,0,0,0-1-.1c-2,0-3.39,1.51-3.78,3.62a8.29,8.29,0,0,0-.13,1.31v8.25h-2.78Z"/><path d="M619.93,82.66a1.75,1.75,0,0,1-3.49,0,1.71,1.71,0,0,1,1.76-1.76A1.67,1.67,0,0,1,619.93,82.66Zm-3.14,19.83V87h2.82v15.48Z"/><path d="M625.05,87l3,8.7a40.6,40.6,0,0,1,1.25,4h.09c.35-1.28.8-2.56,1.31-4l3-8.7h3l-6.08,15.48h-2.69L622,87Z"/><path d="M640.28,95.26c.06,3.81,2.5,5.38,5.31,5.38a10.16,10.16,0,0,0,4.29-.8l.48,2a12.51,12.51,0,0,1-5.15,1c-4.77,0-7.62-3.13-7.62-7.8s2.75-8.35,7.27-8.35c5,0,6.39,4.44,6.39,7.29a11.06,11.06,0,0,1-.09,1.31Zm8.26-2c0-1.79-.74-4.58-3.91-4.58-2.85,0-4.09,2.63-4.32,4.58Z"/></g></g></svg>