<svg xmlns="http://www.w3.org/2000/svg" viewBox="0 0 126.25 53.69"><defs><style>.cls-1{fill:#693b94;}.cls-2{fill:#b3c757;}.cls-3{fill:#fff;}</style></defs><title>Asset 7</title><g id="Layer_2" data-name="Layer 2"><g id="Layer_1-2" data-name="Layer 1"><path class="cls-1" d="M93,0h0a100.05,100.05,0,0,0-19.64,2.2l.12,0c-.29-.66-.56-1.4-.83-2.18H50.47c-.26.75-.54,1.47-.82,2.13h0C43.72.38,36.5.06,33.19,0H0V53.69H126.25V0Z"/><path class="cls-2" d="M49.65,2.13a19.54,19.54,0,0,1,6,2.74h0c.18.13.37.26.54.4h0l0,0-.06,0-.14,0,0,0c-2.58.93-19.38,7.19-17.19,11.75s8.08,4.11,17.21,5.25C69,24,44.27,26.24,33.2,31c-.32.14-15.17,6.23,6,9.88,22.32,3.84,1.2,5.34-5.71,6.52-3,.52-5.3.23-10.42,1.88-5.56,1.79-7,4.28-7.59,4.41h73c1.09-1.48,3-3,3.28-4.25a4.26,4.26,0,0,0,.06-2.23c-1.35-8.15-19.76-10.82-27.58-12.71-10.82-2.62,1.38-5.26,4.52-6.23,31.68-8.87-11.43-12.65-11.43-12.65C48.25,14,51.4,10.76,56.08,8.18l.55-.3.2-.1.52-.26.2-.11.55-.26.17-.08c.48-.23.95-.45,1.42-.65l.18-.08.5-.22L60.59,6,61,5.84l.22-.09c2-.83,3.55-1.36,3.55-1.36,2.83-.78,5.61-1.54,8.66-2.21-.29-.66-.56-1.4-.83-2.18H50.47C50.21.75,49.93,1.46,49.65,2.13Z"/><path class="cls-3" d="M33.19,0c3.31,0,10.53.37,16.46,2.12h0c.28-.66.56-1.38.82-2.13Z"/><path class="cls-3" d="M73.47,2.18l-.12,0A100.05,100.05,0,0,1,93,0H72.64C72.91.78,73.18,1.52,73.47,2.18Z"/></g></g></svg>