<svg xmlns="http://www.w3.org/2000/svg" viewBox="0 0 126.78 148.29"><defs><style>.cls-1{fill:#b3c757;}.cls-2{fill:#693b94;}</style></defs><title>Asset 14</title><g id="Layer_2" data-name="Layer 2"><g id="Layer_3" data-name="Layer 3"><path class="cls-1" d="M117.84,53.51l.09-.57c-1.81,3.24-6.23,4.94-10.26,4.31a7.14,7.14,0,0,0,.77-6.36,6,6,0,0,1-2.75,5.89,8.66,8.66,0,0,1-4.32-3.73c4-2.67,4.3-6.61.51-9.94,2.71-3.39,9.92-3.45,12.06-.18-.87-2.69-4-4.46-6.1-4.66a7,7,0,0,0,0-8.55,6.5,6.5,0,0,1-3.13,8.36,7.37,7.37,0,0,0-6.24-2.64,7,7,0,0,1,4.81,3.16,11.77,11.77,0,0,0-3.72,2.78c-3.56-3.49-19.25-5.48-14.85-12,2.84-2.95,7-6.05,10.89-2.63a7.53,7.53,0,0,0-3.48-2.6c6.42-2.62,9-2.21,9.91.7.06-3.9-4.75-4.47-6.78-4a6.27,6.27,0,0,0-3.09-7.3c5.18,6.78-3.54,8.46-7.71,12.13a17.72,17.72,0,0,0-3.23-2.08c-1-1.77-1.91-5.25-.42-7.59a7.91,7.91,0,0,0-2,6.39c-3.45-1.74-8.83-2.48-9-7.37A8,8,0,0,0,70,18.55,45.16,45.16,0,0,1,64.71,16c1.68-2.53,1-5.63-.88-7.89C66.35,5.7,71.24,5.3,76.2,6.24c-1.59-1.75-10.92-3.61-14,.29a8.55,8.55,0,0,0-2.77-1.38,4.73,4.73,0,0,1,2-3.52,5.73,5.73,0,0,0-3.26,3.23c-3.84-1-9,1.61-9.33,2,4.58-.94,9.44-.47,11.84,1.39a6.3,6.3,0,0,0,.23,8,28.47,28.47,0,0,1-4.22,2.2,8.4,8.4,0,0,0,.1-3.28c.09,4.48-5.25,5.35-8.58,7a7.91,7.91,0,0,0-2.07-6.19C47.53,18.1,47,21,46,23.09a33.12,33.12,0,0,0-3.84,2c-3.93-3.2-12.43-5.22-7.28-11.71a6.27,6.27,0,0,0-3.09,7.3c-2-.45-6.84.11-6.78,4,.91-2.91,3.5-3.31,9.91-.7a7.52,7.52,0,0,0-3.47,2.6c4-4.11,10.46,1.18,11.78,4.25C42.94,36.62,32,37.54,27.42,41.3a11.84,11.84,0,0,0-3.71-2.78,7,7,0,0,1,4.81-3.15A7.39,7.39,0,0,0,22.28,38a6.5,6.5,0,0,1-3.13-8.37,7,7,0,0,0,0,8.57c-2.05.19-5.23,2-6.1,4.65,2.13-3.26,9.36-3.21,12.06.19-3.76,3.32-3.53,7.27.5,9.93a8.57,8.57,0,0,1-4.32,3.73,6,6,0,0,1-2.74-5.89,7.14,7.14,0,0,0,.77,6.36c-4.05.63-8.45-1.08-10.26-4.3a7.17,7.17,0,0,0,4.78,6.29,7,7,0,0,0-2.22,6.92c1.35-8.21,13.53-4.19,16.53-11.7,5.4,2.7,10.84,2.4,16.3,5.34a8,8,0,0,0,2.68,4c-1.3,3.94-8.14,10.05-13.23,7.83a6.07,6.07,0,0,1,1.83-6.33,7.16,7.16,0,0,0-3.69,5.68c-3.21-1.73-5.37-4.29-5.46-7.44a7.26,7.26,0,0,0,.31,5.15c-.93-.07-2.64.75-3.84,1.21,4.38-1.07,7.05,4,10.91,4.69a33.62,33.62,0,0,0-3.11,1.87c-7.52-5.82-15,4.67-21.09-3.57A7.9,7.9,0,0,0,16,78.26c-1.31,1.17-3.22,5.2-1.89,8.52-.47-3.38,2.33-6.51,5.14-8.32h.1V78.4a8.39,8.39,0,0,1,4.91-1.48,6.91,6.91,0,0,0-2.15,4.83,5.84,5.84,0,0,1,4.77-4.39,11.8,11.8,0,0,1,1.79.69C24.41,82,26,86.19,31,89.25c-2.4,3-7,6.17-12.3,3.14a8,8,0,0,0,8.75,2.15,8.62,8.62,0,0,0,2.16,8c-2.22-5.62.25-8.68,3.63-12.09,4.26,2.06,7.49,2.6,11.57,4.33-2.55,3.15-.69,6.82,2.27,9-3.48-.22-7.19-.81-8.58-3.47,1,5.59,8.49,6.26,11.87,5.65,2.63,1.44,3.66,1.9,5.75,4.7.13,2.48-.65,25.43-4.86,37.61H73.4a84.12,84.12,0,0,1-3-12.21c-1.83-14.83-5.61-24.87,6.34-30.09,3.35.65,10.86-.25,11.75-5.66-1.38,2.63-5,3.23-8.48,3.47,2.91-2.19,4.69-5.84,2.16-8.94,4.06-1.71,7.37-2.29,11.58-4.32C97.19,94,99.64,97,97.42,102.62a8.58,8.58,0,0,0,2.17-8,8,8,0,0,0,8.75-2.16c-5.29,3-9.9-.12-12.3-3.13,5-3.07,6.56-7.23,2.28-11.2a11.85,11.85,0,0,1,1.79-.7,5.85,5.85,0,0,1,4.77,4.4A6.92,6.92,0,0,0,102.73,77a8.32,8.32,0,0,1,4.91,1.49v.06h.1c2.8,1.8,5.61,4.94,5.14,8.31,1.33-3.32-.58-7.34-1.89-8.51a7.92,7.92,0,0,0,6.24-5.49c-6.12,8.23-13.57-2.25-21.09,3.56-.87-.59-1.84-1.17-3.11-1.86,3.86-.69,6.54-5.77,10.91-4.69-1.19-.46-2.87-1.28-3.84-1.21a7.26,7.26,0,0,0,.32-5.15c-.09,3.13-2.27,5.72-5.47,7.44a7.17,7.17,0,0,0-3.68-5.68,6.08,6.08,0,0,1,1.82,6.32c-3.9,2-9-2.36-11.25-4.25h0A7.63,7.63,0,0,1,80,64.77C82.61,62.9,84,61,84.13,59c4.88-1.85,10-2.23,14.71-4.5,3,7.51,15.19,3.52,16.53,11.7a6.93,6.93,0,0,0-2.22-6.91A7,7,0,0,0,117.84,53.51ZM26.89,50.35c-2.06-1.54-2-3-.07-4.94C27.74,47.16,27.45,48.44,26.89,50.35ZM62.41,10.21c.82,2,1.2,2.77.37,4.29C61.44,13,61.75,12.25,62.41,10.21ZM32.25,86.64c-3.41-2.25-4.4-4.18-1.19-6.84a7.78,7.78,0,0,1,1.41,3.81A13.34,13.34,0,0,1,32.25,86.64Zm8.84,3.75a50,50,0,0,1-6.57-2.51c.86-3.53.82-6.18-1.4-9.56,4.19-2.54,9.38-4.8,12.6-7.67l0,0a25.38,25.38,0,0,0,3.85-5.17c3.74,2,6.34,3.73,8.78,7.59-6.79-1.62-8.88,6.45-14.85,6.71,1.2.26,2.93.8,3.84.61a7,7,0,0,0,.45,5c-.38-3,1.32-5.77,4.12-7.86a6.89,6.89,0,0,0,4.34,4.88,5.86,5.86,0,0,1-2.66-5.76,13,13,0,0,1,5.94-1.25C61,79.21,61,81.55,61.05,86.12c-4.57,2.46-9.22,3.36-14,6.55A38.41,38.41,0,0,0,41.09,90.39ZM61.74,53.54a5.61,5.61,0,0,0,2.24.59c-.77,1.73-2,3.6-2,5.73-4.93.64-8.23-5.63-13.49-3.65,5.14-4,10.54-4.56,15.74-7.76a29.77,29.77,0,0,0,3.18,1.67c-2.14,1.6-4,3.6-6.84,3Zm-10.83,5a6.4,6.4,0,0,0,0,4.36c-.43-.28-.77-.52-1.08-.76A7.37,7.37,0,0,0,48,59,8.65,8.65,0,0,1,50.91,58.54Zm29.64,39.6c-1.73,5.6-9.43,6-13,11.51-2.32-4.83-7.15-4.91-9.84-1.54C55,103.72,47.37,102.92,46.45,98c2.38-5.89,12.14-6.42,17-10a43.91,43.91,0,0,0,5.71,2.78c-3,1.07-5,4.79-8.64,3.92a12,12,0,0,0,3.42,1c-1,2.14-2.66,4.74-1.76,7.35.56-4.32,4-9.7,9.3-10.32a5.28,5.28,0,0,1,.1,5.58,6.34,6.34,0,0,0,1.54-5.63C77.12,93.46,80.84,96.73,80.55,98.14ZM96,79.87c3.21,2.67,2.22,4.59-1.19,6.85a14.06,14.06,0,0,1-.22-3.17A8.29,8.29,0,0,1,96,79.87Zm-9.73-5.81v0c2.73,1.69,4.82,2.52,7.66,4.3-2.22,3.41-2.26,6-1.4,9.56-4.72,2.29-8,2.56-12.53,4.8-5.08-3.37-9.17-3.81-14.11-6.88.48-5,.27-6.72,1.91-9.94a9.36,9.36,0,0,1,5.85.71A5.83,5.83,0,0,1,71,82.41a6.9,6.9,0,0,0,4.34-4.89c2.76,2.08,4.48,4.69,4.13,7.86a7,7,0,0,0,.45-4.95c.88.2,2.65-.35,3.84-.62C78,79.75,76,72,69.71,73.06a19.91,19.91,0,0,1,7.87-6.71,10.79,10.79,0,0,0,2,2.78l0,0A79.88,79.88,0,0,0,86.22,74.06ZM77,63.33c-6.63,2.73-12.51,9-13.37,16.63-1-7.3-6.16-14.08-12.2-16.73a5.44,5.44,0,0,1,1.23-4.45c3.7.84,6.44,3.54,6.71,6.81a6.34,6.34,0,0,0-.44-4.52A10.16,10.16,0,0,0,62,60a8,8,0,0,0,.26,1.51c.45-3.88,3.58-9,8.14-10.08,3.15,1.45,8.33,2.81,10.58,6A7.92,7.92,0,0,0,77,63.33Zm6.5-7.24c-1.23-2.23-4-3.85-6.37-5,3.73.37,5.75,2.36,8.35,4.29A20.11,20.11,0,0,0,83.5,56.09Zm14.06-4.22c-2.35.83-6.91,3.22-10.11,1.86a5.21,5.21,0,0,1,1.93-5.35,6.23,6.23,0,0,0-3.5,4.7c-2.68-1.62-4.32-3.87-4.26-6.57a6.05,6.05,0,0,0,.23,4.79,29.25,29.25,0,0,0-4.76-.44l0,.23c-.41-.19-8-3.45-9.18-4.08l.05-.17c-4.74-2.08-12.81-8.6-10-14.61a5.73,5.73,0,0,0-1.76,3.7A11.31,11.31,0,0,0,53,35.36c4.21,1.53,5,8.56,9.34,10.86-5.59,3.48-13.93,4-17.62,10.32a18.81,18.81,0,0,0-3.17-1.21C44.13,53.38,46.2,51.4,50,51l0-.24a27.15,27.15,0,0,0-4.76.44,6,6,0,0,0,.23-4.79c.07,2.7-1.59,5-4.26,6.56a6.19,6.19,0,0,0-3.49-4.69,5.21,5.21,0,0,1,1.92,5.34c-3.22,1.37-7.77-1-10.11-1.86,1-3,1.32-5.36-.31-8.15,5.26-4,22.66-6.49,14.92-16.33a4.22,4.22,0,0,1,5.09-.24,7.77,7.77,0,0,0-2-1.34c5.37-2.59,11-4.1,15.79-7.76,6.39,4.26,12.82,5.42,19.46,9.74A5.65,5.65,0,0,0,81,30.84c-3.11-1.8-7.94.58-10.57-2.58a12.28,12.28,0,0,0,2.11,2.91,6.35,6.35,0,0,0-2.89,3.51c2.38-2.94,6.86-3.41,10.68-1.31A5.25,5.25,0,0,1,77,37.86a6.34,6.34,0,0,0,4.64-3.55c3.71,5.13,11.54,6,16.24,9.41C96.24,46.5,96.51,48.88,97.56,51.87Zm2.56-1.44c-.57-1.91-.85-3.19.07-5C102.17,47.4,102.18,48.89,100.12,50.43Z"/><path class="cls-2" d="M11.35,95a14.54,14.54,0,0,0-1.5-5.57,8.47,8.47,0,0,1-1-5.24A3.93,3.93,0,0,1,11.69,81a4.17,4.17,0,0,1,.8-.08,3.27,3.27,0,0,1,1.95.57c.16.12.15.21-.08.76.25-.41.48-.71.66-.71h.12a4.35,4.35,0,0,1,2.27.74,4,4,0,0,1,1.27,4,8.44,8.44,0,0,1-3.15,4.32,14.67,14.67,0,0,0-3.71,4.42l-.43.82Zm2-10,0,0v0Zm.53-1.9,0,0L14,83l-.09,0Z"/><path class="cls-1" d="M12.49,81.17a3.15,3.15,0,0,1,1.8.51,5.76,5.76,0,0,1-.43,1.13s-3.41.59-4.07,3.79a5,5,0,0,1,3.85-3.37s0,0,0,0c-.8,2-2.18,6.42-1.7,10a22,22,0,0,1,1.3-8h0a5.65,5.65,0,0,1,1,5.13c1.18-2.93-.87-5.56-.82-5.67A9,9,0,0,1,15,81.79h.12a4.13,4.13,0,0,1,2.12.69,3.68,3.68,0,0,1,1.18,3.79c-1,3.79-4.47,4.13-6.84,8.68-.23-5.13-3.21-6.89-2.52-10.76a3.65,3.65,0,0,1,2.66-2.93,3.67,3.67,0,0,1,.75-.08m0-.5h0a4.71,4.71,0,0,0-.85.08,4.19,4.19,0,0,0-3.05,3.34,8.61,8.61,0,0,0,1,5.39A13.93,13.93,0,0,1,11.1,95l.08,1.86L12,95.17a14.17,14.17,0,0,1,3.66-4.34,8.65,8.65,0,0,0,3.22-4.45,4.19,4.19,0,0,0-1.37-4.31,4.47,4.47,0,0,0-2.41-.79H15a.45.45,0,0,0-.28.12.68.68,0,0,0-.12-.12,3.53,3.53,0,0,0-2.1-.62Z"/><path class="cls-2" d="M106.13,99.82a3.94,3.94,0,0,1-3.59-2.26,4.34,4.34,0,0,1-.08-2.52c.05-.16.4-.3.86-.43a3.76,3.76,0,0,1-.47,0h-.16l-.14-.16a3.66,3.66,0,0,1,.24-2.78,3.94,3.94,0,0,1,3.43-2l.34,0a8.48,8.48,0,0,1,4.8,2.33,14.67,14.67,0,0,0,5,2.89l.89.28-.91.2a14.51,14.51,0,0,0-5.22,2.45,8.44,8.44,0,0,1-5,1.92Zm-1.95-5.41h0v0S104.19,94.4,104.18,94.41Zm2-.07v0h0Z"/><path class="cls-1" d="M106.22,90h.32c3.91.34,4.85,3.67,9.75,5.22-5,1.12-6.23,4.36-10.16,4.36h0a3.68,3.68,0,0,1-3.35-2.1,4.12,4.12,0,0,1-.09-2.35,9.67,9.67,0,0,1,3.23-.72h0c.1,0,1.86,2.29,4.63,2.29.21,0,.41,0,.63,0h0a5.61,5.61,0,0,1-4.66-2.31c.56,0,1.2-.08,1.88-.08a19.82,19.82,0,0,1,6.23.89A18.77,18.77,0,0,0,107.68,94a29.43,29.43,0,0,0-3.23.18h0a4.89,4.89,0,0,1,4.24-2.9h-.27c-3.07,0-4.4,3-4.44,3-.58.07-1,.13-1.13.13h-.07a3.39,3.39,0,0,1,.24-2.57,3.64,3.64,0,0,1,3.2-1.84m0-.5a4.17,4.17,0,0,0-3.65,2.12,3.89,3.89,0,0,0-.25,3,.77.77,0,0,0,.1.15.45.45,0,0,0-.2.24,4.47,4.47,0,0,0,.09,2.68,4.21,4.21,0,0,0,3.82,2.42,8.66,8.66,0,0,0,5.13-2,14,14,0,0,1,5.14-2.42l1.81-.4-1.77-.56a14.09,14.09,0,0,1-4.92-2.84,8.71,8.71,0,0,0-4.94-2.39l-.36,0Z"/><path class="cls-2" d="M27.06,109.54a14.46,14.46,0,0,0-2.36-5.27,8.44,8.44,0,0,1-1.83-5,3.89,3.89,0,0,1,2.33-3.54,4.07,4.07,0,0,1,1.43-.26,3,3,0,0,1,1.36.3c.18.11.18.2,0,.77.17-.44.35-.77.52-.81a2.9,2.9,0,0,1,.62-.06,4.55,4.55,0,0,1,1.87.4,4,4,0,0,1,1.89,3.81,8.46,8.46,0,0,1-2.42,4.76,14.5,14.5,0,0,0-3,4.95l-.3.88Zm.41-10.14s0,0,0,0v0h0Zm.25-1.94,0-.1-.08,0Z"/><path class="cls-1" d="M26.63,95.7a2.7,2.7,0,0,1,1.24.27,5.54,5.54,0,0,1-.24,1.17s-3.28,1.14-3.43,4.39a5,5,0,0,1,3.3-3.93s0,0,0,0c-.47,2.13-1.14,6.69-.09,10.19a21.64,21.64,0,0,1,0-8.15h0a5.66,5.66,0,0,1,1.82,4.92c.7-3.09-1.73-5.37-1.71-5.47A9.39,9.39,0,0,1,28.61,96a3.15,3.15,0,0,1,.56,0,4.15,4.15,0,0,1,1.76.38,3.67,3.67,0,0,1,1.75,3.55c-.4,3.91-3.75,4.79-5.38,9.66-1-5-4.25-6.3-4.18-10.23a3.67,3.67,0,0,1,2.16-3.32,3.88,3.88,0,0,1,1.35-.24m0-.5h0a4.59,4.59,0,0,0-1.52.27,4.18,4.18,0,0,0-2.49,3.78,8.64,8.64,0,0,0,1.87,5.15,14.07,14.07,0,0,1,2.32,5.19l.37,1.82.59-1.77a14.24,14.24,0,0,1,2.93-4.86,8.65,8.65,0,0,0,2.48-4.9,4.2,4.2,0,0,0-2-4,4.73,4.73,0,0,0-2-.43,3.48,3.48,0,0,0-.67.06.53.53,0,0,0-.25.17l-.13-.09a3.15,3.15,0,0,0-1.49-.34Z"/><path class="cls-2" d="M9.5,79.3A4.07,4.07,0,0,1,7,78.46,8.47,8.47,0,0,1,4.25,73.9a14.35,14.35,0,0,0-2.64-5.13L1,68.05l.87.32a13.09,13.09,0,0,0,4.75.78H8.51a7.43,7.43,0,0,1,4.33,1.08,4,4,0,0,1,1.79,3.86,3.61,3.61,0,0,1-1.51,2.34l-.06,0H13c-.13,0-.19,0-.53-.39.28.37.46.69.4.86a4.29,4.29,0,0,1-1.6,1.93,3.41,3.41,0,0,1-1.76.45Zm2.38-3.94v-.09l-.08,0Zm-1.59-1.3h0l0,0Z"/><path class="cls-1" d="M1.8,68.61a13.36,13.36,0,0,0,4.83.79l1.88,0a7.15,7.15,0,0,1,4.19,1A3.67,3.67,0,0,1,14.38,74,3.37,3.37,0,0,1,13,76.19h0a6.68,6.68,0,0,1-.86-.82s.76-3.39-1.94-5.23A4.9,4.9,0,0,1,11.79,75h0c-1.56-1.52-5.09-4.48-8.62-5.44a21.7,21.7,0,0,1,6.92,4.31,3.6,3.6,0,0,1-1.47.23A6,6,0,0,1,5,72.88,5.64,5.64,0,0,0,9,74.4a13.54,13.54,0,0,0,1.46-.11h0a9.29,9.29,0,0,1,2.12,2.54,4.14,4.14,0,0,1-1.5,1.8,3.22,3.22,0,0,1-1.63.41,3.8,3.8,0,0,1-2.32-.79c-3.11-2.4-2.1-5.71-5.38-9.65M.23,67.5l1.18,1.43A14.12,14.12,0,0,1,4,74a8.63,8.63,0,0,0,2.86,4.68,4.32,4.32,0,0,0,2.62.89,3.68,3.68,0,0,0,1.89-.48A4.62,4.62,0,0,0,13.1,77a.66.66,0,0,0,0-.31h0l.13-.08a3.83,3.83,0,0,0,1.61-2.51A4.17,4.17,0,0,0,13,70a7.67,7.67,0,0,0-4.46-1.12H6.63A12.76,12.76,0,0,1,2,68.14L.23,67.5Z"/><path class="cls-2" d="M117.51,79.37a3.53,3.53,0,0,1-1.76-.44,4.33,4.33,0,0,1-1.6-1.93c-.06-.17.13-.5.41-.88-.34.35-.42.41-.55.41H114l0,0a3.61,3.61,0,0,1-1.53-2.36,4,4,0,0,1,1.79-3.85,7.44,7.44,0,0,1,4.33-1.09h.91l1,0a13.31,13.31,0,0,0,4.75-.78l.87-.32-.6.72A14.39,14.39,0,0,0,122.76,74,8.53,8.53,0,0,1,120,78.54,4.06,4.06,0,0,1,117.51,79.37Zm-2.38-3.93.06-.07h-.06Zm1.6-1.3s0,0,0,0l0,0Z"/><path class="cls-1" d="M125.21,68.69c-3.28,3.94-2.27,7.25-5.38,9.65a3.79,3.79,0,0,1-2.32.78,3.15,3.15,0,0,1-1.63-.41,4.08,4.08,0,0,1-1.5-1.8,9.45,9.45,0,0,1,2.12-2.54h0a13.28,13.28,0,0,0,1.46.11A5.63,5.63,0,0,0,122.05,73a5.9,5.9,0,0,1-3.66,1.27,3.3,3.3,0,0,1-1.47-.24,21.86,21.86,0,0,1,6.92-4.3c-3.53.95-7.06,3.92-8.62,5.44h0a4.91,4.91,0,0,1,1.59-4.89c-2.69,1.84-1.9,5.19-1.93,5.22a6.9,6.9,0,0,1-.87.83h0a3.39,3.39,0,0,1-1.38-2.18,3.66,3.66,0,0,1,1.68-3.59,7.17,7.17,0,0,1,4.19-1c.6,0,1.23,0,1.88,0a13.36,13.36,0,0,0,4.83-.79m1.57-1.11-1.74.64a13,13,0,0,1-4.66.76l-1,0h-.91A7.6,7.6,0,0,0,114,70.08a4.17,4.17,0,0,0-1.9,4.11,3.86,3.86,0,0,0,1.62,2.52h0l.09,0h0a.52.52,0,0,0,0,.3,4.53,4.53,0,0,0,1.71,2.07,3.68,3.68,0,0,0,1.89.48,4.31,4.31,0,0,0,2.62-.88A8.7,8.7,0,0,0,123,74.05a13.81,13.81,0,0,1,2.6-5l1.18-1.43Z"/><path class="cls-2" d="M125,68.69a11.37,11.37,0,0,0-2.9-.38,20.52,20.52,0,0,0-2.31.17,18.08,18.08,0,0,1-1.92.14,6.13,6.13,0,0,1-2.89-.68A3.59,3.59,0,0,1,113,64.6a3.3,3.3,0,0,1,1.17-2.26l.07,0h.08c.09,0,.15,0,.31.15-.19-.24-.31-.44-.27-.57A3.93,3.93,0,0,1,115.65,60a3.3,3.3,0,0,1,1.89-.56,3.65,3.65,0,0,1,2,.57,7.66,7.66,0,0,1,2.89,3.89,13,13,0,0,0,2.8,4.38l.66.66Z"/><path class="cls-1" d="M117.54,59.68a3.39,3.39,0,0,1,1.84.53c3,1.9,2.36,5,5.64,8.24a11.48,11.48,0,0,0-3-.39c-1.6,0-2.92.31-4.22.31a5.88,5.88,0,0,1-2.79-.65,3.33,3.33,0,0,1-1.8-3.1,3.05,3.05,0,0,1,1.07-2.07h0a6.18,6.18,0,0,1,.85.66s-.41,3.11,2.17,4.55a4.43,4.43,0,0,1-1.84-4.28h0c1.53,1.23,5,3.61,8.2,4.18a19.75,19.75,0,0,1-6.58-3.3,3.68,3.68,0,0,1,1.8-.36,5.38,5.38,0,0,1,2.9.86,4.89,4.89,0,0,0-3.17-1.07,9.66,9.66,0,0,0-1.93.25h0a8.22,8.22,0,0,1-2.11-2.11,3.6,3.6,0,0,1,1.2-1.74,3,3,0,0,1,1.74-.52m0-.5a3.49,3.49,0,0,0-2,.61,4.16,4.16,0,0,0-1.39,2,.56.56,0,0,0,0,.25l-.1.07a3.53,3.53,0,0,0-1.28,2.43,3.83,3.83,0,0,0,2.07,3.59,6.4,6.4,0,0,0,3,.71,18.65,18.65,0,0,0,1.94-.14,20,20,0,0,1,2.28-.17,11.27,11.27,0,0,1,2.83.37l1.8.48-1.32-1.31a12.83,12.83,0,0,1-2.74-4.32,8,8,0,0,0-3-4,4,4,0,0,0-2.1-.6Z"/><path class="cls-2" d="M123.74,49.11a15,15,0,0,0-5.36-.87h-1.2l-1.1,0A8.34,8.34,0,0,1,111.22,47a4.45,4.45,0,0,1-2-4.36,5,5,0,0,1,1.44-2.45l.07,0,.16,0a5.94,5.94,0,0,1,1.49.41l-.24-.1c-1-.46-1.06-.5-1-.72A4.14,4.14,0,0,1,113,37.23a3.83,3.83,0,0,1,2-.51,4.64,4.64,0,0,1,2.79.94c1.91,1.47,2.5,3.19,3.18,5.19a16.52,16.52,0,0,0,3,5.87l.6.71ZM114.66,42l0-.17-.1-.06Zm-1.91-1.24a1.8,1.8,0,0,1,0-.19h0a.48.48,0,0,1-.23.08h0Z"/><path class="cls-1" d="M115,37a4.37,4.37,0,0,1,2.64.89c3.56,2.73,2.41,6.52,6.18,11a15,15,0,0,0-5.44-.89c-.81,0-1.57,0-2.3,0a8.07,8.07,0,0,1-4.72-1.19,4.19,4.19,0,0,1-1.94-4.1,4.63,4.63,0,0,1,1.36-2.3l.07,0a12.91,12.91,0,0,1,3.48,1.31c.11.05.42,3.85,3.68,5.41a6.41,6.41,0,0,1-3.1-5.12h0a24.87,24.87,0,0,1,7.31,5.77c-2.39-3.43-7-6.07-9.18-7.15a4.8,4.8,0,0,1,3.07-.92,5.62,5.62,0,0,1,2.79.73,5,5,0,0,0-3-1,7.48,7.48,0,0,0-3.35.92h0a6.51,6.51,0,0,1-1.22-.61,4,4,0,0,1,1.81-2.34A3.67,3.67,0,0,1,115,37m0-.5a4.14,4.14,0,0,0-2.13.55,4.36,4.36,0,0,0-2,2.67.8.8,0,0,0,0,.22.7.7,0,0,0-.36.12,5.24,5.24,0,0,0-1.54,2.61,4.71,4.71,0,0,0,2.16,4.61,8.54,8.54,0,0,0,5,1.27l1.11,0h1.19a14.71,14.71,0,0,1,5.27.86l1.75.63-1.19-1.42a16.45,16.45,0,0,1-3-5.79c-.66-2-1.28-3.79-3.26-5.31a4.85,4.85,0,0,0-2.94-1Z"/><path class="cls-2" d="M110.48,34.22A4,4,0,0,1,109.2,34c-.16-.06-.29-.41-.4-.88,0,.59,0,.69-.16.76a2.56,2.56,0,0,1-.87.14,4,4,0,0,1-1.89-.5,3.91,3.91,0,0,1-1.8-3.84,8.47,8.47,0,0,1,2.53-4.7,14.55,14.55,0,0,0,3.09-4.88l.31-.88.17.92a14.51,14.51,0,0,0,2.23,5.32,8.52,8.52,0,0,1,1.72,5.07,3.54,3.54,0,0,1-3.65,3.66Zm-1.84-1.94,0-.1,0,.06Zm0-2,0,0h0Z"/><path class="cls-1" d="M109.93,20.21c.92,5.06,4.11,6.41,3.95,10.34a3.7,3.7,0,0,1-2.25,3.26,3.81,3.81,0,0,1-1.15.16,3.51,3.51,0,0,1-1.19-.18,8.93,8.93,0,0,1-.59-3.24c0-.11,2.73-2,2.48-5.17a5.67,5.67,0,0,1-2.51,4.6h0a21.58,21.58,0,0,1,1.15-8.08c-1.54,3.32-1.53,7.93-1.37,10.1h0a5,5,0,0,1-2.72-4.37c-.31,3.25,2.77,4.79,2.77,4.84a6.52,6.52,0,0,1,.07,1.19,2.22,2.22,0,0,1-.79.13,3.87,3.87,0,0,1-1.77-.47,3.66,3.66,0,0,1-1.67-3.59c.49-3.9,3.86-4.7,5.6-9.53m.16-1.92L109.46,20a14,14,0,0,1-3,4.8,8.69,8.69,0,0,0-2.59,4.84,4.17,4.17,0,0,0,1.93,4.09,4.37,4.37,0,0,0,2,.53,2.84,2.84,0,0,0,1-.16.23.23,0,0,1,.4.13,4.09,4.09,0,0,0,1.35.2,3.78,3.78,0,0,0,3.9-3.91,8.65,8.65,0,0,0-1.76-5.2,14.24,14.24,0,0,1-2.2-5.24l-.33-1.83Z"/><path class="cls-2" d="M24.91,26.26a4.89,4.89,0,0,1-.66-.05,8.44,8.44,0,0,1-4.6-2.72,14.49,14.49,0,0,0-4.75-3.28L14,19.87l.92-.13a14.49,14.49,0,0,0,5.4-2,9,9,0,0,1,4.57-1.53,5.33,5.33,0,0,1,.56,0,4,4,0,0,1,3.4,2.55,4.36,4.36,0,0,1-.12,2.51c-.06.15-.42.27-.88.36h.32c.14,0,.36,0,.42.21a3.62,3.62,0,0,1-.47,2.74A3.87,3.87,0,0,1,24.91,26.26ZM27,21.79l0,0h0Zm-2-.11,0,0v0Z"/><path class="cls-1" d="M24.93,16.43a4.87,4.87,0,0,1,.54,0,3.69,3.69,0,0,1,3.18,2.37,4.09,4.09,0,0,1-.11,2.34,8.94,8.94,0,0,1-3.27.46c-.11,0-1.82-2.68-4.85-2.68h-.21a5.6,5.6,0,0,1,4.49,2.69h-.05a21.85,21.85,0,0,1-8-1.47c2.87,1.48,6.8,1.78,9.18,1.78h.85a4.85,4.85,0,0,1-4.37,2.55h-.09a4.82,4.82,0,0,0,.65,0c2.81,0,4.25-2.61,4.29-2.62l1,0q.16,0,.18,0A3.42,3.42,0,0,1,28,24.43a3.62,3.62,0,0,1-3,1.58,3.31,3.31,0,0,1-.62-.05c-3.87-.65-4.54-4.05-9.3-6,4.85-.68,6.42-3.55,9.94-3.55m0-.5a9.18,9.18,0,0,0-4.69,1.57,14.16,14.16,0,0,1-5.32,2l-1.84.26,1.73.7a14.07,14.07,0,0,1,4.67,3.22,8.62,8.62,0,0,0,4.73,2.78,4.2,4.2,0,0,0,4.17-1.76,3.88,3.88,0,0,0,.48-3,.35.35,0,0,0-.07-.15.56.56,0,0,0,.21-.23,4.49,4.49,0,0,0,.13-2.67A4.21,4.21,0,0,0,25.51,16a5.72,5.72,0,0,0-.58,0Z"/><path class="cls-2" d="M102.09,26.34a3.9,3.9,0,0,1-3.25-1.7,3.67,3.67,0,0,1-.46-2.75.37.37,0,0,1,.4-.2h.34c-.46-.09-.82-.21-.88-.36a4.29,4.29,0,0,1-.11-2.51,4,4,0,0,1,3.39-2.56l.55,0a9,9,0,0,1,4.57,1.54,14.62,14.62,0,0,0,5.41,2l.92.13-.86.35a14.49,14.49,0,0,0-4.75,3.28,8.49,8.49,0,0,1-4.6,2.71A3.88,3.88,0,0,1,102.09,26.34Zm-2-4.48v0h0Zm2-.11h0l0,0Z"/><path class="cls-1" d="M102.07,16.5c3.53,0,5.1,2.87,9.94,3.56-4.75,1.93-5.42,5.33-9.29,6a3.44,3.44,0,0,1-.63.06,3.64,3.64,0,0,1-3-1.58A3.44,3.44,0,0,1,98.62,22a.35.35,0,0,1,.16,0l1,0s1.49,2.62,4.29,2.62a4.82,4.82,0,0,0,.65,0h-.09A4.89,4.89,0,0,1,100.29,22h0l.85,0c2.38,0,6.32-.31,9.19-1.78a21.74,21.74,0,0,1-7.93,1.47h-.09a5.61,5.61,0,0,1,4.5-2.69h-.22c-3,0-4.74,2.68-4.85,2.68a9.42,9.42,0,0,1-3.27-.46,4,4,0,0,1-.1-2.34,3.67,3.67,0,0,1,3.17-2.38l.53,0m0-.5-.57,0a4.21,4.21,0,0,0-3.61,2.74A4.42,4.42,0,0,0,98,21.43a.51.51,0,0,0,.21.23.35.35,0,0,0-.07.12,3.93,3.93,0,0,0,.48,3,4.2,4.2,0,0,0,4.17,1.76,8.65,8.65,0,0,0,4.73-2.78,14.08,14.08,0,0,1,4.67-3.23l1.72-.7-1.84-.26a14,14,0,0,1-5.31-2,9.18,9.18,0,0,0-4.7-1.57Z"/><path class="cls-2" d="M91.41,17a3.93,3.93,0,0,1-3.26-2.72,8.43,8.43,0,0,1,.3-5.33,14.43,14.43,0,0,0,.72-5.73l-.08-.92.54.76a14.46,14.46,0,0,0,4.28,3.87,8.44,8.44,0,0,1,3.7,3.85,4,4,0,0,1-.71,4.19A4.28,4.28,0,0,1,94.63,16h0c-.18,0-.46-.28-.76-.67.32.55.36.65.21.8a3.61,3.61,0,0,1-2.44.86Zm2-2.33-.06-.08,0,.07Zm-.87-1.83v0h0Z"/><path class="cls-1" d="M89.42,3.15c3,4.19,6.44,4.06,8,7.68a3.7,3.7,0,0,1-.65,3.91,4,4,0,0,1-2.13,1h0A9.47,9.47,0,0,1,92.69,13c0-.09,1.62-3,0-5.73a5.62,5.62,0,0,1-.32,5.22h0A21.68,21.68,0,0,1,90,4.73c0,3.66,2,7.83,3,9.72,0,0,0,0-.14,0a5.07,5.07,0,0,1-4.18-2.82c1.09,3.08,4.54,3.17,4.56,3.21a5.12,5.12,0,0,1,.57,1.05,3.35,3.35,0,0,1-2.26.79h-.2a3.67,3.67,0,0,1-3-2.54c-1.2-3.74,1.5-5.9,1-11m-.67-1.8.18,1.85a14.17,14.17,0,0,1-.72,5.63,8.67,8.67,0,0,0-.3,5.48A4.18,4.18,0,0,0,91.4,17.2h.23a3.76,3.76,0,0,0,2.61-.94.45.45,0,0,0,.11-.13.52.52,0,0,0,.25.08,4.59,4.59,0,0,0,2.48-1.12,4.22,4.22,0,0,0,.76-4.47,8.65,8.65,0,0,0-3.8-4,14.14,14.14,0,0,1-4.21-3.81L88.75,1.35Z"/><path class="cls-2" d="M52.41,10.34l-.48,0a8.46,8.46,0,0,1-4.72-2.52,14.49,14.49,0,0,0-4.89-3.07l-.87-.31.91-.17A14.52,14.52,0,0,0,47.67,2,8.72,8.72,0,0,1,52.46.25h.27a3.94,3.94,0,0,1,3.5,2.41,3.66,3.66,0,0,1-.1,2.78l-.08.13h-.17a2.19,2.19,0,0,1-.51-.11c.43.18.75.37.79.54a4.32,4.32,0,0,1-.4,2.48,3.85,3.85,0,0,1-3.35,1.85Zm2.11-5.17h0Zm-2-.31,0,0h0Z"/><path class="cls-1" d="M52.46.5h.26A3.66,3.66,0,0,1,56,2.74a3.37,3.37,0,0,1-.08,2.58h0c-.12,0-.52-.12-1.14-.27,0,0-1.07-3.3-4.32-3.52a4.91,4.91,0,0,1,3.86,3.4h0a28,28,0,0,0-6.23-.77,14.77,14.77,0,0,0-4,.48,15.61,15.61,0,0,1,3.28-.31,24.39,24.39,0,0,1,4.87.49A5.51,5.51,0,0,1,48.08,6.6a5.27,5.27,0,0,1-.78,0,4.86,4.86,0,0,0,1.23.15A7.33,7.33,0,0,0,52.8,5h0a9,9,0,0,1,3.11,1.11,4.07,4.07,0,0,1-.37,2.31,3.65,3.65,0,0,1-3.13,1.72l-.45,0c-3.9-.48-4.72-3.85-9.55-5.57,4.93-.92,6.32-4,10.05-4m0-.5h0a8.83,8.83,0,0,0-4.92,1.78A14,14,0,0,1,42.31,4l-1.82.34L42.24,5a14.26,14.26,0,0,1,4.81,3,8.58,8.58,0,0,0,4.85,2.57,2.92,2.92,0,0,0,.51,0A4.1,4.1,0,0,0,56,8.6,4.51,4.51,0,0,0,56.4,6a.43.43,0,0,0-.16-.26l.1-.14a3.9,3.9,0,0,0,.12-3A4.18,4.18,0,0,0,52.73,0Z"/><path class="cls-2" d="M74.6,10.41a3.86,3.86,0,0,1-3.35-1.84,4.33,4.33,0,0,1-.4-2.48c0-.17.36-.36.8-.54a2.76,2.76,0,0,1-.52.1H71l-.11-.14a3.66,3.66,0,0,1-.1-2.78,3.94,3.94,0,0,1,3.5-2.4h.26a8.73,8.73,0,0,1,4.8,1.74,14.21,14.21,0,0,0,5.31,2.26l.92.17-.88.31A14.34,14.34,0,0,0,79.8,7.87a8.45,8.45,0,0,1-4.71,2.51ZM72.49,5.25h0v0Zm2-.32v0h0Z"/><path class="cls-1" d="M74.54.57c3.74,0,5.13,3.08,10.07,4C79.77,6.29,79,9.65,75.06,10.14l-.46,0a3.64,3.64,0,0,1-3.13-1.71,4,4,0,0,1-.37-2.32A9.34,9.34,0,0,1,74.21,5h0a7.33,7.33,0,0,0,4.27,1.75,5.3,5.3,0,0,0,1.23-.15,7.13,7.13,0,0,1-.79,0A5.45,5.45,0,0,1,74.77,4.9a25.13,25.13,0,0,1,4.86-.49,15,15,0,0,1,3.29.32,14.82,14.82,0,0,0-4-.48A28,28,0,0,0,72.73,5h0a4.91,4.91,0,0,1,3.86-3.4c-3.25.21-4.28,3.5-4.32,3.51a10,10,0,0,1-1.14.27h0A3.43,3.43,0,0,1,71,2.81,3.67,3.67,0,0,1,74.29.58h.25m0-.5h-.27a4.19,4.19,0,0,0-3.72,2.57,3.87,3.87,0,0,0,.12,3l.08.16a.43.43,0,0,0-.14.24A4.54,4.54,0,0,0,71,8.69a4.12,4.12,0,0,0,3.57,2l.52,0A8.67,8.67,0,0,0,80,8.06a14,14,0,0,1,4.81-3l1.76-.63L84.7,4.07a14,14,0,0,1-5.23-2.22A8.91,8.91,0,0,0,74.54.07Z"/><path class="cls-2" d="M82.26,19.59l-.34,0a4,4,0,0,1-2.06-1.06c-.09-.1-.08-.36,0-.69-.14.32-.2.37-.35.37a3.36,3.36,0,0,1-2.16-1.44,3.62,3.62,0,0,1,.11-3.92,7.8,7.8,0,0,1,4-2.82A13.17,13.17,0,0,0,86,7.3l.68-.64-.26.89a13.29,13.29,0,0,0-.37,5.28,7.78,7.78,0,0,1-.69,4.86A3.7,3.7,0,0,1,82.26,19.59Z"/><path class="cls-1" d="M86.19,7.48c-1.34,4.52.71,6.94-1,10.09a3.44,3.44,0,0,1-2.89,1.77l-.3,0a3.68,3.68,0,0,1-1.91-1,8.42,8.42,0,0,1,.86-2.9c0-.09,3.07-.53,4.16-3.21A5.27,5.27,0,0,1,81.16,15s0,0,0,0a20,20,0,0,1,4.27-6.13c-2.63,2.08-4.52,5.86-5.29,7.71h0a4.51,4.51,0,0,1-.43-4.7c-1.6,2.52.28,5.06.27,5.1a5.09,5.09,0,0,1-.44,1h0a3.14,3.14,0,0,1-2-1.33A3.38,3.38,0,0,1,77.66,13c2-3,5.1-2.25,8.53-5.49m1-1.64L85.84,7.12a12.85,12.85,0,0,1-4.45,2.66,8,8,0,0,0-4.15,2.91,3.9,3.9,0,0,0-.11,4.2,3.61,3.61,0,0,0,2.31,1.54h.13a.45.45,0,0,0,.11.25,4.19,4.19,0,0,0,2.21,1.13,2.22,2.22,0,0,0,.37,0,4,4,0,0,0,3.33-2,8.09,8.09,0,0,0,.72-5,12.69,12.69,0,0,1,.36-5.18l.52-1.79Z"/><path class="cls-2" d="M25.05,32.4a11.37,11.37,0,0,0,1.51-4.29,6.72,6.72,0,0,1,1.7-3.91,3.24,3.24,0,0,1,2.32-1,2.49,2.49,0,0,1,1,.19A3,3,0,0,1,33.2,25a.24.24,0,0,1-.07.27.69.69,0,0,1,.24-.06h.07l.08.05a3.42,3.42,0,0,1,1.27,1.58,3.2,3.2,0,0,1-1,3.27,6.81,6.81,0,0,1-4,1.43,11.3,11.3,0,0,0-4.39,1.22l-.82.43Z"/><path class="cls-1" d="M30.58,23.48a2.31,2.31,0,0,1,.91.17A2.68,2.68,0,0,1,33,25.08a5.16,5.16,0,0,1-.78.54h0a5.44,5.44,0,0,0-1.82-.35,3.57,3.57,0,0,0-2.54,1,4,4,0,0,1,2.43-.81,3,3,0,0,1,1.62.37c-1.43,1-4.31,3.22-5.61,5.8A17.19,17.19,0,0,1,30.71,27h0a4.41,4.41,0,0,1-1.63,3.81c2.09-1.38,1.93-4,2-4.07a8.55,8.55,0,0,1,2.29-1.24h0a3.13,3.13,0,0,1,1.16,1.45,2.91,2.91,0,0,1-.93,3c-2.36,2-4.77.71-8.36,2.62,2.15-3.46,1-5.95,3.18-8.17a3,3,0,0,1,2.14-.89m0-.5A3.49,3.49,0,0,0,28.08,24a6.84,6.84,0,0,0-1.76,4,11.17,11.17,0,0,1-1.48,4.21l-1,1.58L25.5,33a10.82,10.82,0,0,1,4.3-1.19A7,7,0,0,0,34,30.3,3.39,3.39,0,0,0,35,26.75,3.67,3.67,0,0,0,33.65,25L33.53,25h-.08s0,0,0,0a3.22,3.22,0,0,0-1.75-1.73A2.82,2.82,0,0,0,30.58,23Z"/><path class="cls-2" d="M101.63,32.83a11.44,11.44,0,0,0-4.39-1.21,6.81,6.81,0,0,1-4-1.43,3.21,3.21,0,0,1-1-3.28,3.57,3.57,0,0,1,1.26-1.58l.06,0h.1a.87.87,0,0,1,.23.05.24.24,0,0,1-.06-.26,3,3,0,0,1,1.61-1.59,2.67,2.67,0,0,1,1-.19,3.29,3.29,0,0,1,2.32,1,6.75,6.75,0,0,1,1.7,3.91,11.59,11.59,0,0,0,1.51,4.3l.49.79Z"/><path class="cls-1" d="M96.43,23.55a3,3,0,0,1,2.14.9c2.18,2.22,1,4.71,3.18,8.16-3.59-1.91-6-.59-8.36-2.61a2.92,2.92,0,0,1-.93-3,3.26,3.26,0,0,1,1.15-1.46h0a8.23,8.23,0,0,1,2.29,1.24c.07,0-.09,2.68,2,4.07A4.43,4.43,0,0,1,96.3,27h0a17,17,0,0,1,4.45,4.67c-1.3-2.58-4.18-4.84-5.61-5.8a2.84,2.84,0,0,1,1.62-.38,4,4,0,0,1,2.43.82,3.54,3.54,0,0,0-2.54-1,5.44,5.44,0,0,0-1.82.35h0a4.41,4.41,0,0,1-.78-.54,2.75,2.75,0,0,1,1.47-1.43,2.31,2.31,0,0,1,.91-.17m0-.5a3,3,0,0,0-1.11.21A3.25,3.25,0,0,0,93.57,25a.09.09,0,0,1,0,.05H93.5l-.14.07A3.68,3.68,0,0,0,92,26.83a3.41,3.41,0,0,0,1.07,3.55,7,7,0,0,0,4.15,1.48,11.25,11.25,0,0,1,4.31,1.19l1.64.88-1-1.58a11.23,11.23,0,0,1-1.48-4.21,6.93,6.93,0,0,0-1.76-4,3.49,3.49,0,0,0-2.5-1.05Z"/><path class="cls-2" d="M97.9,39.56a3.55,3.55,0,0,1-.46,0,6.78,6.78,0,0,1-3.72-2.1,11.34,11.34,0,0,0-3.79-2.52l-.87-.34.92-.14a11.57,11.57,0,0,0,4.24-1.67,7,7,0,0,1,3.71-1.29h.35a3.16,3.16,0,0,1,2.77,2,2.89,2.89,0,0,1-.14,2.24l-.07.12h-.19c.16.1.26.2.28.29a3.4,3.4,0,0,1-.37,2,3.12,3.12,0,0,1-2.66,1.42Z"/><path class="cls-1" d="M97.93,31.72h.34a2.89,2.89,0,0,1,2.54,1.83,2.68,2.68,0,0,1-.11,2h0a8.85,8.85,0,0,1-.89-.23S99,32.74,96.42,32.5a3.9,3.9,0,0,1,3,2.77h0a21.84,21.84,0,0,0-5.32-.73,11.18,11.18,0,0,0-2.74.3,11.64,11.64,0,0,1,2.18-.19,19.38,19.38,0,0,1,4.27.49,4.3,4.3,0,0,1-3.21,1.33,4.81,4.81,0,0,1-.74-.06,4.12,4.12,0,0,0,1.07.15,5.87,5.87,0,0,0,3.32-1.31h0a7.42,7.42,0,0,1,2.44.94,3.09,3.09,0,0,1-.34,1.83,2.9,2.9,0,0,1-2.44,1.29l-.43,0c-3.08-.46-3.66-3.14-7.45-4.61,3.87-.61,5-3,7.91-3m0-.5h0a7.25,7.25,0,0,0-3.84,1.32,11.14,11.14,0,0,1-4.15,1.64l-1.84.29,1.74.67a11.14,11.14,0,0,1,3.71,2.47,7,7,0,0,0,3.85,2.17,4.07,4.07,0,0,0,.5,0,3.4,3.4,0,0,0,2.88-1.55,3.66,3.66,0,0,0,.4-2.15.45.45,0,0,0-.09-.2l0-.08a3.15,3.15,0,0,0,.15-2.42,3.37,3.37,0,0,0-3-2.18Z"/><path class="cls-2" d="M3,48.64a16.57,16.57,0,0,0,3-5.86c.68-2,1.27-3.73,3.18-5.19A4.58,4.58,0,0,1,12,36.65a4,4,0,0,1,2,.5,4.15,4.15,0,0,1,1.92,2.51c.05.23,0,.28-.95.69l-.29.14a5.66,5.66,0,0,1,1.46-.4h.09l.15.07a4.88,4.88,0,0,1,1.44,2.45,4.44,4.44,0,0,1-2,4.35,8.34,8.34,0,0,1-4.86,1.23H9.82l-1.19,0A15,15,0,0,0,3.27,49l-.87.32Zm9.35-6.74.05-.23-.1.06Zm1.91-1.24.23-.09h0c-.07,0-.11,0-.23-.09h0Z"/><path class="cls-1" d="M12,36.9a3.67,3.67,0,0,1,1.87.47,3.89,3.89,0,0,1,1.81,2.34,7.35,7.35,0,0,1-1.22.61h0a7.48,7.48,0,0,0-3.35-.92,5.08,5.08,0,0,0-3,1,5.79,5.79,0,0,1,2.8-.73,4.87,4.87,0,0,1,3.07.92c-2.23,1.08-6.79,3.73-9.18,7.15a24.91,24.91,0,0,1,7.31-5.77h0A6.38,6.38,0,0,1,9,47.05c3.26-1.56,3.57-5.35,3.68-5.41a13,13,0,0,1,3.47-1.3h.08a4.7,4.7,0,0,1,1.36,2.31,4.21,4.21,0,0,1-1.93,4.09,8.13,8.13,0,0,1-4.73,1.19c-.74,0-1.5,0-2.3,0a15.19,15.19,0,0,0-5.44.89c3.77-4.5,2.62-8.28,6.18-11A4.31,4.31,0,0,1,12,36.9m0-.5v0a4.85,4.85,0,0,0-2.94,1c-2,1.51-2.6,3.35-3.26,5.31a16.54,16.54,0,0,1-3,5.78L1.61,49.9l1.75-.63a14.68,14.68,0,0,1,5.27-.86l1.19,0h1.11a8.48,8.48,0,0,0,5-1.27,4.71,4.71,0,0,0,2.16-4.61A5.15,5.15,0,0,0,16.55,40a.57.57,0,0,0-.37-.13.59.59,0,0,0,0-.23,4.39,4.39,0,0,0-2-2.67A4.13,4.13,0,0,0,12,36.4Z"/><path class="cls-2" d="M8.91,60.05a4,4,0,0,1-2.62-1,8.47,8.47,0,0,1-2.57-4.68,14.36,14.36,0,0,0-2.4-5.25l-.56-.74.86.36a14.31,14.31,0,0,0,5.68,1,8.53,8.53,0,0,1,5.18,1.32,3.94,3.94,0,0,1,1.6,3.93,3.64,3.64,0,0,1-1.62,2.28l-.05,0h-.06c-.14,0-.2-.06-.54-.43.27.39.44.73.37.89a4.26,4.26,0,0,1-1.69,1.86,3.44,3.44,0,0,1-1.58.36Zm2.36-3.82a.44.44,0,0,1,0-.1l-.08,0ZM9.74,54.85h0l0,0Z"/><path class="cls-1" d="M1.52,49c4.73,2,7.6.05,10.81,2.33A3.68,3.68,0,0,1,13.84,55a3.46,3.46,0,0,1-1.49,2.12h0a6.42,6.42,0,0,1-.83-.87s.92-3.34-1.68-5.3a4.91,4.91,0,0,1,1.36,5h0c-1.49-1.59-4.87-4.72-8.36-5.83a21.71,21.71,0,0,1,6.72,4.62,2.89,2.89,0,0,1-1.21.17,5.91,5.91,0,0,1-3.87-1.44,5.81,5.81,0,0,0,4.37,1.73c.54,0,.93,0,1.06,0H10a9.27,9.27,0,0,1,2,2.63,4,4,0,0,1-1.58,1.74,3.12,3.12,0,0,1-1.46.33,3.79,3.79,0,0,1-2.46-.9c-3-2.53-1.83-5.8-4.93-9.89M0,47.83l1.12,1.48a13.89,13.89,0,0,1,2.36,5.16,8.65,8.65,0,0,0,2.64,4.81,4.28,4.28,0,0,0,2.79,1,3.67,3.67,0,0,0,1.7-.39,4.48,4.48,0,0,0,1.8-2,.43.43,0,0,0,0-.3h.06l.11-.07a4,4,0,0,0,1.74-2.43,4.23,4.23,0,0,0-1.71-4.19,8.66,8.66,0,0,0-5.31-1.37,13.89,13.89,0,0,1-5.59-1L0,47.83Z"/><path class="cls-2" d="M29.1,39.49a3.11,3.11,0,0,1-2.65-1.43,3.4,3.4,0,0,1-.37-2c0-.09.12-.19.28-.29h-.18l-.09-.16A2.87,2.87,0,0,1,26,33.41a3.16,3.16,0,0,1,2.77-2h.35a7.1,7.1,0,0,1,3.72,1.29A11.44,11.44,0,0,0,37,34.35l.92.15-.87.33a11.49,11.49,0,0,0-3.79,2.52,6.79,6.79,0,0,1-3.71,2.1A3.88,3.88,0,0,1,29.1,39.49Z"/><path class="cls-1" d="M29.08,31.64c2.86,0,4.05,2.34,7.91,3-3.79,1.46-4.37,4.14-7.45,4.6a2.18,2.18,0,0,1-.44,0,2.86,2.86,0,0,1-2.43-1.3,3.08,3.08,0,0,1-.34-1.82,7,7,0,0,1,2.44-.95h0a5.87,5.87,0,0,0,3.32,1.31,4.12,4.12,0,0,0,1.07-.15,4.91,4.91,0,0,1-.74.06,4.31,4.31,0,0,1-3.21-1.32,19.48,19.48,0,0,1,4.27-.5,11.64,11.64,0,0,1,2.18.19,11.23,11.23,0,0,0-2.74-.3,21.7,21.7,0,0,0-5.32.74h0a3.86,3.86,0,0,1,3-2.77c-2.57.23-3.31,2.86-3.35,2.87-.49.13-.81.23-.89.23h0a2.73,2.73,0,0,1-.12-2,2.91,2.91,0,0,1,2.55-1.84h.34m0-.5h-.37a3.38,3.38,0,0,0-3,2.19,3.23,3.23,0,0,0,.15,2.42l0,.08a.51.51,0,0,0-.08.19,3.69,3.69,0,0,0,.4,2.16,3.39,3.39,0,0,0,2.87,1.55,4.38,4.38,0,0,0,.51,0,6.94,6.94,0,0,0,3.85-2.17,11.14,11.14,0,0,1,3.71-2.47l1.74-.66-1.84-.3a11,11,0,0,1-4.15-1.64,7.22,7.22,0,0,0-3.84-1.32Z"/><path class="cls-2" d="M20,53.62a3.5,3.5,0,0,1-1.29-.23.63.63,0,0,1-.23-.39c0,.17-.07.23-.19.26a2.07,2.07,0,0,1-.57.08A3.37,3.37,0,0,1,16,52.83a3.25,3.25,0,0,1-1.31-3.27A7,7,0,0,1,17,45.81,11.88,11.88,0,0,0,19.73,42l.37-.86.11.93a11.79,11.79,0,0,0,1.56,4.44,7,7,0,0,1,1.16,4.25,3.27,3.27,0,0,1-2.18,2.77A2.75,2.75,0,0,1,20,53.62Z"/><path class="cls-1" d="M20,42.09c.5,4.17,3,5.43,2.72,8.63a3,3,0,0,1-2,2.56,2.75,2.75,0,0,1-.73.09,3.19,3.19,0,0,1-1.18-.21,7.49,7.49,0,0,1-.32-2.69c0-.08,2.33-1.51,2.27-4.1A4.62,4.62,0,0,1,18.45,50h0a18,18,0,0,1,1.33-6.54c-1.42,2.64-1.63,6.41-1.61,8.19h0a4,4,0,0,1-2-3.69c-.42,2.63,2,4,2,4.08a5.11,5.11,0,0,1,0,1,1.68,1.68,0,0,1-.5.07,3.15,3.15,0,0,1-1.58-.47,3,3,0,0,1-1.19-3c.6-3.16,3.39-3.65,5.05-7.51m.28-1.91-.74,1.71a11.43,11.43,0,0,1-2.7,3.74,7.21,7.21,0,0,0-2.38,3.88,3.53,3.53,0,0,0,1.42,3.54,3.64,3.64,0,0,0,1.84.54,2.15,2.15,0,0,0,.64-.09l.07,0a.45.45,0,0,0,.17.14,3.71,3.71,0,0,0,1.39.25,3.28,3.28,0,0,0,.87-.11,3.49,3.49,0,0,0,2.36-3A7.25,7.25,0,0,0,22,46.38,11.42,11.42,0,0,1,20.46,42l-.22-1.85Z"/><path class="cls-2" d="M107.05,53.7a3.16,3.16,0,0,1-.79-.1,3.28,3.28,0,0,1-2.18-2.77,7,7,0,0,1,1.16-4.25,11.78,11.78,0,0,0,1.56-4.45l.11-.92.37.85A11.73,11.73,0,0,0,110,45.88a7.07,7.07,0,0,1,2.32,3.75A3.27,3.27,0,0,1,111,52.91a3.36,3.36,0,0,1-1.7.51,2.14,2.14,0,0,1-.58-.08c-.12,0-.17-.1-.19-.27-.06.21-.14.36-.23.4a3.54,3.54,0,0,1-1.29.23Z"/><path class="cls-1" d="M107.05,42.16c1.66,3.87,4.45,4.36,5,7.52a3,3,0,0,1-1.19,3,3.19,3.19,0,0,1-1.57.47,2.09,2.09,0,0,1-.51-.07,4.26,4.26,0,0,1,0-1s2.44-1.45,2-4.09a4.05,4.05,0,0,1-2,3.7h0c0-1.78-.19-5.55-1.62-8.19a17.78,17.78,0,0,1,1.34,6.54h0a4.59,4.59,0,0,1-2.27-3.63c-.06,2.59,2.27,4,2.27,4.1a7.49,7.49,0,0,1-.32,2.69,3.21,3.21,0,0,1-1.19.21,2.68,2.68,0,0,1-.72-.09,3,3,0,0,1-2-2.56c-.32-3.2,2.22-4.46,2.72-8.64m-.28-1.9-.22,1.84A11.47,11.47,0,0,1,105,46.46a7.21,7.21,0,0,0-1.19,4.39,3.53,3.53,0,0,0,2.36,3,3.26,3.26,0,0,0,.86.11,3.83,3.83,0,0,0,1.39-.25.42.42,0,0,0,.18-.15l.09,0a2,2,0,0,0,.63.09,3.71,3.71,0,0,0,1.84-.55,3.53,3.53,0,0,0,1.41-3.53,7.17,7.17,0,0,0-2.38-3.88,11.39,11.39,0,0,1-2.7-3.74l-.74-1.71Z"/><path class="cls-2" d="M20.13,89.88A11.12,11.12,0,0,0,19,85.57a6.59,6.59,0,0,1-.76-4.1A3.1,3.1,0,0,1,20.54,79a2.91,2.91,0,0,1,.6-.06,2.63,2.63,0,0,1,1.57.46.25.25,0,0,1,.09.26c.12-.14.22-.23.32-.23h0A3.5,3.5,0,0,1,25,80a3.12,3.12,0,0,1,1,3.21,6.62,6.62,0,0,1-2.48,3.36A11.14,11.14,0,0,0,20.6,90l-.43.82Z"/><path class="cls-1" d="M21.14,79.2a2.35,2.35,0,0,1,1.41.41,4.16,4.16,0,0,1-.33.86A4.12,4.12,0,0,0,19,83.39a3.89,3.89,0,0,1,3-2.58h0c-.63,1.56-1.74,5-1.38,7.78a16.7,16.7,0,0,1,1.06-6.23h0a4.34,4.34,0,0,1,.76,4c.94-2.26-.63-4.32-.6-4.4a7.1,7.1,0,0,1,1.2-2.26h.07a3.22,3.22,0,0,1,1.67.55,2.85,2.85,0,0,1,.88,2.94c-.81,2.94-3.49,3.18-5.36,6.69-.14-4-2.44-5.36-1.88-8.36a2.87,2.87,0,0,1,2.08-2.26,3.43,3.43,0,0,1,.56,0m0-.5h0a3.42,3.42,0,0,0-.65.06A3.33,3.33,0,0,0,18,81.42a6.87,6.87,0,0,0,.78,4.25,10.7,10.7,0,0,1,1.1,4.22L20,91.75l.87-1.64a11,11,0,0,1,2.84-3.31,6.8,6.8,0,0,0,2.56-3.48,3.39,3.39,0,0,0-1.07-3.49,3.7,3.7,0,0,0-2-.64H23.1a.33.33,0,0,0-.2.06l0,0a2.88,2.88,0,0,0-1.74-.53Z"/><path class="cls-2" d="M106.41,90.07a11.32,11.32,0,0,0-2.9-3.39A6.55,6.55,0,0,1,101,83.33a3.11,3.11,0,0,1,1-3.22,3.4,3.4,0,0,1,1.82-.59c.11,0,.25.11.39.29,0-.17,0-.25.09-.33a2.66,2.66,0,0,1,1.57-.45,3.81,3.81,0,0,1,.59,0,3.15,3.15,0,0,1,2.29,2.46,6.62,6.62,0,0,1-.76,4.11A11,11,0,0,0,106.88,90l0,.93Z"/><path class="cls-1" d="M105.88,79.28a3.41,3.41,0,0,1,.55,0,2.85,2.85,0,0,1,2.08,2.25c.56,3-1.74,4.39-1.88,8.37-1.87-3.51-4.55-3.76-5.36-6.69a2.87,2.87,0,0,1,.88-3,3.21,3.21,0,0,1,1.68-.54h.06a7.1,7.1,0,0,1,1.2,2.26c0,.08-1.54,2.13-.6,4.4a4.35,4.35,0,0,1,.76-4h0a17,17,0,0,1,1.06,6.24,17.68,17.68,0,0,0-1.38-7.79s0,0,0,0a3.89,3.89,0,0,1,3,2.59,4.1,4.1,0,0,0-3.19-2.92,3.51,3.51,0,0,1-.33-.87,2.43,2.43,0,0,1,1.42-.4m0-.5a2.84,2.84,0,0,0-1.73.51l0,0a.38.38,0,0,0-.2,0h-.08a3.7,3.7,0,0,0-2,.64,3.32,3.32,0,0,0-1.07,3.48,6.76,6.76,0,0,0,2.56,3.48,10.92,10.92,0,0,1,2.84,3.32l.87,1.64.07-1.86a10.65,10.65,0,0,1,1.1-4.22,6.83,6.83,0,0,0,.77-4.26,3.31,3.31,0,0,0-2.48-2.65,3.39,3.39,0,0,0-.64-.06Z"/><path class="cls-2" d="M37.17,103.69A3.73,3.73,0,0,1,34,101.53a7.93,7.93,0,0,1-.34-5,13.48,13.48,0,0,0,0-5.4l-.2-.91.63.69A13.74,13.74,0,0,0,38.47,94a7.94,7.94,0,0,1,3.9,3.16,3.73,3.73,0,0,1-.17,4,4.08,4.08,0,0,1-2,1.25h0a1.35,1.35,0,0,1-.68-.44c.28.38.3.46.19.61a3.44,3.44,0,0,1-2.38,1.11Zm1.67-2.43,0,0v0Z"/><path class="cls-1" d="M33.87,91.07c3.24,3.54,6.45,3,8.28,6.21A3.45,3.45,0,0,1,42,101a3.66,3.66,0,0,1-1.86,1.16h0a9.2,9.2,0,0,1-2.08-2.28c-.06-.08,1.16-3-.62-5.33a5.28,5.28,0,0,1,.31,4.9h0a20.17,20.17,0,0,1-3.12-7c.43,3.4,2.75,7.05,4,8.69,0,0-.14,0-.4,0a4.79,4.79,0,0,1-3.94-2.14,4.81,4.81,0,0,0,4.44,2.45h.17a5.94,5.94,0,0,1,.65.91,3.17,3.17,0,0,1-2.2,1h-.13a3.48,3.48,0,0,1-3-2c-1.55-3.34.72-5.66-.31-10.35M33,89.36l.4,1.81a13.23,13.23,0,0,1,0,5.31,8.1,8.1,0,0,0,.37,5.15,4,4,0,0,0,3.44,2.31h.16a3.64,3.64,0,0,0,2.56-1.2.49.49,0,0,0,.07-.11l.17,0h.11a4.21,4.21,0,0,0,2.15-1.33A4,4,0,0,0,42.58,97a8.16,8.16,0,0,0-4-3.26,13.07,13.07,0,0,1-4.34-3L33,89.36Z"/><path class="cls-2" d="M89.69,103.76a3.44,3.44,0,0,1-2.38-1.11c-.1-.13-.09-.22.15-.55-.25.23-.45.38-.58.38h0a4,4,0,0,1-2.07-1.26,3.73,3.73,0,0,1-.17-4,8,8,0,0,1,3.9-3.16A13.69,13.69,0,0,0,93,91l.62-.69-.19.91a13.49,13.49,0,0,0,0,5.4,7.9,7.9,0,0,1-.34,5,3.7,3.7,0,0,1-3.21,2.16Zm-1.51-2.43h0Z"/><path class="cls-1" d="M93.14,91.14c-1,4.7,1.24,7-.31,10.36a3.48,3.48,0,0,1-3,2h-.14a3.21,3.21,0,0,1-2.2-1,5,5,0,0,1,.65-.91s0,0,.06,0h.1a4.82,4.82,0,0,0,4.45-2.44,4.79,4.79,0,0,1-3.94,2.14c-.26,0-.42,0-.4,0,1.21-1.64,3.53-5.29,4-8.69a20.21,20.21,0,0,1-3.12,7h0a5.27,5.27,0,0,1,.31-4.89C87.8,97,89,99.87,89,100a9,9,0,0,1-2.08,2.28h0A3.73,3.73,0,0,1,85,101.07a3.45,3.45,0,0,1-.15-3.71c1.83-3.19,5-2.67,8.28-6.22m.89-1.7-1.26,1.37a13.07,13.07,0,0,1-4.34,3,8.11,8.11,0,0,0-4,3.26,4,4,0,0,0,.19,4.27,4.26,4.26,0,0,0,2.15,1.34h.11a.34.34,0,0,0,.16,0,.83.83,0,0,0,.08.12,3.68,3.68,0,0,0,2.56,1.2h.17a4,4,0,0,0,3.44-2.3,8.18,8.18,0,0,0,.36-5.15,13.23,13.23,0,0,1,0-5.31l.4-1.81Z"/><path class="cls-2" d="M21.71,74.11a5.28,5.28,0,0,1-.55,0,8.48,8.48,0,0,1-4.68-2.58,14.37,14.37,0,0,0-4.84-3.14L10.77,68l.92-.15A14.54,14.54,0,0,0,17,65.69,8.78,8.78,0,0,1,21.75,64h.36a3.94,3.94,0,0,1,3.46,2.45,4.29,4.29,0,0,1,0,2.51c-.05.16-.4.29-.85.39l.37,0c.08,0,.3,0,.36.2A3.64,3.64,0,0,1,25,72.31,3.87,3.87,0,0,1,21.71,74.11Zm2-4.54,0,0h0Zm-2,0,0,0v0Z"/><path class="cls-1" d="M21.75,64.27h.35a3.68,3.68,0,0,1,3.24,2.28,4.12,4.12,0,0,1,0,2.34,9,9,0,0,1-3.26.56h0c-.1,0-1.84-2.55-4.77-2.55l-.36,0a5.56,5.56,0,0,1,4.56,2.55h-.64a21.36,21.36,0,0,1-7.41-1.24,20.67,20.67,0,0,0,8.37,1.52c.66,0,1.24,0,1.71,0h0a4.87,4.87,0,0,1-4.39,2.68l.52,0c2.89,0,4.3-2.74,4.35-2.74.52,0,.89-.08,1.07-.08s.11,0,.12,0a3.43,3.43,0,0,1-.36,2.56,3.66,3.66,0,0,1-3.1,1.67,2.92,2.92,0,0,1-.51,0c-3.89-.53-4.66-3.91-9.47-5.7,4.9-.84,6.36-3.85,10-3.85m0-.5h0a9,9,0,0,0-4.85,1.71,14.09,14.09,0,0,1-5.26,2.14l-1.83.31,1.74.65a14.16,14.16,0,0,1,4.77,3.09,8.61,8.61,0,0,0,4.81,2.65,5.46,5.46,0,0,0,.58,0,4.12,4.12,0,0,0,3.53-1.93,3.91,3.91,0,0,0,.4-3,.44.44,0,0,0-.08-.15.56.56,0,0,0,.21-.23,4.53,4.53,0,0,0,0-2.68,4.18,4.18,0,0,0-3.69-2.62Z"/><path class="cls-2" d="M98.89,65.84a2.54,2.54,0,0,1-.7-.08A3.15,3.15,0,0,1,96,63.11a6.73,6.73,0,0,1,1-4.12,11.52,11.52,0,0,0,1.43-4.31l.09-.93.38.85a11.49,11.49,0,0,0,2.72,3.64,6.72,6.72,0,0,1,2.3,3.58A3.17,3.17,0,0,1,102.8,65a3.26,3.26,0,0,1-1.68.51,2.12,2.12,0,0,1-.52-.06.22.22,0,0,1-.19-.21.53.53,0,0,1-.19.33,3.39,3.39,0,0,1-1.33.25Z"/><path class="cls-1" d="M98.77,54.7c1.66,3.7,4.37,4.13,5,7.17a2.94,2.94,0,0,1-1.1,2.94,3,3,0,0,1-1.55.47,1.64,1.64,0,0,1-.45,0,3.85,3.85,0,0,1,0-1,4.19,4.19,0,0,0,1.89-4,3.93,3.93,0,0,1-1.88,3.61h0c0-1.72-.28-5.35-1.69-7.87a17.35,17.35,0,0,1,1.4,6.29h0a4.45,4.45,0,0,1-2.25-3.47c0,2.5,2.26,3.84,2.27,3.92a7.42,7.42,0,0,1-.27,2.6,3.08,3.08,0,0,1-1.21.22,2.67,2.67,0,0,1-.64-.07,2.9,2.9,0,0,1-2-2.44c-.37-3.08,2.06-4.34,2.48-8.38m-.31-1.9-.19,1.85a11,11,0,0,1-1.41,4.23,6.9,6.9,0,0,0-1.07,4.26A3.39,3.39,0,0,0,98.13,66a3.55,3.55,0,0,0,.76.08,3.79,3.79,0,0,0,1.42-.26.67.67,0,0,0,.16-.14l.08,0a2,2,0,0,0,.57.07,3.48,3.48,0,0,0,1.81-.55,3.38,3.38,0,0,0,1.33-3.46,7,7,0,0,0-2.37-3.71,10.93,10.93,0,0,1-2.67-3.56l-.76-1.7Z"/><path class="cls-2" d="M36.77,68.91a2.73,2.73,0,0,1-1.18-.25,3.57,3.57,0,0,1-1.48-1.48.62.62,0,0,1,.09-.44.28.28,0,0,1-.21.09h-.06l-.06,0A3,3,0,0,1,32.45,65a3.28,3.28,0,0,1,1.19-3.32,7,7,0,0,1,4.22-1.29,11.73,11.73,0,0,0,4.59-1l.84-.4-.53.77A11.86,11.86,0,0,0,41,64.06a7,7,0,0,1-1.93,4A3.37,3.37,0,0,1,36.77,68.91Z"/><path class="cls-1" d="M42.55,59.56c-2.38,3.46-1.31,6.08-3.67,8.27a3.07,3.07,0,0,1-2.11.83,2.57,2.57,0,0,1-1.08-.23,3.33,3.33,0,0,1-1.35-1.36,7.61,7.61,0,0,1,1.53-2.23h.6a4.87,4.87,0,0,0,3.82-1.58A4.84,4.84,0,0,1,37,64.59a2.32,2.32,0,0,1-.78-.09,17.78,17.78,0,0,1,5.32-4c-2.81,1-5.46,3.72-6.62,5.08h0a4,4,0,0,1,.94-4.11c-2.06,1.7-1.16,4.38-1.19,4.41a4.61,4.61,0,0,1-.64.73h0a2.83,2.83,0,0,1-1.3-1.67,3,3,0,0,1,1.1-3c2.54-2,5-.51,8.76-2.3M44,58.31l-1.68.79a11.54,11.54,0,0,1-4.5,1,7.12,7.12,0,0,0-4.35,1.33,3.5,3.5,0,0,0-1.28,3.59,3.33,3.33,0,0,0,1.57,2l.07,0a.39.39,0,0,0,0,.22,3.75,3.75,0,0,0,1.59,1.59,3,3,0,0,0,1.29.28,3.6,3.6,0,0,0,2.46-1,7.16,7.16,0,0,0,2-4.08A11.36,11.36,0,0,1,43,59.84L44,58.31Z"/><path class="cls-2" d="M90.24,69a3.33,3.33,0,0,1-2.28-.9,6.94,6.94,0,0,1-1.94-4,11.9,11.9,0,0,0-1.77-4.37L83.72,59l.84.39a11.63,11.63,0,0,0,4.6,1.05,7,7,0,0,1,4.21,1.29,3.25,3.25,0,0,1,1.18,3.32,3,3,0,0,1-1.42,1.82l0,0H93a.28.28,0,0,1-.21-.09.6.6,0,0,1,.09.43,3.55,3.55,0,0,1-1.47,1.48A2.67,2.67,0,0,1,90.24,69Z"/><path class="cls-1" d="M84.46,59.63c3.8,1.8,6.22.32,8.76,2.3A3,3,0,0,1,94.31,65,2.77,2.77,0,0,1,93,66.66h0a5.43,5.43,0,0,1-.65-.74s.88-2.7-1.18-4.4a4,4,0,0,1,.94,4.11h0c-1.16-1.36-3.81-4-6.62-5.08a17.76,17.76,0,0,1,5.32,4,1.9,1.9,0,0,1-.78.1,4.83,4.83,0,0,1-3.32-1.32,4.87,4.87,0,0,0,3.82,1.58h.6a7.71,7.71,0,0,1,1.53,2.23,3.33,3.33,0,0,1-1.35,1.36,2.57,2.57,0,0,1-1.08.23,3.08,3.08,0,0,1-2.11-.83c-2.36-2.19-1.29-4.81-3.67-8.28M83,58.38,84,59.91a11.46,11.46,0,0,1,1.74,4.29,7.14,7.14,0,0,0,2,4.08,3.61,3.61,0,0,0,2.45,1,3,3,0,0,0,1.3-.28,3.81,3.81,0,0,0,1.58-1.6.46.46,0,0,0,0-.21l.07,0a3.26,3.26,0,0,0,1.56-2,3.46,3.46,0,0,0-1.27-3.59,7.19,7.19,0,0,0-4.34-1.34,11.38,11.38,0,0,1-4.51-1L83,58.38Z"/><path class="cls-2" d="M57.66,17.63a2.09,2.09,0,0,1-.86-.17.23.23,0,0,1-.15-.19c-.07.14-.14.23-.22.25a2.38,2.38,0,0,1-.69.08,3.13,3.13,0,0,1-1.2-.22,3,3,0,0,1-1.61-2.77A6.35,6.35,0,0,1,54.5,11a10.46,10.46,0,0,0,2-3.76l.24-.9.24.9a10.58,10.58,0,0,0,2,3.75,6.28,6.28,0,0,1,1.59,3.64,3,3,0,0,1-1.59,2.79A3.18,3.18,0,0,1,57.66,17.63Z"/><path class="cls-1" d="M56.69,7.26c1,3.65,3.43,4.44,3.56,7.34a2.71,2.71,0,0,1-1.44,2.54,3.08,3.08,0,0,1-1.15.24,1.76,1.76,0,0,1-.75-.14,3.6,3.6,0,0,1,.12-.88A3.9,3.9,0,0,0,59.35,13a3.66,3.66,0,0,1-2.26,3h0a16.72,16.72,0,0,0-.4-7.5,16.08,16.08,0,0,1,.36,6h0A4.16,4.16,0,0,1,55.47,11C55.1,13.28,57,14.85,57,14.93a6.9,6.9,0,0,1-.63,2.35,2.3,2.3,0,0,1-.62.07,2.8,2.8,0,0,1-1.1-.2,2.69,2.69,0,0,1-1.46-2.53c.12-2.9,2.54-3.7,3.51-7.36m0-1.93-.48,1.8a10.23,10.23,0,0,1-1.91,3.68,6.48,6.48,0,0,0-1.62,3.79,3.18,3.18,0,0,0,1.76,3,3.28,3.28,0,0,0,1.3.24,2.93,2.93,0,0,0,.76-.09.36.36,0,0,0,.17-.08h0a2.28,2.28,0,0,0,1,.2A3.34,3.34,0,0,0,59,17.59a3.18,3.18,0,0,0,1.74-3,6.59,6.59,0,0,0-1.64-3.78,10.14,10.14,0,0,1-1.93-3.66l-.49-1.8Z"/><path class="cls-2" d="M68.75,32.48a3.51,3.51,0,0,1-2-.58,7.4,7.4,0,0,1-2.72-3.79,12.43,12.43,0,0,0-2.61-4.27l-.65-.67.89.25a10.81,10.81,0,0,0,3,.42c.72,0,1.37-.06,2-.12a16.7,16.7,0,0,1,1.7-.11,5.83,5.83,0,0,1,2.93.71,3.47,3.47,0,0,1,1.82,3.26A3.21,3.21,0,0,1,72,29.73l-.07.05h-.08a.37.37,0,0,1-.25-.11c.16.21.25.39.22.5A3.84,3.84,0,0,1,70.52,32a3.06,3.06,0,0,1-1.77.51Z"/><path class="cls-1" d="M61.65,23.66a10.81,10.81,0,0,0,3.06.43c1.39,0,2.56-.23,3.7-.23a5.64,5.64,0,0,1,2.81.68,3.19,3.19,0,0,1,1.69,3,3,3,0,0,1-1.06,2h0a5.55,5.55,0,0,1-.8-.66s.44-3-2-4.4a4.27,4.27,0,0,1,1.7,4.13h0C69.27,27.39,66,25,62.9,24.44a18.84,18.84,0,0,1,6.28,3.29,3.63,3.63,0,0,1-1.65.31,5.17,5.17,0,0,1-2.87-.87,4.77,4.77,0,0,0,3.14,1.08A9.35,9.35,0,0,0,69.55,28h0a7.72,7.72,0,0,1,2,2.07,3.53,3.53,0,0,1-1.18,1.66,2.88,2.88,0,0,1-1.63.46,3.22,3.22,0,0,1-1.81-.54c-2.86-1.88-2.19-4.82-5.29-8m-1.66-1L61.29,24a12.19,12.19,0,0,1,2.56,4.19,7.59,7.59,0,0,0,2.81,3.91,3.76,3.76,0,0,0,2.09.62,3.35,3.35,0,0,0,1.92-.56,4,4,0,0,0,1.38-1.93A.5.5,0,0,0,72,30l.1-.07a3.46,3.46,0,0,0,1.27-2.31,3.73,3.73,0,0,0-2-3.52,6.07,6.07,0,0,0-3-.74,16.91,16.91,0,0,0-1.72.11c-.63.06-1.28.12-2,.12a10.37,10.37,0,0,1-2.93-.41L60,22.67Z"/><path class="cls-2" d="M61.51,41.48a12.73,12.73,0,0,0,1.68-4.72,7.4,7.4,0,0,1,1.86-4.28,3.64,3.64,0,0,1,2.53-1,3,3,0,0,1,1.11.21,3.74,3.74,0,0,1,1.62,1.5.77.77,0,0,1-.11.54c.13-.14.19-.17.29-.17l.09,0a3.18,3.18,0,0,1,1.59,1.86A3.42,3.42,0,0,1,71.07,39a7.34,7.34,0,0,1-4.4,1.56,12.62,12.62,0,0,0-4.83,1.32l-.82.44Z"/><path class="cls-1" d="M67.58,31.68a2.6,2.6,0,0,1,1,.19,3.54,3.54,0,0,1,1.5,1.38,7.93,7.93,0,0,1-1.53,2.44c0,.07-2.93-.3-4.61,1.88A5.13,5.13,0,0,1,67.62,36a1.43,1.43,0,0,1,.63.08,19.09,19.09,0,0,1-5.46,4.52c2.93-1.24,5.62-4.21,6.79-5.7h0a4.27,4.27,0,0,1-.8,4.4c2.11-1.9,1-4.7,1-4.73a5,5,0,0,1,.66-.81h0a3,3,0,0,1,1.45,1.72,3.18,3.18,0,0,1-1,3.28c-2.6,2.23-5.24.77-9.19,2.85,2.37-3.78,1.11-6.52,3.51-9a3.35,3.35,0,0,1,2.35-1m0-.5h0a3.79,3.79,0,0,0-2.7,1.13,7.55,7.55,0,0,0-1.94,4.4,12.09,12.09,0,0,1-1.64,4.64l-1,1.57L62,42.06a12.17,12.17,0,0,1,4.73-1.3,7.6,7.6,0,0,0,4.54-1.62,3.64,3.64,0,0,0,1.18-3.83,3.43,3.43,0,0,0-1.73-2l-.09,0h0a.41.41,0,0,0,0-.23,3.94,3.94,0,0,0-1.74-1.61,2.94,2.94,0,0,0-1.21-.24Z"/><path class="cls-2" d="M76.3,41.6a9.12,9.12,0,0,1-2.24-.37,11.59,11.59,0,0,0-3-.45,8.48,8.48,0,0,0-1.11.07l-.92.11.74-.56a10.17,10.17,0,0,0,2.64-3.12,6.14,6.14,0,0,1,2.69-2.75,2.86,2.86,0,0,1,1.22-.27,2.78,2.78,0,0,1,1.86.69A3.12,3.12,0,0,1,79,36.59a.43.43,0,0,1-.13.28H79l.08.06a2.71,2.71,0,0,1,.69,1.93,2.86,2.86,0,0,1-1.9,2.45A4.72,4.72,0,0,1,76.3,41.6Z"/><path class="cls-1" d="M76.36,34.51a2.46,2.46,0,0,1,1.68.62,2.86,2.86,0,0,1,.75,1.49A6.67,6.67,0,0,1,76.92,38h0a6.41,6.41,0,0,0-2.1-.44,3.68,3.68,0,0,0-2,.54,4.17,4.17,0,0,1,1.79-.4,3.36,3.36,0,0,1,1.93.51,15.63,15.63,0,0,1-5.49,1.88,16.24,16.24,0,0,0,6.85-2.4h0A3.49,3.49,0,0,1,76,40.87a3.75,3.75,0,0,0,2.17-3.32,7.61,7.61,0,0,1,.73-.43h0a2.4,2.4,0,0,1,.61,1.74,2.62,2.62,0,0,1-1.74,2.22,4.52,4.52,0,0,1-1.52.27c-1.6,0-3-.82-5.2-.82A9.4,9.4,0,0,0,70,40.6c2.91-2.21,2.74-4.68,5.28-5.84a2.74,2.74,0,0,1,1.12-.25m0-.5h0A3.22,3.22,0,0,0,75,34.3a6.23,6.23,0,0,0-2.79,2.85,9.87,9.87,0,0,1-2.58,3.05l-1.48,1.13L70,41.1A7.79,7.79,0,0,1,71.1,41a11.19,11.19,0,0,1,2.9.44,9.45,9.45,0,0,0,2.3.38,4.94,4.94,0,0,0,1.69-.3,3.09,3.09,0,0,0,2.07-2.68,2.86,2.86,0,0,0-.77-2.12h0a.6.6,0,0,0,0-.18,3.4,3.4,0,0,0-.9-1.79,3,3,0,0,0-2-.76Z"/><path class="cls-2" d="M58.88,99.38A7.43,7.43,0,0,1,54.6,97.5a12.48,12.48,0,0,0-4.42-2.35l-.9-.24.9-.24a12.61,12.61,0,0,0,4.46-2.29,7.35,7.35,0,0,1,4.28-1.84h.14a3.42,3.42,0,0,1,3.09,1.88,3.23,3.23,0,0,1,.09,2.45l-.07.15h-.31c.24.1.41.21.44.32a3.79,3.79,0,0,1-.18,2.2,3.43,3.43,0,0,1-3.07,1.84Z"/><path class="cls-1" d="M59.06,90.79a3.18,3.18,0,0,1,2.86,1.73A3,3,0,0,1,62,94.77h0c-.11,0-.46-.07-1-.16,0,0-1.13-2.77-3.94-2.77h0a4.24,4.24,0,0,1,3.57,2.7h0a25.32,25.32,0,0,0-3.94-.32,15.06,15.06,0,0,0-4.91.72,15.94,15.94,0,0,1,4.38-.53,21.32,21.32,0,0,1,2.7.16,4.82,4.82,0,0,1-3.89,1.83h-.28a3.78,3.78,0,0,0,.74.07,6.18,6.18,0,0,0,3.92-1.81h0a8,8,0,0,1,2.77.75,3.54,3.54,0,0,1-.17,2,3.18,3.18,0,0,1-2.84,1.69h-.16c-3.42-.16-4.34-3-8.65-4.22,4.32-1.13,5.28-4,8.69-4.12h.13m0-.5h-.14a7.64,7.64,0,0,0-4.43,1.89,12.25,12.25,0,0,1-4.37,2.25l-1.8.47,1.79.5a12.08,12.08,0,0,1,4.35,2.3,7.59,7.59,0,0,0,4.4,1.93h.19a3.69,3.69,0,0,0,3.3-2,4,4,0,0,0,.19-2.37.35.35,0,0,0-.13-.2l.06-.1a3.5,3.5,0,0,0-.09-2.65,3.69,3.69,0,0,0-3.32-2Z"/><path class="cls-2" d="M68,104.72a10.26,10.26,0,0,0,0-4.09,6.1,6.1,0,0,1,.25-3.84,2.88,2.88,0,0,1,2.5-1.68h.11a3.2,3.2,0,0,1,1.7.71.42.42,0,0,1,.08.29.22.22,0,0,1,.19-.08,2.67,2.67,0,0,1,1.79,1,2.88,2.88,0,0,1,.15,3.1,6.11,6.11,0,0,1-3,2.44,10.22,10.22,0,0,0-3.34,2.36l-.62.69Z"/><path class="cls-1" d="M70.68,95.36h.1a2.9,2.9,0,0,1,1.54.64,6.94,6.94,0,0,1-.5,2.3,4.75,4.75,0,0,0-3,2.73,4.05,4.05,0,0,1,2.88-2.35h0a15.71,15.71,0,0,1-3,5,16.2,16.2,0,0,0,3.64-6.28h0A3.5,3.5,0,0,1,73,101a3.76,3.76,0,0,0-.51-3.94,4.48,4.48,0,0,1,.28-.8,2.42,2.42,0,0,1,1.6.92,2.62,2.62,0,0,1,.12,2.82c-1.38,2.43-3.82,2-6.28,4.75.77-3.57-1-5.33.21-7.87a2.64,2.64,0,0,1,2.27-1.54m0-.5A3.11,3.11,0,0,0,68,96.69a6.2,6.2,0,0,0-.27,4,10,10,0,0,1,0,4l-.39,1.82,1.25-1.37a9.86,9.86,0,0,1,3.26-2.3,6.36,6.36,0,0,0,3.09-2.54,3.14,3.14,0,0,0-.17-3.39,3,3,0,0,0-2-1.1h0a.39.39,0,0,0-.11-.15,3.35,3.35,0,0,0-1.84-.77Z"/><path class="cls-2" d="M64.32,74.45a12.61,12.61,0,0,0,1.27-4.85,7.45,7.45,0,0,1,1.49-4.43,3.57,3.57,0,0,1,2.71-1.27,2.57,2.57,0,0,1,.85.13,3.15,3.15,0,0,1,1.88,1.56c.06.14,0,.22-.13.37a1.15,1.15,0,0,1,.39-.13h.06l.08,0a3.77,3.77,0,0,1,1.51,1.6,3.49,3.49,0,0,1-.79,3.65A7.41,7.41,0,0,1,69.38,73a12.9,12.9,0,0,0-4.7,1.74l-.78.51Z"/><path class="cls-1" d="M69.79,64.15a2.65,2.65,0,0,1,.77.11,3,3,0,0,1,1.73,1.43,4.48,4.48,0,0,1-.8.67h0a6.14,6.14,0,0,0-1.62-.24,4,4,0,0,0-3.1,1.35,4.39,4.39,0,0,1,3-1.13,2.87,2.87,0,0,1,1.43.27c-1.48,1.19-4.42,3.92-5.62,6.87A19,19,0,0,1,70,68h0a4.88,4.88,0,0,1-1.44,4.32c2.16-1.71,1.75-4.58,1.82-4.64a8.88,8.88,0,0,1,2.39-1.56h0a3.46,3.46,0,0,1,1.4,1.48,3.22,3.22,0,0,1-.74,3.38c-2.4,2.43-5.15,1.2-8.91,3.62,2-4,.54-6.6,2.73-9.23a3.3,3.3,0,0,1,2.51-1.18m0-.5h0A3.82,3.82,0,0,0,66.89,65a7.6,7.6,0,0,0-1.55,4.56,12.14,12.14,0,0,1-1.24,4.77L63.25,76l1.57-1a12.13,12.13,0,0,1,4.61-1.7,7.64,7.64,0,0,0,4.39-2,3.69,3.69,0,0,0,.84-3.93A4,4,0,0,0,73,65.64l-.11-.06h-.14a.25.25,0,0,0,0-.07,3.44,3.44,0,0,0-2-1.72,2.75,2.75,0,0,0-.93-.14Z"/><path class="cls-2" d="M52.13,38.28a3.14,3.14,0,0,1-1.85-.59A6.59,6.59,0,0,1,48,34.21a11.07,11.07,0,0,0-2.15-3.88l-.62-.69.88.29a9.64,9.64,0,0,0,3.16.49c.44,0,.85,0,1.25,0l1.12,0a5.38,5.38,0,0,1,3,.75,3.08,3.08,0,0,1,1.5,3,3.4,3.4,0,0,1-.95,1.73l-.07.06h-.28a.24.24,0,0,1,.08.24,2.87,2.87,0,0,1-1.29,1.78A2.79,2.79,0,0,1,52.13,38.28Z"/><path class="cls-1" d="M46.05,30.17a9.84,9.84,0,0,0,3.23.5c.85,0,1.62-.07,2.37-.07a5.2,5.2,0,0,1,2.85.71A2.86,2.86,0,0,1,55.88,34,3.11,3.11,0,0,1,55,35.62h-.06a9,9,0,0,1-2.36-.81c-.07,0-.35-2.6-2.58-3.58a4.33,4.33,0,0,1,2.19,3.39h0a16.63,16.63,0,0,1-5-3.76,17.33,17.33,0,0,0,6.33,4.65,3.35,3.35,0,0,1-2.16.68,3.84,3.84,0,0,1-1.8-.44,3.42,3.42,0,0,0,1.95.61,5,5,0,0,0,2.35-.69h0a3.58,3.58,0,0,1,.83.39,2.64,2.64,0,0,1-1.18,1.61,2.46,2.46,0,0,1-1.34.35,2.9,2.9,0,0,1-1.71-.54c-2.45-1.78-1.75-4.36-4.37-7.32m-1.61-1.06,1.23,1.39a10.75,10.75,0,0,1,2.11,3.8,6.75,6.75,0,0,0,2.35,3.59,3.42,3.42,0,0,0,2,.64,3,3,0,0,0,1.62-.43,3.09,3.09,0,0,0,1.39-2v0a.52.52,0,0,0,.18-.1,3.62,3.62,0,0,0,1-1.88,3.34,3.34,0,0,0-1.62-3.24,5.72,5.72,0,0,0-3.1-.78l-1.13,0c-.4,0-.81,0-1.24,0a9.16,9.16,0,0,1-3.08-.48l-1.76-.58Z"/><path class="cls-2" d="M40,111.78a11,11,0,0,0,1.55-4.07A6.41,6.41,0,0,1,43.3,104a3.16,3.16,0,0,1,2.18-.88,2.66,2.66,0,0,1,1.05.21A2.83,2.83,0,0,1,48,104.9a.2.2,0,0,1,0,.23l.18,0h.08l.09.05a3.3,3.3,0,0,1,1.17,1.54,3.08,3.08,0,0,1-1,3.13,6.56,6.56,0,0,1-3.89,1.27,10.77,10.77,0,0,0-4.23,1.06l-.84.41Z"/><path class="cls-1" d="M45.48,103.37a2.25,2.25,0,0,1,.94.19A2.58,2.58,0,0,1,47.79,105a5,5,0,0,1-.76.5h0a5.18,5.18,0,0,0-1.84-.38,3.4,3.4,0,0,0-2.35.89,3.81,3.81,0,0,1,2.24-.72,2.93,2.93,0,0,1,1.65.4,17.16,17.16,0,0,0-5.52,5.43,16.72,16.72,0,0,1,4.38-4.38h0a4.23,4.23,0,0,1-1.65,3.62,5,5,0,0,0,2-3.86,8.29,8.29,0,0,1,2.22-1.12h0a3.05,3.05,0,0,1,1.07,1.42,2.79,2.79,0,0,1-1,2.85c-2.32,1.89-4.59.56-8.08,2.3,2.15-3.25,1.1-5.67,3.25-7.74a2.9,2.9,0,0,1,2-.81m0-.5h0a3.42,3.42,0,0,0-2.35.95,6.66,6.66,0,0,0-1.8,3.84,10.63,10.63,0,0,1-1.51,4l-1,1.55,1.67-.83a10.67,10.67,0,0,1,4.14-1,6.63,6.63,0,0,0,4-1.33,3.27,3.27,0,0,0,1.13-3.39,3.63,3.63,0,0,0-1.28-1.69l-.12-.08h-.07v0a3,3,0,0,0-1.64-1.71,2.66,2.66,0,0,0-1.15-.24Z"/><path class="cls-2" d="M83.77,112.15a10.77,10.77,0,0,0-4.23-1.06,6.56,6.56,0,0,1-3.89-1.27,3.08,3.08,0,0,1-1-3.13,3.36,3.36,0,0,1,1.17-1.55l.07,0H76l.18,0a.23.23,0,0,1,0-.25,2.82,2.82,0,0,1,1.5-1.55,2.66,2.66,0,0,1,1-.21,3.16,3.16,0,0,1,2.18.88,6.41,6.41,0,0,1,1.72,3.71,11,11,0,0,0,1.55,4.07l.52.78Z"/><path class="cls-1" d="M78.64,103.37a2.9,2.9,0,0,1,2,.81c2.15,2.07,1.1,4.49,3.25,7.74-3.49-1.74-5.77-.41-8.08-2.3a2.79,2.79,0,0,1-1-2.85,3.05,3.05,0,0,1,1.07-1.42h0a8.14,8.14,0,0,1,2.22,1.12,5,5,0,0,0,2,3.86,4.23,4.23,0,0,1-1.65-3.62h0a16.72,16.72,0,0,1,4.38,4.38,17.26,17.26,0,0,0-5.52-5.43,2.93,2.93,0,0,1,1.65-.4,3.83,3.83,0,0,1,2.24.72,3.4,3.4,0,0,0-2.35-.89,5.18,5.18,0,0,0-1.84.38h0a5,5,0,0,1-.76-.5,2.58,2.58,0,0,1,1.37-1.41,2.25,2.25,0,0,1,.94-.19m0-.5a2.66,2.66,0,0,0-1.15.24,3.08,3.08,0,0,0-1.64,1.72v0h0l-.16.09a3.55,3.55,0,0,0-1.27,1.67A3.28,3.28,0,0,0,75.5,110a6.63,6.63,0,0,0,4,1.33,10.67,10.67,0,0,1,4.14,1l1.67.83-1-1.55a10.63,10.63,0,0,1-1.51-4,6.66,6.66,0,0,0-1.8-3.84,3.42,3.42,0,0,0-2.35-.95Z"/><path class="cls-2" d="M63.85,64.42a3.43,3.43,0,0,1-3-1.74,3.68,3.68,0,0,1-.26-2.19c0-.11.19-.22.43-.34h-.29l-.1-.15a3.17,3.17,0,0,1,0-2.44,3.44,3.44,0,0,1,3.15-2,7.4,7.4,0,0,1,4.36,1.68,12.34,12.34,0,0,0,4.53,2.14l.91.2-.89.28a12.62,12.62,0,0,0-4.35,2.5,7.44,7.44,0,0,1-4.2,2Z"/><path class="cls-1" d="M63.78,55.83h0c3.42,0,4.48,2.83,8.83,3.81-4.26,1.34-5.08,4.23-8.49,4.52h-.27a3.19,3.19,0,0,1-2.79-1.6,3.5,3.5,0,0,1-.24-2,8.18,8.18,0,0,1,2.74-.86h0a6.3,6.3,0,0,0,3.83,1.67,4,4,0,0,0,.9-.09l-.47,0a4.82,4.82,0,0,1-3.77-1.69,21.71,21.71,0,0,1,3.46-.27,15,15,0,0,1,3.63.39A14.13,14.13,0,0,0,67,59.17a25.26,25.26,0,0,0-4.69.46h0a4.23,4.23,0,0,1,3.47-2.82c-2.84.07-3.84,2.9-3.88,2.91-.52.11-.87.2-1,.2s0,0,0,0a3,3,0,0,1,0-2.24,3.21,3.21,0,0,1,2.92-1.83m0-.5a3.71,3.71,0,0,0-3.38,2.15,3.46,3.46,0,0,0,0,2.65l.05.1a.57.57,0,0,0-.12.21,4,4,0,0,0,.28,2.35,3.71,3.71,0,0,0,3.24,1.88h.32a7.57,7.57,0,0,0,4.33-2.09,12.23,12.23,0,0,1,4.26-2.45l1.78-.56-1.82-.41a12.08,12.08,0,0,1-4.44-2.09,7.54,7.54,0,0,0-4.49-1.73Z"/><path class="cls-2" d="M55,72.12a10.92,10.92,0,0,0-3.4-2.68,6.41,6.41,0,0,1-3-2.74A3,3,0,0,1,49,63.45a2.84,2.84,0,0,1,1.91-1,.25.25,0,0,1,.24.12.49.49,0,0,1,.11-.34A3.28,3.28,0,0,1,53,61.63a3,3,0,0,1,2.65,1.91,6.42,6.42,0,0,1,0,4.06,10.88,10.88,0,0,0-.25,4.32l.15.92Z"/><path class="cls-1" d="M53.05,61.88a2.75,2.75,0,0,1,2.38,1.75c1.1,2.75-.83,4.51-.21,8.33-2.45-3-5-2.72-6.37-5.37a2.78,2.78,0,0,1,.29-3,2.58,2.58,0,0,1,1.72-.88h0a4.11,4.11,0,0,1,.25.87,4,4,0,0,0-.75,4.13A3.72,3.72,0,0,1,51.21,64h0a17,17,0,0,0,3.5,6.83,16.36,16.36,0,0,1-2.84-5.44h0A4.28,4.28,0,0,1,54.81,68a5,5,0,0,0-3.05-3,7.09,7.09,0,0,1-.4-2.46A3,3,0,0,1,53,61.88h0m0-.5h0a3.48,3.48,0,0,0-2,.71.33.33,0,0,0-.12.15h-.05a3.06,3.06,0,0,0-2.1,1,3.25,3.25,0,0,0-.36,3.53,6.6,6.6,0,0,0,3.1,2.84,10.48,10.48,0,0,1,3.33,2.62L56,73.72l-.29-1.84A10.19,10.19,0,0,1,56,67.65a6.65,6.65,0,0,0-.07-4.2,3.24,3.24,0,0,0-2.85-2.07Z"/><path class="cls-2" d="M52,54.3a3.39,3.39,0,0,1-1.94-.56,3.47,3.47,0,0,1-1.46-2.23c0-.18,0-.25.43-.4a2.26,2.26,0,0,1-.49.07h-.11l-.17-.09a4.08,4.08,0,0,1-1-2.15,3.75,3.75,0,0,1,2-3.53,6.29,6.29,0,0,1,3.16-.76c.62,0,1.23.06,1.88.12a22.43,22.43,0,0,0,2.24.14,11.78,11.78,0,0,0,3.24-.44l.9-.25-.65.66a13.74,13.74,0,0,0-2.88,4.67,8.17,8.17,0,0,1-3,4.13A3.81,3.81,0,0,1,52,54.3ZM50.1,50.85v0h0Z"/><path class="cls-1" d="M59.83,44.71c-3.41,3.5-2.69,6.71-5.82,8.76a3.59,3.59,0,0,1-2,.58,3.12,3.12,0,0,1-1.8-.52,3.26,3.26,0,0,1-1.35-2.05,5.26,5.26,0,0,1,1-.43h0A5.91,5.91,0,0,0,53,52a4.21,4.21,0,0,0,2.23-.64,4.79,4.79,0,0,1-2,.45,4.24,4.24,0,0,1-2.85-1c1.93-.77,5.87-2.67,8.07-5.37A20.77,20.77,0,0,1,52,49.85h0a5.32,5.32,0,0,1,2.88-4.06c-2.8,1.1-3.29,4.23-3.38,4.27a11.87,11.87,0,0,1-2.94.87l-.09,0a3.75,3.75,0,0,1-1-2,3.5,3.5,0,0,1,1.85-3.28,6.18,6.18,0,0,1,3-.73c1.27,0,2.58.26,4.12.26a12.27,12.27,0,0,0,3.31-.45m1.65-1-1.79.51a11.6,11.6,0,0,1-3.17.43,21.82,21.82,0,0,1-2.21-.14c-.66-.06-1.28-.12-1.91-.12a6.55,6.55,0,0,0-3.28.79A4,4,0,0,0,47,49a4.23,4.23,0,0,0,1.14,2.3.53.53,0,0,0,.25.14v.13A3.76,3.76,0,0,0,50,53.94a3.65,3.65,0,0,0,2.09.61,4.08,4.08,0,0,0,2.24-.66,8.27,8.27,0,0,0,3.08-4.25,13.29,13.29,0,0,1,2.83-4.58l1.29-1.34Z"/><path class="cls-2" d="M73.91,54.06a4,4,0,0,1-2.48-.86,8.42,8.42,0,0,1-2.67-4.53,14.4,14.4,0,0,0-2.53-5.07l-.58-.72.86.33a13.2,13.2,0,0,0,5.1.83h1a7.57,7.57,0,0,1,4.63,1.13A3.86,3.86,0,0,1,79,49a4.25,4.25,0,0,1-1.28,2.11l-.07,0h-.15A2.53,2.53,0,0,1,76.8,51c.46.23.54.3.49.5a3.59,3.59,0,0,1-1.7,2.14A3.35,3.35,0,0,1,73.91,54.06Zm1.94-3.37.06,0,0,0Z"/><path class="cls-1" d="M66.43,43.45a13.61,13.61,0,0,0,5.18.84h1a7.46,7.46,0,0,1,4.5,1.09,3.61,3.61,0,0,1,1.6,3.55,3.89,3.89,0,0,1-1.2,2h-.06a11.08,11.08,0,0,1-3-1.16c-.1-.06-.31-3.33-3.09-4.71A5.48,5.48,0,0,1,74,49.47h0a25.69,25.69,0,0,1-6.76-5.58c2,3,6.45,5.83,8.36,6.79a4.16,4.16,0,0,1-2.58.75,5,5,0,0,1-2.48-.67,4.37,4.37,0,0,0,2.66.89A6.44,6.44,0,0,0,76,50.9h0a5.35,5.35,0,0,1,1,.54,3.36,3.36,0,0,1-1.59,2,3.07,3.07,0,0,1-1.55.39A3.75,3.75,0,0,1,71.59,53c-3-2.4-2-5.63-5.16-9.55m-1.56-1.13L66,43.76a13.87,13.87,0,0,1,2.48,5,8.62,8.62,0,0,0,2.76,4.65,4.28,4.28,0,0,0,2.63.91,3.55,3.55,0,0,0,1.81-.46,3.85,3.85,0,0,0,1.82-2.31s0-.1,0-.14a.54.54,0,0,0,.27-.11A4.47,4.47,0,0,0,79.21,49,4.14,4.14,0,0,0,77.39,45a8,8,0,0,0-4.77-1.17h-1a13.07,13.07,0,0,1-5-.81l-1.73-.66Z"/><path class="cls-2" d="M43.54,49.32h-.23a3.28,3.28,0,0,1-2.64-2.38,7,7,0,0,1,.41-4.41,12,12,0,0,0,.78-4.67l0-.93.51.78A12,12,0,0,0,45.71,41a7,7,0,0,1,2.94,3.31,3.29,3.29,0,0,1-.72,3.47,3.22,3.22,0,0,1-2,.84h-.2c-.13,0-.19-.07-.24-.24,0,.22-.07.38-.16.43a3.61,3.61,0,0,1-1.8.51Z"/><path class="cls-1" d="M42.11,37.83c2.31,3.54,5.16,3.55,6.3,6.58a2.83,2.83,0,0,1-2.47,4h-.17a4.33,4.33,0,0,1-.17-1s2.17-1.86,1.29-4.4a4.07,4.07,0,0,1-1.35,4h0c-.27-1.76-1.15-5.46-3-7.83A18,18,0,0,1,45,45.42h0a4.66,4.66,0,0,1-2.88-3.21c.39,2.57,2.95,3.58,3,3.67a7.58,7.58,0,0,1,.14,2.72,3.31,3.31,0,0,1-1.66.47h-.21a3,3,0,0,1-2.42-2.19c-.88-3.12,1.42-4.81,1.2-9M41.51,36l.1,1.86a11.5,11.5,0,0,1-.77,4.58A7.19,7.19,0,0,0,40.43,47a3.54,3.54,0,0,0,2.85,2.55l.26,0A3.86,3.86,0,0,0,45.48,49a.37.37,0,0,0,.15-.17h.07l.24,0a3.34,3.34,0,0,0,2.94-4.65,7.17,7.17,0,0,0-3-3.43,11.72,11.72,0,0,1-3.33-3.24l-1-1.56Z"/><path class="cls-2" d="M83.47,49.39a3.68,3.68,0,0,1-1.81-.5.63.63,0,0,1-.15-.43c-.05.16-.11.21-.24.23h-.21a3.15,3.15,0,0,1-2-.83,3.28,3.28,0,0,1-.73-3.47,7.07,7.07,0,0,1,2.94-3.32,11.76,11.76,0,0,0,3.39-3.31L85.2,37l0,.93a12.11,12.11,0,0,0,.78,4.68A7,7,0,0,1,86.34,47a3.27,3.27,0,0,1-2.64,2.37Z"/><path class="cls-1" d="M84.9,37.91c-.22,4.22,2.08,5.91,1.2,9a3,3,0,0,1-2.42,2.19h-.21a3.37,3.37,0,0,1-1.67-.46A7.74,7.74,0,0,1,82,46c0-.09,2.57-1.1,3-3.67A4.65,4.65,0,0,1,82,45.5h0a18,18,0,0,1,2.46-6.25c-1.87,2.37-2.73,6.07-3,7.84h0a4.06,4.06,0,0,1-1.36-4c-.87,2.54,1.31,4.36,1.3,4.4a4.92,4.92,0,0,1-.17,1h-.18a2.93,2.93,0,0,1-1.81-.77,3,3,0,0,1-.66-3.19c1.14-3,4-3,6.31-6.58m.6-1.83-1,1.55a11.49,11.49,0,0,1-3.32,3.25,7.17,7.17,0,0,0-3,3.43,3.51,3.51,0,0,0,.79,3.75,3.42,3.42,0,0,0,2.14.89h.24l.07,0a.42.42,0,0,0,.17.18,3.79,3.79,0,0,0,1.93.54h.26a3.51,3.51,0,0,0,2.85-2.55,7.19,7.19,0,0,0-.41-4.56,11.5,11.5,0,0,1-.77-4.58l.1-1.86Z"/><path class="cls-2" d="M36.92,51.64A2.87,2.87,0,0,1,35.07,51a5.88,5.88,0,0,1-1.81-3.27,9.85,9.85,0,0,0-1.68-3.59L31,43.38l.86.35a10.1,10.1,0,0,0,3.9.69,5.9,5.9,0,0,1,3.63.9,2.81,2.81,0,0,1,1.16,2.79,2.6,2.6,0,0,1-1.15,1.63l-.05,0h-.15a.38.38,0,0,1,0,.28,2.94,2.94,0,0,1-1.19,1.33,2.35,2.35,0,0,1-1.15.27Z"/><path class="cls-1" d="M31.78,44c3.28,1.36,5.26,0,7.49,1.57a2.56,2.56,0,0,1,1.06,2.52,2.36,2.36,0,0,1-1,1.47h0a6.71,6.71,0,0,1-.57-.59,3.65,3.65,0,0,0-1.19-3.66,3.39,3.39,0,0,1,1,3.42h0a15.64,15.64,0,0,0-5.8-4,15.32,15.32,0,0,1,4.67,3.17,2.37,2.37,0,0,1-.86.12,4.09,4.09,0,0,1-2.66-1,4,4,0,0,0,3,1.18c.4,0,.69,0,.77,0h0A6.18,6.18,0,0,1,39,50,2.75,2.75,0,0,1,38,51.15a2.18,2.18,0,0,1-1,.24,2.63,2.63,0,0,1-1.69-.6c-2.08-1.75-1.29-4-3.45-6.83m-1.53-1.17,1.14,1.48A9.58,9.58,0,0,1,33,47.78a6.12,6.12,0,0,0,1.89,3.39,3.11,3.11,0,0,0,2,.72,2.59,2.59,0,0,0,1.27-.3,3.28,3.28,0,0,0,1.31-1.45.58.58,0,0,0,0-.17h0a2.84,2.84,0,0,0,1.27-1.79,3,3,0,0,0-1.26-3.05,6,6,0,0,0-3.76-.95A9.63,9.63,0,0,1,32,43.5l-1.72-.71Z"/><path class="cls-2" d="M85.06,85.55a6.34,6.34,0,0,1-1.29-.13,3.75,3.75,0,0,1-2.94-2.83,4.07,4.07,0,0,1,.39-2.38c0-.07.11-.19.76-.24-.43,0-.51-.08-.56-.25a3.5,3.5,0,0,1,.76-2.59A3.7,3.7,0,0,1,85,75.85a4,4,0,0,1,1.08.15,8.15,8.15,0,0,1,4.08,3.13,13.79,13.79,0,0,0,4.15,3.66l.81.46h-.93a14,14,0,0,0-5.38,1.31A9.84,9.84,0,0,1,85.06,85.55Zm-2-5.61h0Z"/><path class="cls-1" d="M85,76.1a3.57,3.57,0,0,1,1,.14c3.62,1.07,3.87,4.39,8.18,6.77-4.35.09-6.24,2.29-9.16,2.29a6.92,6.92,0,0,1-1.24-.12,3.52,3.52,0,0,1-2.75-2.63,3.9,3.9,0,0,1,.37-2.22,3.86,3.86,0,0,1,1.43-.14c.49,0,1.08,0,1.74.08.1,0,1.5,2.9,4.52,3.13a5.41,5.41,0,0,1-4-3.07h0a20.72,20.72,0,0,1,7.48,2.32c-2.91-2-7.28-2.66-9.36-2.84a4.59,4.59,0,0,1,3.85-2,5.76,5.76,0,0,1,.7,0,4.63,4.63,0,0,0-1.13-.15,5.4,5.4,0,0,0-3.88,2,5.81,5.81,0,0,1-1.15-.12,3.33,3.33,0,0,1,.72-2.38A3.41,3.41,0,0,1,85,76.1m0-.5A3.92,3.92,0,0,0,82,77a3.79,3.79,0,0,0-.81,2.77.83.83,0,0,0,0,.12.59.59,0,0,0-.21.21,4.42,4.42,0,0,0-.42,2.56,4,4,0,0,0,3.15,3,6.66,6.66,0,0,0,1.33.13,10.08,10.08,0,0,0,3.88-1,13.55,13.55,0,0,1,5.29-1.29l1.86,0-1.63-.9A13.52,13.52,0,0,1,90.38,79a8.37,8.37,0,0,0-4.2-3.21A4,4,0,0,0,85,75.6Z"/><path class="cls-2" d="M76.57,92.73a9.9,9.9,0,0,0-.81-3.2,6.57,6.57,0,0,1-.55-4.44,3,3,0,0,1,2.43-2.21l.23,0a3.36,3.36,0,0,1,1.67.46.54.54,0,0,1,.14.33.21.21,0,0,1,.2-.15h.21a3,3,0,0,1,1.83.75,3.06,3.06,0,0,1,.7,3.22,6.31,6.31,0,0,1-3,3.19A10.08,10.08,0,0,0,77,92.88l-.41.53Z"/><path class="cls-1" d="M77.87,83.11a3.19,3.19,0,0,1,1.53.42A7.22,7.22,0,0,1,79.28,86c0,.08-2.36,1-2.71,3.4a4.31,4.31,0,0,1,2.63-3h0A16.32,16.32,0,0,1,77,92.24,17.23,17.23,0,0,0,79.71,85h0A3.75,3.75,0,0,1,81,88.69a4,4,0,0,0-1.23-4,3.75,3.75,0,0,1,.16-.89h.17a2.68,2.68,0,0,1,1.66.69,2.77,2.77,0,0,1,.63,2.94c-1,2.8-3.59,2.85-5.56,5.35-.13-3-2.16-4.68-1.37-7.56a2.81,2.81,0,0,1,2.22-2h.2m0-.5-.25,0A3.26,3.26,0,0,0,75,85a6.85,6.85,0,0,0,.56,4.59,9.79,9.79,0,0,1,.79,3.13l.06,1.34L77.21,93a9.84,9.84,0,0,1,2.59-2.17,6.41,6.41,0,0,0,3-3.31,3.3,3.3,0,0,0-.77-3.5,3.19,3.19,0,0,0-2-.81h-.28a.45.45,0,0,0-.13-.14,3.61,3.61,0,0,0-1.81-.51Z"/><path class="cls-2" d="M42.11,85.48a9.68,9.68,0,0,1-3.79-1,13.84,13.84,0,0,0-5.39-1.3l-.93,0,.82-.45A13.93,13.93,0,0,0,37,79.05a8.08,8.08,0,0,1,4.08-3.12,3.64,3.64,0,0,1,1.09-.16A3.69,3.69,0,0,1,45,77.05a3.51,3.51,0,0,1,.76,2.58c0,.18-.12.22-.55.26.64,0,.71.16.75.24a4.27,4.27,0,0,1,.4,2.39,3.81,3.81,0,0,1-3,2.83,7.13,7.13,0,0,1-1.28.13Zm2-5.62h0Z"/><path class="cls-1" d="M42.14,76a3.45,3.45,0,0,1,2.64,1.18,3.28,3.28,0,0,1,.71,2.38,4.76,4.76,0,0,1-1.14.12h0a5.44,5.44,0,0,0-3.88-2,4.46,4.46,0,0,0-1.12.14,5.53,5.53,0,0,1,.69,0,4.62,4.62,0,0,1,3.85,2c-2.08.18-6.45.88-9.36,2.84A20.87,20.87,0,0,1,42,80.25h0a5.31,5.31,0,0,1-4,3.07c3-.23,4.42-3.12,4.52-3.13.67-.06,1.27-.08,1.76-.08a3.75,3.75,0,0,1,1.41.14,3.9,3.9,0,0,1,.37,2.22,3.52,3.52,0,0,1-2.75,2.63,6.13,6.13,0,0,1-1.23.13c-2.93,0-4.82-2.21-9.17-2.29,4.31-2.39,4.56-5.71,8.18-6.77a3.71,3.71,0,0,1,1-.15m0-.5v0a4.17,4.17,0,0,0-1.16.17,8.26,8.26,0,0,0-4.2,3.2A13.65,13.65,0,0,1,32.7,82.5l-1.63.9,1.86,0a13.39,13.39,0,0,1,5.29,1.28,9.92,9.92,0,0,0,3.89,1,6.83,6.83,0,0,0,1.33-.14,4,4,0,0,0,3.14-3A4.29,4.29,0,0,0,46.16,80,.42.42,0,0,0,46,79.8a.5.5,0,0,0,0-.13,3.82,3.82,0,0,0-.81-2.77,3.93,3.93,0,0,0-3-1.38Z"/><path class="cls-2" d="M50.14,92.8a10.28,10.28,0,0,0-2.64-2.23,6.27,6.27,0,0,1-3-3.19,3,3,0,0,1,.7-3.21,3,3,0,0,1,1.82-.76h.21a.22.22,0,0,1,.21.15.48.48,0,0,1,.15-.32,3.32,3.32,0,0,1,1.66-.46h.23A3.06,3.06,0,0,1,52,85a6.57,6.57,0,0,1-.55,4.44,9.83,9.83,0,0,0-.81,3.2l0,.67Z"/><path class="cls-1" d="M49.29,83h.2a2.78,2.78,0,0,1,2.22,2c.79,2.88-1.24,4.58-1.37,7.57-2-2.5-4.53-2.56-5.56-5.36a2.77,2.77,0,0,1,.63-2.94,2.71,2.71,0,0,1,1.65-.69h.18a3.75,3.75,0,0,1,.16.89s-2,1.71-1.23,4a3.75,3.75,0,0,1,1.27-3.69h0a17.2,17.2,0,0,0,2.72,7.23A16.5,16.5,0,0,1,48,86.39h0a4.31,4.31,0,0,1,2.63,3C50.24,87,47.89,86,47.88,86a7.17,7.17,0,0,1-.12-2.5A3.08,3.08,0,0,1,49.29,83m0-.5a3.56,3.56,0,0,0-1.8.5.36.36,0,0,0-.14.14h-.29a3.14,3.14,0,0,0-2,.82,3.27,3.27,0,0,0-.77,3.49,6.41,6.41,0,0,0,3,3.31A9.7,9.7,0,0,1,50,93L50.78,94l.06-1.34a9.86,9.86,0,0,1,.79-3.13A6.85,6.85,0,0,0,52.19,85a3.27,3.27,0,0,0-2.64-2.4Z"/><path class="cls-2" d="M63.37,86.92a9.63,9.63,0,0,0-2.89-.42c-.58,0-1.11,0-1.62.08s-.94.07-1.4.07A5.45,5.45,0,0,1,54.67,86a3.16,3.16,0,0,1-1.61-3A2.9,2.9,0,0,1,54.16,81l.07,0h.08a.25.25,0,0,1,.14,0,.5.5,0,0,1-.12-.38A3.41,3.41,0,0,1,55.52,79a2.76,2.76,0,0,1,1.57-.45,3.29,3.29,0,0,1,1.83.56,6.66,6.66,0,0,1,2.4,3.49,11.37,11.37,0,0,0,2.3,3.89l.63.68Z"/><path class="cls-1" d="M57.09,78.82a3,3,0,0,1,1.69.52c2.55,1.74,1.9,4.39,4.66,7.34a9.93,9.93,0,0,0-3-.43c-1.11,0-2.08.15-3,.15a5.2,5.2,0,0,1-2.67-.66A2.9,2.9,0,0,1,53.31,83a2.66,2.66,0,0,1,1-1.77h0a5.28,5.28,0,0,1,.71.61s-.44,2.69,1.75,4a3.88,3.88,0,0,1-1.47-3.77h0a17.81,17.81,0,0,0,7,3.88,17.1,17.1,0,0,1-5.63-3.07,3.14,3.14,0,0,1,1.41-.25,4.6,4.6,0,0,1,2.66.83,4.3,4.3,0,0,0-2.91-1,8.48,8.48,0,0,0-1.49.17h0a7,7,0,0,1-1.77-1.9,3.27,3.27,0,0,1,1.09-1.48,2.6,2.6,0,0,1,1.43-.4m0-.5a3.07,3.07,0,0,0-1.71.49,3.69,3.69,0,0,0-1.29,1.75.45.45,0,0,0,0,.21l0,0a3.17,3.17,0,0,0-1.21,2.13,3.4,3.4,0,0,0,1.73,3.25,5.59,5.59,0,0,0,2.91.72c.47,0,.93,0,1.42-.07s1-.08,1.6-.08a9.41,9.41,0,0,1,2.81.41l1.78.54L63.8,86.34a10.8,10.8,0,0,1-2.24-3.82,6.94,6.94,0,0,0-2.5-3.59,3.45,3.45,0,0,0-2-.61Z"/><path class="cls-2" d="M63.54,86.58a11.28,11.28,0,0,0,2.3-3.89,6.67,6.67,0,0,1,2.4-3.48,3.2,3.2,0,0,1,1.82-.56,2.85,2.85,0,0,1,1.58.44,3.46,3.46,0,0,1,1.19,1.62c0,.09,0,.22-.12.38a.25.25,0,0,1,.14,0h.08l.07,0a2.9,2.9,0,0,1,1.09,2,3.13,3.13,0,0,1-1.6,3,5.38,5.38,0,0,1-2.79.7c-.46,0-.92,0-1.4-.07s-1-.08-1.62-.08A9.83,9.83,0,0,0,63.8,87l-.89.27Z"/><path class="cls-1" d="M70.07,78.9a2.6,2.6,0,0,1,1.43.4,3.17,3.17,0,0,1,1.09,1.48,7.23,7.23,0,0,1-1.77,1.9h0a9,9,0,0,0-1.49-.16,4.3,4.3,0,0,0-2.91,1,4.62,4.62,0,0,1,2.66-.84,3,3,0,0,1,1.41.26A17.39,17.39,0,0,1,64.84,86c2.82-.59,5.72-2.77,7-3.89h0a3.87,3.87,0,0,1-1.47,3.77c2.19-1.32,1.72-4,1.75-4a5.64,5.64,0,0,1,.71-.6h0a2.68,2.68,0,0,1,1,1.77,2.91,2.91,0,0,1-1.48,2.75,5.2,5.2,0,0,1-2.67.66c-.94,0-1.91-.15-3-.16a9.92,9.92,0,0,0-3,.44c2.76-3,2.11-5.6,4.66-7.35a3,3,0,0,1,1.69-.51m0-.5h0a3.52,3.52,0,0,0-2,.6,6.89,6.89,0,0,0-2.49,3.6,11,11,0,0,1-2.25,3.81l-1.27,1.36,1.78-.54a9.41,9.41,0,0,1,2.81-.41c.56,0,1.09.05,1.6.08s1,.08,1.42.08a5.59,5.59,0,0,0,2.91-.73A3.39,3.39,0,0,0,74.34,83a3.17,3.17,0,0,0-1.21-2.12l0,0a.67.67,0,0,0,0-.2,3.66,3.66,0,0,0-1.3-1.76,3.07,3.07,0,0,0-1.71-.49Z"/><path class="cls-2" d="M60.09,56.59a5.18,5.18,0,0,1-3-1.31,8.62,8.62,0,0,0-3-1.6l-.9-.24.9-.24a8.56,8.56,0,0,0,3-1.56,5.14,5.14,0,0,1,3-1.27h0a2.48,2.48,0,0,1,2.28,1.33,2.23,2.23,0,0,1,.06,1.75l-.06.13a.27.27,0,0,1,.11.14,2.7,2.7,0,0,1-.13,1.56,2.43,2.43,0,0,1-2.18,1.31Z"/><path class="cls-1" d="M60.22,50.62a2.18,2.18,0,0,1,2,1.18,2,2,0,0,1,.07,1.54h0c-.08,0-.32-.05-.68-.11a3.18,3.18,0,0,0-2.71-1.91h0a3,3,0,0,1,2.45,1.86h0A16.65,16.65,0,0,0,58.55,53a10.35,10.35,0,0,0-3.37.49,11.24,11.24,0,0,1,3-.36,14.38,14.38,0,0,1,1.85.11,3.28,3.28,0,0,1-2.66,1.25h-.2a3.08,3.08,0,0,0,.51,0,4.22,4.22,0,0,0,2.69-1.24h0a5.67,5.67,0,0,1,1.9.52,2.44,2.44,0,0,1-.12,1.4,2.18,2.18,0,0,1-1.95,1.16H60.1c-2.34-.12-3-2.08-5.92-2.9,3-.78,3.61-2.73,6-2.82h.09m0-.5h-.1A5.33,5.33,0,0,0,57,51.44,8.1,8.1,0,0,1,54.05,53l-1.8.47,1.79.49A8.23,8.23,0,0,1,57,55.48a5.37,5.37,0,0,0,3.11,1.36h.13a2.7,2.7,0,0,0,2.41-1.46,2.86,2.86,0,0,0,.14-1.73.55.55,0,0,0,0-.13,2.48,2.48,0,0,0-.07-1.92,2.71,2.71,0,0,0-2.42-1.48Z"/></g></g></svg>