<svg xmlns="http://www.w3.org/2000/svg" viewBox="0 0 126.69 146.94"><defs><style>.cls-1{fill:#b3c757;}.cls-2{fill:#693b94;}</style></defs><title>Asset 12</title><g id="Layer_2" data-name="Layer 2"><g id="Layer_3" data-name="Layer 3"><path class="cls-1" d="M117.84,52.16l.09-.56c-1.81,3.23-6.23,4.93-10.26,4.3a7.14,7.14,0,0,0,.77-6.36,6,6,0,0,1-2.75,5.89,8.61,8.61,0,0,1-4.32-3.73c4-2.66,4.3-6.6.51-9.93,2.71-3.4,9.92-3.46,12.06-.19-.87-2.68-4-4.46-6.1-4.65a7,7,0,0,0,0-8.56,6.5,6.5,0,0,1-3.13,8.36,7.36,7.36,0,0,0-6.24-2.63,7,7,0,0,1,4.81,3.15A11.92,11.92,0,0,0,99.58,40C96,36.55,80.33,34.55,84.73,28c2.84-2.95,7-6.05,10.89-2.64a7.59,7.59,0,0,0-3.48-2.6c6.42-2.61,9-2.21,9.91.7.06-3.9-4.75-4.47-6.78-4a6.26,6.26,0,0,0-3.09-7.29c5.18,6.77-3.54,8.45-7.71,12.12a17.69,17.69,0,0,0-3.23-2.07c-1-1.77-1.91-5.25-.42-7.59a7.9,7.9,0,0,0-2,6.39c-3.45-1.74-8.83-2.48-9-7.38A8,8,0,0,0,70,17.2a45.16,45.16,0,0,1-5.3-2.57c1.68-2.53,1-5.62-.88-7.89C66.35,4.35,71.24,4,76.2,4.89c-1.59-1.75-10.92-3.61-14,.29a8.54,8.54,0,0,0-2.77-1.37,4.73,4.73,0,0,1,2-3.53,5.73,5.73,0,0,0-3.26,3.23c-3.84-1-9,1.61-9.33,2,4.58-.94,9.44-.48,11.84,1.38a6.3,6.3,0,0,0,.23,8,29.49,29.49,0,0,1-4.22,2.21,8.45,8.45,0,0,0,.1-3.29c.09,4.48-5.25,5.35-8.58,7a7.93,7.93,0,0,0-2.07-6.2c1.34,2.23.8,5.17-.24,7.21a33,33,0,0,0-3.84,2c-3.93-3.21-12.43-5.22-7.28-11.71a6.27,6.27,0,0,0-3.09,7.3c-2-.46-6.84.11-6.78,4,.91-2.91,3.5-3.31,9.91-.7a7.54,7.54,0,0,0-3.47,2.61c4-4.12,10.46,1.17,11.78,4.25C42.94,35.27,32,36.19,27.42,40a11.73,11.73,0,0,0-3.71-2.79A7,7,0,0,1,28.52,34a7.39,7.39,0,0,0-6.24,2.63,6.49,6.49,0,0,1-3.13-8.36,7,7,0,0,0,0,8.56c-2.05.19-5.23,2-6.1,4.66,2.13-3.27,9.36-3.22,12.06.18-3.76,3.33-3.53,7.28.5,9.94a8.6,8.6,0,0,1-4.32,3.72,6,6,0,0,1-2.74-5.88,7.12,7.12,0,0,0,.77,6.35c-4.05.63-8.45-1.08-10.26-4.3a7.19,7.19,0,0,0,4.78,6.3,6.93,6.93,0,0,0-2.22,6.91C13,56.52,25.17,60.55,28.17,53c5.4,2.7,10.84,2.4,16.3,5.34a8,8,0,0,0,2.68,4c-1.3,3.93-8.14,10-13.23,7.82a6.06,6.06,0,0,1,1.83-6.32,7.16,7.16,0,0,0-3.69,5.67c-3.21-1.72-5.37-4.28-5.46-7.43a7.24,7.24,0,0,0,.31,5.14c-.93-.07-2.64.75-3.84,1.21,4.38-1.06,7.05,4,10.91,4.69A36,36,0,0,0,30.87,75c-7.52-5.81-15,4.67-21.09-3.57A7.93,7.93,0,0,0,16,76.92c-1.31,1.16-3.22,5.19-1.89,8.51-.47-3.37,2.33-6.51,5.14-8.31h.1v-.06a8.32,8.32,0,0,1,4.91-1.49,6.93,6.93,0,0,0-2.15,4.83A5.84,5.84,0,0,1,26.9,76a11.85,11.85,0,0,1,1.79.7C24.41,80.68,26,84.84,31,87.9c-2.4,3-7,6.17-12.3,3.14a8,8,0,0,0,8.75,2.15,8.62,8.62,0,0,0,2.16,8c-2.22-5.62.25-8.67,3.63-12.08,4.26,2,7.49,2.59,11.57,4.32-2.55,3.15-.69,6.83,2.27,9-3.48-.23-7.19-.82-8.58-3.48,1,5.59,8.49,6.26,11.87,5.65,2.63,1.44,3.66,1.9,5.75,4.71.13,2.47-.65,25.42-4.86,37.6H73.4a83.94,83.94,0,0,1-3-12.2c-1.83-14.83-5.61-24.88,6.34-30.1,3.35.65,10.86-.24,11.75-5.66-1.38,2.64-5,3.23-8.48,3.47,2.91-2.19,4.69-5.84,2.16-8.94,4.06-1.71,7.37-2.28,11.58-4.32,3.39,3.42,5.84,6.49,3.62,12.09a8.6,8.6,0,0,0,2.17-8,8,8,0,0,0,8.75-2.15c-5.29,3-9.9-.12-12.3-3.14,5-3.06,6.56-7.23,2.28-11.2a13,13,0,0,1,1.79-.7,5.86,5.86,0,0,1,4.77,4.4,7,7,0,0,0-2.15-4.84,8.33,8.33,0,0,1,4.91,1.5v0h.1c2.8,1.79,5.61,4.93,5.14,8.3,1.33-3.32-.58-7.34-1.89-8.5a8,8,0,0,0,6.24-5.5c-6.12,8.24-13.57-2.24-21.09,3.56-.87-.59-1.84-1.17-3.11-1.86,3.86-.69,6.54-5.76,10.91-4.69-1.19-.46-2.87-1.27-3.84-1.21a7.26,7.26,0,0,0,.32-5.15c-.09,3.13-2.27,5.73-5.47,7.44a7.14,7.14,0,0,0-3.68-5.67,6.08,6.08,0,0,1,1.82,6.32c-3.9,2-9-2.37-11.25-4.26h0A7.61,7.61,0,0,1,80,63.43c2.58-1.88,3.92-3.78,4.1-5.82,4.88-1.86,10-2.23,14.71-4.51,3,7.51,15.19,3.52,16.53,11.71a6.94,6.94,0,0,0-2.22-6.92A7,7,0,0,0,117.84,52.16ZM26.89,49c-2.06-1.53-2-3-.07-4.94C27.74,45.82,27.45,47.09,26.89,49ZM62.41,8.86c.82,2,1.2,2.77.37,4.3C61.44,11.61,61.75,10.91,62.41,8.86ZM32.25,85.3c-3.41-2.26-4.4-4.19-1.19-6.85a7.78,7.78,0,0,1,1.41,3.81A13.48,13.48,0,0,1,32.25,85.3ZM41.09,89a48.64,48.64,0,0,1-6.57-2.51c.86-3.53.82-6.18-1.4-9.56,4.19-2.54,9.38-4.8,12.6-7.67l0,0a25.44,25.44,0,0,0,3.85-5.18c3.74,2,6.34,3.74,8.78,7.59-6.79-1.62-8.88,6.46-14.85,6.71,1.2.26,2.93.81,3.84.61a7,7,0,0,0,.45,5c-.38-3,1.32-5.77,4.12-7.85A6.87,6.87,0,0,0,56.2,81a5.83,5.83,0,0,1-2.66-5.75A12.84,12.84,0,0,1,59.48,74C61,77.86,61,80.2,61.05,84.77c-4.57,2.46-9.22,3.36-14,6.56A38.52,38.52,0,0,0,41.09,89ZM61.74,52.2a5.56,5.56,0,0,0,2.24.58c-.77,1.73-2,3.6-2,5.74-4.93.63-8.23-5.64-13.49-3.66,5.14-4,10.54-4.56,15.74-7.75a33.92,33.92,0,0,0,3.18,1.67c-2.14,1.6-4,3.59-6.84,3Zm-10.83,5a6.4,6.4,0,0,0,0,4.36c-.43-.28-.77-.52-1.08-.76A7.37,7.37,0,0,0,48,57.61,8.91,8.91,0,0,1,50.91,57.19Zm29.64,39.6c-1.73,5.61-9.43,6-13,11.52-2.32-4.84-7.15-4.91-9.84-1.54-2.65-4.4-10.3-5.19-11.22-10.08,2.38-5.88,12.14-6.42,17-10a42.56,42.56,0,0,0,5.71,2.77c-3,1.07-5,4.79-8.64,3.92a11.72,11.72,0,0,0,3.42,1c-1,2.14-2.66,4.74-1.76,7.35.56-4.32,4-9.7,9.3-10.31a5.26,5.26,0,0,1,.1,5.57,6.34,6.34,0,0,0,1.54-5.63C77.12,92.12,80.84,95.39,80.55,96.79ZM96,78.53c3.21,2.67,2.22,4.58-1.19,6.84a14,14,0,0,1-.22-3.17A8.26,8.26,0,0,1,96,78.53Zm-9.73-5.82v0c2.73,1.69,4.82,2.53,7.66,4.3-2.22,3.41-2.26,6-1.4,9.57-4.72,2.29-8,2.55-12.53,4.8-5.08-3.38-9.17-3.82-14.11-6.89.48-5,.27-6.72,1.91-9.94a9.36,9.36,0,0,1,5.85.71A5.83,5.83,0,0,1,71,81.06a6.9,6.9,0,0,0,4.34-4.89c2.76,2.09,4.48,4.69,4.13,7.86a7,7,0,0,0,.45-5c.88.2,2.65-.35,3.84-.61-5.7-.07-7.73-7.85-14-6.76A20,20,0,0,1,77.58,65a10.93,10.93,0,0,0,2,2.77l0,0A79.88,79.88,0,0,0,86.22,72.71ZM77,62c-6.63,2.74-12.51,9-13.37,16.63-1-7.3-6.16-14.08-12.2-16.73a5.42,5.42,0,0,1,1.23-4.44c3.7.83,6.44,3.54,6.71,6.81a6.37,6.37,0,0,0-.44-4.53,10.16,10.16,0,0,0,3-1.09,7.83,7.83,0,0,0,.26,1.51c.45-3.88,3.58-9,8.14-10.08,3.15,1.46,8.33,2.81,10.58,6A7.94,7.94,0,0,0,77,62Zm6.5-7.24c-1.23-2.23-4-3.84-6.37-5,3.73.37,5.75,2.35,8.35,4.28A20.11,20.11,0,0,0,83.5,54.74Zm14.06-4.22c-2.35.84-6.91,3.22-10.11,1.86A5.21,5.21,0,0,1,89.38,47a6.23,6.23,0,0,0-3.5,4.7c-2.68-1.61-4.32-3.86-4.26-6.56A6.06,6.06,0,0,0,81.85,50a28.16,28.16,0,0,0-4.76-.44l0,.23c-.41-.2-8-3.45-9.18-4.09l.05-.17c-4.74-2.08-12.81-8.59-10-14.6a5.71,5.71,0,0,0-1.76,3.7A11.29,11.29,0,0,0,53,34c4.21,1.54,5,8.56,9.34,10.86-5.59,3.49-13.93,4-17.62,10.33A18.82,18.82,0,0,0,41.53,54C44.13,52,46.2,50.05,50,49.69l0-.25a29.25,29.25,0,0,0-4.76.44,6,6,0,0,0,.23-4.78c.07,2.7-1.59,4.95-4.26,6.55A6.19,6.19,0,0,0,37.64,47a5.21,5.21,0,0,1,1.92,5.34c-3.22,1.37-7.77-1-10.11-1.86,1-3,1.32-5.36-.31-8.14,5.26-4,22.66-6.5,14.92-16.34a4.22,4.22,0,0,1,5.09-.24,7.77,7.77,0,0,0-2-1.34c5.37-2.58,11-4.1,15.79-7.75C69.3,20.88,75.73,22,82.37,26.36A5.65,5.65,0,0,0,81,29.49c-3.11-1.8-7.94.59-10.57-2.57a12,12,0,0,0,2.11,2.9,6.38,6.38,0,0,0-2.89,3.52c2.38-3,6.86-3.42,10.68-1.32a5.27,5.27,0,0,1-3.3,4.5A6.34,6.34,0,0,0,81.62,33c3.71,5.13,11.54,6,16.24,9.4C96.24,45.16,96.51,47.53,97.56,50.52Zm2.56-1.44c-.57-1.91-.85-3.19.07-4.95C102.17,46.05,102.18,47.55,100.12,49.08Z"/><path class="cls-2" d="M27.06,108.19a14.46,14.46,0,0,0-2.36-5.27,8.41,8.41,0,0,1-1.83-5,3.9,3.9,0,0,1,2.33-3.55,4.3,4.3,0,0,1,1.43-.25,2.87,2.87,0,0,1,1.36.3c.18.1.18.19,0,.77.17-.44.35-.78.52-.82a2.9,2.9,0,0,1,.62-.06,4.4,4.4,0,0,1,1.87.41,3.94,3.94,0,0,1,1.89,3.8,8.46,8.46,0,0,1-2.42,4.76,14.5,14.5,0,0,0-3,5l-.3.88Zm.41-10.14,0,0v0h0Zm.25-1.94,0-.09-.08,0Z"/><path class="cls-1" d="M26.63,94.36a2.58,2.58,0,0,1,1.24.27,5.8,5.8,0,0,1-.24,1.17s-3.28,1.13-3.43,4.39a5,5,0,0,1,3.3-3.94s0,0,0,0c-.47,2.13-1.14,6.69-.09,10.19a21.64,21.64,0,0,1,0-8.15h0a5.64,5.64,0,0,1,1.82,4.91c.7-3.08-1.73-5.36-1.71-5.47a9.28,9.28,0,0,1,1.05-3.13,2.4,2.4,0,0,1,.56-.06,4.15,4.15,0,0,1,1.76.38,3.69,3.69,0,0,1,1.75,3.56c-.4,3.9-3.75,4.78-5.38,9.65-1-5-4.25-6.3-4.18-10.23a3.67,3.67,0,0,1,2.16-3.32,4.12,4.12,0,0,1,1.35-.23m0-.5h0a4.35,4.35,0,0,0-1.52.27,4.17,4.17,0,0,0-2.49,3.77,8.64,8.64,0,0,0,1.87,5.16,14,14,0,0,1,2.32,5.18l.37,1.82.59-1.76a14.19,14.19,0,0,1,2.93-4.87,8.65,8.65,0,0,0,2.48-4.89,4.19,4.19,0,0,0-2-4.05,4.58,4.58,0,0,0-2-.44,3.45,3.45,0,0,0-.67.07.53.53,0,0,0-.25.17l-.13-.1a3.15,3.15,0,0,0-1.49-.33Z"/><path class="cls-2" d="M125,67.35a11,11,0,0,0-2.9-.38,20.61,20.61,0,0,0-2.31.16,15.78,15.78,0,0,1-1.92.14,6,6,0,0,1-2.89-.68A3.58,3.58,0,0,1,113,63.25,3.27,3.27,0,0,1,114.17,61l.07,0h.08c.09,0,.15,0,.31.15-.19-.24-.31-.44-.27-.56a3.84,3.84,0,0,1,1.29-1.89,3.23,3.23,0,0,1,1.89-.57,3.65,3.65,0,0,1,2,.57,7.71,7.71,0,0,1,2.89,3.89,13.14,13.14,0,0,0,2.8,4.39l.66.66Z"/><path class="cls-1" d="M117.54,58.33a3.47,3.47,0,0,1,1.84.53c3,1.9,2.36,5,5.64,8.25a11.06,11.06,0,0,0-3-.39c-1.6,0-2.92.3-4.22.3a5.77,5.77,0,0,1-2.79-.65,3.33,3.33,0,0,1-1.8-3.09,3.08,3.08,0,0,1,1.07-2.08h0a5.84,5.84,0,0,1,.85.67s-.41,3.1,2.17,4.54a4.42,4.42,0,0,1-1.84-4.27h0c1.53,1.24,5,3.62,8.2,4.18a19.56,19.56,0,0,1-6.58-3.3,3.9,3.9,0,0,1,1.8-.35,5.3,5.3,0,0,1,2.9.86,4.89,4.89,0,0,0-3.17-1.07,9.66,9.66,0,0,0-1.93.25h0a8.59,8.59,0,0,1-2.11-2.11,3.58,3.58,0,0,1,1.2-1.75,3,3,0,0,1,1.74-.52m0-.5a3.5,3.5,0,0,0-2,.62,4.13,4.13,0,0,0-1.39,2,.54.54,0,0,0,0,.25l-.1.07a3.55,3.55,0,0,0-1.28,2.43,3.83,3.83,0,0,0,2.07,3.59,6.29,6.29,0,0,0,3,.71,18.65,18.65,0,0,0,1.94-.14,20.06,20.06,0,0,1,2.28-.16,10.83,10.83,0,0,1,2.83.37l1.8.48-1.32-1.32a12.7,12.7,0,0,1-2.74-4.31,7.89,7.89,0,0,0-3-4,3.87,3.87,0,0,0-2.1-.61Z"/><path class="cls-2" d="M123.74,47.77a14.83,14.83,0,0,0-5.36-.88l-1.2,0h-1.1a8.41,8.41,0,0,1-4.86-1.22,4.45,4.45,0,0,1-2-4.36,4.92,4.92,0,0,1,1.44-2.45l.07-.06h.16a5.52,5.52,0,0,1,1.49.41l-.24-.11c-1-.45-1.06-.49-1-.72A4.17,4.17,0,0,1,113,35.88a3.93,3.93,0,0,1,2-.5,4.58,4.58,0,0,1,2.79.94c1.91,1.46,2.5,3.19,3.18,5.18a16.36,16.36,0,0,0,3,5.87l.6.71Zm-9.08-7.14s0-.17,0-.17l-.1-.05C114.62,40.46,114.66,40.62,114.66,40.63Zm-1.91-1.24a1.8,1.8,0,0,1,0-.19h0c-.12.07-.16.09-.23.09h0Z"/><path class="cls-1" d="M115,35.63a4.36,4.36,0,0,1,2.64.88c3.56,2.73,2.41,6.52,6.18,11a15.22,15.22,0,0,0-5.44-.89c-.81,0-1.57,0-2.3,0a8.13,8.13,0,0,1-4.72-1.18,4.2,4.2,0,0,1-1.94-4.1,4.67,4.67,0,0,1,1.36-2.31h.07a13.1,13.1,0,0,1,3.48,1.3c.11.06.42,3.86,3.68,5.41a6.38,6.38,0,0,1-3.1-5.11h0a25,25,0,0,1,7.31,5.77c-2.39-3.42-7-6.06-9.18-7.15a4.87,4.87,0,0,1,3.07-.92,5.73,5.73,0,0,1,2.79.73,5,5,0,0,0-3-1,7.42,7.42,0,0,0-3.35.93h0a6.13,6.13,0,0,1-1.22-.62,3.93,3.93,0,0,1,1.81-2.33,3.67,3.67,0,0,1,1.87-.47m0-.5a4.13,4.13,0,0,0-2.13.54,4.36,4.36,0,0,0-2,2.67.88.88,0,0,0,0,.23.56.56,0,0,0-.36.12,5.17,5.17,0,0,0-1.54,2.6,4.73,4.73,0,0,0,2.16,4.62,8.53,8.53,0,0,0,5,1.26h1.11l1.19,0a14.71,14.71,0,0,1,5.27.86l1.75.64-1.19-1.43a16.37,16.37,0,0,1-3-5.79c-.66-2-1.28-3.79-3.26-5.3a4.85,4.85,0,0,0-2.94-1Z"/><path class="cls-2" d="M91.41,15.61a4,4,0,0,1-3.26-2.72,8.46,8.46,0,0,1,.3-5.34,14.38,14.38,0,0,0,.72-5.72L89.09.9l.54.76a14.46,14.46,0,0,0,4.28,3.87,8.46,8.46,0,0,1,3.7,3.86,3.93,3.93,0,0,1-.71,4.18,4.21,4.21,0,0,1-2.27,1h0c-.18,0-.46-.28-.76-.66.32.54.36.64.21.79a3.61,3.61,0,0,1-2.44.86Zm2-2.33-.06-.08,0,.06Zm-.87-1.84v0h0Z"/><path class="cls-1" d="M89.42,1.81c3,4.18,6.44,4.05,8,7.67a3.69,3.69,0,0,1-.65,3.91,4.12,4.12,0,0,1-2.13,1h0a9.43,9.43,0,0,1-1.91-2.7c0-.09,1.62-3,0-5.73a5.63,5.63,0,0,1-.32,5.23h0A21.75,21.75,0,0,1,90,3.39c0,3.65,2,7.82,3,9.72,0,0,0,0-.14,0a5.08,5.08,0,0,1-4.18-2.81c1.09,3.07,4.54,3.16,4.56,3.2a5,5,0,0,1,.57,1.06,3.35,3.35,0,0,1-2.26.78h-.2a3.7,3.7,0,0,1-3-2.55c-1.2-3.74,1.5-5.89,1-11M88.75,0l.18,1.85a14.22,14.22,0,0,1-.72,5.64,8.64,8.64,0,0,0-.3,5.47,4.21,4.21,0,0,0,3.49,2.9h.23a3.8,3.8,0,0,0,2.61-.93.67.67,0,0,0,.11-.14.45.45,0,0,0,.25.09,4.6,4.6,0,0,0,2.48-1.13,4.2,4.2,0,0,0,.76-4.46,8.63,8.63,0,0,0-3.8-4,14.09,14.09,0,0,1-4.21-3.8L88.75,0Z"/><path class="cls-2" d="M8.91,58.7a4.05,4.05,0,0,1-2.62-1,8.47,8.47,0,0,1-2.57-4.69,14.25,14.25,0,0,0-2.4-5.24l-.56-.75.86.36a14.52,14.52,0,0,0,5.68,1,8.47,8.47,0,0,1,5.18,1.32,3.93,3.93,0,0,1,1.6,3.92A3.61,3.61,0,0,1,12.46,56l-.05,0h-.06c-.14,0-.2-.05-.54-.42.27.39.44.73.37.89a4.24,4.24,0,0,1-1.69,1.85,3.32,3.32,0,0,1-1.58.36Zm2.36-3.82a.29.29,0,0,1,0-.09l-.08,0ZM9.74,53.51h0l0,0Z"/><path class="cls-1" d="M1.52,47.66c4.73,2,7.6.06,10.81,2.33a3.69,3.69,0,0,1,1.51,3.66,3.41,3.41,0,0,1-1.49,2.12h0a6.69,6.69,0,0,1-.83-.86s.92-3.35-1.68-5.31a4.91,4.91,0,0,1,1.36,5h0C9.71,53,6.33,49.84,2.84,48.73a21.54,21.54,0,0,1,6.72,4.62,3.1,3.1,0,0,1-1.21.17,6,6,0,0,1-3.87-1.44A5.84,5.84,0,0,0,8.85,53.8c.54,0,.93,0,1.06,0H10a9,9,0,0,1,2,2.63,4,4,0,0,1-1.58,1.73,3.12,3.12,0,0,1-1.46.33,3.78,3.78,0,0,1-2.46-.89c-3-2.54-1.83-5.8-4.93-9.9M0,46.48,1.12,48a13.82,13.82,0,0,1,2.36,5.16,8.72,8.72,0,0,0,2.64,4.81,4.33,4.33,0,0,0,2.79,1,3.55,3.55,0,0,0,1.7-.39,4.46,4.46,0,0,0,1.8-2,.46.46,0,0,0,0-.31h.06l.11-.06a4,4,0,0,0,1.74-2.43,4.24,4.24,0,0,0-1.71-4.2,8.65,8.65,0,0,0-5.31-1.36,14.09,14.09,0,0,1-5.59-1L0,46.48Z"/><path class="cls-2" d="M106.41,88.72a11.14,11.14,0,0,0-2.9-3.38A6.62,6.62,0,0,1,101,82a3.09,3.09,0,0,1,1-3.21,3.41,3.41,0,0,1,1.82-.6.71.71,0,0,1,.39.29c0-.17,0-.24.09-.32a2.59,2.59,0,0,1,1.57-.46,2.88,2.88,0,0,1,.59.06,3.12,3.12,0,0,1,2.29,2.45A6.61,6.61,0,0,1,108,84.3a11,11,0,0,0-1.12,4.31l0,.93Z"/><path class="cls-1" d="M105.88,77.93a3.41,3.41,0,0,1,.55,0,2.86,2.86,0,0,1,2.08,2.26c.56,3-1.74,4.38-1.88,8.37-1.87-3.52-4.55-3.76-5.36-6.7a2.85,2.85,0,0,1,.88-2.94,3.22,3.22,0,0,1,1.68-.55h.06a7.4,7.4,0,0,1,1.2,2.26c0,.08-1.54,2.14-.6,4.4a4.33,4.33,0,0,1,.76-4h0a17,17,0,0,1,1.06,6.23,17.61,17.61,0,0,0-1.38-7.78s0,0,0,0a3.91,3.91,0,0,1,3,2.59,4.08,4.08,0,0,0-3.19-2.91,3.68,3.68,0,0,1-.33-.87,2.36,2.36,0,0,1,1.42-.41m0-.5a2.91,2.91,0,0,0-1.73.51s0,0,0,0a.42.42,0,0,0-.2-.06h-.08a3.7,3.7,0,0,0-2,.64,3.34,3.34,0,0,0-1.07,3.49,6.8,6.8,0,0,0,2.56,3.48,11,11,0,0,1,2.84,3.31l.87,1.64.07-1.86a10.7,10.7,0,0,1,1.1-4.22,6.8,6.8,0,0,0,.77-4.25,3.32,3.32,0,0,0-2.48-2.66,3.39,3.39,0,0,0-.64-.06Z"/><path class="cls-2" d="M36.77,67.56a2.73,2.73,0,0,1-1.18-.25,3.51,3.51,0,0,1-1.48-1.48.6.6,0,0,1,.09-.43.28.28,0,0,1-.21.09h-.06l-.06,0a3,3,0,0,1-1.42-1.83,3.28,3.28,0,0,1,1.19-3.32A6.92,6.92,0,0,1,37.86,59,12,12,0,0,0,42.45,58l.84-.39-.53.76A11.83,11.83,0,0,0,41,62.72a7,7,0,0,1-1.93,4A3.37,3.37,0,0,1,36.77,67.56Z"/><path class="cls-1" d="M42.55,58.21c-2.38,3.46-1.31,6.09-3.67,8.28a3.1,3.1,0,0,1-2.11.82,2.57,2.57,0,0,1-1.08-.22,3.39,3.39,0,0,1-1.35-1.36,7.47,7.47,0,0,1,1.53-2.23h.6a4.84,4.84,0,0,0,3.82-1.58A4.82,4.82,0,0,1,37,63.25a1.9,1.9,0,0,1-.78-.1,18,18,0,0,1,5.32-4c-2.81,1-5.46,3.73-6.62,5.08h0a4,4,0,0,1,.94-4.1c-2.06,1.7-1.16,4.37-1.19,4.4a5,5,0,0,1-.64.74h0a2.8,2.8,0,0,1-1.3-1.67,3,3,0,0,1,1.1-3.05c2.54-2,5-.51,8.76-2.3M44,57l-1.68.79a11.51,11.51,0,0,1-4.5,1,7.19,7.19,0,0,0-4.35,1.33,3.51,3.51,0,0,0-1.28,3.59,3.33,3.33,0,0,0,1.57,2l.07,0a.37.37,0,0,0,0,.22,3.78,3.78,0,0,0,1.59,1.6,3.09,3.09,0,0,0,1.29.27,3.6,3.6,0,0,0,2.46-1,7.16,7.16,0,0,0,2-4.08A11.49,11.49,0,0,1,43,58.49L44,57Z"/><path class="cls-2" d="M90.24,67.64A3.36,3.36,0,0,1,88,66.75a7,7,0,0,1-1.94-4,11.86,11.86,0,0,0-1.77-4.36l-.53-.77.84.4a12,12,0,0,0,4.6,1,6.91,6.91,0,0,1,4.21,1.28,3.25,3.25,0,0,1,1.18,3.32,3,3,0,0,1-1.42,1.83l0,0H93a.25.25,0,0,1-.21-.09.62.62,0,0,1,.09.44,3.67,3.67,0,0,1-1.47,1.48A2.81,2.81,0,0,1,90.24,67.64Z"/><path class="cls-1" d="M84.46,58.28c3.8,1.81,6.22.33,8.76,2.31a3,3,0,0,1,1.09,3A2.78,2.78,0,0,1,93,65.31h0a5,5,0,0,1-.65-.73s.88-2.71-1.18-4.41a4,4,0,0,1,.94,4.11h0c-1.16-1.36-3.81-4-6.62-5.08a17.78,17.78,0,0,1,5.32,4,1.9,1.9,0,0,1-.78.1A4.85,4.85,0,0,1,86.72,62a4.84,4.84,0,0,0,3.82,1.58h.6a7.74,7.74,0,0,1,1.53,2.22,3.27,3.27,0,0,1-1.35,1.36,2.42,2.42,0,0,1-1.08.23,3.08,3.08,0,0,1-2.11-.83c-2.36-2.19-1.29-4.81-3.67-8.28M83,57,84,58.57a11.36,11.36,0,0,1,1.74,4.28,7.11,7.11,0,0,0,2,4.08,3.56,3.56,0,0,0,2.45,1,3,3,0,0,0,1.3-.28A3.78,3.78,0,0,0,93.12,66a.51.51,0,0,0,0-.22l.07,0a3.23,3.23,0,0,0,1.56-2,3.46,3.46,0,0,0-1.27-3.59,7.18,7.18,0,0,0-4.34-1.33,11.41,11.41,0,0,1-4.51-1L83,57Z"/><path class="cls-2" d="M57.66,16.29a2.09,2.09,0,0,1-.86-.17.26.26,0,0,1-.15-.19.5.5,0,0,1-.22.25,2.78,2.78,0,0,1-.69.08,3.13,3.13,0,0,1-1.2-.22,3,3,0,0,1-1.61-2.78A6.29,6.29,0,0,1,54.5,9.61a10.55,10.55,0,0,0,2-3.76l.24-.9.24.9a10.66,10.66,0,0,0,2,3.75,6.28,6.28,0,0,1,1.59,3.64A3,3,0,0,1,58.91,16,3.19,3.19,0,0,1,57.66,16.29Z"/><path class="cls-1" d="M56.69,5.91c1,3.66,3.43,4.45,3.56,7.34a2.71,2.71,0,0,1-1.44,2.54,2.9,2.9,0,0,1-1.15.25,1.76,1.76,0,0,1-.75-.15A3.6,3.6,0,0,1,57,15a3.9,3.9,0,0,0,2.32-3.39,3.64,3.64,0,0,1-2.26,3.05h0a16.76,16.76,0,0,0-.4-7.51,16.1,16.1,0,0,1,.36,6h0a4.16,4.16,0,0,1-1.57-3.53C55.1,11.94,57,13.5,57,13.58a7,7,0,0,1-.63,2.36,2.79,2.79,0,0,1-.62.07,3,3,0,0,1-1.1-.2,2.72,2.72,0,0,1-1.46-2.54c.12-2.9,2.54-3.7,3.51-7.36m0-1.93-.48,1.8A10.23,10.23,0,0,1,54.3,9.46a6.51,6.51,0,0,0-1.62,3.79,3.2,3.2,0,0,0,1.76,3,3.46,3.46,0,0,0,1.3.24,2.93,2.93,0,0,0,.76-.09.4.4,0,0,0,.17-.09h0a2.28,2.28,0,0,0,1,.21A3.52,3.52,0,0,0,59,16.25a3.19,3.19,0,0,0,1.74-3,6.53,6.53,0,0,0-1.64-3.78,10.28,10.28,0,0,1-1.93-3.67L56.69,4Z"/><path class="cls-2" d="M68.75,31.14a3.44,3.44,0,0,1-2-.59,7.36,7.36,0,0,1-2.72-3.79,12.53,12.53,0,0,0-2.61-4.27l-.65-.67.89.26a10.81,10.81,0,0,0,3,.41c.72,0,1.37-.06,2-.12s1.14-.1,1.7-.1a5.73,5.73,0,0,1,2.93.71,3.45,3.45,0,0,1,1.82,3.26A3.24,3.24,0,0,1,72,28.39l-.07,0h-.08a.37.37,0,0,1-.25-.11c.16.22.25.4.22.51a3.77,3.77,0,0,1-1.29,1.79,3.06,3.06,0,0,1-1.77.52Z"/><path class="cls-1" d="M61.65,22.32a11.13,11.13,0,0,0,3.06.42c1.39,0,2.56-.22,3.7-.22a5.54,5.54,0,0,1,2.81.68,3.19,3.19,0,0,1,1.69,3,3,3,0,0,1-1.06,2h0a5.88,5.88,0,0,1-.8-.65s.44-3-2-4.41a4.29,4.29,0,0,1,1.7,4.14h0C69.27,26,66,23.69,62.9,23.09a19,19,0,0,1,6.28,3.29,3.47,3.47,0,0,1-1.65.31,5.17,5.17,0,0,1-2.87-.87A4.72,4.72,0,0,0,67.8,26.9a9.35,9.35,0,0,0,1.75-.21h0a7.89,7.89,0,0,1,2,2.07,3.49,3.49,0,0,1-1.18,1.66,2.88,2.88,0,0,1-1.63.47,3.3,3.3,0,0,1-1.81-.54c-2.86-1.88-2.19-4.82-5.29-8m-1.66-1,1.3,1.33a12.23,12.23,0,0,1,2.56,4.2,7.61,7.61,0,0,0,2.81,3.9,3.77,3.77,0,0,0,2.09.63,3.42,3.42,0,0,0,1.92-.56,4,4,0,0,0,1.38-1.94.46.46,0,0,0,0-.23l.1-.07a3.48,3.48,0,0,0,1.27-2.32,3.71,3.71,0,0,0-2-3.51,6,6,0,0,0-3-.74c-.57,0-1.13.05-1.72.1s-1.28.12-2,.12a10.37,10.37,0,0,1-2.93-.41L60,21.33Z"/><path class="cls-2" d="M64.32,73.1a12.61,12.61,0,0,0,1.27-4.85,7.4,7.4,0,0,1,1.49-4.42,3.58,3.58,0,0,1,2.71-1.28,2.86,2.86,0,0,1,.85.13,3.13,3.13,0,0,1,1.88,1.57c.06.14,0,.21-.13.37a1,1,0,0,1,.39-.14h.06l.08,0a3.71,3.71,0,0,1,1.51,1.6,3.47,3.47,0,0,1-.79,3.64,7.42,7.42,0,0,1-4.26,1.93,12.54,12.54,0,0,0-4.7,1.74l-.78.5Z"/><path class="cls-1" d="M69.79,62.8a2.35,2.35,0,0,1,.77.12,2.93,2.93,0,0,1,1.73,1.42,4.48,4.48,0,0,1-.8.67h0a6.39,6.39,0,0,0-1.62-.23,4,4,0,0,0-3.1,1.34,4.44,4.44,0,0,1,3-1.13,2.8,2.8,0,0,1,1.43.28c-1.48,1.18-4.42,3.92-5.62,6.87A18.92,18.92,0,0,1,70,66.61h0a4.9,4.9,0,0,1-1.44,4.33c2.16-1.71,1.75-4.59,1.82-4.65a8.88,8.88,0,0,1,2.39-1.56h0a3.41,3.41,0,0,1,1.4,1.48,3.21,3.21,0,0,1-.74,3.37c-2.4,2.43-5.15,1.21-8.91,3.63,2-4,.54-6.6,2.73-9.23a3.28,3.28,0,0,1,2.51-1.19m0-.5h0a3.79,3.79,0,0,0-2.9,1.37,7.56,7.56,0,0,0-1.55,4.56A12.14,12.14,0,0,1,64.1,73l-.85,1.65,1.57-1a12.16,12.16,0,0,1,4.61-1.71,7.64,7.64,0,0,0,4.39-2A3.69,3.69,0,0,0,74.66,66,4,4,0,0,0,73,64.29l-.11-.05h-.14a.14.14,0,0,0,0-.06,3.46,3.46,0,0,0-2-1.73,3,3,0,0,0-.93-.14Z"/><path class="cls-2" d="M83.77,110.8a11.13,11.13,0,0,0-4.23-1.06,6.43,6.43,0,0,1-3.89-1.27,3.07,3.07,0,0,1-1-3.12,3.26,3.26,0,0,1,1.17-1.55l.07,0H76l.18,0a.21.21,0,0,1,0-.24,2.82,2.82,0,0,1,1.5-1.55,2.49,2.49,0,0,1,1-.21,3.19,3.19,0,0,1,2.18.87,6.44,6.44,0,0,1,1.72,3.71,11,11,0,0,0,1.55,4.08l.52.77Z"/><path class="cls-1" d="M78.64,102a2.88,2.88,0,0,1,2,.8c2.15,2.08,1.1,4.49,3.25,7.75-3.49-1.74-5.77-.42-8.08-2.3a2.81,2.81,0,0,1-1-2.86A3,3,0,0,1,75.92,104h0a8,8,0,0,1,2.22,1.13,5,5,0,0,0,2,3.85,4.21,4.21,0,0,1-1.65-3.61h0a16.67,16.67,0,0,1,4.38,4.37,17.26,17.26,0,0,0-5.52-5.43,3,3,0,0,1,1.65-.39,3.76,3.76,0,0,1,2.24.72,3.37,3.37,0,0,0-2.35-.9,5.18,5.18,0,0,0-1.84.38h0a5,5,0,0,1-.76-.5,2.58,2.58,0,0,1,1.37-1.41,2.25,2.25,0,0,1,.94-.18m0-.5a2.81,2.81,0,0,0-1.15.23,3.08,3.08,0,0,0-1.64,1.72v0h0l-.16.09a3.58,3.58,0,0,0-1.27,1.68,3.29,3.29,0,0,0,1.13,3.4,6.68,6.68,0,0,0,4,1.32,10.67,10.67,0,0,1,4.14,1l1.67.83-1-1.55a10.57,10.57,0,0,1-1.51-4,6.72,6.72,0,0,0-1.8-3.84,3.41,3.41,0,0,0-2.35-.94Z"/><path class="cls-2" d="M36.92,50.3a2.88,2.88,0,0,1-1.85-.67,5.85,5.85,0,0,1-1.81-3.27,9.92,9.92,0,0,0-1.68-3.59L31,42l.86.36a9.89,9.89,0,0,0,3.9.68,5.91,5.91,0,0,1,3.63.91,2.8,2.8,0,0,1,1.16,2.79,2.62,2.62,0,0,1-1.15,1.63l-.05,0h-.15a.37.37,0,0,1,0,.28A3,3,0,0,1,38.07,50a2.47,2.47,0,0,1-1.15.27Z"/><path class="cls-1" d="M31.78,42.62c3.28,1.35,5.26,0,7.49,1.56a2.57,2.57,0,0,1,1.06,2.53,2.34,2.34,0,0,1-1,1.46h0a8,8,0,0,1-.57-.6,3.65,3.65,0,0,0-1.19-3.66,3.39,3.39,0,0,1,1,3.42h0a15.64,15.64,0,0,0-5.8-4,15.32,15.32,0,0,1,4.67,3.17,2.13,2.13,0,0,1-.86.12,4.09,4.09,0,0,1-2.66-1,4,4,0,0,0,3,1.18c.4,0,.69,0,.77,0h0A6,6,0,0,1,39,48.61,2.81,2.81,0,0,1,38,49.81a2.18,2.18,0,0,1-1,.24,2.65,2.65,0,0,1-1.69-.61c-2.08-1.75-1.29-4-3.45-6.82m-1.53-1.17,1.14,1.47A9.65,9.65,0,0,1,33,46.43a6.09,6.09,0,0,0,1.89,3.39,3.12,3.12,0,0,0,2,.73,2.6,2.6,0,0,0,1.27-.31,3.28,3.28,0,0,0,1.31-1.45.58.58,0,0,0,0-.17h0a2.84,2.84,0,0,0,1.27-1.79,3,3,0,0,0-1.26-3.06,6.11,6.11,0,0,0-3.76-1A9.63,9.63,0,0,1,32,42.15l-1.72-.7Z"/><path class="cls-2" d="M76.57,91.39a10,10,0,0,0-.81-3.21,6.53,6.53,0,0,1-.55-4.43,3.07,3.07,0,0,1,2.43-2.22h.23a3.36,3.36,0,0,1,1.67.46.51.51,0,0,1,.14.33.22.22,0,0,1,.2-.16h.21a3,3,0,0,1,1.83.76,3,3,0,0,1,.7,3.21,6.31,6.31,0,0,1-3,3.19A10.48,10.48,0,0,0,77,91.53l-.41.53Z"/><path class="cls-1" d="M77.87,81.77a3.08,3.08,0,0,1,1.53.42,7.17,7.17,0,0,1-.12,2.5c0,.08-2.36,1-2.71,3.4a4.31,4.31,0,0,1,2.63-3h0A16.28,16.28,0,0,1,77,90.89a17.2,17.2,0,0,0,2.72-7.23h0A3.75,3.75,0,0,1,81,87.34a4,4,0,0,0-1.23-4,3.92,3.92,0,0,1,.16-.9h.17a2.74,2.74,0,0,1,1.66.69,2.78,2.78,0,0,1,.63,3c-1,2.8-3.59,2.85-5.56,5.35-.13-3-2.16-4.69-1.37-7.57a2.78,2.78,0,0,1,2.22-2h.2m0-.5h-.25A3.27,3.27,0,0,0,75,83.68a6.85,6.85,0,0,0,.56,4.59,9.86,9.86,0,0,1,.79,3.13l.06,1.34.83-1a9.7,9.7,0,0,1,2.59-2.18,6.41,6.41,0,0,0,3-3.31,3.29,3.29,0,0,0-.77-3.49,3.14,3.14,0,0,0-2-.82h-.28a.61.61,0,0,0-.13-.14,3.6,3.6,0,0,0-1.81-.5Z"/><path class="cls-2" d="M42.11,84.13a9.68,9.68,0,0,1-3.79-1,14,14,0,0,0-5.39-1.3l-.93,0,.82-.45A13.79,13.79,0,0,0,37,77.7a8.08,8.08,0,0,1,4.08-3.12,4,4,0,0,1,1.09-.15A3.72,3.72,0,0,1,45,75.7a3.52,3.52,0,0,1,.76,2.58c0,.18-.12.22-.55.26.64,0,.71.17.75.24a4.28,4.28,0,0,1,.4,2.39,3.81,3.81,0,0,1-3,2.83,6.32,6.32,0,0,1-1.28.13Zm2-5.62h0Z"/><path class="cls-1" d="M42.14,74.68a3.42,3.42,0,0,1,2.64,1.18,3.28,3.28,0,0,1,.71,2.38,6.06,6.06,0,0,1-1.14.11h0a5.44,5.44,0,0,0-3.88-2,4.07,4.07,0,0,0-1.12.15,5.6,5.6,0,0,1,.69,0,4.59,4.59,0,0,1,3.85,2c-2.08.18-6.45.87-9.36,2.83A20.87,20.87,0,0,1,42,78.9h0A5.34,5.34,0,0,1,38,82c3-.23,4.42-3.12,4.52-3.13.67-.06,1.27-.09,1.76-.09a3.42,3.42,0,0,1,1.41.15,3.88,3.88,0,0,1,.37,2.22,3.5,3.5,0,0,1-2.75,2.62,6.13,6.13,0,0,1-1.23.13c-2.93,0-4.82-2.2-9.17-2.29,4.31-2.39,4.56-5.71,8.18-6.77a3.68,3.68,0,0,1,1-.14m0-.5v0a4.16,4.16,0,0,0-1.16.16,8.31,8.31,0,0,0-4.2,3.2,13.51,13.51,0,0,1-4.08,3.61l-1.63.9,1.86,0a13.38,13.38,0,0,1,5.29,1.29,10.08,10.08,0,0,0,3.89,1,6.14,6.14,0,0,0,1.33-.14,4,4,0,0,0,3.14-3,4.3,4.3,0,0,0-.42-2.55.47.47,0,0,0-.21-.21.56.56,0,0,0,0-.12,3.84,3.84,0,0,0-.81-2.78,4,4,0,0,0-3-1.37Z"/></g></g></svg>