<svg xmlns="http://www.w3.org/2000/svg" viewBox="0 0 126.69 148.21"><defs><style>.cls-1{fill:#b3c757;}.cls-2{fill:#693b94;}</style></defs><title>Asset 13</title><g id="Layer_2" data-name="Layer 2"><g id="Layer_3" data-name="Layer 3"><path class="cls-1" d="M117.84,53.43l.09-.56c-1.81,3.23-6.23,4.93-10.26,4.3a7.12,7.12,0,0,0,.77-6.35,6,6,0,0,1-2.75,5.88A8.56,8.56,0,0,1,101.37,53c4-2.66,4.3-6.6.51-9.93,2.71-3.4,9.92-3.46,12.06-.19-.87-2.68-4-4.46-6.1-4.65a7,7,0,0,0,0-8.56A6.5,6.5,0,0,1,104.73,38a7.39,7.39,0,0,0-6.24-2.63,7,7,0,0,1,4.81,3.15,12,12,0,0,0-3.72,2.79c-3.56-3.49-19.25-5.49-14.85-12,2.84-2.95,7-6.05,10.89-2.64A7.59,7.59,0,0,0,92.14,24c6.42-2.61,9-2.21,9.91.71.06-3.91-4.75-4.48-6.78-4a6.26,6.26,0,0,0-3.09-7.29c5.18,6.77-3.54,8.45-7.71,12.12a17.69,17.69,0,0,0-3.23-2.07c-1-1.77-1.91-5.25-.42-7.59a7.91,7.91,0,0,0-2,6.39c-3.45-1.74-8.83-2.48-9-7.38A8,8,0,0,0,70,18.47a46.81,46.81,0,0,1-5.3-2.56c1.68-2.54,1-5.63-.88-7.9,2.52-2.39,7.41-2.79,12.37-1.85-1.59-1.75-10.92-3.61-14,.29a8.75,8.75,0,0,0-2.77-1.37,4.75,4.75,0,0,1,2-3.53,5.75,5.75,0,0,0-3.26,3.23c-3.84-1-9,1.61-9.33,2,4.58-.94,9.44-.48,11.84,1.38a6.3,6.3,0,0,0,.23,8,28.51,28.51,0,0,1-4.22,2.21,8.45,8.45,0,0,0,.1-3.29c.09,4.48-5.25,5.35-8.58,7a8,8,0,0,0-2.07-6.2C47.53,18,47,21,46,23a33,33,0,0,0-3.84,2c-3.93-3.21-12.43-5.22-7.28-11.71a6.27,6.27,0,0,0-3.09,7.3c-2-.46-6.84.11-6.78,4,.91-2.91,3.5-3.31,9.91-.7a7.54,7.54,0,0,0-3.47,2.61c4-4.11,10.46,1.17,11.78,4.25C42.94,36.55,32,37.46,27.42,41.23a11.84,11.84,0,0,0-3.71-2.78,7,7,0,0,1,4.81-3.16,7.37,7.37,0,0,0-6.24,2.64,6.5,6.5,0,0,1-3.13-8.37,7,7,0,0,0,0,8.56c-2.05.19-5.23,2-6.1,4.66,2.13-3.27,9.36-3.22,12.06.19-3.76,3.32-3.53,7.27.5,9.93a8.57,8.57,0,0,1-4.32,3.73,6,6,0,0,1-2.74-5.89,7.12,7.12,0,0,0,.77,6.35c-4.05.63-8.45-1.07-10.26-4.3a7.19,7.19,0,0,0,4.78,6.3A6.93,6.93,0,0,0,11.64,66C13,57.79,25.17,61.82,28.17,54.3c5.4,2.7,10.84,2.4,16.3,5.35a8.05,8.05,0,0,0,2.68,4c-1.3,3.93-8.14,10-13.23,7.82a6.06,6.06,0,0,1,1.83-6.32,7.16,7.16,0,0,0-3.69,5.67c-3.21-1.72-5.37-4.28-5.46-7.43a7.27,7.27,0,0,0,.31,5.15c-.93-.08-2.64.74-3.84,1.2,4.38-1.06,7.05,4,10.91,4.69a36,36,0,0,0-3.11,1.87c-7.52-5.81-15,4.67-21.09-3.57A7.93,7.93,0,0,0,16,78.19c-1.31,1.16-3.22,5.2-1.89,8.51-.47-3.37,2.33-6.5,5.14-8.31h.1v-.06a8.39,8.39,0,0,1,4.91-1.49,6.94,6.94,0,0,0-2.15,4.84,5.84,5.84,0,0,1,4.77-4.4,13,13,0,0,1,1.79.7C24.41,82,26,86.11,31,89.18c-2.4,3-7,6.16-12.3,3.13a8,8,0,0,0,8.75,2.16,8.6,8.6,0,0,0,2.16,8c-2.22-5.61.25-8.67,3.63-12.08,4.26,2,7.49,2.59,11.57,4.32-2.55,3.15-.69,6.83,2.27,9-3.48-.23-7.19-.81-8.58-3.48,1,5.59,8.49,6.26,11.87,5.65,2.63,1.44,3.66,1.9,5.75,4.71.13,2.47-.65,25.42-4.86,37.6H73.4a83.94,83.94,0,0,1-3-12.2c-1.83-14.83-5.61-24.88,6.34-30.09,3.35.64,10.86-.25,11.75-5.67-1.38,2.64-5,3.24-8.48,3.47,2.91-2.19,4.69-5.83,2.16-8.93,4.06-1.72,7.37-2.29,11.58-4.33,3.39,3.42,5.84,6.49,3.62,12.09a8.58,8.58,0,0,0,2.17-8,8,8,0,0,0,8.75-2.16c-5.29,3-9.9-.12-12.3-3.14,5-3.06,6.56-7.22,2.28-11.2a11.8,11.8,0,0,1,1.79-.69,5.84,5.84,0,0,1,4.77,4.4,6.92,6.92,0,0,0-2.15-4.84,8.25,8.25,0,0,1,4.91,1.49v.06h.1c2.8,1.79,5.61,4.93,5.14,8.3,1.33-3.31-.58-7.34-1.89-8.5a7.93,7.93,0,0,0,6.24-5.5c-6.12,8.24-13.57-2.24-21.09,3.56-.87-.59-1.84-1.17-3.11-1.86,3.86-.69,6.54-5.76,10.91-4.69-1.19-.45-2.87-1.27-3.84-1.21a7.26,7.26,0,0,0,.32-5.15c-.09,3.14-2.27,5.73-5.47,7.44a7.16,7.16,0,0,0-3.68-5.67,6.08,6.08,0,0,1,1.82,6.32c-3.9,1.95-9-2.37-11.25-4.25h0A7.61,7.61,0,0,1,80,64.7c2.58-1.87,3.92-3.78,4.1-5.82,4.88-1.86,10-2.23,14.71-4.5,3,7.5,15.19,3.51,16.53,11.7a6.94,6.94,0,0,0-2.22-6.92A7,7,0,0,0,117.84,53.43ZM26.89,50.27c-2.06-1.53-2-3-.07-4.94C27.74,47.09,27.45,48.37,26.89,50.27ZM62.41,10.13c.82,2,1.2,2.77.37,4.3C61.44,12.88,61.75,12.18,62.41,10.13ZM32.25,86.57c-3.41-2.26-4.4-4.18-1.19-6.85a7.84,7.84,0,0,1,1.41,3.81A13.39,13.39,0,0,1,32.25,86.57Zm8.84,3.74a47.33,47.33,0,0,1-6.57-2.51c.86-3.53.82-6.17-1.4-9.56,4.19-2.54,9.38-4.8,12.6-7.67l0,0a25.38,25.38,0,0,0,3.85-5.17c3.74,2,6.34,3.73,8.78,7.58-6.79-1.61-8.88,6.46-14.85,6.72,1.2.26,2.93.8,3.84.61a7,7,0,0,0,.45,5c-.38-3,1.32-5.77,4.12-7.86a6.87,6.87,0,0,0,4.34,4.87,5.83,5.83,0,0,1-2.66-5.75,13.1,13.1,0,0,1,5.94-1.26C61,79.14,61,81.47,61.05,86c-4.57,2.47-9.22,3.36-14,6.56A38.52,38.52,0,0,0,41.09,90.31ZM61.74,53.47a5.56,5.56,0,0,0,2.24.58c-.77,1.73-2,3.6-2,5.74-4.93.63-8.23-5.64-13.49-3.66,5.14-4,10.54-4.56,15.74-7.75a33.92,33.92,0,0,0,3.18,1.67c-2.14,1.6-4,3.6-6.84,3Zm-10.83,5a6.37,6.37,0,0,0,0,4.35c-.43-.28-.77-.52-1.08-.76A7.37,7.37,0,0,0,48,58.88,8.63,8.63,0,0,1,50.91,58.47Zm29.64,39.6c-1.73,5.6-9.43,6-13,11.51-2.32-4.84-7.15-4.91-9.84-1.54C55,103.65,47.37,102.85,46.45,98c2.38-5.88,12.14-6.42,17-10a43.91,43.91,0,0,0,5.71,2.78c-3,1.06-5,4.79-8.64,3.92a11.67,11.67,0,0,0,3.42,1c-1,2.14-2.66,4.74-1.76,7.36.56-4.32,4-9.71,9.3-10.32a5.26,5.26,0,0,1,.1,5.57,6.33,6.33,0,0,0,1.54-5.63C77.12,93.39,80.84,96.66,80.55,98.07ZM96,79.8c3.21,2.67,2.22,4.59-1.19,6.85a14.15,14.15,0,0,1-.22-3.18A8.26,8.26,0,0,1,96,79.8ZM86.22,74v0c2.73,1.69,4.82,2.52,7.66,4.3-2.22,3.41-2.26,6-1.4,9.56-4.72,2.29-8,2.55-12.53,4.8-5.08-3.38-9.17-3.82-14.11-6.89.48-5,.27-6.72,1.91-9.94a9.5,9.5,0,0,1,5.85.71A5.83,5.83,0,0,1,71,82.33a6.88,6.88,0,0,0,4.34-4.89c2.76,2.09,4.48,4.69,4.13,7.86a7,7,0,0,0,.45-5c.88.2,2.65-.35,3.84-.61C78,79.68,76,71.89,69.71,73a19.91,19.91,0,0,1,7.87-6.71,10.93,10.93,0,0,0,2,2.77l0,0A77.69,77.69,0,0,0,86.22,74ZM77,63.26c-6.63,2.73-12.51,9-13.37,16.62-1-7.3-6.16-14.08-12.2-16.73a5.42,5.42,0,0,1,1.23-4.44c3.7.84,6.44,3.54,6.71,6.81A6.38,6.38,0,0,0,58.93,61a10.16,10.16,0,0,0,3-1.09,7.83,7.83,0,0,0,.26,1.51c.45-3.88,3.58-9,8.14-10.07,3.15,1.45,8.33,2.8,10.58,6A7.94,7.94,0,0,0,77,63.26ZM83.5,56c-1.23-2.23-4-3.84-6.37-5,3.73.37,5.75,2.36,8.35,4.28A20.11,20.11,0,0,0,83.5,56Zm14.06-4.22c-2.35.84-6.91,3.23-10.11,1.87a5.2,5.2,0,0,1,1.93-5.35A6.2,6.2,0,0,0,85.88,53c-2.68-1.61-4.32-3.86-4.26-6.56a6.06,6.06,0,0,0,.23,4.79,28.16,28.16,0,0,0-4.76-.44l0,.23c-.41-.2-8-3.45-9.18-4.09l.05-.17c-4.74-2.08-12.81-8.59-10-14.6a5.71,5.71,0,0,0-1.76,3.7A11.29,11.29,0,0,0,53,35.28c4.21,1.54,5,8.56,9.34,10.87-5.59,3.48-13.93,4-17.62,10.32a18.82,18.82,0,0,0-3.17-1.22C44.13,53.31,46.2,51.33,50,51l0-.25a29.25,29.25,0,0,0-4.76.44,6,6,0,0,0,.23-4.78c.07,2.7-1.59,5-4.26,6.55a6.19,6.19,0,0,0-3.49-4.69,5.22,5.22,0,0,1,1.92,5.35c-3.22,1.36-7.77-1-10.11-1.87,1-3,1.32-5.35-.31-8.14,5.26-4,22.66-6.5,14.92-16.34A4.23,4.23,0,0,1,49.15,27a7.74,7.74,0,0,0-2-1.33c5.37-2.59,11-4.11,15.79-7.76,6.39,4.26,12.82,5.41,19.46,9.73A5.65,5.65,0,0,0,81,30.76c-3.11-1.8-7.94.59-10.57-2.57a12,12,0,0,0,2.11,2.9,6.38,6.38,0,0,0-2.89,3.52c2.38-2.95,6.86-3.42,10.68-1.32a5.27,5.27,0,0,1-3.3,4.5,6.34,6.34,0,0,0,4.64-3.55c3.71,5.13,11.54,6,16.24,9.4C96.24,46.43,96.51,48.8,97.56,51.79Zm2.56-1.43c-.57-1.91-.85-3.19.07-5C102.17,47.32,102.18,48.82,100.12,50.36Z"/><path class="cls-2" d="M11.35,94.88a14.54,14.54,0,0,0-1.5-5.57,8.51,8.51,0,0,1-1-5.25,3.92,3.92,0,0,1,2.86-3.13,4.17,4.17,0,0,1,.8-.08,3.27,3.27,0,0,1,1.95.56c.16.13.15.22-.08.77.25-.41.48-.71.66-.72h.12a4.35,4.35,0,0,1,2.27.74,3.94,3.94,0,0,1,1.27,4,8.49,8.49,0,0,1-3.15,4.32A14.61,14.61,0,0,0,11.82,95l-.43.83Zm2-9.95,0,0v0Zm.53-1.9,0,0L14,83l-.09,0Z"/><path class="cls-1" d="M12.49,81.1a3.08,3.08,0,0,1,1.8.51,5.83,5.83,0,0,1-.43,1.12s-3.41.6-4.07,3.8a5,5,0,0,1,3.85-3.37s0,0,0,0c-.8,2-2.18,6.43-1.7,10a22,22,0,0,1,1.3-8h0a5.68,5.68,0,0,1,1,5.14c1.18-2.93-.87-5.57-.82-5.67A9.11,9.11,0,0,1,15,81.71h.12a4,4,0,0,1,2.12.69,3.67,3.67,0,0,1,1.18,3.78c-1,3.8-4.47,4.14-6.84,8.69C11.37,89.74,8.39,88,9.08,84.11a3.68,3.68,0,0,1,2.66-2.94,3.67,3.67,0,0,1,.75-.07m0-.5h0a4.71,4.71,0,0,0-.85.08A4.17,4.17,0,0,0,8.59,84a8.62,8.62,0,0,0,1,5.39,13.88,13.88,0,0,1,1.48,5.48l.08,1.86L12,95.1a14,14,0,0,1,3.66-4.34,8.74,8.74,0,0,0,3.22-4.45A4.21,4.21,0,0,0,17.55,82a4.54,4.54,0,0,0-2.41-.78H15a.61.61,0,0,0-.28.12.43.43,0,0,0-.12-.11,3.47,3.47,0,0,0-2.1-.62Z"/><path class="cls-2" d="M106.13,99.75a4,4,0,0,1-3.59-2.27,4.3,4.3,0,0,1-.08-2.51c.05-.16.4-.31.86-.44l-.47,0h-.16l-.14-.17a3.67,3.67,0,0,1,.24-2.78,3.93,3.93,0,0,1,3.43-2h.34a8.43,8.43,0,0,1,4.8,2.34,14.51,14.51,0,0,0,5,2.88l.89.28-.91.2a14.51,14.51,0,0,0-5.22,2.45,8.45,8.45,0,0,1-5,1.93Zm-1.95-5.41h0v0A.05.05,0,0,1,104.18,94.34Zm2-.07v0h0Z"/><path class="cls-1" d="M106.22,89.91h.32c3.91.34,4.85,3.67,9.75,5.21-5,1.12-6.23,4.37-10.16,4.37h0a3.67,3.67,0,0,1-3.35-2.11,4.09,4.09,0,0,1-.09-2.34,9.13,9.13,0,0,1,3.23-.72h0c.1,0,1.86,2.29,4.63,2.29a4.54,4.54,0,0,0,.63,0h0a5.58,5.58,0,0,1-4.66-2.31c.56,0,1.2-.07,1.88-.07a19.81,19.81,0,0,1,6.23.88A18.76,18.76,0,0,0,107.68,94a27.12,27.12,0,0,0-3.23.18h0a4.87,4.87,0,0,1,4.24-2.9h-.27c-3.07,0-4.4,3-4.44,3-.58.07-1,.13-1.13.13s-.06,0-.07,0a3.4,3.4,0,0,1,.24-2.57,3.66,3.66,0,0,1,3.2-1.83m0-.5a4.17,4.17,0,0,0-3.65,2.11,3.9,3.9,0,0,0-.25,3,.56.56,0,0,0,.1.15.51.51,0,0,0-.2.25,4.44,4.44,0,0,0,.09,2.67,4.2,4.2,0,0,0,3.82,2.43,8.67,8.67,0,0,0,5.13-2,14.14,14.14,0,0,1,5.14-2.41l1.81-.41-1.77-.56a13.93,13.93,0,0,1-4.92-2.84,8.71,8.71,0,0,0-4.94-2.39Z"/><path class="cls-2" d="M27.06,109.46a14.46,14.46,0,0,0-2.36-5.27,8.41,8.41,0,0,1-1.83-5,3.9,3.9,0,0,1,2.33-3.55,4.3,4.3,0,0,1,1.43-.25,2.87,2.87,0,0,1,1.36.3c.18.1.18.19,0,.77.17-.44.35-.78.52-.82a2.94,2.94,0,0,1,.62,0A4.4,4.4,0,0,1,31,96a3.94,3.94,0,0,1,1.89,3.8,8.52,8.52,0,0,1-2.42,4.77,14.34,14.34,0,0,0-3,4.94l-.3.88Zm.41-10.14,0,0v0h0Zm.25-1.94,0-.09-.08,0Z"/><path class="cls-1" d="M26.63,95.63a2.58,2.58,0,0,1,1.24.27,5.8,5.8,0,0,1-.24,1.17s-3.28,1.13-3.43,4.39a5,5,0,0,1,3.3-3.93h0c-.47,2.13-1.14,6.69-.09,10.19a21.64,21.64,0,0,1,0-8.15h0a5.64,5.64,0,0,1,1.82,4.91c.7-3.08-1.73-5.36-1.71-5.47a9.28,9.28,0,0,1,1.05-3.13,2.43,2.43,0,0,1,.56,0,4.3,4.3,0,0,1,1.76.37,3.7,3.7,0,0,1,1.75,3.56c-.4,3.91-3.75,4.78-5.38,9.65-1-5-4.25-6.3-4.18-10.23a3.64,3.64,0,0,1,2.16-3.31,3.88,3.88,0,0,1,1.35-.24m0-.5h0a4.35,4.35,0,0,0-1.52.27,4.18,4.18,0,0,0-2.49,3.77,8.64,8.64,0,0,0,1.87,5.16,14.09,14.09,0,0,1,2.32,5.18l.37,1.82.59-1.76a14,14,0,0,1,2.93-4.86,8.72,8.72,0,0,0,2.48-4.9,4.19,4.19,0,0,0-2-4,4.58,4.58,0,0,0-2-.43,3.48,3.48,0,0,0-.67.06.53.53,0,0,0-.25.17l-.13-.09a3,3,0,0,0-1.49-.34Z"/><path class="cls-2" d="M125,68.62a11,11,0,0,0-2.9-.38,20.61,20.61,0,0,0-2.31.16,15.82,15.82,0,0,1-1.92.15,6,6,0,0,1-2.89-.69A3.58,3.58,0,0,1,113,64.52a3.27,3.27,0,0,1,1.17-2.25l.07-.05h.08c.09,0,.15,0,.31.15-.19-.24-.31-.44-.27-.56a3.84,3.84,0,0,1,1.29-1.89,3.23,3.23,0,0,1,1.89-.56,3.64,3.64,0,0,1,2,.56,7.71,7.71,0,0,1,2.89,3.89,13,13,0,0,0,2.8,4.39l.66.66Z"/><path class="cls-1" d="M117.54,59.61a3.46,3.46,0,0,1,1.84.52c3,1.9,2.36,5,5.64,8.25a11.06,11.06,0,0,0-3-.39c-1.6,0-2.92.31-4.22.31a5.78,5.78,0,0,1-2.79-.66,3.32,3.32,0,0,1-1.8-3.09,3.08,3.08,0,0,1,1.07-2.08h0a5.84,5.84,0,0,1,.85.67s-.41,3.11,2.17,4.54a4.42,4.42,0,0,1-1.84-4.27h0c1.53,1.24,5,3.62,8.2,4.19a19.76,19.76,0,0,1-6.58-3.31,3.9,3.9,0,0,1,1.8-.35,5.3,5.3,0,0,1,2.9.86,4.89,4.89,0,0,0-3.17-1.07,9.66,9.66,0,0,0-1.93.25h0a8.59,8.59,0,0,1-2.11-2.11,3.58,3.58,0,0,1,1.2-1.75,3,3,0,0,1,1.74-.51m0-.5a3.49,3.49,0,0,0-2,.61,4.12,4.12,0,0,0-1.39,2,.56.56,0,0,0,0,.25l-.1.07a3.51,3.51,0,0,0-1.28,2.42,3.83,3.83,0,0,0,2.07,3.59,6.29,6.29,0,0,0,3,.72,16.31,16.31,0,0,0,1.94-.15,20.06,20.06,0,0,1,2.28-.16,10.83,10.83,0,0,1,2.83.37l1.8.48L125.37,68a12.7,12.7,0,0,1-2.74-4.31,7.89,7.89,0,0,0-3-4,3.86,3.86,0,0,0-2.1-.6Z"/><path class="cls-2" d="M123.74,49a15,15,0,0,0-5.36-.88l-1.2,0-1.1,0A8.34,8.34,0,0,1,111.22,47a4.45,4.45,0,0,1-2-4.36,4.92,4.92,0,0,1,1.44-2.45l.07-.06h.16a5.52,5.52,0,0,1,1.49.41l-.24-.11c-1-.45-1.06-.49-1-.72A4.15,4.15,0,0,1,113,37.16a3.83,3.83,0,0,1,2-.51,4.58,4.58,0,0,1,2.79.94c1.91,1.46,2.5,3.19,3.18,5.18a16.36,16.36,0,0,0,3,5.87l.6.71Zm-9.08-7.13,0-.18-.1,0S114.66,41.89,114.66,41.91Zm-1.91-1.25a1.8,1.8,0,0,1,0-.19l0,0a.48.48,0,0,1-.23.08h0Z"/><path class="cls-1" d="M115,36.9a4.31,4.31,0,0,1,2.64.89c3.56,2.72,2.41,6.51,6.18,11a15.22,15.22,0,0,0-5.44-.89c-.81,0-1.57,0-2.3,0a8.14,8.14,0,0,1-4.72-1.19,4.19,4.19,0,0,1-1.94-4.1,4.67,4.67,0,0,1,1.36-2.31h.07a13.1,13.1,0,0,1,3.48,1.3c.11.06.42,3.86,3.68,5.41a6.38,6.38,0,0,1-3.1-5.11h0a24.91,24.91,0,0,1,7.31,5.78c-2.39-3.43-7-6.07-9.18-7.16a4.87,4.87,0,0,1,3.07-.92,5.73,5.73,0,0,1,2.79.73,5,5,0,0,0-3-1,7.42,7.42,0,0,0-3.35.93h0a5.55,5.55,0,0,1-1.22-.62,4,4,0,0,1,1.81-2.33A3.67,3.67,0,0,1,115,36.9m0-.5a4.13,4.13,0,0,0-2.13.54,4.36,4.36,0,0,0-2,2.68.81.81,0,0,0,0,.22.56.56,0,0,0-.36.12,5.17,5.17,0,0,0-1.54,2.6,4.72,4.72,0,0,0,2.16,4.62,8.54,8.54,0,0,0,5,1.27l1.11,0,1.19,0a14.71,14.71,0,0,1,5.27.86l1.75.64-1.19-1.43a16.37,16.37,0,0,1-3-5.79c-.66-1.95-1.28-3.79-3.26-5.3a4.85,4.85,0,0,0-2.94-1Z"/><path class="cls-2" d="M102.09,26.26a3.92,3.92,0,0,1-3.25-1.69,3.7,3.7,0,0,1-.46-2.76c.08-.19.27-.19.4-.19h.34c-.46-.09-.82-.21-.88-.37a4.28,4.28,0,0,1-.11-2.51,3.93,3.93,0,0,1,3.39-2.55,5.15,5.15,0,0,1,.55,0,8.88,8.88,0,0,1,4.57,1.54,14.62,14.62,0,0,0,5.41,2l.92.13-.86.35a14.33,14.33,0,0,0-4.75,3.27,8.44,8.44,0,0,1-4.6,2.72A5.16,5.16,0,0,1,102.09,26.26Zm-2-4.48v0h0Zm2-.1h0l0,0Z"/><path class="cls-1" d="M102.07,16.43c3.53,0,5.1,2.87,9.94,3.56-4.75,1.93-5.42,5.32-9.29,6a3.41,3.41,0,0,1-.63.05,3.64,3.64,0,0,1-3-1.57,3.45,3.45,0,0,1-.44-2.55s.06,0,.16,0l1,0s1.49,2.62,4.29,2.62a4.87,4.87,0,0,0,.65-.05h-.09a4.89,4.89,0,0,1-4.38-2.55h.85c2.38,0,6.32-.3,9.19-1.77a21.72,21.72,0,0,1-7.93,1.46h-.09a5.61,5.61,0,0,1,4.5-2.68h-.22c-3,0-4.74,2.69-4.85,2.69a9.42,9.42,0,0,1-3.27-.46,4,4,0,0,1-.1-2.35,3.65,3.65,0,0,1,3.17-2.37,4.78,4.78,0,0,1,.53,0m0-.5a5.62,5.62,0,0,0-.57,0,4.2,4.2,0,0,0-3.61,2.73A4.45,4.45,0,0,0,98,21.36a.49.49,0,0,0,.21.22.54.54,0,0,0-.07.13,3.91,3.91,0,0,0,.48,3,4.2,4.2,0,0,0,4.17,1.76,8.59,8.59,0,0,0,4.73-2.78,14.22,14.22,0,0,1,4.67-3.22l1.72-.7-1.84-.26a14.17,14.17,0,0,1-5.31-2,9.18,9.18,0,0,0-4.7-1.57Z"/><path class="cls-2" d="M91.41,16.88a4,4,0,0,1-3.26-2.72,8.42,8.42,0,0,1,.3-5.33,14.43,14.43,0,0,0,.72-5.73l-.08-.93.54.76A14.46,14.46,0,0,0,93.91,6.8a8.46,8.46,0,0,1,3.7,3.86,3.93,3.93,0,0,1-.71,4.18,4.3,4.3,0,0,1-2.27,1.06h0c-.18,0-.46-.29-.76-.67.32.54.36.64.21.79a3.56,3.56,0,0,1-2.44.86Zm2-2.33-.06-.08s0,.06,0,.06Zm-.87-1.84v0h0Z"/><path class="cls-1" d="M89.42,3.08c3,4.18,6.44,4.05,8,7.67a3.69,3.69,0,0,1-.65,3.91,4,4,0,0,1-2.13,1h0A9.47,9.47,0,0,1,92.69,13c0-.1,1.62-3,0-5.73a5.62,5.62,0,0,1-.32,5.22h0A21.75,21.75,0,0,1,90,4.66c0,3.65,2,7.82,3,9.72,0,0,0,0-.14,0a5.06,5.06,0,0,1-4.18-2.81c1.09,3.07,4.54,3.17,4.56,3.2a5,5,0,0,1,.57,1.06,3.35,3.35,0,0,1-2.26.78h-.2a3.68,3.68,0,0,1-3-2.55c-1.2-3.73,1.5-5.89,1-11m-.67-1.81.18,1.85a14.22,14.22,0,0,1-.72,5.64,8.67,8.67,0,0,0-.3,5.48,4.22,4.22,0,0,0,3.49,2.89h.23a3.75,3.75,0,0,0,2.61-.93.63.63,0,0,0,.11-.13.52.52,0,0,0,.25.08A4.6,4.6,0,0,0,97.08,15a4.2,4.2,0,0,0,.76-4.46,8.68,8.68,0,0,0-3.8-4,14.09,14.09,0,0,1-4.21-3.8L88.75,1.27Z"/><path class="cls-2" d="M74.6,10.34a3.87,3.87,0,0,1-3.35-1.85A4.33,4.33,0,0,1,70.85,6c0-.17.36-.35.8-.53a2.76,2.76,0,0,1-.52.1H71l-.11-.14a3.66,3.66,0,0,1-.1-2.78A4,4,0,0,1,74.28.25h.26A8.73,8.73,0,0,1,79.34,2a14.37,14.37,0,0,0,5.31,2.26l.92.16-.88.32A14.49,14.49,0,0,0,79.8,7.79a8.46,8.46,0,0,1-4.71,2.52ZM72.49,5.17h0Zm2-.31v0h0Z"/><path class="cls-1" d="M74.54.5c3.74,0,5.13,3.08,10.07,4C79.77,6.21,79,9.58,75.06,10.06l-.46,0a3.66,3.66,0,0,1-3.13-1.71,4,4,0,0,1-.37-2.32A9.48,9.48,0,0,1,74.21,5h0a7.31,7.31,0,0,0,4.27,1.76,4.83,4.83,0,0,0,1.23-.16,5.32,5.32,0,0,1-.79,0,5.5,5.5,0,0,1-4.15-1.77,24.37,24.37,0,0,1,4.86-.49,15.65,15.65,0,0,1,3.29.31,15.23,15.23,0,0,0-4-.47,28.13,28.13,0,0,0-6.23.76h0a4.89,4.89,0,0,1,3.86-3.39c-3.25.21-4.28,3.5-4.32,3.51-.62.15-1,.27-1.14.27h0A3.41,3.41,0,0,1,71,2.74,3.68,3.68,0,0,1,74.29.5h.25m0-.5h-.27a4.19,4.19,0,0,0-3.72,2.58,3.87,3.87,0,0,0,.12,3l.08.15a.46.46,0,0,0-.14.25A4.5,4.5,0,0,0,71,8.61a4.13,4.13,0,0,0,3.57,2l.52,0A8.62,8.62,0,0,0,80,8a14.26,14.26,0,0,1,4.81-3l1.76-.62L84.7,4a14,14,0,0,1-5.23-2.22A8.84,8.84,0,0,0,74.54,0Z"/><path class="cls-2" d="M25.05,32.33A11.41,11.41,0,0,0,26.56,28a6.72,6.72,0,0,1,1.7-3.91,3.29,3.29,0,0,1,2.32-1,2.49,2.49,0,0,1,1,.2,2.92,2.92,0,0,1,1.61,1.57.24.24,0,0,1-.07.27.93.93,0,0,1,.24-.05h.07l.08,0a3.47,3.47,0,0,1,1.27,1.58,3.21,3.21,0,0,1-1,3.28,6.81,6.81,0,0,1-4,1.43,11.44,11.44,0,0,0-4.39,1.21l-.82.44Z"/><path class="cls-1" d="M30.58,23.4a2.3,2.3,0,0,1,.91.18A2.7,2.7,0,0,1,33,25a4.41,4.41,0,0,1-.78.54h0a5.44,5.44,0,0,0-1.82-.35,3.54,3.54,0,0,0-2.54,1,4,4,0,0,1,2.43-.82,3,3,0,0,1,1.62.37c-1.43,1-4.31,3.22-5.61,5.81a17.23,17.23,0,0,1,4.45-4.68h0a4.43,4.43,0,0,1-1.63,3.82c2.09-1.39,1.93-4,2-4.08a8.37,8.37,0,0,1,2.29-1.23h0a3.08,3.08,0,0,1,1.16,1.45,2.91,2.91,0,0,1-.93,3c-2.36,2-4.77.7-8.36,2.61,2.15-3.45,1-5.94,3.18-8.16a3,3,0,0,1,2.14-.9m0-.5A3.54,3.54,0,0,0,28.08,24a6.87,6.87,0,0,0-1.76,4,11.23,11.23,0,0,1-1.48,4.21l-1,1.58,1.65-.88a11.16,11.16,0,0,1,4.3-1.19A7,7,0,0,0,34,30.23,3.39,3.39,0,0,0,35,26.68,3.62,3.62,0,0,0,33.65,25l-.12-.07h-.08s0,0,0,0a3.19,3.19,0,0,0-1.75-1.73,2.82,2.82,0,0,0-1.11-.22Z"/><path class="cls-2" d="M8.91,60a4,4,0,0,1-2.62-1,8.47,8.47,0,0,1-2.57-4.69,14.33,14.33,0,0,0-2.4-5.24l-.56-.75.86.37a14.68,14.68,0,0,0,5.68,1,8.47,8.47,0,0,1,5.18,1.32A3.94,3.94,0,0,1,14.08,55a3.62,3.62,0,0,1-1.62,2.27l-.05,0h-.06c-.14,0-.2,0-.54-.42.27.39.44.73.37.89a4.24,4.24,0,0,1-1.69,1.85A3.32,3.32,0,0,1,8.91,60Zm2.36-3.83a.29.29,0,0,1,0-.09l-.08,0ZM9.74,54.78h0l0,0Z"/><path class="cls-1" d="M1.52,48.94c4.73,2,7.6.05,10.81,2.32a3.7,3.7,0,0,1,1.51,3.67A3.41,3.41,0,0,1,12.35,57h0a6.69,6.69,0,0,1-.83-.86s.92-3.35-1.68-5.31a4.91,4.91,0,0,1,1.36,5h0C9.71,54.24,6.33,51.11,2.84,50a21.71,21.71,0,0,1,6.72,4.62,3.1,3.1,0,0,1-1.21.17,6,6,0,0,1-3.87-1.44,5.8,5.8,0,0,0,4.37,1.72c.54,0,.93,0,1.06,0H10a9.12,9.12,0,0,1,2,2.63,4,4,0,0,1-1.58,1.73,3.12,3.12,0,0,1-1.46.34,3.79,3.79,0,0,1-2.46-.9c-3-2.54-1.83-5.8-4.93-9.89M0,47.75l1.12,1.49A13.89,13.89,0,0,1,3.48,54.4a8.72,8.72,0,0,0,2.64,4.81,4.28,4.28,0,0,0,2.79,1,3.56,3.56,0,0,0,1.7-.4,4.46,4.46,0,0,0,1.8-2,.46.46,0,0,0,0-.31h.06l.11-.06a4,4,0,0,0,1.74-2.43,4.22,4.22,0,0,0-1.71-4.19,8.66,8.66,0,0,0-5.31-1.37,14.24,14.24,0,0,1-5.59-1L0,47.75Z"/><path class="cls-2" d="M20,53.55a3.3,3.3,0,0,1-1.29-.24c-.09,0-.17-.18-.23-.39,0,.17-.07.23-.19.27a2.07,2.07,0,0,1-.57.08A3.37,3.37,0,0,1,16,52.76a3.27,3.27,0,0,1-1.31-3.28A7,7,0,0,1,17,45.74a12,12,0,0,0,2.75-3.83l.37-.85.11.92a11.67,11.67,0,0,0,1.56,4.44,7,7,0,0,1,1.16,4.26,3.27,3.27,0,0,1-2.18,2.77A3.16,3.16,0,0,1,20,53.55Z"/><path class="cls-1" d="M20,42c.5,4.18,3,5.44,2.72,8.64a3,3,0,0,1-2,2.56,2.75,2.75,0,0,1-.73.09,3.19,3.19,0,0,1-1.18-.21,7.49,7.49,0,0,1-.32-2.69c0-.09,2.33-1.51,2.27-4.1a4.61,4.61,0,0,1-2.27,3.63h0a18,18,0,0,1,1.33-6.54c-1.42,2.63-1.63,6.4-1.61,8.18h0a4,4,0,0,1-2-3.7c-.42,2.64,2,4,2,4.09a5.11,5.11,0,0,1,0,1,2.08,2.08,0,0,1-.5.07,3.15,3.15,0,0,1-1.58-.47,3,3,0,0,1-1.19-3c.6-3.16,3.39-3.66,5.05-7.52m.28-1.9-.74,1.7a11.48,11.48,0,0,1-2.7,3.75,7.18,7.18,0,0,0-2.38,3.87A3.53,3.53,0,0,0,15.84,53a3.65,3.65,0,0,0,1.84.55,2.15,2.15,0,0,0,.64-.09l.07,0a.36.36,0,0,0,.17.14A3.7,3.7,0,0,0,20,53.8a3.28,3.28,0,0,0,.87-.11,3.49,3.49,0,0,0,2.36-3A7.21,7.21,0,0,0,22,46.31,11.54,11.54,0,0,1,20.46,42l-.22-1.84Z"/><path class="cls-2" d="M107.05,53.62a3.18,3.18,0,0,1-.79-.09,3.3,3.3,0,0,1-2.18-2.78,7,7,0,0,1,1.16-4.25,11.67,11.67,0,0,0,1.56-4.44l.11-.92.37.85A11.73,11.73,0,0,0,110,45.81a7,7,0,0,1,2.32,3.75A3.24,3.24,0,0,1,111,52.83a3.36,3.36,0,0,1-1.7.51,1.81,1.81,0,0,1-.58-.08c-.12,0-.17-.09-.19-.26-.06.21-.14.35-.23.39a3.34,3.34,0,0,1-1.29.23Z"/><path class="cls-1" d="M107.05,42.09c1.66,3.86,4.45,4.35,5,7.52a3,3,0,0,1-1.19,3,3.09,3.09,0,0,1-1.57.47,1.7,1.7,0,0,1-.51-.07,4.23,4.23,0,0,1,0-1s2.44-1.44,2-4.08a4.05,4.05,0,0,1-2,3.7h0c0-1.78-.19-5.55-1.62-8.19A17.79,17.79,0,0,1,108.56,50h0a4.62,4.62,0,0,1-2.27-3.64c-.06,2.59,2.27,4,2.27,4.11a7.41,7.41,0,0,1-.32,2.68,3.21,3.21,0,0,1-1.19.21,2.69,2.69,0,0,1-.72-.08,3,3,0,0,1-2-2.56c-.32-3.21,2.22-4.47,2.72-8.64m-.28-1.91L106.55,42A11.54,11.54,0,0,1,105,46.39a7.21,7.21,0,0,0-1.19,4.39,3.54,3.54,0,0,0,2.36,3,3.28,3.28,0,0,0,.86.1,3.63,3.63,0,0,0,1.39-.25.46.46,0,0,0,.18-.14l.09,0a2.41,2.41,0,0,0,.63.08,3.69,3.69,0,0,0,1.84-.54,3.54,3.54,0,0,0,1.41-3.54,7.25,7.25,0,0,0-2.38-3.88,11.29,11.29,0,0,1-2.7-3.74l-.74-1.71Z"/><path class="cls-2" d="M106.41,90a11.27,11.27,0,0,0-2.9-3.38A6.58,6.58,0,0,1,101,83.25,3.09,3.09,0,0,1,102,80a3.41,3.41,0,0,1,1.82-.6.71.71,0,0,1,.39.29.24.24,0,0,1,.09-.32,2.59,2.59,0,0,1,1.57-.46,2.88,2.88,0,0,1,.59.06,3.12,3.12,0,0,1,2.29,2.45,6.61,6.61,0,0,1-.76,4.11,11,11,0,0,0-1.12,4.32l0,.93Z"/><path class="cls-1" d="M105.88,79.2a3.41,3.41,0,0,1,.55,0,2.88,2.88,0,0,1,2.08,2.26c.56,3-1.74,4.39-1.88,8.37-1.87-3.52-4.55-3.76-5.36-6.7a2.85,2.85,0,0,1,.88-2.94,3.22,3.22,0,0,1,1.68-.55h.06a7.38,7.38,0,0,1,1.2,2.27c0,.07-1.54,2.13-.6,4.4a4.35,4.35,0,0,1,.76-4h0a17,17,0,0,1,1.06,6.23,17.64,17.64,0,0,0-1.38-7.78h0a3.89,3.89,0,0,1,3,2.58,4.1,4.1,0,0,0-3.19-2.91,3.68,3.68,0,0,1-.33-.87,2.36,2.36,0,0,1,1.42-.41m0-.5a2.85,2.85,0,0,0-1.73.52l0,0a.58.58,0,0,0-.2-.06h-.08a3.63,3.63,0,0,0-2,.65,3.31,3.31,0,0,0-1.07,3.48,6.8,6.8,0,0,0,2.56,3.48,11,11,0,0,1,2.84,3.31l.87,1.64.07-1.85a10.75,10.75,0,0,1,1.1-4.23,6.8,6.8,0,0,0,.77-4.25,3.33,3.33,0,0,0-2.48-2.66,3.39,3.39,0,0,0-.64-.06Z"/><path class="cls-2" d="M89.69,103.68a3.43,3.43,0,0,1-2.38-1.1c-.1-.14-.09-.22.15-.55-.25.23-.45.38-.58.38h0a4,4,0,0,1-2.07-1.26,3.73,3.73,0,0,1-.17-4A7.94,7.94,0,0,1,88.54,94,13.58,13.58,0,0,0,93,90.9l.62-.68-.19.9a13.48,13.48,0,0,0,0,5.4,7.93,7.93,0,0,1-.34,5,3.72,3.72,0,0,1-3.21,2.16Zm-1.51-2.42h0v0Z"/><path class="cls-1" d="M93.14,91.07c-1,4.7,1.24,7-.31,10.35a3.48,3.48,0,0,1-3,2h-.14a3.22,3.22,0,0,1-2.2-1,5.94,5.94,0,0,1,.65-.91h.16a4.81,4.81,0,0,0,4.45-2.45,4.81,4.81,0,0,1-3.94,2.15c-.26,0-.42,0-.4-.06,1.21-1.64,3.53-5.28,4-8.68a20.21,20.21,0,0,1-3.12,7h0a5.28,5.28,0,0,1,.31-4.9C87.8,96.91,89,99.79,89,99.87a9,9,0,0,1-2.08,2.28h0A3.73,3.73,0,0,1,85,101a3.45,3.45,0,0,1-.15-3.71c1.83-3.19,5-2.67,8.28-6.21M94,89.36l-1.26,1.37a13.26,13.26,0,0,1-4.34,3,8.09,8.09,0,0,0-4,3.25,4,4,0,0,0,.19,4.28,4.17,4.17,0,0,0,2.15,1.33h.11l.16,0a.83.83,0,0,0,.08.12,3.67,3.67,0,0,0,2.56,1.19h.17a4,4,0,0,0,3.44-2.3,8.2,8.2,0,0,0,.36-5.16,13.18,13.18,0,0,1,0-5.3l.4-1.82Z"/><path class="cls-2" d="M21.71,74a3.48,3.48,0,0,1-.55,0,8.42,8.42,0,0,1-4.68-2.58,14.51,14.51,0,0,0-4.84-3.13L10.77,68l.92-.16A14.37,14.37,0,0,0,17,65.62a8.79,8.79,0,0,1,4.72-1.68h.36a3.93,3.93,0,0,1,3.46,2.46,4.29,4.29,0,0,1,0,2.51c-.05.15-.4.28-.85.38l.37,0c.08,0,.3,0,.36.2A3.63,3.63,0,0,1,25,72.23,3.84,3.84,0,0,1,21.71,74Zm2-4.54,0,0h0Zm-2,0,0,0v0Z"/><path class="cls-1" d="M21.75,64.19h.35a3.71,3.71,0,0,1,3.24,2.28,4.15,4.15,0,0,1,0,2.35,9.38,9.38,0,0,1-3.26.55h0c-.1,0-1.84-2.54-4.77-2.54h-.36a5.59,5.59,0,0,1,4.56,2.55h-.64a21.13,21.13,0,0,1-7.41-1.24,20.52,20.52,0,0,0,8.37,1.53c.66,0,1.24,0,1.71-.06h0a4.89,4.89,0,0,1-4.39,2.69,4.61,4.61,0,0,0,.52,0c2.89,0,4.3-2.73,4.35-2.74.52,0,.89-.08,1.07-.08a.22.22,0,0,1,.12,0,3.42,3.42,0,0,1-.36,2.56,3.66,3.66,0,0,1-3.1,1.67,4.36,4.36,0,0,1-.51,0c-3.89-.54-4.66-3.92-9.47-5.71,4.9-.83,6.36-3.85,10-3.85m0-.5h0A9,9,0,0,0,16.9,65.4a14.08,14.08,0,0,1-5.26,2.15l-1.83.31,1.74.65a14.16,14.16,0,0,1,4.77,3.09,8.65,8.65,0,0,0,4.81,2.64,3.69,3.69,0,0,0,.58,0,4.14,4.14,0,0,0,3.53-1.92,3.91,3.91,0,0,0,.4-3,.44.44,0,0,0-.08-.15.58.58,0,0,0,.21-.24,4.5,4.5,0,0,0,0-2.67,4.2,4.2,0,0,0-3.69-2.63Z"/><path class="cls-2" d="M98.89,65.77a3,3,0,0,1-.7-.08A3.16,3.16,0,0,1,96,63a6.71,6.71,0,0,1,1-4.12,11.58,11.58,0,0,0,1.43-4.32l.09-.92.38.85a11.61,11.61,0,0,0,2.72,3.64,6.68,6.68,0,0,1,2.3,3.58A3.17,3.17,0,0,1,102.8,65a3.26,3.26,0,0,1-1.68.51,1.72,1.72,0,0,1-.52-.07.21.21,0,0,1-.19-.21c0,.18-.11.3-.19.34a3.39,3.39,0,0,1-1.33.25Z"/><path class="cls-1" d="M98.77,54.63c1.66,3.7,4.37,4.13,5,7.17a3,3,0,0,1-1.1,2.94,3,3,0,0,1-1.55.47,1.63,1.63,0,0,1-.45-.06,3.78,3.78,0,0,1,0-.94,4.19,4.19,0,0,0,1.89-4,3.93,3.93,0,0,1-1.88,3.6h0c0-1.72-.28-5.35-1.69-7.88a17.4,17.4,0,0,1,1.4,6.3h0a4.47,4.47,0,0,1-2.25-3.47c0,2.5,2.26,3.83,2.27,3.92a7.42,7.42,0,0,1-.27,2.6,3.27,3.27,0,0,1-1.21.22,2.67,2.67,0,0,1-.64-.07,2.91,2.91,0,0,1-2-2.44c-.37-3.09,2.06-4.34,2.48-8.38m-.31-1.9-.19,1.85a11,11,0,0,1-1.41,4.22,6.91,6.91,0,0,0-1.07,4.27,3.37,3.37,0,0,0,2.34,2.86,3,3,0,0,0,.76.09,3.59,3.59,0,0,0,1.42-.27.5.5,0,0,0,.16-.14l.08,0a2.4,2.4,0,0,0,.57.07,3.57,3.57,0,0,0,1.81-.55,3.38,3.38,0,0,0,1.33-3.46A7,7,0,0,0,101.89,58a11,11,0,0,1-2.67-3.57l-.76-1.69Z"/><path class="cls-2" d="M36.77,68.83a2.59,2.59,0,0,1-1.18-.25,3.55,3.55,0,0,1-1.48-1.47.61.61,0,0,1,.09-.44.28.28,0,0,1-.21.09h-.06l-.06,0a3.05,3.05,0,0,1-1.42-1.82,3.29,3.29,0,0,1,1.19-3.33,7.05,7.05,0,0,1,4.22-1.28,11.91,11.91,0,0,0,4.59-1l.84-.4-.53.76A11.9,11.9,0,0,0,41,64a7,7,0,0,1-1.93,3.95A3.32,3.32,0,0,1,36.77,68.83Z"/><path class="cls-1" d="M42.55,59.48c-2.38,3.46-1.31,6.09-3.67,8.28a3.1,3.1,0,0,1-2.11.82,2.57,2.57,0,0,1-1.08-.22A3.39,3.39,0,0,1,34.34,67a7.47,7.47,0,0,1,1.53-2.23h.06l.54,0a4.87,4.87,0,0,0,3.82-1.58A4.84,4.84,0,0,1,37,64.52a1.9,1.9,0,0,1-.78-.1,17.76,17.76,0,0,1,5.32-4c-2.81,1-5.46,3.72-6.62,5.07h0a4,4,0,0,1,.94-4.11c-2.06,1.7-1.16,4.37-1.19,4.4a5,5,0,0,1-.64.74h0a2.82,2.82,0,0,1-1.3-1.68,3,3,0,0,1,1.1-3c2.54-2,5-.5,8.76-2.3M44,58.24,42.34,59a11.51,11.51,0,0,1-4.5,1,7.13,7.13,0,0,0-4.35,1.34A3.5,3.5,0,0,0,32.21,65a3.3,3.3,0,0,0,1.57,2l.07,0a.37.37,0,0,0,0,.22,3.78,3.78,0,0,0,1.59,1.6,3,3,0,0,0,1.29.27,3.6,3.6,0,0,0,2.46-1,7.16,7.16,0,0,0,2-4.07A11.36,11.36,0,0,1,43,59.77L44,58.24Z"/><path class="cls-2" d="M90.24,68.91A3.36,3.36,0,0,1,88,68a6.94,6.94,0,0,1-1.94-4,11.83,11.83,0,0,0-1.77-4.37l-.53-.77.84.4a11.81,11.81,0,0,0,4.6,1.05,7,7,0,0,1,4.21,1.28A3.25,3.25,0,0,1,94.55,65a3,3,0,0,1-1.42,1.83l0,0H93a.25.25,0,0,1-.21-.09.62.62,0,0,1,.09.44,3.67,3.67,0,0,1-1.47,1.48A2.81,2.81,0,0,1,90.24,68.91Z"/><path class="cls-1" d="M84.46,59.56c3.8,1.8,6.22.32,8.76,2.3a3,3,0,0,1,1.09,3A2.75,2.75,0,0,1,93,66.58h0a5,5,0,0,1-.65-.73s.88-2.7-1.18-4.41a4.06,4.06,0,0,1,.94,4.12h0c-1.16-1.35-3.81-4-6.62-5.08a17.78,17.78,0,0,1,5.32,4,1.9,1.9,0,0,1-.78.1,4.83,4.83,0,0,1-3.32-1.32,4.86,4.86,0,0,0,3.82,1.57h.6a7.57,7.57,0,0,1,1.53,2.23,3.25,3.25,0,0,1-1.35,1.35,2.42,2.42,0,0,1-1.08.23,3.12,3.12,0,0,1-2.11-.82c-2.36-2.19-1.29-4.82-3.67-8.28M83,58.31,84,59.84a11.49,11.49,0,0,1,1.74,4.28,7.11,7.11,0,0,0,2,4.08,3.56,3.56,0,0,0,2.45,1,2.86,2.86,0,0,0,1.3-.28,3.78,3.78,0,0,0,1.58-1.59.48.48,0,0,0,0-.22l.07,0a3.28,3.28,0,0,0,1.56-2,3.46,3.46,0,0,0-1.27-3.59,7.18,7.18,0,0,0-4.34-1.33,11.41,11.41,0,0,1-4.51-1L83,58.31Z"/><path class="cls-2" d="M57.66,17.56a2.09,2.09,0,0,1-.86-.17.26.26,0,0,1-.15-.19c-.07.14-.14.23-.22.25a2.78,2.78,0,0,1-.69.08,3.13,3.13,0,0,1-1.2-.22,3,3,0,0,1-1.61-2.78,6.29,6.29,0,0,1,1.57-3.65,10.55,10.55,0,0,0,2-3.76l.24-.9.24.9a10.66,10.66,0,0,0,2,3.75,6.28,6.28,0,0,1,1.59,3.64,3,3,0,0,1-1.59,2.78A3.19,3.19,0,0,1,57.66,17.56Z"/><path class="cls-1" d="M56.69,7.18c1,3.66,3.43,4.45,3.56,7.34a2.7,2.7,0,0,1-1.44,2.54,2.9,2.9,0,0,1-1.15.25,1.76,1.76,0,0,1-.75-.15,3.55,3.55,0,0,1,.12-.87,3.92,3.92,0,0,0,2.32-3.39,3.64,3.64,0,0,1-2.26,3h0a16.76,16.76,0,0,0-.4-7.51,16.14,16.14,0,0,1,.36,6h0a4.16,4.16,0,0,1-1.57-3.53C55.1,13.21,57,14.77,57,14.85a6.91,6.91,0,0,1-.63,2.36,2.3,2.3,0,0,1-.62.07,3,3,0,0,1-1.1-.2,2.72,2.72,0,0,1-1.46-2.54c.12-2.89,2.54-3.7,3.51-7.36m0-1.92-.48,1.8a10.26,10.26,0,0,1-1.91,3.67,6.51,6.51,0,0,0-1.62,3.79,3.19,3.19,0,0,0,1.76,3,3.46,3.46,0,0,0,1.3.24,2.93,2.93,0,0,0,.76-.09.4.4,0,0,0,.17-.09h0a2.43,2.43,0,0,0,1,.2A3.52,3.52,0,0,0,59,17.52a3.19,3.19,0,0,0,1.74-3,6.53,6.53,0,0,0-1.64-3.78,10.19,10.19,0,0,1-1.93-3.67l-.49-1.79Z"/><path class="cls-2" d="M68.75,32.41a3.51,3.51,0,0,1-2-.58A7.38,7.38,0,0,1,64.08,28a12.62,12.62,0,0,0-2.61-4.27l-.65-.67.89.26a10.81,10.81,0,0,0,3,.41c.72,0,1.37-.06,2-.12s1.14-.1,1.7-.1a5.83,5.83,0,0,1,2.93.71,3.46,3.46,0,0,1,1.82,3.26A3.24,3.24,0,0,1,72,29.66l-.07,0h-.08a.37.37,0,0,1-.25-.11c.16.22.25.4.22.51a3.84,3.84,0,0,1-1.29,1.8,3.13,3.13,0,0,1-1.77.51Z"/><path class="cls-1" d="M61.65,23.59a11.13,11.13,0,0,0,3.06.42c1.39,0,2.56-.22,3.7-.22a5.54,5.54,0,0,1,2.81.68,3.19,3.19,0,0,1,1.69,3,3,3,0,0,1-1.06,2h0a5.88,5.88,0,0,1-.8-.65s.44-3-2-4.41a4.29,4.29,0,0,1,1.7,4.14h0C69.27,27.31,66,25,62.9,24.37a18.82,18.82,0,0,1,6.28,3.28,3.47,3.47,0,0,1-1.65.31,5.17,5.17,0,0,1-2.87-.87,4.72,4.72,0,0,0,3.14,1.08A9.35,9.35,0,0,0,69.55,28h0a7.89,7.89,0,0,1,2,2.07,3.44,3.44,0,0,1-1.18,1.66,2.88,2.88,0,0,1-1.63.47,3.3,3.3,0,0,1-1.81-.54c-2.86-1.88-2.19-4.82-5.29-8M60,22.6l1.3,1.33a12.23,12.23,0,0,1,2.56,4.2A7.67,7.67,0,0,0,66.66,32a3.85,3.85,0,0,0,2.09.62,3.42,3.42,0,0,0,1.92-.56,4,4,0,0,0,1.38-1.94.46.46,0,0,0,0-.23l.1-.07a3.48,3.48,0,0,0,1.27-2.32,3.72,3.72,0,0,0-2-3.51,6.07,6.07,0,0,0-3-.74c-.57,0-1.13.05-1.72.1s-1.28.12-2,.12a10.73,10.73,0,0,1-2.93-.4L60,22.6Z"/><path class="cls-2" d="M76.3,41.52a9.12,9.12,0,0,1-2.24-.37,11.59,11.59,0,0,0-3-.45,10.67,10.67,0,0,0-1.11.07l-.92.12.74-.56a10.29,10.29,0,0,0,2.64-3.12,6,6,0,0,1,2.69-2.75,2.86,2.86,0,0,1,1.22-.27,2.73,2.73,0,0,1,1.86.69A3.06,3.06,0,0,1,79,36.51a.39.39,0,0,1-.13.28H79l.08.07a2.69,2.69,0,0,1,.69,1.93,2.88,2.88,0,0,1-1.9,2.45A4.71,4.71,0,0,1,76.3,41.52Z"/><path class="cls-1" d="M76.36,34.44a2.46,2.46,0,0,1,1.68.61,2.9,2.9,0,0,1,.75,1.49A6.39,6.39,0,0,1,76.92,38h0a6.29,6.29,0,0,0-2.1-.45,3.69,3.69,0,0,0-2,.55,4.17,4.17,0,0,1,1.79-.4,3.4,3.4,0,0,1,1.93.5,15.24,15.24,0,0,1-5.49,1.88,16.11,16.11,0,0,0,6.85-2.39h0A3.49,3.49,0,0,1,76,40.79a3.74,3.74,0,0,0,2.17-3.31,6.7,6.7,0,0,1,.73-.44h0a2.44,2.44,0,0,1,.61,1.74A2.61,2.61,0,0,1,77.82,41a4.29,4.29,0,0,1-1.52.27c-1.6,0-3-.82-5.2-.82a9.52,9.52,0,0,0-1.14.08c2.91-2.22,2.74-4.68,5.28-5.85a2.73,2.73,0,0,1,1.12-.24m0-.5h0a3.22,3.22,0,0,0-1.33.29,6.23,6.23,0,0,0-2.79,2.85,10.1,10.1,0,0,1-2.58,3.05l-1.48,1.12L70,41A9.77,9.77,0,0,1,71.1,41a11.17,11.17,0,0,1,2.9.45,9.44,9.44,0,0,0,2.3.37,4.71,4.71,0,0,0,1.69-.3,3.08,3.08,0,0,0,2.07-2.68,2.86,2.86,0,0,0-.77-2.11h0a.65.65,0,0,0,0-.19,3.41,3.41,0,0,0-.9-1.78,2.91,2.91,0,0,0-2-.76Z"/><path class="cls-2" d="M58.88,99.3a7.36,7.36,0,0,1-4.28-1.88,12.47,12.47,0,0,0-4.42-2.34l-.9-.25.9-.23a12.61,12.61,0,0,0,4.46-2.3,7.41,7.41,0,0,1,4.28-1.83h.14a3.42,3.42,0,0,1,3.09,1.87,3.25,3.25,0,0,1,.09,2.46l-.07.14h-.31c.24.1.41.21.44.32a3.78,3.78,0,0,1-.18,2.2,3.44,3.44,0,0,1-3.07,1.85Z"/><path class="cls-1" d="M59.06,90.72a3.2,3.2,0,0,1,2.86,1.72A3,3,0,0,1,62,94.69s0,0,0,0-.46-.07-1-.16c0,0-1.13-2.77-3.94-2.77h0a4.22,4.22,0,0,1,3.57,2.7h0a25.32,25.32,0,0,0-3.94-.32,14.8,14.8,0,0,0-4.91.72,15.94,15.94,0,0,1,4.38-.54,21.17,21.17,0,0,1,2.7.17,4.82,4.82,0,0,1-3.89,1.82h-.28a4.71,4.71,0,0,0,.74.06,6.18,6.18,0,0,0,3.92-1.81h0a8.08,8.08,0,0,1,2.77.76,3.5,3.5,0,0,1-.17,2,3.19,3.19,0,0,1-2.84,1.7h-.16c-3.42-.16-4.34-3-8.65-4.21,4.32-1.14,5.28-4,8.69-4.12h.13m0-.5h-.14a7.57,7.57,0,0,0-4.43,1.88,12.41,12.41,0,0,1-4.37,2.26l-1.8.47,1.79.49a12.24,12.24,0,0,1,4.35,2.3,7.52,7.52,0,0,0,4.4,1.93h.19a3.69,3.69,0,0,0,3.3-2,4,4,0,0,0,.19-2.37.4.4,0,0,0-.13-.21l.06-.09a3.52,3.52,0,0,0-.09-2.66,3.7,3.7,0,0,0-3.32-2Z"/><path class="cls-2" d="M64.32,74.37a12.57,12.57,0,0,0,1.27-4.85,7.42,7.42,0,0,1,1.49-4.42,3.58,3.58,0,0,1,2.71-1.28,2.86,2.86,0,0,1,.85.13,3.19,3.19,0,0,1,1.88,1.57c.06.14,0,.21-.13.37a1,1,0,0,1,.39-.13h.06l.08,0a3.71,3.71,0,0,1,1.51,1.6A3.49,3.49,0,0,1,73.64,71,7.41,7.41,0,0,1,69.38,73a12.54,12.54,0,0,0-4.7,1.74l-.78.5Z"/><path class="cls-1" d="M69.79,64.07a2.35,2.35,0,0,1,.77.12,3,3,0,0,1,1.73,1.43,4.75,4.75,0,0,1-.8.66h0a6.39,6.39,0,0,0-1.62-.23,4,4,0,0,0-3.1,1.34,4.42,4.42,0,0,1,3-1.12,2.87,2.87,0,0,1,1.43.27c-1.48,1.19-4.42,3.92-5.62,6.87A19.05,19.05,0,0,1,70,67.88h0a4.9,4.9,0,0,1-1.44,4.33c2.16-1.71,1.75-4.59,1.82-4.65A9,9,0,0,1,72.78,66h0a3.46,3.46,0,0,1,1.4,1.48,3.21,3.21,0,0,1-.74,3.37c-2.4,2.43-5.15,1.21-8.91,3.63,2-4,.54-6.6,2.73-9.23a3.28,3.28,0,0,1,2.51-1.19m0-.5h0a3.79,3.79,0,0,0-2.9,1.37,7.58,7.58,0,0,0-1.55,4.56,12.14,12.14,0,0,1-1.24,4.76l-.85,1.66,1.57-1a12.13,12.13,0,0,1,4.61-1.7,7.59,7.59,0,0,0,4.39-2,3.68,3.68,0,0,0,.84-3.92A4,4,0,0,0,73,65.56l-.11,0h-.14a.14.14,0,0,0,0-.07,3.49,3.49,0,0,0-2-1.73,3,3,0,0,0-.93-.14Z"/><path class="cls-2" d="M52.13,38.21a3.14,3.14,0,0,1-1.85-.59A6.58,6.58,0,0,1,48,34.13a11.12,11.12,0,0,0-2.15-3.87l-.62-.7.88.3a9.64,9.64,0,0,0,3.16.49c.44,0,.85,0,1.25,0s.76,0,1.12,0a5.46,5.46,0,0,1,3,.75,3.09,3.09,0,0,1,1.5,3,3.4,3.4,0,0,1-.95,1.73l-.07.06h-.28a.22.22,0,0,1,.08.23,2.84,2.84,0,0,1-1.29,1.78A2.7,2.7,0,0,1,52.13,38.21Z"/><path class="cls-1" d="M46.05,30.09a9.87,9.87,0,0,0,3.23.51c.85,0,1.62-.08,2.37-.08a5.22,5.22,0,0,1,2.85.72A2.86,2.86,0,0,1,55.88,34,3.14,3.14,0,0,1,55,35.55h-.06a8.78,8.78,0,0,1-2.36-.82c-.07,0-.35-2.59-2.58-3.58a4.34,4.34,0,0,1,2.19,3.39h0a16.47,16.47,0,0,1-5-3.76,17.37,17.37,0,0,0,6.33,4.66,3.35,3.35,0,0,1-2.16.68,4,4,0,0,1-1.8-.44,3.4,3.4,0,0,0,1.95.6,5,5,0,0,0,2.35-.69h0a4.16,4.16,0,0,1,.83.39,2.59,2.59,0,0,1-1.18,1.61,2.46,2.46,0,0,1-1.34.36,2.92,2.92,0,0,1-1.71-.55c-2.45-1.78-1.75-4.36-4.37-7.32M44.44,29l1.23,1.4a10.8,10.8,0,0,1,2.11,3.79,6.78,6.78,0,0,0,2.35,3.6,3.42,3.42,0,0,0,2,.64A3,3,0,0,0,53.75,38a3.07,3.07,0,0,0,1.39-2v0a.42.42,0,0,0,.18-.11,3.55,3.55,0,0,0,1-1.87,3.32,3.32,0,0,0-1.62-3.24,5.66,5.66,0,0,0-3.1-.79c-.37,0-.74,0-1.13,0s-.81,0-1.24,0a9.42,9.42,0,0,1-3.08-.48L44.44,29Z"/><path class="cls-2" d="M83.77,112.07a10.91,10.91,0,0,0-4.23-1,6.51,6.51,0,0,1-3.89-1.28,3.07,3.07,0,0,1-1-3.12,3.26,3.26,0,0,1,1.17-1.55l.07,0H76a.54.54,0,0,1,.18,0,.23.23,0,0,1,0-.25,2.82,2.82,0,0,1,1.5-1.55,2.49,2.49,0,0,1,1-.21,3.16,3.16,0,0,1,2.18.88,6.41,6.41,0,0,1,1.72,3.71,11,11,0,0,0,1.55,4.07l.52.78Z"/><path class="cls-1" d="M78.64,103.3a2.85,2.85,0,0,1,2,.81c2.15,2.07,1.1,4.48,3.25,7.74-3.49-1.74-5.77-.42-8.08-2.3a2.81,2.81,0,0,1-1-2.86,3.08,3.08,0,0,1,1.07-1.41h0a8.32,8.32,0,0,1,2.22,1.13c.06,0,0,2.58,2,3.85a4.21,4.21,0,0,1-1.65-3.61h0A16.67,16.67,0,0,1,82.91,111a17.36,17.36,0,0,0-5.52-5.43,3.08,3.08,0,0,1,1.65-.39,3.83,3.83,0,0,1,2.24.72,3.37,3.37,0,0,0-2.35-.9,5.18,5.18,0,0,0-1.84.38h0a4.21,4.21,0,0,1-.76-.5,2.56,2.56,0,0,1,1.37-1.4,2.25,2.25,0,0,1,.94-.19m0-.5a2.81,2.81,0,0,0-1.15.23,3.08,3.08,0,0,0-1.64,1.72v0h0l-.16.09a3.63,3.63,0,0,0-1.27,1.68,3.28,3.28,0,0,0,1.13,3.4,6.68,6.68,0,0,0,4,1.32,10.67,10.67,0,0,1,4.14,1l1.67.84-1-1.56a10.51,10.51,0,0,1-1.51-4,6.66,6.66,0,0,0-1.8-3.83,3.37,3.37,0,0,0-2.35-1Z"/><path class="cls-2" d="M43.54,49.24h-.23a3.27,3.27,0,0,1-2.64-2.37,7,7,0,0,1,.41-4.41,12.11,12.11,0,0,0,.78-4.68l0-.93.51.78a11.76,11.76,0,0,0,3.39,3.31,7.07,7.07,0,0,1,2.94,3.32,3.29,3.29,0,0,1-.72,3.47,3.26,3.26,0,0,1-2,.83h-.2c-.13,0-.19-.06-.24-.24a.61.61,0,0,1-.16.44,3.61,3.61,0,0,1-1.8.5Z"/><path class="cls-1" d="M42.11,37.76c2.31,3.54,5.16,3.54,6.3,6.57a2.83,2.83,0,0,1-2.47,4h-.17a4,4,0,0,1-.17-1s2.17-1.86,1.29-4.41a4.05,4.05,0,0,1-1.35,4h0c-.27-1.77-1.15-5.47-3-7.84A18,18,0,0,1,45,45.35h0a4.69,4.69,0,0,1-2.88-3.21c.39,2.57,2.95,3.58,3,3.67a7.59,7.59,0,0,1,.14,2.72,3.41,3.41,0,0,1-1.66.46h-.21a3,3,0,0,1-2.42-2.19c-.88-3.12,1.42-4.81,1.2-9m-.6-1.83.1,1.85a11.52,11.52,0,0,1-.77,4.59,7.19,7.19,0,0,0-.41,4.56,3.54,3.54,0,0,0,2.85,2.55h.26a3.76,3.76,0,0,0,1.94-.55.33.33,0,0,0,.15-.16h.31a3.48,3.48,0,0,0,2.15-.89,3.51,3.51,0,0,0,.79-3.75,7.17,7.17,0,0,0-3-3.43,11.77,11.77,0,0,1-3.33-3.25l-1-1.55Z"/><path class="cls-2" d="M36.92,51.57a2.93,2.93,0,0,1-1.85-.66,5.92,5.92,0,0,1-1.81-3.27A10,10,0,0,0,31.58,44L31,43.3l.86.36a9.89,9.89,0,0,0,3.9.68,5.91,5.91,0,0,1,3.63.91A2.8,2.8,0,0,1,40.57,48a2.62,2.62,0,0,1-1.15,1.63l-.05,0h-.15a.37.37,0,0,1,0,.28,3,3,0,0,1-1.19,1.33,2.47,2.47,0,0,1-1.15.27Z"/><path class="cls-1" d="M31.78,43.89c3.28,1.35,5.26,0,7.49,1.56A2.57,2.57,0,0,1,40.33,48a2.39,2.39,0,0,1-1,1.47h0a6.15,6.15,0,0,1-.57-.6,3.65,3.65,0,0,0-1.19-3.66,3.4,3.4,0,0,1,1,3.42h0a15.51,15.51,0,0,0-5.8-4,15.12,15.12,0,0,1,4.67,3.16,2,2,0,0,1-.86.13,4.14,4.14,0,0,1-2.66-1,4,4,0,0,0,3,1.17c.4,0,.69,0,.77,0h0A6.15,6.15,0,0,1,39,49.88,2.81,2.81,0,0,1,38,51.08a2.18,2.18,0,0,1-1,.24,2.65,2.65,0,0,1-1.69-.61c-2.08-1.74-1.29-4-3.45-6.82m-1.53-1.17,1.14,1.47A9.62,9.62,0,0,1,33,47.71a6.15,6.15,0,0,0,1.89,3.39,3.17,3.17,0,0,0,2,.72,2.71,2.71,0,0,0,1.27-.3,3.3,3.3,0,0,0,1.31-1.46.58.58,0,0,0,0-.17h0a2.84,2.84,0,0,0,1.27-1.79A3,3,0,0,0,39.55,45a6.18,6.18,0,0,0-3.76-.95A9.6,9.6,0,0,1,32,43.43l-1.72-.71Z"/><path class="cls-2" d="M85.06,85.48a7.14,7.14,0,0,1-1.29-.13,3.78,3.78,0,0,1-2.94-2.83,4.05,4.05,0,0,1,.39-2.38c0-.08.11-.19.76-.25-.43,0-.51-.07-.56-.24a3.52,3.52,0,0,1,.76-2.6A3.73,3.73,0,0,1,85,75.77a3.62,3.62,0,0,1,1.08.16,8.13,8.13,0,0,1,4.08,3.12,13.67,13.67,0,0,0,4.15,3.67l.81.45-.93,0a13.83,13.83,0,0,0-5.38,1.3A9.68,9.68,0,0,1,85.06,85.48Zm-2-5.62Z"/><path class="cls-1" d="M85,76a3.58,3.58,0,0,1,1,.15c3.62,1.07,3.87,4.38,8.18,6.77-4.35.08-6.24,2.29-9.16,2.29a6.16,6.16,0,0,1-1.24-.13,3.51,3.51,0,0,1-2.75-2.62,3.88,3.88,0,0,1,.37-2.22,3.52,3.52,0,0,1,1.43-.15c.49,0,1.08,0,1.74.09.1,0,1.5,2.89,4.52,3.13a5.42,5.42,0,0,1-4-3.08h0a20.91,20.91,0,0,1,7.48,2.32c-2.91-2-7.28-2.65-9.36-2.83a4.59,4.59,0,0,1,3.85-2,4.27,4.27,0,0,1,.7,0,4.19,4.19,0,0,0-1.13-.15,5.41,5.41,0,0,0-3.88,2,6.4,6.4,0,0,1-1.15-.11,3.3,3.3,0,0,1,.72-2.38A3.41,3.41,0,0,1,85,76m0-.5a3.92,3.92,0,0,0-3,1.38,3.82,3.82,0,0,0-.81,2.78s0,.08,0,.12A.52.52,0,0,0,81,80a4.37,4.37,0,0,0-.42,2.55,4,4,0,0,0,3.15,3,6.68,6.68,0,0,0,1.33.14,9.91,9.91,0,0,0,3.88-1,13.39,13.39,0,0,1,5.29-1.28l1.86,0-1.63-.9a13.39,13.39,0,0,1-4.08-3.61,8.35,8.35,0,0,0-4.2-3.2A4.05,4.05,0,0,0,85,75.52Z"/><path class="cls-2" d="M76.57,92.66a9.83,9.83,0,0,0-.81-3.2A6.57,6.57,0,0,1,75.21,85a3.07,3.07,0,0,1,2.43-2.22h.23a3.36,3.36,0,0,1,1.67.46.54.54,0,0,1,.14.33.24.24,0,0,1,.2-.16h.21a3,3,0,0,1,1.83.76,3.05,3.05,0,0,1,.7,3.22,6.35,6.35,0,0,1-3,3.19A10.23,10.23,0,0,0,77,92.8l-.41.53Z"/><path class="cls-1" d="M77.87,83a3.08,3.08,0,0,1,1.53.42,7.17,7.17,0,0,1-.12,2.5c0,.08-2.36,1-2.71,3.4a4.31,4.31,0,0,1,2.63-3h0A16.21,16.21,0,0,1,77,92.16a17.2,17.2,0,0,0,2.72-7.23h0A3.75,3.75,0,0,1,81,88.61a4,4,0,0,0-1.23-4,3.92,3.92,0,0,1,.16-.9h.17a2.7,2.7,0,0,1,1.66.7,2.76,2.76,0,0,1,.63,2.94c-1,2.8-3.59,2.85-5.56,5.35-.13-3-2.16-4.69-1.37-7.57a2.8,2.8,0,0,1,2.22-2h.2m0-.5h-.25A3.27,3.27,0,0,0,75,85a6.85,6.85,0,0,0,.56,4.59,9.86,9.86,0,0,1,.79,3.13L76.38,94,77.21,93a9.84,9.84,0,0,1,2.59-2.17,6.47,6.47,0,0,0,3-3.32A3.29,3.29,0,0,0,82.08,84a3.2,3.2,0,0,0-2-.82l-.24,0h0a.61.61,0,0,0-.13-.14,3.71,3.71,0,0,0-1.81-.5Z"/><path class="cls-2" d="M42.11,85.4a9.84,9.84,0,0,1-3.79-1,14,14,0,0,0-5.39-1.31l-.93,0,.82-.45A13.91,13.91,0,0,0,37,79a8.09,8.09,0,0,1,4.08-3.13,4,4,0,0,1,1.09-.15A3.69,3.69,0,0,1,45,77a3.5,3.5,0,0,1,.76,2.58c0,.17-.12.22-.55.25.64.06.71.17.75.24a4.28,4.28,0,0,1,.4,2.39,3.81,3.81,0,0,1-3,2.83,6.32,6.32,0,0,1-1.28.13Zm2-5.62h0Z"/><path class="cls-1" d="M42.14,76a3.45,3.45,0,0,1,2.64,1.18,3.28,3.28,0,0,1,.71,2.38,6.06,6.06,0,0,1-1.14.11h0a5.44,5.44,0,0,0-3.88-2,4.49,4.49,0,0,0-1.12.15,5.6,5.6,0,0,1,.69,0,4.59,4.59,0,0,1,3.85,2c-2.08.18-6.45.87-9.36,2.83A20.84,20.84,0,0,1,42,80.18h0a5.33,5.33,0,0,1-4,3.07c3-.23,4.42-3.12,4.52-3.13.67-.06,1.27-.09,1.76-.09a3.42,3.42,0,0,1,1.41.15,3.9,3.9,0,0,1,.37,2.22A3.52,3.52,0,0,1,43.34,85a6.9,6.9,0,0,1-1.23.12c-2.93,0-4.82-2.2-9.17-2.29,4.31-2.38,4.56-5.71,8.18-6.77a3.68,3.68,0,0,1,1-.14m0-.5v0a3.83,3.83,0,0,0-1.16.17,8.2,8.2,0,0,0-4.2,3.2,13.5,13.5,0,0,1-4.08,3.6l-1.63.91,1.86,0a13.55,13.55,0,0,1,5.29,1.29,10.08,10.08,0,0,0,3.89,1,6.81,6.81,0,0,0,1.33-.13,4,4,0,0,0,3.14-3,4.32,4.32,0,0,0-.42-2.55.52.52,0,0,0-.21-.21.56.56,0,0,0,0-.12,3.8,3.8,0,0,0-.81-2.77,3.93,3.93,0,0,0-3-1.38Z"/><path class="cls-2" d="M50.14,92.73A9.9,9.9,0,0,0,47.5,90.5a6.27,6.27,0,0,1-3-3.19,3.06,3.06,0,0,1,.7-3.22,3,3,0,0,1,1.82-.75h.21a.2.2,0,0,1,.21.15.53.53,0,0,1,.15-.33,3.42,3.42,0,0,1,1.66-.46h.23A3.07,3.07,0,0,1,52,84.94a6.57,6.57,0,0,1-.55,4.44,9.9,9.9,0,0,0-.81,3.2l0,.68Z"/><path class="cls-1" d="M49.29,83h.2a2.81,2.81,0,0,1,2.22,2c.79,2.88-1.24,4.58-1.37,7.56-2-2.5-4.53-2.55-5.56-5.35a2.77,2.77,0,0,1,.63-2.94,2.71,2.71,0,0,1,1.65-.69h.18a3.75,3.75,0,0,1,.16.89,4,4,0,0,0-1.23,4.05,3.73,3.73,0,0,1,1.27-3.69h0a17.28,17.28,0,0,0,2.72,7.24A16.54,16.54,0,0,1,48,86.31h0a4.31,4.31,0,0,1,2.63,3c-.35-2.38-2.7-3.32-2.71-3.4a7.22,7.22,0,0,1-.12-2.51A3.19,3.19,0,0,1,49.29,83m0-.5a3.67,3.67,0,0,0-1.8.5.41.41,0,0,0-.14.15h-.29a3.18,3.18,0,0,0-2,.81,3.28,3.28,0,0,0-.77,3.49,6.47,6.47,0,0,0,3,3.32A9.84,9.84,0,0,1,50,92.88l.83,1.06.06-1.35a9.8,9.8,0,0,1,.79-3.12,6.87,6.87,0,0,0,.56-4.6,3.24,3.24,0,0,0-2.64-2.39l-.26,0Z"/><path class="cls-2" d="M60.09,56.51a5.11,5.11,0,0,1-3-1.31,8.62,8.62,0,0,0-3-1.59l-.9-.25.9-.23a8.56,8.56,0,0,0,3-1.56,5.07,5.07,0,0,1,3-1.27h0a2.48,2.48,0,0,1,2.28,1.33,2.23,2.23,0,0,1,.06,1.75l-.06.12a.29.29,0,0,1,.11.15,2.67,2.67,0,0,1-.13,1.55,2.42,2.42,0,0,1-2.18,1.32Z"/><path class="cls-1" d="M60.22,50.54a2.19,2.19,0,0,1,2,1.19,2,2,0,0,1,.07,1.54h0c-.08,0-.32-.05-.68-.11a3.19,3.19,0,0,0-2.71-1.9h0a2.93,2.93,0,0,1,2.45,1.85h0a18.07,18.07,0,0,0-2.71-.21,10.35,10.35,0,0,0-3.37.49,10.85,10.85,0,0,1,3-.37,14.24,14.24,0,0,1,1.85.12,3.31,3.31,0,0,1-2.66,1.25h-.2a3.08,3.08,0,0,0,.51,0,4.23,4.23,0,0,0,2.69-1.23h0a5.17,5.17,0,0,1,1.9.52,2.41,2.41,0,0,1-.12,1.39,2.17,2.17,0,0,1-1.95,1.17H60.1c-2.34-.11-3-2.08-5.92-2.89,3-.78,3.61-2.74,6-2.82h.09m0-.5h-.1A5.27,5.27,0,0,0,57,51.37a8.1,8.1,0,0,1-2.94,1.51l-1.8.48,1.79.49A8.38,8.38,0,0,1,57,55.4a5.24,5.24,0,0,0,3.11,1.36h.13a2.69,2.69,0,0,0,2.41-1.47,2.82,2.82,0,0,0,.14-1.72.43.43,0,0,0,0-.13,2.48,2.48,0,0,0-.07-1.92A2.7,2.7,0,0,0,60.22,50Z"/></g></g></svg>